<?xml version="1.0" encoding="utf-8"?>
<!-- Generator: Adobe Illustrator 16.0.3, SVG Export Plug-In . SVG Version: 6.00 Build 0)  -->
<!DOCTYPE svg PUBLIC "-//W3C//DTD SVG 1.1//EN" "http://www.w3.org/Graphics/SVG/1.1/DTD/svg11.dtd">
<svg version="1.1" id="Layer_1" xmlns="http://www.w3.org/2000/svg" xmlns:xlink="http://www.w3.org/1999/xlink" x="0px" y="0px"
	 width="229.391px" height="46.585px" viewBox="0 0 229.391 46.585" enable-background="new 0 0 229.391 46.585"
	 xml:space="preserve">
<circle fill="#F1F1F1" cx="185.51" cy="20.607" r="17.352"/>
<circle fill="#F1F2F2" stroke="#FFFFFF" stroke-miterlimit="10" cx="185.6" cy="20.508" r="11.863"/>
<circle fill="#F1F2F2" stroke="#FFFFFF" stroke-miterlimit="10" cx="185.599" cy="20.508" r="5.794"/>
<g>
	<path fill="#D72B28" d="M189.108,18.709"/>
</g>
<g>
	<path fill="#D72B28" d="M186.436,21.379"/>
</g>
<path fill="#D72B28" stroke="#F37E20" stroke-miterlimit="10" stroke-dasharray="1,1.5" d="M190.792,19.282"/>
<path fill="#D72B28" stroke="#F37E20" stroke-miterlimit="10" stroke-dasharray="1,1.5" d="M183.948,23.766"/>
<g enable-background="new    ">
	<path fill="#808285" d="M186.33,25.89h-0.432v-1.199h-0.914v1.199h-0.43v-2.687h0.43v1.124h0.914v-1.124h0.432V25.89z"/>
	<path fill="#808285" d="M188.063,25.89h-0.445v-2.143l-0.686,0.251v-0.387l1.104-0.408h0.027V25.89z"/>
	<path fill="#808285" d="M190.864,25.89h-0.447l-0.874-1.849l-0.002,1.849h-0.448v-2.687h0.448l0.871,1.844l0.003-1.844h0.449V25.89
		z"/>
	<path fill="#808285" d="M192.598,25.89h-0.445v-2.143l-0.686,0.251v-0.387l1.104-0.408h0.027V25.89z"/>
</g>
<g enable-background="new    ">
	<path fill="#808285" d="M185.061,28.125h0.264c0.078,0,0.145-0.01,0.203-0.03c0.058-0.02,0.105-0.049,0.144-0.086
		c0.038-0.036,0.067-0.08,0.086-0.132c0.019-0.051,0.028-0.107,0.028-0.169c0-0.13-0.033-0.23-0.102-0.301
		c-0.068-0.071-0.172-0.106-0.31-0.106c-0.06,0-0.116,0.009-0.167,0.026c-0.051,0.019-0.096,0.044-0.133,0.077
		s-0.066,0.073-0.088,0.12c-0.021,0.046-0.031,0.1-0.031,0.158h-0.441c0-0.105,0.021-0.203,0.064-0.293
		c0.042-0.09,0.102-0.168,0.177-0.233c0.075-0.066,0.166-0.118,0.271-0.155c0.104-0.038,0.219-0.057,0.344-0.057
		c0.126,0,0.242,0.017,0.348,0.049c0.106,0.033,0.197,0.081,0.271,0.146c0.075,0.063,0.134,0.144,0.176,0.238
		c0.041,0.096,0.062,0.206,0.062,0.331c0,0.054-0.008,0.107-0.023,0.163c-0.017,0.055-0.041,0.108-0.074,0.16
		c-0.031,0.052-0.073,0.1-0.123,0.145s-0.108,0.083-0.176,0.114c0.081,0.028,0.148,0.064,0.205,0.108
		c0.055,0.044,0.1,0.094,0.135,0.148c0.033,0.055,0.059,0.113,0.073,0.177c0.015,0.062,0.022,0.126,0.022,0.191
		c0,0.126-0.023,0.237-0.068,0.336c-0.046,0.099-0.109,0.181-0.189,0.248s-0.176,0.118-0.285,0.153s-0.228,0.053-0.354,0.053
		c-0.117,0-0.229-0.017-0.334-0.048c-0.106-0.032-0.199-0.08-0.28-0.144s-0.145-0.142-0.192-0.236
		c-0.049-0.094-0.072-0.203-0.072-0.327h0.441c0,0.059,0.01,0.113,0.031,0.163c0.021,0.05,0.051,0.093,0.09,0.128
		c0.038,0.035,0.084,0.062,0.139,0.082s0.115,0.029,0.183,0.029c0.14,0,0.251-0.037,0.331-0.111c0.08-0.075,0.121-0.183,0.121-0.324
		c0-0.077-0.012-0.145-0.035-0.2s-0.057-0.103-0.101-0.139s-0.097-0.062-0.157-0.08c-0.062-0.018-0.131-0.025-0.209-0.025h-0.264
		V28.125z"/>
	<path fill="#808285" d="M188.323,28.714h0.338v0.356h-0.338v0.598h-0.441v-0.598h-1.166l-0.011-0.268l1.163-1.821h0.455V28.714z
		 M187.158,28.714h0.723v-1.144l-0.047,0.087L187.158,28.714z"/>
	<path fill="#808285" d="M189.766,28.347c0-0.034,0.006-0.066,0.018-0.097s0.027-0.057,0.049-0.078
		c0.021-0.022,0.049-0.04,0.081-0.052c0.032-0.013,0.067-0.019,0.108-0.019s0.077,0.006,0.109,0.019
		c0.031,0.012,0.059,0.029,0.081,0.052c0.022,0.021,0.039,0.048,0.051,0.078s0.018,0.062,0.018,0.097s-0.006,0.066-0.018,0.096
		c-0.012,0.03-0.028,0.056-0.051,0.078c-0.022,0.021-0.05,0.039-0.081,0.052c-0.032,0.012-0.068,0.019-0.109,0.019
		s-0.076-0.007-0.108-0.019c-0.032-0.013-0.06-0.03-0.081-0.052c-0.021-0.022-0.037-0.048-0.049-0.078
		C189.772,28.414,189.766,28.381,189.766,28.347z"/>
	<path fill="#808285" d="M193.115,29.668h-1.804v-0.305l0.874-0.954c0.074-0.082,0.137-0.155,0.186-0.218
		c0.051-0.063,0.09-0.122,0.119-0.175s0.051-0.103,0.062-0.147c0.013-0.046,0.02-0.092,0.02-0.139c0-0.062-0.01-0.118-0.029-0.171
		c-0.02-0.052-0.046-0.097-0.081-0.135c-0.035-0.037-0.077-0.066-0.128-0.087c-0.049-0.021-0.105-0.031-0.166-0.031
		c-0.16,0-0.278,0.043-0.354,0.131c-0.076,0.087-0.113,0.208-0.113,0.361h-0.443c0-0.117,0.021-0.228,0.064-0.331
		c0.041-0.104,0.103-0.194,0.182-0.272c0.08-0.077,0.176-0.139,0.289-0.184s0.24-0.067,0.382-0.067c0.133,0,0.251,0.02,0.354,0.058
		s0.19,0.091,0.262,0.159s0.125,0.149,0.162,0.243c0.037,0.093,0.056,0.196,0.056,0.308c0,0.084-0.013,0.165-0.04,0.243
		s-0.064,0.155-0.113,0.233c-0.048,0.077-0.105,0.155-0.172,0.233s-0.138,0.158-0.215,0.24l-0.609,0.653h1.256V29.668z"/>
	<path fill="#808285" d="M195.397,28.646c0,0.174-0.02,0.326-0.061,0.459c-0.039,0.132-0.098,0.243-0.172,0.332
		c-0.075,0.089-0.167,0.156-0.275,0.202c-0.107,0.045-0.229,0.068-0.365,0.068c-0.134,0-0.255-0.023-0.363-0.068
		c-0.108-0.046-0.2-0.113-0.275-0.202c-0.076-0.089-0.135-0.2-0.176-0.332c-0.041-0.133-0.062-0.285-0.062-0.459v-0.642
		c0-0.174,0.021-0.326,0.061-0.459c0.04-0.132,0.099-0.243,0.175-0.332c0.075-0.089,0.167-0.156,0.274-0.202
		c0.108-0.045,0.229-0.068,0.362-0.068c0.136,0,0.258,0.023,0.365,0.068c0.109,0.046,0.201,0.113,0.276,0.202s0.134,0.2,0.175,0.332
		c0.04,0.133,0.061,0.285,0.061,0.459V28.646z M194.09,28.478l0.859-0.64c-0.01-0.184-0.049-0.319-0.12-0.407
		s-0.174-0.132-0.31-0.132c-0.144,0-0.251,0.051-0.322,0.153c-0.071,0.102-0.107,0.259-0.107,0.471V28.478z M194.953,28.185
		l-0.859,0.641c0.021,0.352,0.166,0.527,0.43,0.527c0.287,0,0.43-0.21,0.43-0.629V28.185z"/>
	<path fill="#808285" d="M196.301,29.303c0.16,0,0.295-0.019,0.403-0.057c0.108-0.037,0.197-0.089,0.265-0.155
		c0.068-0.066,0.117-0.146,0.15-0.235c0.033-0.091,0.053-0.188,0.062-0.295c-0.027,0.031-0.059,0.06-0.094,0.086
		s-0.074,0.05-0.118,0.07s-0.092,0.036-0.144,0.048c-0.053,0.012-0.109,0.018-0.173,0.018c-0.132,0-0.246-0.024-0.343-0.074
		c-0.098-0.05-0.178-0.116-0.242-0.199c-0.064-0.084-0.111-0.179-0.143-0.287s-0.047-0.222-0.047-0.34
		c0-0.129,0.019-0.251,0.057-0.364c0.038-0.114,0.094-0.213,0.168-0.298s0.164-0.152,0.271-0.201c0.108-0.05,0.23-0.074,0.369-0.074
		c0.148,0,0.277,0.029,0.389,0.089c0.109,0.059,0.201,0.139,0.274,0.238s0.128,0.215,0.164,0.348
		c0.036,0.132,0.055,0.271,0.055,0.418v0.144c0,0.128-0.009,0.254-0.024,0.378c-0.018,0.123-0.045,0.24-0.086,0.352
		c-0.039,0.111-0.093,0.214-0.158,0.308c-0.066,0.094-0.148,0.175-0.246,0.242c-0.098,0.068-0.213,0.122-0.346,0.161
		c-0.135,0.038-0.288,0.058-0.463,0.058h-0.035v-0.376H196.301z M196.744,28.434c0.051,0,0.098-0.008,0.145-0.024
		c0.046-0.016,0.088-0.038,0.127-0.066c0.037-0.028,0.071-0.062,0.102-0.102c0.029-0.039,0.053-0.082,0.069-0.129v-0.146
		c0-0.108-0.012-0.204-0.036-0.287c-0.023-0.083-0.057-0.152-0.097-0.208c-0.04-0.057-0.087-0.099-0.142-0.127
		c-0.053-0.028-0.109-0.042-0.168-0.042c-0.069,0-0.131,0.015-0.184,0.044s-0.098,0.07-0.133,0.121
		c-0.037,0.051-0.064,0.111-0.084,0.18c-0.019,0.069-0.027,0.143-0.027,0.222c0,0.073,0.008,0.145,0.025,0.212
		s0.043,0.128,0.078,0.18c0.035,0.053,0.08,0.095,0.134,0.126S196.672,28.434,196.744,28.434z"/>
</g>
<g>
	
		<linearGradient id="SVGID_1_" gradientUnits="userSpaceOnUse" x1="-327.6794" y1="129.7153" x2="-323.3458" y2="127.9147" gradientTransform="matrix(0.7071 -0.7071 -0.7071 -0.7071 502.8182 -126.3955)">
		<stop  offset="0" style="stop-color:#FFFFFF;stop-opacity:0"/>
		<stop  offset="0.8094" style="stop-color:#FFFFFF;stop-opacity:0.7746"/>
		<stop  offset="1" style="stop-color:#FFFFFF"/>
	</linearGradient>
	<path fill="url(#SVGID_1_)" d="M185.444,20.846l-1.071-17.907c0,0-3.884,0.055-7.021,1.822c-3.141,1.77-6.01,4.376-6.01,4.376
		L185.444,20.846z"/>
	<line fill="none" stroke="#FFFFFF" stroke-miterlimit="10" x1="185.444" y1="20.846" x2="184.272" y2="3.553"/>
</g>
<g>
	<path fill="#555655" d="M140.034,38.173V2.746h12.305c7.354,0,10.705,5.729,10.705,11.054c0,5.324-3.351,11.054-10.705,11.054
		h-11.131v13.321h-1.174V38.173z M152.338,23.729c6.582,0,9.58-5.134,9.58-9.904c0-4.771-2.998-9.904-9.58-9.904h-11.131v19.808
		H152.338z"/>
	<path fill="#555655" d="M140.219,2.932h0.4h11.719c14.022,0,14.022,21.733,0,21.733H141.02v13.32h-0.801
		c0-11.568,0-23.086,0-34.654V2.932L140.219,2.932z M152.338,23.916c13.021,0,13.021-20.183,0-20.183H141.02v20.183H152.338z"/>
	<path fill="#555655" d="M185.387,38.673c-4.799,0-9.447-1.955-12.754-5.364c-3.424-3.479-5.312-8.042-5.312-12.85
		c0-4.807,1.888-9.371,5.312-12.851c3.305-3.409,7.953-5.364,12.752-5.364c4.85,0,9.396,1.905,12.803,5.364
		c3.426,3.479,5.312,8.043,5.312,12.851c0,4.809-1.888,9.373-5.312,12.852C194.784,36.77,190.237,38.673,185.387,38.673z
		 M185.387,3.419c-4.49,0-8.729,1.794-11.936,5.052c-3.195,3.248-4.955,7.505-4.955,11.988s1.76,8.74,4.955,11.988
		c3.207,3.258,7.444,5.053,11.936,5.053c4.523,0,8.779-1.795,11.986-5.053c3.162-3.215,4.903-7.473,4.903-11.988
		c0-4.517-1.741-8.774-4.903-11.988C194.167,5.214,189.911,3.419,185.387,3.419z"/>
	<path fill="#555655" d="M172.768,7.74c3.205-3.305,7.711-5.309,12.619-5.309c4.959,0,9.416,2.003,12.67,5.309
		c3.205,3.255,5.258,7.762,5.258,12.72c0,4.958-2.053,9.465-5.258,12.721c-3.254,3.305-7.711,5.309-12.67,5.309
		c-4.908,0-9.414-2.004-12.619-5.309c-3.205-3.256-5.258-7.764-5.258-12.721C167.51,15.502,169.563,10.995,172.768,7.74z
		 M197.506,8.341c-3.104-3.155-7.412-5.108-12.119-5.108s-8.963,1.953-12.068,5.108c-3.055,3.104-5.008,7.361-5.008,12.119
		c0,4.758,1.953,9.014,5.008,12.12c3.105,3.153,7.361,5.106,12.068,5.106s9.016-1.953,12.119-5.106
		c3.055-3.105,4.957-7.361,4.957-12.12C202.463,15.702,200.561,11.445,197.506,8.341z"/>
	<polygon fill="#555655" points="216.147,38.326 216.147,3.92 204.028,3.92 204.028,2.746 229.391,2.746 229.391,3.92 217.272,3.92 
		217.272,38.326 	"/>
	<path fill="#555655" d="M216.334,38.137V3.733h-12.119V2.932h24.988v0.801h-12.119v34.404H216.334z"/>
</g>
<g>
	<g>
		<g>
			<path fill="#D62B27" d="M182.979,20.909c-0.356,0-0.649,0.283-0.67,0.639c-0.154,0.072-0.34,0.16-0.461,0.216
				c-0.141-0.335-0.358-0.629-0.633-0.86c0.07-0.104,0.172-0.262,0.238-0.364c0.293-0.004,0.53-0.246,0.53-0.542
				c0-0.301-0.241-0.544-0.539-0.544c-0.297,0-0.538,0.243-0.538,0.544c0,0.146,0.057,0.279,0.151,0.377
				c-0.021,0.101-0.053,0.242-0.076,0.356c-0.377-0.243-0.821-0.366-1.27-0.354c0.01-0.089,0.014-0.192,0.02-0.25
				c0.101-0.07,0.166-0.186,0.166-0.318c0-0.214-0.172-0.386-0.383-0.386s-0.381,0.172-0.381,0.386c0,0.147,0.082,0.276,0.205,0.34
				c0.021,0.066,0.055,0.168,0.082,0.254c-0.379,0.062-0.726,0.218-1.017,0.444c-0.084-0.13-0.206-0.314-0.254-0.39
				c0.019-0.05,0.025-0.104,0.025-0.159c0-0.288-0.23-0.521-0.516-0.521c-0.286,0-0.519,0.233-0.519,0.521s0.232,0.521,0.519,0.521
				c0.059,0,0.112-0.011,0.164-0.028c0.096,0.063,0.254,0.169,0.364,0.245c-0.293,0.295-0.506,0.67-0.604,1.09
				c-0.117-0.05-0.275-0.116-0.326-0.139c-0.055-0.194-0.23-0.336-0.441-0.336c-0.252,0-0.457,0.207-0.457,0.462
				c0,0.254,0.205,0.461,0.457,0.461c0.144,0,0.271-0.066,0.355-0.17c0.074,0,0.244,0.001,0.365,0.001
				c-0.06,0.544,0.078,1.099,0.389,1.551l-0.516,0.151c-0.107-0.082-0.238-0.13-0.384-0.13c-0.354,0-0.643,0.289-0.643,0.646
				c0,0.356,0.287,0.646,0.643,0.646c0.354,0,0.642-0.289,0.642-0.646c0-0.004-0.002-0.008-0.002-0.013l0.459-0.405
				c0.311,0.338,0.721,0.582,1.182,0.681c-0.024,0.104-0.059,0.243-0.074,0.312c-0.116,0.062-0.194,0.184-0.194,0.324
				c0,0.202,0.162,0.366,0.362,0.366c0.199,0,0.361-0.164,0.361-0.366c0-0.115-0.053-0.221-0.139-0.287
				c-0.008-0.068-0.025-0.199-0.039-0.309c0.444,0.037,0.891-0.059,1.278-0.274c0.082,0.16,0.214,0.429,0.259,0.515
				c-0.027,0.063-0.045,0.135-0.045,0.211c0,0.281,0.227,0.512,0.506,0.512c0.28,0,0.51-0.23,0.51-0.512
				c0-0.285-0.229-0.514-0.51-0.514c-0.013,0-0.025,0.002-0.037,0.002c-0.137-0.115-0.318-0.271-0.441-0.371
				c0.316-0.233,0.566-0.549,0.729-0.914c0.074,0.027,0.166,0.059,0.231,0.081c0.043,0.184,0.205,0.321,0.402,0.321
				c0.227,0,0.41-0.188,0.41-0.417c0-0.23-0.185-0.417-0.41-0.417c-0.133,0-0.25,0.062-0.326,0.16c-0.059,0-0.141,0.002-0.211,0.003
				c0.123-0.415,0.127-0.861,0.01-1.278c0.148-0.007,0.354-0.02,0.506-0.028c0.125,0.158,0.316,0.261,0.531,0.261
				c0.371,0,0.674-0.305,0.674-0.68C183.653,21.213,183.35,20.909,182.979,20.909z"/>
		</g>
	</g>
	
		<line fill="none" stroke="#D62B27" stroke-miterlimit="10" stroke-dasharray="1,1.5" x1="185.344" y1="13.55" x2="181.959" y2="18.83"/>
</g>
<g>
	<path fill="#555655" d="M0,46.585l1.994-13.412v-0.139L3.228,24.8l0.041-0.125L4.2,18.501l0.855-0.061h0.079l-0.319,3.402
		c0.834-1.135,1.858-2.046,3.046-2.711c1.265-0.707,2.71-1.065,4.298-1.065c2.297,0,4.031,0.974,5.155,2.896
		c1.119,1.912,1.445,4.489,0.973,7.655l-0.057,0.393c-0.485,3.227-1.542,5.759-3.14,7.525c-1.603,1.771-3.633,2.668-6.035,2.668
		c-1.526,0-2.853-0.328-3.943-0.974c-1.023-0.606-1.815-1.414-2.354-2.401L1.155,46.585H0z M12.028,19.219
		c-1.818,0-3.366,0.486-4.601,1.443c-1.238,0.96-2.222,2.153-2.924,3.544l-1.433,9.605c0.305,1.271,0.979,2.316,2,3.082
		c1.023,0.766,2.422,1.154,4.154,1.154c2.012,0,3.735-0.832,5.123-2.471c1.394-1.646,2.306-3.863,2.713-6.592l0.057-0.393
		c0.419-2.875,0.204-5.184-0.639-6.864C15.642,20.064,14.145,19.219,12.028,19.219z"/>
	<path fill="#555655" d="M18.16,29c-0.486,3.228-1.527,5.723-3.122,7.485c-1.597,1.765-3.589,2.646-5.982,2.646
		c-1.521,0-2.822-0.32-3.907-0.963c-1.084-0.642-1.895-1.498-2.43-2.57L1.093,46.514h-1.01l1.98-13.328v-0.149l1.234-8.226
		l0.038-0.11l0.935-6.188h0.785L4.72,22.101c0.86-1.233,1.919-2.202,3.178-2.907c1.258-0.704,2.68-1.056,4.263-1.056
		c2.28,0,3.979,0.954,5.094,2.86c1.115,1.906,1.436,4.442,0.963,7.608L18.16,29z M17.188,28.606
		c0.424-2.903,0.208-5.206-0.645-6.907c-0.854-1.701-2.358-2.551-4.515-2.551c-1.844,0-3.393,0.486-4.645,1.458
		S5.15,22.768,4.44,24.175L3,33.802c0.311,1.32,0.986,2.371,2.027,3.148c1.041,0.779,2.439,1.17,4.197,1.17
		c2.043,0,3.771-0.832,5.178-2.496c1.408-1.664,2.318-3.873,2.729-6.627L17.188,28.606z"/>
	<path fill="#555655" d="M28.598,39.203c-1.82,0-3.229-0.533-4.194-1.584c-0.964-1.054-1.318-2.466-1.055-4.199
		c0.251-1.771,1.278-3.238,3.051-4.359c1.768-1.117,3.896-1.684,6.329-1.684h5.757l0.377-2.894c0.258-1.712-0.072-3.031-0.979-3.92
		c-0.91-0.892-2.362-1.344-4.314-1.344c-1.733,0-3.255,0.445-4.52,1.324c-1.261,0.875-2.005,2.006-2.213,3.363l-0.916,0.024
		l-0.058-0.003l-0.029-0.147c0.175-1.655,0.999-3.027,2.449-4.101c1.444-1.07,3.273-1.612,5.436-1.612
		c2.103,0,3.771,0.566,4.957,1.684c1.19,1.121,1.641,2.733,1.34,4.792l-1.514,10.131c-0.112,0.732-0.182,1.435-0.206,2.086
		c-0.024,0.652,0.013,1.314,0.112,1.97l0.012,0.082h-1.275l-0.001-0.069c-0.024-1.05-0.034-1.754-0.027-2.115
		c0.005-0.358,0.047-0.803,0.121-1.317l0.004-0.024c-0.859,1.125-2.007,2.057-3.414,2.771
		C32.328,38.815,30.568,39.203,28.598,39.203z M32.617,28.546c-1.997,0-3.824,0.486-5.432,1.447c-1.6,0.957-2.51,2.141-2.704,3.521
		c-0.208,1.379,0.075,2.493,0.842,3.313c0.767,0.822,1.918,1.238,3.424,1.238c1.91,0,3.655-0.445,5.188-1.326
		c1.532-0.881,2.759-2.139,3.646-3.738l0.671-4.455H32.617z"/>
	<path fill="#555655" d="M37.346,35.018c-0.873,1.222-2.056,2.211-3.552,2.972c-1.495,0.76-3.229,1.141-5.196,1.141
		c-1.807,0-3.187-0.521-4.141-1.562c-0.953-1.04-1.299-2.42-1.037-4.142c0.249-1.756,1.255-3.192,3.019-4.309
		c1.764-1.115,3.86-1.673,6.29-1.673h5.757l0.449-2.952c0.262-1.746-0.072-3.073-1-3.983c-0.928-0.909-2.383-1.364-4.365-1.364
		c-1.757,0-3.277,0.445-4.561,1.336c-1.284,0.891-2.031,2.028-2.243,3.411l-0.841-0.037l-0.02-0.093
		c0.175-1.62,0.981-2.963,2.422-4.028c1.438-1.066,3.236-1.599,5.393-1.599c2.094,0,3.729,0.555,4.907,1.664
		c1.177,1.109,1.617,2.686,1.317,4.729L38.43,34.664c-0.112,0.734-0.181,1.434-0.206,2.094c-0.024,0.66,0.013,1.32,0.112,1.979
		h-1.122c-0.025-1.047-0.034-1.75-0.028-2.11c0.006-0.361,0.047-0.799,0.122-1.31L37.346,35.018z M28.747,38.139
		c1.932,0,3.673-0.445,5.225-1.337c1.552-0.891,2.776-2.145,3.673-3.768l0.691-4.561h-5.72c-2.02,0-3.842,0.486-5.469,1.458
		s-2.54,2.161-2.737,3.569c-0.213,1.408,0.074,2.533,0.859,3.375S27.214,38.139,28.747,38.139z"/>
	<path fill="#555655" d="M51.392,39.203c-1.328,0-2.31-0.463-2.92-1.377c-0.605-0.91-0.76-2.361-0.46-4.313l2.082-13.899h-3.738
		l0.161-1.11l3.811-0.062l0.751-5.397l1.1-0.061h0.083l-0.823,5.458h4.974l-0.162,1.11l-5.043,0.062l-2.022,13.922
		c-0.258,1.693-0.165,2.883,0.278,3.537c0.438,0.648,1.119,0.979,2.023,0.979c0.322,0,0.625-0.012,0.91-0.037
		c0.286-0.023,0.646-0.067,1.081-0.131l0.077-0.012l0.062,0.994c-0.394,0.174-0.736,0.244-1.074,0.281
		C52.201,39.183,51.818,39.203,51.392,39.203z"/>
	<path fill="#555655" d="M52.177,13.054l-0.823,5.458h4.974l-0.15,1.028h-4.972l-2.094,13.982c-0.262,1.72-0.166,2.916,0.29,3.589
		c0.455,0.674,1.149,1.01,2.084,1.01c0.324,0,0.63-0.013,0.916-0.037c0.287-0.024,0.648-0.068,1.084-0.131l0.057,0.916
		c-0.337,0.1-0.673,0.168-1.01,0.205c-0.337,0.038-0.718,0.057-1.141,0.057c-1.309,0-2.262-0.448-2.859-1.346
		c-0.599-0.896-0.748-2.318-0.449-4.263l2.094-13.982h-3.739l0.149-1.028h3.739l0.821-5.458H52.177z"/>
	<path fill="#555655" d="M73.485,38.809l1.863-12.42c0.406-2.733,0.213-4.632-0.574-5.646c-0.786-1.011-2.016-1.523-3.653-1.523
		c-2.04,0-3.77,0.648-5.139,1.925c-1.374,1.282-2.39,2.925-3.019,4.886L61.06,38.75l-1.081,0.061h-0.083l1.553-10.359l-0.025-0.076
		c0.025-0.201,0.056-0.406,0.094-0.611c0.038-0.208,0.082-0.411,0.132-0.612l2.635-17.583l1.08-0.061h0.083l-1.921,12.757
		c0.822-1.303,1.858-2.323,3.083-3.037c1.319-0.77,2.883-1.16,4.645-1.16c2.046,0,3.56,0.693,4.499,2.06
		c0.934,1.361,1.192,3.488,0.769,6.322L74.661,38.81L73.485,38.809L73.485,38.809z"/>
	<path fill="#555655" d="M63.4,22.605c0.848-1.445,1.929-2.552,3.243-3.318c1.314-0.767,2.852-1.15,4.608-1.15
		c2.031,0,3.511,0.676,4.438,2.028c0.929,1.353,1.181,3.443,0.757,6.272l-1.851,12.299h-1.028L75.419,26.4
		c0.411-2.766,0.215-4.667-0.589-5.701c-0.805-1.034-2.041-1.551-3.71-1.551c-2.069,0-3.799,0.648-5.188,1.944
		c-1.39,1.296-2.402,2.935-3.038,4.916l-1.907,12.729h-1.009l1.551-10.354h-0.036c0.024-0.199,0.056-0.402,0.093-0.607
		c0.038-0.205,0.081-0.408,0.131-0.607l2.636-17.589h1.009L63.4,22.605z"/>
	<path fill="#555655" d="M90.082,39.203c-2.542,0-4.553-0.97-5.975-2.879c-1.42-1.908-1.912-4.369-1.462-7.316l0.112-0.785
		c0.461-3.08,1.657-5.568,3.554-7.396c1.899-1.831,4.211-2.759,6.873-2.759c2.542,0,4.545,0.969,5.956,2.88
		c1.407,1.908,1.899,4.363,1.461,7.296l-0.111,0.785c-0.475,3.092-1.674,5.588-3.563,7.416
		C95.034,38.274,92.731,39.203,90.082,39.203z M93.035,19.219c-2.25,0-4.265,0.905-5.986,2.688c-1.726,1.788-2.782,3.918-3.14,6.334
		l-0.112,0.785c-0.396,2.6-0.019,4.777,1.119,6.473c1.133,1.691,2.921,2.549,5.314,2.549c2.237,0,4.239-0.893,5.948-2.651
		c1.713-1.763,2.776-3.912,3.159-6.392l0.112-0.784c0.382-2.537-0.005-4.696-1.147-6.417C97.164,20.089,95.391,19.219,93.035,19.219
		z"/>
	<path fill="#555655" d="M82.829,28.232c0.461-3.076,1.638-5.53,3.532-7.355c1.895-1.826,4.168-2.739,6.823-2.739
		c2.53,0,4.496,0.951,5.898,2.851c1.401,1.9,1.885,4.313,1.447,7.243l-0.111,0.785c-0.475,3.091-1.654,5.549-3.542,7.374
		c-1.889,1.825-4.153,2.737-6.795,2.737c-2.53,0-4.502-0.948-5.916-2.85c-1.415-1.9-1.897-4.32-1.449-7.263L82.829,28.232z
		 M83.726,29.017c-0.398,2.63-0.021,4.804,1.131,6.523c1.153,1.719,2.944,2.58,5.375,2.58c2.269,0,4.269-0.893,6-2.674
		c1.732-1.781,2.792-3.926,3.179-6.431l0.111-0.785c0.387-2.567,0-4.723-1.159-6.468c-1.158-1.745-2.935-2.617-5.327-2.617
		c-2.28,0-4.293,0.903-6.038,2.71s-2.798,3.933-3.159,6.374L83.726,29.017z"/>
</g>
<g>
	<path fill="#F1F1F1" d="M108.078,38.166c0-2.283,8.562-5.328,13.288-6.926c2.208-0.746,4.812-1.791,6.961-2.927V28.31
		c2.511,1.283,4.311,2.764,4.311,4.525c0,3.111-1.863,3.73-2.672,4.568c0,0-8.119,3.855-8.26,3.905L108.078,38.166z"/>
	<path fill="#F1F1F1" d="M128.327,28.3c2.451-1.295,4.311-2.707,4.311-3.922c0-2.282-2.543-2.741-11.271-5.939
		c-4.607-1.688-8.403-2.93-10.961-4.365l0,0c-2.164,1.305-3.581,2.598-3.581,3.68c0,2.512,5.453,4.572,11.271,6.625
		c3.174,1.121,7.216,2.377,10.232,3.92L128.327,28.3L128.327,28.3z"/>
	<path fill="#F1F1F1" d="M110.405,14.074c-2.284-1.283-3.58-2.72-3.58-4.768c0-4.339,14.542-8.763,14.542-8.763l11.271,4.196
		c0,0-4.363,2.284-11.271,4.567C117.434,10.606,113.266,12.349,110.405,14.074z"/>
</g>
<linearGradient id="SVGID_2_" gradientUnits="userSpaceOnUse" x1="111.5168" y1="32.981" x2="133.5157" y2="23.8403" gradientTransform="matrix(1 0 0 -1 0 47.585)">
	<stop  offset="0" style="stop-color:#555655"/>
	<stop  offset="0.0375" style="stop-color:#686766"/>
	<stop  offset="0.1149" style="stop-color:#8F8C8C"/>
	<stop  offset="0.1896" style="stop-color:#B4B1B1"/>
	<stop  offset="0.2597" style="stop-color:#D0CFCF"/>
	<stop  offset="0.3234" style="stop-color:#E5E5E5"/>
	<stop  offset="0.3749" style="stop-color:#EEEEEE"/>
	<stop  offset="0.4635" style="stop-color:#E6E5E5"/>
	<stop  offset="0.5685" style="stop-color:#D2D1D1"/>
	<stop  offset="0.6818" style="stop-color:#B6B4B4"/>
	<stop  offset="0.8011" style="stop-color:#939090"/>
	<stop  offset="0.9236" style="stop-color:#6D6B6B"/>
	<stop  offset="1" style="stop-color:#555655"/>
</linearGradient>
<path fill="none" stroke="url(#SVGID_2_)" stroke-width="1.2" stroke-miterlimit="10" d="M111.52,14.684
	c2.493,1.205,5.868,2.33,9.849,3.787c8.725,3.197,11.27,3.658,11.27,5.94"/>
<linearGradient id="SVGID_3_" gradientUnits="userSpaceOnUse" x1="111.5198" y1="32.9009" x2="111.5198" y2="32.9009" gradientTransform="matrix(1 0 0 -1 0 47.585)">
	<stop  offset="0" style="stop-color:#333333"/>
	<stop  offset="0.0655" style="stop-color:#565353"/>
	<stop  offset="0.1433" style="stop-color:#827E7E"/>
	<stop  offset="0.2188" style="stop-color:#ABA8A8"/>
	<stop  offset="0.2901" style="stop-color:#CCCBCB"/>
	<stop  offset="0.3557" style="stop-color:#E4E3E3"/>
	<stop  offset="0.41" style="stop-color:#EEEEEE"/>
	<stop  offset="0.4881" style="stop-color:#E3E3E3"/>
	<stop  offset="0.5825" style="stop-color:#CCCBCB"/>
	<stop  offset="0.6853" style="stop-color:#ABA8A8"/>
	<stop  offset="0.794" style="stop-color:#827E7E"/>
	<stop  offset="0.9062" style="stop-color:#565353"/>
	<stop  offset="1" style="stop-color:#333333"/>
</linearGradient>
<path fill="none" stroke="url(#SVGID_3_)" stroke-width="1.2" stroke-miterlimit="10" d="M111.52,14.684"/>
<linearGradient id="SVGID_4_" gradientUnits="userSpaceOnUse" x1="109.2375" y1="34.7983" x2="109.2375" y2="34.7983" gradientTransform="matrix(1 0 0 -1 0 47.585)">
	<stop  offset="0" style="stop-color:#333333"/>
	<stop  offset="0.0655" style="stop-color:#565353"/>
	<stop  offset="0.1433" style="stop-color:#827E7E"/>
	<stop  offset="0.2188" style="stop-color:#ABA8A8"/>
	<stop  offset="0.2901" style="stop-color:#CCCBCB"/>
	<stop  offset="0.3557" style="stop-color:#E4E3E3"/>
	<stop  offset="0.41" style="stop-color:#EEEEEE"/>
	<stop  offset="0.4881" style="stop-color:#E3E3E3"/>
	<stop  offset="0.5825" style="stop-color:#CCCBCB"/>
	<stop  offset="0.6853" style="stop-color:#ABA8A8"/>
	<stop  offset="0.794" style="stop-color:#827E7E"/>
	<stop  offset="0.9062" style="stop-color:#565353"/>
	<stop  offset="1" style="stop-color:#333333"/>
</linearGradient>
<path fill="none" stroke="url(#SVGID_4_)" stroke-width="1.2" stroke-miterlimit="10" d="M109.238,12.787"/>
<path fill="none" stroke="#555655" stroke-width="1.2" stroke-miterlimit="10" d="M106.824,8.751c0,1.668,0.858,2.931,2.413,4.036"
	/>
<path fill="none" stroke="#555655" stroke-width="1.2" stroke-miterlimit="10" d="M129.556,29.011
	c1.849,1.119,3.081,2.387,3.081,3.845"/>
<linearGradient id="SVGID_5_" gradientUnits="userSpaceOnUse" x1="129.5559" y1="18.5737" x2="129.5559" y2="18.5737" gradientTransform="matrix(1 0 0 -1 0 47.585)">
	<stop  offset="0" style="stop-color:#333333"/>
	<stop  offset="0.0554" style="stop-color:#535050"/>
	<stop  offset="0.1288" style="stop-color:#7F7B7B"/>
	<stop  offset="0.1995" style="stop-color:#A9A6A6"/>
	<stop  offset="0.2658" style="stop-color:#CBCACA"/>
	<stop  offset="0.3261" style="stop-color:#E3E2E3"/>
	<stop  offset="0.3749" style="stop-color:#EEEEEE"/>
	<stop  offset="0.4589" style="stop-color:#E4E3E3"/>
	<stop  offset="0.5585" style="stop-color:#CDCBCB"/>
	<stop  offset="0.666" style="stop-color:#ACA9A9"/>
	<stop  offset="0.7791" style="stop-color:#848080"/>
	<stop  offset="0.8953" style="stop-color:#585655"/>
	<stop  offset="1" style="stop-color:#333333"/>
</linearGradient>
<path fill="none" stroke="url(#SVGID_5_)" stroke-width="1.2" stroke-miterlimit="10" d="M129.556,29.011"/>
<linearGradient id="SVGID_6_" gradientUnits="userSpaceOnUse" x1="126.6702" y1="20.0347" x2="126.6702" y2="20.0347" gradientTransform="matrix(1 0 0 -1 0 47.585)">
	<stop  offset="0" style="stop-color:#333333"/>
	<stop  offset="0.0554" style="stop-color:#535050"/>
	<stop  offset="0.1288" style="stop-color:#7F7B7B"/>
	<stop  offset="0.1995" style="stop-color:#A9A6A6"/>
	<stop  offset="0.2658" style="stop-color:#CBCACA"/>
	<stop  offset="0.3261" style="stop-color:#E3E2E3"/>
	<stop  offset="0.3749" style="stop-color:#EEEEEE"/>
	<stop  offset="0.4589" style="stop-color:#E4E3E3"/>
	<stop  offset="0.5585" style="stop-color:#CDCBCB"/>
	<stop  offset="0.666" style="stop-color:#ACA9A9"/>
	<stop  offset="0.7791" style="stop-color:#848080"/>
	<stop  offset="0.8953" style="stop-color:#585655"/>
	<stop  offset="1" style="stop-color:#333333"/>
</linearGradient>
<path fill="none" stroke="url(#SVGID_6_)" stroke-width="1.2" stroke-miterlimit="10" d="M126.67,27.55"/>
<linearGradient id="SVGID_7_" gradientUnits="userSpaceOnUse" x1="105.8596" y1="28.9194" x2="126.765" y2="20.233" gradientTransform="matrix(1 0 0 -1 0 47.585)">
	<stop  offset="0" style="stop-color:#555655"/>
	<stop  offset="0.0375" style="stop-color:#686766"/>
	<stop  offset="0.1149" style="stop-color:#8F8C8C"/>
	<stop  offset="0.1896" style="stop-color:#B4B1B1"/>
	<stop  offset="0.2597" style="stop-color:#D0CFCF"/>
	<stop  offset="0.3234" style="stop-color:#E5E5E5"/>
	<stop  offset="0.3749" style="stop-color:#EEEEEE"/>
	<stop  offset="0.4635" style="stop-color:#E6E5E5"/>
	<stop  offset="0.5685" style="stop-color:#D2D1D1"/>
	<stop  offset="0.6818" style="stop-color:#B6B4B4"/>
	<stop  offset="0.8011" style="stop-color:#939090"/>
	<stop  offset="0.9236" style="stop-color:#6D6B6B"/>
	<stop  offset="1" style="stop-color:#555655"/>
</linearGradient>
<path fill="none" stroke="url(#SVGID_7_)" stroke-width="1.2" stroke-miterlimit="10" d="M106.824,17.787
	c0,2.512,5.453,4.571,11.27,6.625c2.623,0.926,5.838,1.942,8.576,3.139"/>
<g opacity="0.7">
	<line fill="none" stroke="#F47E20" stroke-width="1.2" stroke-miterlimit="10" x1="127.002" y1="2.672" x2="132.637" y2="4.771"/>
	<line fill="none" stroke="#D62C28" stroke-width="1.2" stroke-miterlimit="10" x1="121.368" y1="0.574" x2="127.002" y2="2.672"/>
	<line fill="none" stroke="#F9ED32" stroke-width="1.2" stroke-miterlimit="10" x1="121.707" y1="4.91" x2="129.563" y2="6.097"/>
	<line fill="none" stroke="#2DA048" stroke-width="1.2" stroke-miterlimit="10" x1="113.851" y1="3.725" x2="121.707" y2="4.91"/>
	<line fill="none" stroke="#2DA048" stroke-width="1.2" stroke-miterlimit="10" x1="117.106" y1="7.758" x2="127.002" y2="7.282"/>
	<line fill="none" stroke="#F9ED32" stroke-width="1.2" stroke-miterlimit="10" x1="107.21" y1="8.234" x2="117.106" y2="7.758"/>
	<line fill="none" stroke="#F47E20" stroke-width="1.2" stroke-miterlimit="10" x1="112.792" y1="11.472" x2="118.38" y2="10.397"/>
	
		<line fill="none" stroke="#D62C28" stroke-width="1.2" stroke-miterlimit="10" x1="108.079" y1="12.377" x2="112.792" y2="11.472"/>
	<path fill="none" stroke="#F47E20" stroke-width="1.2" stroke-miterlimit="10" d="M113.851,15.699"/>
	<path fill="none" stroke="#F47E20" stroke-width="1.2" stroke-miterlimit="10" d="M113.54,14.147"/>
	<path fill="none" stroke="#D62C28" stroke-width="1.2" stroke-miterlimit="10" d="M113.54,14.147"/>
	<path fill="none" stroke="#D62C28" stroke-width="1.2" stroke-miterlimit="10" d="M113.229,12.597"/>
	
		<line fill="none" stroke="#F9ED32" stroke-width="1.2" stroke-miterlimit="10" x1="113.851" y1="17.133" x2="119.731" y2="17.787"/>
	
		<line fill="none" stroke="#2DA048" stroke-width="1.2" stroke-miterlimit="10" x1="107.448" y1="16.421" x2="113.851" y2="17.133"/>
	
		<line fill="none" stroke="#D62C28" stroke-width="1.2" stroke-miterlimit="10" x1="117.106" y1="20.041" x2="126.221" y2="20.216"/>
	
		<line fill="none" stroke="#F47E20" stroke-width="1.2" stroke-miterlimit="10" x1="108.079" y1="19.868" x2="117.106" y2="20.041"/>
	<line fill="none" stroke="#F47E20" stroke-width="1.2" stroke-miterlimit="10" x1="122.629" y1="22.664" x2="131.67" y2="22.581"/>
	
		<line fill="none" stroke="#D62C28" stroke-width="1.2" stroke-miterlimit="10" x1="113.589" y1="22.746" x2="122.629" y2="22.664"/>
	
		<line fill="none" stroke="#F9ED32" stroke-width="1.2" stroke-miterlimit="10" x1="127.002" y1="25.119" x2="132.452" y2="25.105"/>
	
		<line fill="none" stroke="#2DA048" stroke-width="1.2" stroke-miterlimit="10" x1="120.187" y1="25.132" x2="127.002" y2="25.119"/>
	
		<line fill="none" stroke="#F47E20" stroke-width="1.2" stroke-miterlimit="10" x1="126.319" y1="30.742" x2="131.223" y2="30.226"/>
	
		<line fill="none" stroke="#D62C28" stroke-width="1.2" stroke-miterlimit="10" x1="121.368" y1="31.259" x2="126.319" y2="30.742"/>
	
		<line fill="none" stroke="#F47E20" stroke-width="1.2" stroke-miterlimit="10" x1="122.629" y1="34.123" x2="132.452" y2="33.694"/>
	<line fill="none" stroke="#D62C28" stroke-width="1.2" stroke-miterlimit="10" x1="112.769" y1="34.55" x2="122.629" y2="34.123"/>
	
		<line fill="none" stroke="#2DA048" stroke-width="1.2" stroke-miterlimit="10" x1="119.344" y1="37.214" x2="129.965" y2="37.423"/>
	
		<line fill="none" stroke="#F9ED32" stroke-width="1.2" stroke-miterlimit="10" x1="108.723" y1="37.005" x2="119.344" y2="37.214"/>
	
		<line fill="none" stroke="#F9ED32" stroke-width="1.2" stroke-miterlimit="10" x1="114.963" y1="39.625" x2="121.847" y2="41.068"/>
	
		<line fill="none" stroke="#2DA048" stroke-width="1.2" stroke-miterlimit="10" x1="108.079" y1="38.184" x2="114.963" y2="39.625"/>
	<path fill="none" stroke="#F9ED32" stroke-width="1.2" stroke-miterlimit="10" d="M128.813,28.069"/>
	<path fill="none" stroke="#F9ED32" stroke-width="1.2" stroke-miterlimit="10" d="M127.566,27.734"/>
	<path fill="none" stroke="#2DA048" stroke-width="1.2" stroke-miterlimit="10" d="M127.566,27.734"/>
	
		<linearGradient id="SVGID_8_" gradientUnits="userSpaceOnUse" x1="126.3186" y1="20.1851" x2="126.3186" y2="20.1851" gradientTransform="matrix(1 0 0 -1 0 47.585)">
		<stop  offset="0" style="stop-color:#555655"/>
		<stop  offset="0.0375" style="stop-color:#686766"/>
		<stop  offset="0.1149" style="stop-color:#8F8C8C"/>
		<stop  offset="0.1896" style="stop-color:#B4B1B1"/>
		<stop  offset="0.2597" style="stop-color:#D0CFCF"/>
		<stop  offset="0.3234" style="stop-color:#E5E5E5"/>
		<stop  offset="0.3749" style="stop-color:#EEEEEE"/>
		<stop  offset="0.4635" style="stop-color:#E6E5E5"/>
		<stop  offset="0.5685" style="stop-color:#D2D1D1"/>
		<stop  offset="0.6818" style="stop-color:#B6B4B4"/>
		<stop  offset="0.8011" style="stop-color:#939090"/>
		<stop  offset="0.9236" style="stop-color:#6D6B6B"/>
		<stop  offset="1" style="stop-color:#555655"/>
	</linearGradient>
	<path fill="none" stroke="url(#SVGID_8_)" stroke-width="1.2" stroke-miterlimit="10" d="M126.319,27.4"/>
	<path fill="none" stroke="#B7B7B7" stroke-width="1.2" stroke-miterlimit="10" d="M113.695,17.116"/>
</g>
<path fill="none" stroke="#555655" stroke-width="1.2" stroke-miterlimit="10" d="M132.637,24.412c0,2.28-6.543,5.25-11.27,6.848
	c-4.728,1.598-13.289,4.643-13.289,6.926"/>
<path fill="none" stroke="#555655" stroke-width="1.2" stroke-miterlimit="10" d="M121.368,0.574c0,0-14.543,4.424-14.543,8.764"/>
<path fill="none" stroke="#555655" stroke-width="1.2" stroke-miterlimit="10" d="M132.637,4.771c0,0-4.361,2.284-11.27,4.567
	c-6.909,2.284-14.543,5.937-14.543,8.449"/>
<path fill="none" stroke="#555655" stroke-width="1.2" stroke-miterlimit="10" d="M132.637,32.856c0,3.11-1.863,3.729-2.672,4.567
	c0,0-8.118,3.857-8.259,3.906"/>
</svg>
