<?xml version="1.0" encoding="utf-8"?>
<!-- Generator: Adobe Illustrator 16.0.3, SVG Export Plug-In . SVG Version: 6.00 Build 0)  -->
<!DOCTYPE svg PUBLIC "-//W3C//DTD SVG 1.1//EN" "http://www.w3.org/Graphics/SVG/1.1/DTD/svg11.dtd">
<svg version="1.1" id="Layer_1" xmlns="http://www.w3.org/2000/svg" xmlns:xlink="http://www.w3.org/1999/xlink" x="0px" y="0px"
	 width="385.571px" height="84.324px" viewBox="0 0 385.571 84.324" enable-background="new 0 0 385.571 84.324"
	 xml:space="preserve">
<g>
	<path fill="#F1F1F1" d="M163.652,64.65c0-3.893,14.594-9.082,22.65-11.805c3.763-1.273,8.201-3.055,11.865-4.988v-0.006
		c4.279,2.188,7.348,4.711,7.348,7.717c0,5.303-3.176,6.357-4.555,7.785c0,0-13.839,6.576-14.08,6.658L163.652,64.65z"/>
	<path fill="#F1F1F1" d="M198.167,47.835c4.18-2.207,7.348-4.613,7.348-6.686c0-3.89-4.336-4.673-19.212-10.124
		c-7.854-2.877-14.325-4.994-18.685-7.441l0,0c-3.689,2.225-6.104,4.43-6.104,6.274c0,4.282,9.297,7.792,19.211,11.291
		c5.412,1.909,12.3,4.051,17.443,6.68V47.835z"/>
	<path fill="#F1F1F1" d="M167.618,23.584c-3.896-2.187-6.104-4.637-6.104-8.127c0-7.396,24.789-14.938,24.789-14.938l19.212,7.152
		c0,0-7.438,3.893-19.212,7.785C179.598,17.674,172.494,20.645,167.618,23.584z"/>
</g>
<linearGradient id="SVGID_1_" gradientUnits="userSpaceOnUse" x1="169.4839" y1="24.6177" x2="206.598" y2="40.0389">
	<stop  offset="0" style="stop-color:#333333"/>
	<stop  offset="0.0655" style="stop-color:#565353"/>
	<stop  offset="0.1433" style="stop-color:#827E7E"/>
	<stop  offset="0.2188" style="stop-color:#ABA8A8"/>
	<stop  offset="0.2901" style="stop-color:#CCCBCB"/>
	<stop  offset="0.3557" style="stop-color:#E4E3E3"/>
	<stop  offset="0.41" style="stop-color:#EEEEEE"/>
	<stop  offset="0.4881" style="stop-color:#E3E3E3"/>
	<stop  offset="0.5825" style="stop-color:#CCCBCB"/>
	<stop  offset="0.6853" style="stop-color:#ABA8A8"/>
	<stop  offset="0.794" style="stop-color:#827E7E"/>
	<stop  offset="0.9062" style="stop-color:#565353"/>
	<stop  offset="1" style="stop-color:#333333"/>
</linearGradient>
<path fill="none" stroke="url(#SVGID_1_)" stroke-width="1.2" stroke-miterlimit="10" d="M169.517,24.625
	c4.251,2.053,10.003,3.971,16.786,6.455c14.874,5.449,19.211,6.235,19.211,10.124"/>
<linearGradient id="SVGID_2_" gradientUnits="userSpaceOnUse" x1="169.5166" y1="24.625" x2="169.5166" y2="24.625">
	<stop  offset="0" style="stop-color:#333333"/>
	<stop  offset="0.0655" style="stop-color:#565353"/>
	<stop  offset="0.1433" style="stop-color:#827E7E"/>
	<stop  offset="0.2188" style="stop-color:#ABA8A8"/>
	<stop  offset="0.2901" style="stop-color:#CCCBCB"/>
	<stop  offset="0.3557" style="stop-color:#E4E3E3"/>
	<stop  offset="0.41" style="stop-color:#EEEEEE"/>
	<stop  offset="0.4881" style="stop-color:#E3E3E3"/>
	<stop  offset="0.5825" style="stop-color:#CCCBCB"/>
	<stop  offset="0.6853" style="stop-color:#ABA8A8"/>
	<stop  offset="0.794" style="stop-color:#827E7E"/>
	<stop  offset="0.9062" style="stop-color:#565353"/>
	<stop  offset="1" style="stop-color:#333333"/>
</linearGradient>
<path fill="none" stroke="url(#SVGID_2_)" stroke-width="1.2" stroke-miterlimit="10" d="M169.517,24.625"/>
<linearGradient id="SVGID_3_" gradientUnits="userSpaceOnUse" x1="165.6289" y1="21.3921" x2="165.6289" y2="21.3921">
	<stop  offset="0" style="stop-color:#333333"/>
	<stop  offset="0.0655" style="stop-color:#565353"/>
	<stop  offset="0.1433" style="stop-color:#827E7E"/>
	<stop  offset="0.2188" style="stop-color:#ABA8A8"/>
	<stop  offset="0.2901" style="stop-color:#CCCBCB"/>
	<stop  offset="0.3557" style="stop-color:#E4E3E3"/>
	<stop  offset="0.41" style="stop-color:#EEEEEE"/>
	<stop  offset="0.4881" style="stop-color:#E3E3E3"/>
	<stop  offset="0.5825" style="stop-color:#CCCBCB"/>
	<stop  offset="0.6853" style="stop-color:#ABA8A8"/>
	<stop  offset="0.794" style="stop-color:#827E7E"/>
	<stop  offset="0.9062" style="stop-color:#565353"/>
	<stop  offset="1" style="stop-color:#333333"/>
</linearGradient>
<path fill="none" stroke="url(#SVGID_3_)" stroke-width="1.2" stroke-miterlimit="10" d="M165.628,21.392"/>
<path fill="none" stroke="#333333" stroke-width="1.2" stroke-miterlimit="10" d="M161.514,14.512c0,2.844,1.465,4.996,4.114,6.88"
	/>
<circle fill="#ECECEC" cx="304.76" cy="35.936" r="32.119"/>
<circle fill="none" stroke="#FFFFFF" stroke-miterlimit="10" cx="304.76" cy="35.936" r="21.959"/>
<circle fill="none" stroke="#FFFFFF" stroke-miterlimit="10" cx="304.761" cy="35.936" r="10.723"/>
<text transform="matrix(1 0 0 1 296.7158 52.8159)"><tspan x="0" y="0" fill="#808285" font-family="'RobotoMono-Medium'" font-size="4">MRSA</tspan><tspan x="0" y="4" fill="#808285" font-family="'RobotoMono-Medium'" font-size="4">052·105</tspan></text>
<g>
	<path fill="#F47E20" d="M321.165,29.312c-0.222-0.869-1.114-1.399-1.984-1.176l-3.384,0.863c-0.729,0.186-1.215,0.842-1.226,1.56
		c-0.025-0.036-0.049-0.074-0.075-0.116c-0.11-0.185-0.25-0.416-0.623-0.554c-0.374-0.139-0.63-0.055-0.835,0.012
		c-0.172,0.057-0.296,0.098-0.506,0.019c-0.212-0.079-0.279-0.19-0.373-0.345c-0.111-0.184-0.25-0.415-0.623-0.553
		c-0.129-0.047-0.272,0.018-0.319,0.146c-0.019,0.049-0.02,0.1-0.008,0.147c0.021,0.076,0.075,0.142,0.153,0.172
		c0.212,0.078,0.279,0.189,0.373,0.344c0.111,0.185,0.251,0.416,0.623,0.553c0.374,0.139,0.629,0.055,0.834-0.012
		c0.172-0.056,0.297-0.097,0.508-0.019c0.178,0.066,0.254,0.158,0.33,0.278c-0.16-0.04-0.352-0.053-0.598,0.01
		c-0.407,0.104-0.584,0.317-0.726,0.489c-0.126,0.152-0.215,0.262-0.466,0.326c-0.249,0.064-0.381,0.011-0.563-0.062
		c-0.208-0.084-0.466-0.188-0.872-0.083c-0.132,0.034-0.213,0.168-0.179,0.301c0.033,0.133,0.169,0.213,0.302,0.18
		c0.249-0.063,0.382-0.011,0.563,0.062c0.208,0.083,0.465,0.187,0.872,0.083c0.407-0.104,0.584-0.317,0.725-0.49
		c0.125-0.152,0.216-0.262,0.466-0.325c0.188-0.048,0.31-0.03,0.436,0.013c-0.079,0.05-0.158,0.115-0.237,0.208
		c-0.243,0.291-0.238,0.552-0.234,0.762c0.002,0.171,0.005,0.286-0.12,0.434c-0.125,0.149-0.237,0.166-0.406,0.194
		c-0.207,0.034-0.465,0.075-0.708,0.365c-0.053,0.064-0.068,0.146-0.05,0.221c0.012,0.048,0.039,0.094,0.081,0.128
		c0.104,0.088,0.261,0.075,0.349-0.031c0.124-0.149,0.237-0.167,0.407-0.194c0.207-0.033,0.464-0.076,0.707-0.365
		c0.243-0.29,0.239-0.551,0.234-0.761c-0.002-0.172-0.003-0.286,0.121-0.434c0.123-0.148,0.236-0.166,0.405-0.193
		c0.08-0.013,0.168-0.027,0.259-0.057c0.361,0.605,1.092,0.932,1.805,0.749l3.385-0.864
		C320.857,31.075,321.387,30.182,321.165,29.312z"/>
</g>
<text transform="matrix(1 0 0 1 319.3818 35.8555)"><tspan x="0" y="0" fill="#808285" font-family="'RobotoMono-Medium'" font-size="4">CDIFF</tspan><tspan x="0" y="4" fill="#808285" font-family="'RobotoMono-Medium'" font-size="4">50·351</tspan></text>
<g>
	<path fill="#D72B28" d="M311.457,33.341"/>
</g>
<g>
	<path fill="#D72B28" d="M306.512,38.282"/>
</g>
<path fill="#D72B28" stroke="#F37E20" stroke-miterlimit="10" stroke-dasharray="1,1.5" d="M304.761,35.936"/>
<path fill="#D72B28" stroke="#F37E20" stroke-miterlimit="10" stroke-dasharray="1,1.5" d="M301.905,42.701"/>
<g>
	
		<line fill="#D62C28" stroke="#D72B28" stroke-miterlimit="10" stroke-dasharray="1,1.5" x1="281.87" y1="41.701" x2="287.459" y2="45.282"/>
	<g>
		<circle fill="#D62C28" cx="288.739" cy="44.379" r="1.331"/>
		<circle fill="#D62C28" cx="290.069" cy="46.279" r="1.33"/>
		<circle fill="#D62C28" cx="292.349" cy="44.925" r="1.33"/>
		<circle fill="#D62C28" cx="292.349" cy="47.253" r="1.33"/>
		<circle fill="#D62C28" cx="287.789" cy="47.253" r="1.33"/>
		<circle fill="#D62C28" cx="291.019" cy="49.13" r="1.33"/>
		<circle fill="#D62C28" cx="293.679" cy="49.13" r="1.33"/>
		<circle fill="#D62C28" cx="294.439" cy="46.683" r="1.33"/>
	</g>
</g>
<line fill="#D72B28" stroke="#F37E20" stroke-miterlimit="10" stroke-dasharray="1,1.5" x1="317.098" y1="39.367" x2="317.866" y2="31.153"/>
<g>
	
		<linearGradient id="SVGID_4_" gradientUnits="userSpaceOnUse" x1="102.0684" y1="-69.1128" x2="109.8884" y2="-65.8635" gradientTransform="matrix(0.7071 -0.7071 0.7071 0.7071 270.614 143.9893)">
		<stop  offset="0" style="stop-color:#FFFFFF;stop-opacity:0"/>
		<stop  offset="0.8094" style="stop-color:#FFFFFF;stop-opacity:0.7746"/>
		<stop  offset="1" style="stop-color:#FFFFFF"/>
	</linearGradient>
	<path fill="url(#SVGID_4_)" d="M304.832,36.048l-1.933-32.312c0,0-7.009,0.099-12.674,3.289c-5.665,3.19-10.843,7.896-10.843,7.896
		L304.832,36.048z"/>
	<line fill="none" stroke="#FFFFFF" stroke-miterlimit="10" x1="304.832" y1="36.047" x2="302.718" y2="4.844"/>
</g>
<g>
	
		<line fill="#D72B28" stroke="#2CA048" stroke-miterlimit="10" stroke-dasharray="1,1.5" x1="293.107" y1="14.917" x2="289.526" y2="20.505"/>
	<g>
		<g>
			<path fill="#2DA048" d="M290.604,22.706c-0.38,0-0.689,0.299-0.71,0.677c-0.163,0.076-0.358,0.169-0.486,0.229
				c-0.15-0.355-0.381-0.667-0.671-0.911c0.073-0.11,0.182-0.278,0.252-0.385c0.312-0.004,0.562-0.26,0.562-0.574
				c0-0.318-0.255-0.576-0.569-0.576s-0.57,0.257-0.57,0.576c0,0.155,0.061,0.295,0.16,0.399c-0.022,0.107-0.056,0.256-0.081,0.377
				c-0.398-0.257-0.869-0.388-1.343-0.375c0.01-0.094,0.015-0.203,0.021-0.265c0.105-0.074,0.176-0.197,0.176-0.336
				c0-0.226-0.182-0.408-0.405-0.408c-0.223,0-0.403,0.182-0.403,0.408c0,0.156,0.088,0.292,0.217,0.361
				c0.022,0.069,0.059,0.178,0.088,0.269c-0.401,0.064-0.768,0.23-1.075,0.47c-0.089-0.138-0.22-0.333-0.269-0.413
				c0.019-0.053,0.027-0.109,0.027-0.168c0-0.305-0.245-0.552-0.546-0.552c-0.303,0-0.549,0.247-0.549,0.552
				c0,0.305,0.246,0.552,0.549,0.552c0.061,0,0.12-0.011,0.174-0.03c0.1,0.067,0.268,0.179,0.386,0.26
				c-0.311,0.312-0.535,0.709-0.64,1.154c-0.126-0.053-0.294-0.124-0.348-0.148c-0.058-0.205-0.243-0.356-0.466-0.356
				c-0.267,0-0.483,0.219-0.483,0.489s0.217,0.488,0.483,0.488c0.151,0,0.286-0.07,0.375-0.18c0.081,0,0.259,0.001,0.387,0.001
				c-0.062,0.576,0.084,1.164,0.412,1.642l-0.545,0.161c-0.114-0.086-0.254-0.138-0.406-0.138c-0.375,0-0.679,0.307-0.679,0.685
				s0.304,0.685,0.679,0.685c0.374,0,0.679-0.307,0.679-0.685c0-0.004-0.002-0.008-0.002-0.012l0.486-0.429
				c0.328,0.358,0.762,0.615,1.25,0.719c-0.028,0.112-0.062,0.259-0.079,0.331c-0.123,0.065-0.207,0.194-0.207,0.343
				c0,0.214,0.173,0.388,0.385,0.388s0.383-0.173,0.383-0.388c0-0.123-0.057-0.233-0.146-0.304c-0.01-0.072-0.026-0.212-0.04-0.326
				c0.469,0.04,0.941-0.062,1.352-0.292c0.087,0.17,0.226,0.453,0.273,0.545c-0.029,0.067-0.048,0.142-0.048,0.222
				c0,0.299,0.241,0.542,0.537,0.542c0.297,0,0.538-0.243,0.538-0.542c0-0.3-0.241-0.542-0.538-0.542
				c-0.013,0-0.026,0.001-0.04,0.002c-0.146-0.123-0.338-0.285-0.468-0.393c0.334-0.248,0.6-0.581,0.771-0.966
				c0.079,0.028,0.178,0.062,0.247,0.085c0.045,0.194,0.218,0.339,0.425,0.339c0.241,0,0.437-0.197,0.437-0.441
				s-0.195-0.441-0.437-0.441c-0.14,0-0.264,0.066-0.344,0.169c-0.063,0.001-0.149,0.002-0.224,0.003
				c0.13-0.439,0.135-0.912,0.011-1.353c0.156-0.007,0.373-0.021,0.536-0.03c0.132,0.168,0.334,0.276,0.562,0.276
				c0.394,0,0.713-0.322,0.713-0.72C291.317,23.028,290.998,22.706,290.604,22.706z"/>
		</g>
	</g>
</g>
<text transform="matrix(1 0 0 1 291.0186 29.9795)"><tspan x="0" y="0" fill="#808285" font-family="'RobotoMono-Medium'" font-size="4">H1N1</tspan><tspan x="0" y="4" fill="#808285" font-family="'RobotoMono-Medium'" font-size="4">034·20</tspan></text>
<text transform="matrix(1 0 0 1 0 68.9722)" fill="#333333" font-family="'Roboto-ThinItalic'" font-size="56.6444" letter-spacing="2">patho</text>
<g>
	<path fill="#333333" d="M220.856,3.636h0.742h21.691c25.955,0,25.955,40.23,0,40.23h-20.95v24.658h-1.483
		c0-21.414,0-42.734,0-64.147V3.636z M243.29,42.477c24.101,0,24.101-37.357,0-37.357h-20.95v37.357H243.29z"/>
	<path fill="#333333" d="M281.354,12.391c5.932-6.118,14.275-9.826,23.359-9.826c9.177,0,17.428,3.708,23.452,9.826
		c5.933,6.025,9.733,14.368,9.733,23.545c0,9.177-3.801,17.52-9.733,23.545c-6.024,6.118-14.275,9.825-23.452,9.825
		c-9.084,0-17.428-3.707-23.359-9.825c-5.934-6.025-9.733-14.368-9.733-23.545C271.621,26.759,275.421,18.416,281.354,12.391z
		 M327.146,13.503c-5.747-5.84-13.72-9.455-22.433-9.455s-16.593,3.615-22.34,9.455c-5.654,5.748-9.27,13.627-9.27,22.433
		c0,8.806,3.615,16.686,9.27,22.433c5.747,5.84,13.627,9.455,22.34,9.455s16.686-3.615,22.433-9.455
		c5.655-5.747,9.177-13.627,9.177-22.433C336.323,27.13,332.802,19.25,327.146,13.503z"/>
	<path fill="#333333" d="M361.749,68.802V5.12h-22.434V3.636h46.256V5.12h-22.433v63.683H361.749z"/>
</g>
<path fill="none" stroke="#333333" stroke-width="1.2" stroke-miterlimit="10" d="M200.263,49.046
	c3.15,1.91,5.252,4.068,5.252,6.555"/>
<linearGradient id="SVGID_5_" gradientUnits="userSpaceOnUse" x1="200.2627" y1="49.0474" x2="200.2627" y2="49.0474">
	<stop  offset="0" style="stop-color:#333333"/>
	<stop  offset="0.0554" style="stop-color:#535050"/>
	<stop  offset="0.1288" style="stop-color:#7F7B7B"/>
	<stop  offset="0.1995" style="stop-color:#A9A6A6"/>
	<stop  offset="0.2658" style="stop-color:#CBCACA"/>
	<stop  offset="0.3261" style="stop-color:#E3E2E3"/>
	<stop  offset="0.3749" style="stop-color:#EEEEEE"/>
	<stop  offset="0.4589" style="stop-color:#E4E3E3"/>
	<stop  offset="0.5585" style="stop-color:#CDCBCB"/>
	<stop  offset="0.666" style="stop-color:#ACA9A9"/>
	<stop  offset="0.7791" style="stop-color:#848080"/>
	<stop  offset="0.8953" style="stop-color:#585655"/>
	<stop  offset="1" style="stop-color:#333333"/>
</linearGradient>
<path fill="none" stroke="url(#SVGID_5_)" stroke-width="1.2" stroke-miterlimit="10" d="M200.263,49.046"/>
<linearGradient id="SVGID_6_" gradientUnits="userSpaceOnUse" x1="195.3447" y1="46.5562" x2="195.3447" y2="46.5562">
	<stop  offset="0" style="stop-color:#333333"/>
	<stop  offset="0.0554" style="stop-color:#535050"/>
	<stop  offset="0.1288" style="stop-color:#7F7B7B"/>
	<stop  offset="0.1995" style="stop-color:#A9A6A6"/>
	<stop  offset="0.2658" style="stop-color:#CBCACA"/>
	<stop  offset="0.3261" style="stop-color:#E3E2E3"/>
	<stop  offset="0.3749" style="stop-color:#EEEEEE"/>
	<stop  offset="0.4589" style="stop-color:#E4E3E3"/>
	<stop  offset="0.5585" style="stop-color:#CDCBCB"/>
	<stop  offset="0.666" style="stop-color:#ACA9A9"/>
	<stop  offset="0.7791" style="stop-color:#848080"/>
	<stop  offset="0.8953" style="stop-color:#585655"/>
	<stop  offset="1" style="stop-color:#333333"/>
</linearGradient>
<path fill="none" stroke="url(#SVGID_6_)" stroke-width="1.2" stroke-miterlimit="10" d="M195.345,46.556"/>
<linearGradient id="SVGID_7_" gradientUnits="userSpaceOnUse" x1="160.2798" y1="31.4399" x2="195.5488" y2="46.0945">
	<stop  offset="0" style="stop-color:#333333"/>
	<stop  offset="0.0554" style="stop-color:#535050"/>
	<stop  offset="0.1288" style="stop-color:#7F7B7B"/>
	<stop  offset="0.1995" style="stop-color:#A9A6A6"/>
	<stop  offset="0.2658" style="stop-color:#CBCACA"/>
	<stop  offset="0.3261" style="stop-color:#E3E2E3"/>
	<stop  offset="0.3749" style="stop-color:#EEEEEE"/>
	<stop  offset="0.4589" style="stop-color:#E4E3E3"/>
	<stop  offset="0.5585" style="stop-color:#CDCBCB"/>
	<stop  offset="0.666" style="stop-color:#ACA9A9"/>
	<stop  offset="0.7791" style="stop-color:#848080"/>
	<stop  offset="0.8953" style="stop-color:#585655"/>
	<stop  offset="1" style="stop-color:#333333"/>
</linearGradient>
<path fill="none" stroke="url(#SVGID_7_)" stroke-width="1.2" stroke-miterlimit="10" d="M161.514,29.913
	c0,4.282,9.297,7.792,19.211,11.291c4.472,1.578,9.951,3.315,14.62,5.352"/>
<g opacity="0.7">
	<line fill="none" stroke="#F47E20" stroke-width="1.2" stroke-miterlimit="10" x1="195.909" y1="4.15" x2="205.515" y2="7.727"/>
	<line fill="none" stroke="#D62C28" stroke-width="1.2" stroke-miterlimit="10" x1="186.303" y1="0.574" x2="195.909" y2="4.15"/>
	<line fill="none" stroke="#F9ED32" stroke-width="1.2" stroke-miterlimit="10" x1="186.881" y1="7.965" x2="200.274" y2="9.987"/>
	<line fill="none" stroke="#2DA048" stroke-width="1.2" stroke-miterlimit="10" x1="173.491" y1="5.943" x2="186.881" y2="7.965"/>
	<line fill="none" stroke="#2DA048" stroke-width="1.2" stroke-miterlimit="10" x1="179.04" y1="12.819" x2="195.909" y2="12.008"/>
	<line fill="none" stroke="#F9ED32" stroke-width="1.2" stroke-miterlimit="10" x1="162.172" y1="13.631" x2="179.04" y2="12.819"/>
	<line fill="none" stroke="#F47E20" stroke-width="1.2" stroke-miterlimit="10" x1="171.686" y1="19.15" x2="181.211" y2="17.318"/>
	<line fill="none" stroke="#D62C28" stroke-width="1.2" stroke-miterlimit="10" x1="163.653" y1="20.693" x2="171.686" y2="19.15"/>
	<path fill="none" stroke="#F47E20" stroke-width="1.2" stroke-miterlimit="10" d="M173.491,26.355"/>
	<path fill="none" stroke="#F47E20" stroke-width="1.2" stroke-miterlimit="10" d="M172.961,23.71"/>
	<path fill="none" stroke="#D62C28" stroke-width="1.2" stroke-miterlimit="10" d="M172.961,23.71"/>
	<path fill="none" stroke="#D62C28" stroke-width="1.2" stroke-miterlimit="10" d="M172.432,21.066"/>
	<line fill="none" stroke="#F9ED32" stroke-width="1.2" stroke-miterlimit="10" x1="173.491" y1="28.8" x2="183.514" y2="29.913"/>
	<line fill="none" stroke="#2DA048" stroke-width="1.2" stroke-miterlimit="10" x1="162.577" y1="27.586" x2="173.491" y2="28.8"/>
	<line fill="none" stroke="#D62C28" stroke-width="1.2" stroke-miterlimit="10" x1="179.04" y1="33.756" x2="194.577" y2="34.054"/>
	<line fill="none" stroke="#F47E20" stroke-width="1.2" stroke-miterlimit="10" x1="163.653" y1="33.462" x2="179.04" y2="33.756"/>
	
		<line fill="none" stroke="#F47E20" stroke-width="1.2" stroke-miterlimit="10" x1="188.456" y1="38.227" x2="203.866" y2="38.086"/>
	
		<line fill="none" stroke="#D62C28" stroke-width="1.2" stroke-miterlimit="10" x1="173.045" y1="38.367" x2="188.456" y2="38.227"/>
	
		<line fill="none" stroke="#F9ED32" stroke-width="1.2" stroke-miterlimit="10" x1="195.909" y1="42.411" x2="205.198" y2="42.389"/>
	
		<line fill="none" stroke="#2DA048" stroke-width="1.2" stroke-miterlimit="10" x1="184.292" y1="42.438" x2="195.909" y2="42.411"/>
	
		<line fill="none" stroke="#F47E20" stroke-width="1.2" stroke-miterlimit="10" x1="194.743" y1="51.994" x2="203.104" y2="51.119"/>
	
		<line fill="none" stroke="#D62C28" stroke-width="1.2" stroke-miterlimit="10" x1="186.303" y1="52.878" x2="194.743" y2="51.994"/>
	
		<line fill="none" stroke="#F47E20" stroke-width="1.2" stroke-miterlimit="10" x1="188.456" y1="57.757" x2="205.198" y2="57.029"/>
	
		<line fill="none" stroke="#D62C28" stroke-width="1.2" stroke-miterlimit="10" x1="171.647" y1="58.488" x2="188.456" y2="57.757"/>
	<line fill="none" stroke="#2DA048" stroke-width="1.2" stroke-miterlimit="10" x1="182.856" y1="63.031" x2="200.96" y2="63.388"/>
	<line fill="none" stroke="#F9ED32" stroke-width="1.2" stroke-miterlimit="10" x1="164.75" y1="62.673" x2="182.856" y2="63.031"/>
	<line fill="none" stroke="#F9ED32" stroke-width="1.2" stroke-miterlimit="10" x1="175.387" y1="67.14" x2="187.122" y2="69.597"/>
	<line fill="none" stroke="#2DA048" stroke-width="1.2" stroke-miterlimit="10" x1="163.653" y1="64.683" x2="175.387" y2="67.14"/>
	<path fill="none" stroke="#F9ED32" stroke-width="1.2" stroke-miterlimit="10" d="M198.995,47.441"/>
	<path fill="none" stroke="#F9ED32" stroke-width="1.2" stroke-miterlimit="10" d="M196.87,46.871"/>
	<path fill="none" stroke="#2DA048" stroke-width="1.2" stroke-miterlimit="10" d="M196.87,46.871"/>
	<path fill="none" stroke="#2DA048" stroke-width="1.2" stroke-miterlimit="10" d="M194.745,46.3"/>
	<path fill="none" stroke="#B7B7B7" stroke-width="1.2" stroke-miterlimit="10" d="M173.225,28.77"/>
</g>
<path fill="none" stroke="#131313" stroke-width="1.2" stroke-miterlimit="10" d="M205.515,41.204
	c0,3.889-11.154,8.95-19.211,11.674c-8.057,2.723-22.65,7.912-22.65,11.805"/>
<path fill="none" stroke="#131313" stroke-width="1.2" stroke-miterlimit="10" d="M186.303,0.574c0,0-24.789,7.541-24.789,14.938"/>
<path fill="none" stroke="#333333" stroke-width="1.2" stroke-miterlimit="10" d="M205.515,7.727c0,0-7.436,3.893-19.211,7.785
	c-11.775,3.893-24.789,10.12-24.789,14.401"/>
<path fill="none" stroke="#333333" stroke-width="1.2" stroke-miterlimit="10" d="M205.515,55.601c0,5.303-3.176,6.359-4.555,7.787
	c0,0-13.838,6.574-14.079,6.656"/>
</svg>
