<?xml version="1.0" encoding="utf-8"?>
<!-- Generator: Adobe Illustrator 16.0.3, SVG Export Plug-In . SVG Version: 6.00 Build 0)  -->
<!DOCTYPE svg PUBLIC "-//W3C//DTD SVG 1.1//EN" "http://www.w3.org/Graphics/SVG/1.1/DTD/svg11.dtd">
<svg version="1.1" id="Layer_1" xmlns="http://www.w3.org/2000/svg" xmlns:xlink="http://www.w3.org/1999/xlink" x="0px" y="0px"
	 width="122.027px" height="96.382px" viewBox="0 0 122.027 96.382" enable-background="new 0 0 122.027 96.382"
	 xml:space="preserve">
<g enable-background="new    ">
	<path fill="#010101" d="M29.302,2.298v5.6h-0.68v-5.6H29.302z"/>
	<path fill="#010101" d="M32.814,5.15c-0.059-0.136-0.147-0.238-0.264-0.308s-0.261-0.104-0.432-0.104
		c-0.187,0-0.351,0.039-0.492,0.116c-0.142,0.077-0.251,0.186-0.328,0.324s-0.116,0.299-0.116,0.479v2.24h-0.64v-3.68h0.64v0.576
		c0.123-0.225,0.276-0.39,0.46-0.496c0.184-0.107,0.396-0.16,0.636-0.16c0.261,0,0.485,0.059,0.672,0.176
		c0.187,0.117,0.332,0.283,0.436,0.496s0.156,0.47,0.156,0.768v2.32h-0.64v-2.24C32.902,5.456,32.872,5.286,32.814,5.15z"/>
	<path fill="#010101" d="M34.702,9.658V4.218h0.64v5.439H34.702z M38.174,7.082c-0.166,0.288-0.386,0.51-0.66,0.664
		c-0.275,0.155-0.58,0.232-0.916,0.232c-0.229,0-0.439-0.044-0.628-0.132c-0.189-0.088-0.352-0.215-0.488-0.38
		C35.346,7.3,35.24,7.099,35.166,6.862s-0.112-0.505-0.112-0.804s0.037-0.566,0.112-0.804s0.18-0.439,0.316-0.604
		c0.136-0.165,0.299-0.292,0.488-0.38c0.189-0.088,0.398-0.132,0.628-0.132c0.336,0,0.641,0.077,0.916,0.231
		c0.274,0.155,0.495,0.375,0.66,0.66c0.165,0.285,0.248,0.628,0.248,1.028C38.422,6.453,38.339,6.794,38.174,7.082z M37.602,5.338
		c-0.115-0.197-0.267-0.347-0.456-0.448s-0.398-0.152-0.628-0.152c-0.139,0-0.277,0.029-0.416,0.088s-0.265,0.145-0.38,0.256
		c-0.115,0.112-0.207,0.25-0.276,0.412c-0.069,0.163-0.104,0.351-0.104,0.564c0,0.213,0.035,0.401,0.104,0.563
		c0.069,0.163,0.161,0.301,0.276,0.412c0.115,0.112,0.241,0.197,0.38,0.256c0.139,0.06,0.277,0.089,0.416,0.089
		c0.229,0,0.438-0.051,0.628-0.152s0.341-0.251,0.456-0.448s0.172-0.438,0.172-0.72C37.774,5.775,37.717,5.536,37.602,5.338z"/>
	<path fill="#010101" d="M40.03,6.958c0.059,0.137,0.146,0.24,0.264,0.312c0.118,0.072,0.261,0.108,0.432,0.108
		c0.187,0,0.351-0.039,0.492-0.116c0.141-0.077,0.25-0.186,0.328-0.324c0.077-0.139,0.116-0.299,0.116-0.48V4.218h0.64v3.68h-0.64
		V7.322c-0.123,0.219-0.275,0.383-0.456,0.492s-0.395,0.164-0.64,0.164c-0.256,0-0.479-0.059-0.668-0.176
		c-0.189-0.117-0.336-0.284-0.44-0.5s-0.156-0.471-0.156-0.765V4.218h0.64v2.239C39.942,6.656,39.97,6.822,40.03,6.958z"/>
	<path fill="#010101" d="M44.781,4.218v0.6h-1.84v-0.6H44.781z M44.181,2.938v4.96h-0.64v-4.96H44.181z"/>
</g>
<g enable-background="new    ">
	<path fill="#010101" d="M15.392,14.629c0.166-0.285,0.387-0.505,0.664-0.66c0.277-0.154,0.582-0.231,0.912-0.231
		c0.229,0,0.438,0.044,0.628,0.132s0.352,0.215,0.488,0.38c0.136,0.165,0.241,0.367,0.316,0.604s0.112,0.505,0.112,0.804
		s-0.037,0.566-0.112,0.804s-0.18,0.438-0.316,0.604c-0.136,0.165-0.299,0.292-0.488,0.38s-0.399,0.132-0.628,0.132
		c-0.331,0-0.635-0.077-0.912-0.232c-0.277-0.154-0.499-0.376-0.664-0.664c-0.165-0.287-0.248-0.629-0.248-1.023
		C15.144,15.257,15.227,14.915,15.392,14.629z M15.865,17.738c0,0.176,0.048,0.34,0.144,0.492c0.096,0.151,0.232,0.274,0.408,0.367
		c0.176,0.094,0.384,0.141,0.624,0.141c0.187,0,0.371-0.046,0.552-0.137c0.181-0.09,0.332-0.232,0.452-0.428
		c0.12-0.194,0.18-0.446,0.18-0.756v-3.6h0.64v3.6c0,0.421-0.088,0.774-0.264,1.061c-0.176,0.285-0.403,0.5-0.68,0.644
		c-0.277,0.144-0.571,0.216-0.88,0.216c-0.357,0-0.673-0.066-0.948-0.2c-0.275-0.133-0.489-0.321-0.644-0.563
		c-0.155-0.243-0.232-0.521-0.232-0.836H15.865z M15.965,16.377c0.115,0.197,0.268,0.347,0.46,0.448s0.4,0.152,0.624,0.152
		c0.139,0,0.277-0.029,0.416-0.089c0.139-0.059,0.265-0.144,0.38-0.256c0.115-0.111,0.207-0.249,0.276-0.412
		c0.069-0.162,0.104-0.351,0.104-0.563c0-0.214-0.035-0.401-0.104-0.564c-0.069-0.162-0.161-0.3-0.276-0.412
		c-0.115-0.111-0.241-0.197-0.38-0.256s-0.277-0.088-0.416-0.088c-0.224,0-0.432,0.051-0.624,0.152s-0.345,0.251-0.46,0.448
		s-0.172,0.437-0.172,0.72C15.793,15.94,15.85,16.18,15.965,16.377z"/>
	<path fill="#010101" d="M20.541,17.333c-0.264-0.162-0.47-0.388-0.616-0.676c-0.147-0.288-0.22-0.621-0.22-1
		c0-0.288,0.044-0.55,0.132-0.784s0.212-0.436,0.372-0.604c0.16-0.169,0.352-0.299,0.576-0.393c0.224-0.093,0.472-0.14,0.744-0.14
		c0.363,0,0.673,0.076,0.932,0.228c0.258,0.152,0.457,0.369,0.596,0.652c0.139,0.282,0.208,0.618,0.208,1.008
		c0,0.037-0.001,0.076-0.004,0.116s-0.004,0.065-0.004,0.076h-3.144v-0.544h2.64l-0.256,0.367c0.016-0.026,0.032-0.067,0.048-0.124
		c0.016-0.056,0.024-0.103,0.024-0.14c0-0.219-0.044-0.408-0.132-0.568c-0.088-0.159-0.209-0.285-0.364-0.376
		c-0.155-0.09-0.336-0.136-0.544-0.136c-0.181,0-0.345,0.029-0.492,0.088c-0.146,0.059-0.271,0.145-0.372,0.256
		c-0.102,0.112-0.179,0.251-0.232,0.416c-0.053,0.166-0.08,0.353-0.08,0.561c0,0.288,0.045,0.533,0.136,0.736
		c0.091,0.202,0.224,0.356,0.4,0.464c0.176,0.106,0.389,0.16,0.64,0.16c0.25,0,0.472-0.055,0.664-0.164s0.354-0.276,0.488-0.5
		l0.52,0.327c-0.192,0.31-0.433,0.543-0.724,0.7c-0.291,0.157-0.633,0.236-1.028,0.236C21.107,17.578,20.804,17.497,20.541,17.333z"
		/>
	<path fill="#010101" d="M26.416,14.75c-0.059-0.136-0.147-0.238-0.264-0.308s-0.261-0.104-0.432-0.104
		c-0.187,0-0.351,0.039-0.492,0.116c-0.142,0.077-0.251,0.186-0.328,0.324s-0.116,0.299-0.116,0.479v2.24h-0.64v-3.68h0.64v0.576
		c0.123-0.225,0.276-0.39,0.46-0.496c0.184-0.107,0.396-0.16,0.636-0.16c0.261,0,0.485,0.059,0.672,0.176
		c0.187,0.117,0.332,0.283,0.436,0.496s0.156,0.47,0.156,0.768v2.32h-0.64v-2.24C26.504,15.055,26.475,14.885,26.416,14.75z"/>
	<path fill="#010101" d="M28.277,14.666c0.168-0.288,0.396-0.515,0.684-0.68c0.288-0.166,0.611-0.248,0.968-0.248
		c0.362,0,0.687,0.082,0.972,0.248c0.286,0.165,0.512,0.392,0.68,0.68s0.252,0.619,0.252,0.992c0,0.368-0.084,0.697-0.252,0.988
		c-0.168,0.29-0.395,0.519-0.68,0.684c-0.285,0.165-0.609,0.248-0.972,0.248c-0.357,0-0.68-0.083-0.968-0.248
		c-0.288-0.165-0.516-0.394-0.684-0.684c-0.168-0.291-0.252-0.62-0.252-0.988C28.024,15.285,28.108,14.954,28.277,14.666z
		 M28.836,16.337c0.109,0.197,0.259,0.354,0.448,0.468c0.189,0.115,0.404,0.173,0.644,0.173c0.24,0,0.455-0.058,0.644-0.173
		c0.189-0.114,0.338-0.271,0.448-0.468s0.164-0.424,0.164-0.68s-0.055-0.484-0.164-0.685c-0.109-0.199-0.259-0.355-0.448-0.468
		c-0.189-0.111-0.404-0.168-0.644-0.168c-0.24,0-0.455,0.057-0.644,0.168c-0.189,0.112-0.339,0.269-0.448,0.468
		c-0.109,0.2-0.164,0.429-0.164,0.685S28.727,16.14,28.836,16.337z"/>
	<path fill="#010101" d="M37.753,17.498h-0.64v-2.24c0-0.213-0.025-0.387-0.076-0.52c-0.051-0.134-0.128-0.233-0.232-0.3
		c-0.104-0.067-0.236-0.101-0.396-0.101c-0.176,0-0.328,0.036-0.456,0.108c-0.128,0.071-0.227,0.177-0.296,0.315
		s-0.104,0.305-0.104,0.496v2.24h-0.64v-2.24c0-0.213-0.025-0.387-0.076-0.52c-0.051-0.134-0.128-0.233-0.232-0.3
		c-0.104-0.067-0.236-0.101-0.396-0.101c-0.176,0-0.328,0.036-0.456,0.108c-0.128,0.071-0.227,0.177-0.296,0.315
		c-0.07,0.139-0.104,0.305-0.104,0.496v2.24h-0.64v-3.68h0.64v0.536c0.074-0.139,0.161-0.254,0.26-0.345s0.212-0.158,0.34-0.204
		c0.128-0.045,0.267-0.067,0.416-0.067c0.171,0,0.325,0.026,0.464,0.08c0.138,0.053,0.26,0.131,0.364,0.231
		c0.104,0.102,0.183,0.227,0.236,0.376c0.128-0.229,0.288-0.401,0.48-0.516c0.192-0.114,0.411-0.172,0.656-0.172
		c0.25,0,0.464,0.056,0.64,0.168c0.176,0.111,0.311,0.275,0.404,0.492c0.093,0.216,0.14,0.476,0.14,0.779V17.498z"/>
	<path fill="#010101" d="M39.469,17.333c-0.264-0.162-0.47-0.388-0.616-0.676c-0.147-0.288-0.22-0.621-0.22-1
		c0-0.288,0.044-0.55,0.132-0.784s0.212-0.436,0.372-0.604c0.16-0.169,0.352-0.299,0.576-0.393c0.224-0.093,0.472-0.14,0.744-0.14
		c0.363,0,0.673,0.076,0.932,0.228c0.258,0.152,0.457,0.369,0.596,0.652c0.139,0.282,0.208,0.618,0.208,1.008
		c0,0.037-0.001,0.076-0.004,0.116s-0.004,0.065-0.004,0.076H39.04v-0.544h2.64l-0.256,0.367c0.016-0.026,0.032-0.067,0.048-0.124
		c0.016-0.056,0.024-0.103,0.024-0.14c0-0.219-0.044-0.408-0.132-0.568c-0.088-0.159-0.209-0.285-0.364-0.376
		c-0.155-0.09-0.336-0.136-0.544-0.136c-0.181,0-0.345,0.029-0.492,0.088c-0.146,0.059-0.271,0.145-0.372,0.256
		c-0.102,0.112-0.179,0.251-0.232,0.416c-0.053,0.166-0.08,0.353-0.08,0.561c0,0.288,0.045,0.533,0.136,0.736
		c0.091,0.202,0.224,0.356,0.4,0.464c0.176,0.106,0.389,0.16,0.64,0.16c0.25,0,0.472-0.055,0.664-0.164s0.354-0.276,0.488-0.5
		l0.52,0.327c-0.192,0.31-0.433,0.543-0.724,0.7c-0.291,0.157-0.633,0.236-1.028,0.236C40.035,17.578,39.732,17.497,39.469,17.333z"
		/>
	<path fill="#010101" d="M43.48,16.681c0.096,0.097,0.207,0.173,0.332,0.229c0.125,0.056,0.263,0.084,0.412,0.084
		c0.181,0,0.324-0.041,0.428-0.124s0.156-0.196,0.156-0.34c0-0.128-0.042-0.236-0.124-0.324s-0.188-0.163-0.316-0.224
		c-0.128-0.062-0.264-0.119-0.408-0.173c-0.16-0.063-0.321-0.14-0.484-0.228s-0.299-0.202-0.408-0.344
		c-0.109-0.142-0.164-0.319-0.164-0.532c0-0.219,0.057-0.4,0.172-0.544c0.115-0.145,0.264-0.251,0.448-0.32
		c0.184-0.069,0.375-0.104,0.572-0.104s0.383,0.032,0.556,0.096c0.173,0.064,0.327,0.149,0.46,0.256
		c0.133,0.107,0.237,0.229,0.312,0.368l-0.512,0.328c-0.101-0.139-0.228-0.253-0.38-0.344s-0.324-0.137-0.516-0.137
		c-0.133,0-0.248,0.029-0.344,0.089c-0.096,0.059-0.144,0.148-0.144,0.271c0,0.096,0.037,0.182,0.112,0.256
		c0.075,0.075,0.171,0.142,0.288,0.2s0.24,0.114,0.368,0.168c0.213,0.085,0.408,0.178,0.584,0.276
		c0.176,0.099,0.316,0.217,0.42,0.355s0.156,0.317,0.156,0.536c0,0.214-0.053,0.404-0.16,0.572
		c-0.107,0.168-0.255,0.301-0.444,0.399s-0.409,0.148-0.66,0.148c-0.246,0-0.467-0.044-0.664-0.132
		c-0.198-0.088-0.364-0.201-0.5-0.34c-0.136-0.139-0.239-0.28-0.308-0.425l0.504-0.312C43.299,16.482,43.385,16.585,43.48,16.681z"
		/>
</g>
<g>
	<line fill="none" stroke="#B61F24" stroke-miterlimit="10" x1="54.084" y1="0.785" x2="82.627" y2="0.785"/>
	<line fill="none" stroke="#1EA049" stroke-miterlimit="10" x1="91.102" y1="0.5" x2="119.644" y2="0.5"/>
	<line fill="none" stroke="#3C409A" stroke-miterlimit="10" x1="88.719" y1="4.057" x2="122.027" y2="4.057"/>
	<line fill="none" stroke="#B61F24" stroke-miterlimit="10" x1="91.102" y1="7.614" x2="119.644" y2="7.614"/>
	<line fill="none" stroke="#A7BB39" stroke-miterlimit="10" x1="93.3" y1="11.171" x2="117.446" y2="11.171"/>
	<line fill="none" stroke="#A7BB39" stroke-miterlimit="10" x1="93.3" y1="18.57" x2="117.446" y2="18.57"/>
	<line fill="none" stroke="#1EA049" stroke-miterlimit="10" x1="91.102" y1="14.728" x2="119.644" y2="14.728"/>
	<line fill="none" stroke="#B61F24" stroke-miterlimit="10" x1="54.084" y1="4.342" x2="82.627" y2="4.342"/>
	<line fill="none" stroke="#A7BB39" stroke-miterlimit="10" x1="56.283" y1="7.899" x2="80.428" y2="7.899"/>
	<line fill="none" stroke="#1EA049" stroke-miterlimit="10" x1="54.084" y1="11.456" x2="82.627" y2="11.456"/>
	<line fill="none" stroke="#B61F24" stroke-miterlimit="10" x1="54.084" y1="15.013" x2="82.627" y2="15.013"/>
	<line fill="none" stroke="#3C409A" stroke-miterlimit="10" x1="51.702" y1="18.57" x2="85.009" y2="18.57"/>
</g>
<g enable-background="new    ">
	<path fill="#010101" d="M28.786,43.458h-0.68l0.68-5.88l2.24,4.056l2.24-4.056l0.68,5.88h-0.68l-0.416-3.784l-1.824,3.265
		l-1.824-3.265L28.786,43.458z"/>
	<path fill="#010101" d="M35.254,42.682c0.067,0.102,0.16,0.178,0.28,0.229s0.257,0.076,0.412,0.076c0.197,0,0.375-0.04,0.532-0.12
		s0.283-0.193,0.376-0.34c0.093-0.147,0.14-0.316,0.14-0.509l0.128,0.48c0,0.234-0.071,0.43-0.212,0.584
		c-0.142,0.154-0.315,0.27-0.52,0.344c-0.206,0.075-0.409,0.112-0.612,0.112c-0.224,0-0.434-0.047-0.628-0.14
		c-0.194-0.094-0.351-0.229-0.468-0.404s-0.176-0.39-0.176-0.64c0-0.24,0.057-0.448,0.172-0.624c0.115-0.177,0.28-0.313,0.496-0.412
		c0.216-0.099,0.473-0.148,0.772-0.148c0.267,0,0.489,0.031,0.668,0.092c0.179,0.062,0.321,0.131,0.428,0.208
		c0.107,0.078,0.179,0.141,0.216,0.188v0.376c-0.187-0.128-0.379-0.22-0.576-0.276c-0.197-0.056-0.408-0.084-0.632-0.084
		c-0.208,0-0.377,0.027-0.508,0.08c-0.131,0.054-0.228,0.128-0.292,0.224c-0.064,0.097-0.096,0.211-0.096,0.345
		C35.154,42.461,35.187,42.582,35.254,42.682z M34.746,40.155c0.139-0.102,0.329-0.203,0.572-0.305
		c0.243-0.101,0.535-0.151,0.876-0.151c0.288,0,0.54,0.044,0.756,0.132c0.216,0.088,0.384,0.215,0.504,0.38s0.18,0.368,0.18,0.608
		v2.64h-0.64v-2.552c0-0.128-0.021-0.233-0.064-0.316c-0.043-0.082-0.103-0.147-0.18-0.196c-0.077-0.048-0.167-0.082-0.268-0.104
		c-0.101-0.021-0.208-0.032-0.32-0.032c-0.181,0-0.345,0.021-0.492,0.064c-0.146,0.043-0.271,0.093-0.372,0.151
		c-0.102,0.06-0.182,0.109-0.24,0.152L34.746,40.155z"/>
	<path fill="#010101" d="M39.122,42.642c0.096,0.097,0.207,0.173,0.332,0.229c0.125,0.056,0.263,0.084,0.412,0.084
		c0.181,0,0.324-0.041,0.428-0.124s0.156-0.196,0.156-0.34c0-0.128-0.042-0.236-0.124-0.324s-0.188-0.163-0.316-0.224
		c-0.128-0.062-0.264-0.119-0.408-0.173c-0.16-0.063-0.321-0.14-0.484-0.228s-0.299-0.202-0.408-0.344
		c-0.109-0.142-0.164-0.319-0.164-0.532c0-0.219,0.057-0.4,0.172-0.544c0.115-0.145,0.264-0.251,0.448-0.32
		c0.184-0.069,0.375-0.104,0.572-0.104s0.383,0.032,0.556,0.096c0.173,0.064,0.327,0.149,0.46,0.256
		c0.133,0.107,0.237,0.229,0.312,0.368l-0.512,0.328c-0.101-0.139-0.228-0.253-0.38-0.344s-0.324-0.137-0.516-0.137
		c-0.133,0-0.248,0.029-0.344,0.089c-0.096,0.059-0.144,0.148-0.144,0.271c0,0.096,0.037,0.182,0.112,0.256
		c0.075,0.075,0.171,0.142,0.288,0.2s0.24,0.114,0.368,0.168c0.213,0.085,0.408,0.178,0.584,0.276
		c0.176,0.099,0.316,0.217,0.42,0.355s0.156,0.317,0.156,0.536c0,0.214-0.053,0.404-0.16,0.572
		c-0.107,0.168-0.255,0.301-0.444,0.399s-0.409,0.148-0.66,0.148c-0.246,0-0.467-0.044-0.664-0.132
		c-0.198-0.088-0.364-0.201-0.5-0.34c-0.136-0.139-0.239-0.28-0.308-0.425l0.504-0.312C38.941,42.443,39.026,42.546,39.122,42.642z"
		/>
	<path fill="#010101" d="M42.578,43.458h-0.64v-6.24h0.64V43.458z M44.21,40.71c-0.059-0.136-0.146-0.238-0.26-0.308
		s-0.26-0.104-0.436-0.104c-0.187,0-0.351,0.04-0.492,0.12c-0.142,0.08-0.251,0.189-0.328,0.328s-0.116,0.296-0.116,0.472H42.37
		c0-0.293,0.056-0.553,0.168-0.779c0.112-0.228,0.265-0.407,0.46-0.54c0.194-0.134,0.42-0.2,0.676-0.2s0.479,0.053,0.668,0.16
		c0.189,0.106,0.336,0.267,0.44,0.479c0.104,0.214,0.156,0.48,0.156,0.8v2.32h-0.64v-2.24C44.298,41.016,44.268,40.846,44.21,40.71z
		"/>
</g>
<g enable-background="new    ">
	<path fill="#010101" d="M14.162,51.9c0.109,0.197,0.259,0.354,0.448,0.468c0.189,0.115,0.404,0.173,0.644,0.173
		c0.197,0,0.383-0.031,0.556-0.093c0.173-0.061,0.324-0.144,0.452-0.248c0.128-0.104,0.219-0.214,0.272-0.332v0.801
		c-0.128,0.149-0.311,0.265-0.548,0.348s-0.481,0.124-0.732,0.124c-0.357,0-0.68-0.083-0.968-0.248
		c-0.288-0.165-0.516-0.394-0.684-0.684c-0.168-0.291-0.252-0.62-0.252-0.988c0-0.373,0.084-0.704,0.252-0.992
		s0.396-0.515,0.684-0.68c0.288-0.166,0.611-0.248,0.968-0.248c0.25,0,0.495,0.041,0.732,0.124c0.237,0.082,0.42,0.198,0.548,0.348
		v0.8c-0.053-0.122-0.144-0.234-0.272-0.336c-0.128-0.101-0.279-0.183-0.452-0.244c-0.173-0.061-0.359-0.092-0.556-0.092
		c-0.24,0-0.455,0.057-0.644,0.168c-0.189,0.112-0.339,0.269-0.448,0.468c-0.109,0.2-0.164,0.429-0.164,0.685
		S14.052,51.703,14.162,51.9z"/>
	<path fill="#010101" d="M18.175,46.82v6.24h-0.64v-6.24H18.175z"/>
	<path fill="#010101" d="M20.102,52.12c0.059,0.137,0.146,0.24,0.264,0.312c0.118,0.072,0.261,0.108,0.432,0.108
		c0.187,0,0.351-0.039,0.492-0.116c0.141-0.077,0.25-0.186,0.328-0.324c0.077-0.139,0.116-0.299,0.116-0.48V49.38h0.64v3.68h-0.64
		v-0.576c-0.123,0.219-0.275,0.383-0.456,0.492s-0.395,0.164-0.64,0.164c-0.256,0-0.479-0.059-0.668-0.176
		c-0.189-0.117-0.336-0.284-0.44-0.5s-0.156-0.471-0.156-0.765V49.38h0.64v2.239C20.014,51.818,20.043,51.984,20.102,52.12z"/>
	<path fill="#010101" d="M23.982,52.244c0.096,0.097,0.207,0.173,0.332,0.229c0.125,0.056,0.263,0.084,0.412,0.084
		c0.181,0,0.324-0.041,0.428-0.124s0.156-0.196,0.156-0.34c0-0.128-0.042-0.236-0.124-0.324s-0.188-0.163-0.316-0.224
		c-0.128-0.062-0.264-0.119-0.408-0.173c-0.16-0.063-0.321-0.14-0.484-0.228s-0.299-0.202-0.408-0.344
		c-0.109-0.142-0.164-0.319-0.164-0.532c0-0.219,0.057-0.4,0.172-0.544c0.115-0.145,0.264-0.251,0.448-0.32
		c0.184-0.069,0.375-0.104,0.572-0.104s0.383,0.032,0.556,0.096c0.173,0.064,0.327,0.149,0.46,0.256
		c0.133,0.107,0.237,0.229,0.312,0.368l-0.512,0.328c-0.101-0.139-0.228-0.253-0.38-0.344s-0.324-0.137-0.516-0.137
		c-0.133,0-0.248,0.029-0.344,0.089c-0.096,0.059-0.144,0.148-0.144,0.271c0,0.096,0.037,0.182,0.112,0.256
		c0.075,0.075,0.171,0.142,0.288,0.2s0.24,0.114,0.368,0.168c0.213,0.085,0.408,0.178,0.584,0.276
		c0.176,0.099,0.316,0.217,0.42,0.355s0.156,0.317,0.156,0.536c0,0.214-0.053,0.404-0.16,0.572
		c-0.107,0.168-0.255,0.301-0.444,0.399s-0.409,0.148-0.66,0.148c-0.246,0-0.467-0.044-0.664-0.132
		c-0.198-0.088-0.364-0.201-0.5-0.34c-0.136-0.139-0.239-0.28-0.308-0.425l0.504-0.312C23.801,52.044,23.886,52.148,23.982,52.244z"
		/>
	<path fill="#010101" d="M28.078,49.38v0.6h-1.84v-0.6H28.078z M27.478,48.1v4.96h-0.64V48.1H27.478z"/>
	<path fill="#010101" d="M29.234,52.896c-0.264-0.162-0.47-0.388-0.616-0.676c-0.147-0.288-0.22-0.621-0.22-1
		c0-0.288,0.044-0.55,0.132-0.784s0.212-0.436,0.372-0.604c0.16-0.169,0.352-0.299,0.576-0.393c0.224-0.093,0.472-0.14,0.744-0.14
		c0.363,0,0.673,0.076,0.932,0.228c0.258,0.152,0.457,0.369,0.596,0.652c0.139,0.282,0.208,0.618,0.208,1.008
		c0,0.037-0.001,0.076-0.004,0.116S31.95,51.37,31.95,51.38h-3.144v-0.544h2.64l-0.256,0.367c0.016-0.026,0.032-0.067,0.048-0.124
		c0.016-0.056,0.024-0.103,0.024-0.14c0-0.219-0.044-0.408-0.132-0.568c-0.088-0.159-0.209-0.285-0.364-0.376
		c-0.155-0.09-0.336-0.136-0.544-0.136c-0.181,0-0.345,0.029-0.492,0.088c-0.146,0.059-0.271,0.145-0.372,0.256
		c-0.102,0.112-0.179,0.251-0.232,0.416c-0.053,0.166-0.08,0.353-0.08,0.561c0,0.288,0.045,0.533,0.136,0.736
		c0.091,0.202,0.224,0.356,0.4,0.464c0.176,0.106,0.389,0.16,0.64,0.16c0.25,0,0.472-0.055,0.664-0.164s0.354-0.276,0.488-0.5
		l0.52,0.327c-0.192,0.31-0.433,0.543-0.724,0.7c-0.291,0.157-0.633,0.236-1.028,0.236C29.801,53.14,29.498,53.059,29.234,52.896z"
		/>
	<path fill="#010101" d="M33.478,53.06h-0.64v-3.68h0.64V53.06z M34.358,49.944C34.289,49.915,34.2,49.9,34.094,49.9
		c-0.16,0-0.285,0.04-0.376,0.12s-0.153,0.189-0.188,0.328s-0.052,0.296-0.052,0.472H33.19c0-0.293,0.052-0.553,0.156-0.779
		c0.104-0.228,0.239-0.407,0.404-0.54c0.165-0.134,0.333-0.2,0.504-0.2c0.133,0,0.257,0.018,0.372,0.052
		c0.114,0.035,0.22,0.103,0.316,0.204l-0.352,0.528C34.505,50.02,34.427,49.973,34.358,49.944z"/>
	<path fill="#010101" d="M35.714,47.548c0.088-0.086,0.191-0.128,0.308-0.128c0.123,0,0.227,0.042,0.312,0.128
		c0.085,0.085,0.128,0.189,0.128,0.312c0,0.117-0.043,0.22-0.128,0.309c-0.085,0.088-0.189,0.132-0.312,0.132
		c-0.117,0-0.22-0.044-0.308-0.132c-0.088-0.089-0.132-0.191-0.132-0.309C35.582,47.738,35.626,47.633,35.714,47.548z M36.342,49.38
		v3.68h-0.64v-3.68H36.342z"/>
	<path fill="#010101" d="M39.934,50.312c-0.059-0.136-0.147-0.238-0.264-0.308S39.408,49.9,39.238,49.9
		c-0.187,0-0.351,0.039-0.492,0.116c-0.142,0.077-0.251,0.186-0.328,0.324s-0.116,0.299-0.116,0.479v2.24h-0.64v-3.68h0.64v0.576
		c0.123-0.225,0.276-0.39,0.46-0.496c0.184-0.107,0.396-0.16,0.636-0.16c0.261,0,0.485,0.059,0.672,0.176
		c0.187,0.117,0.332,0.283,0.436,0.496s0.156,0.47,0.156,0.768v2.32h-0.64v-2.24C40.022,50.618,39.992,50.448,39.934,50.312z"/>
	<path fill="#010101" d="M41.789,50.192c0.166-0.285,0.387-0.505,0.664-0.66c0.277-0.154,0.582-0.231,0.912-0.231
		c0.229,0,0.438,0.044,0.628,0.132s0.352,0.215,0.488,0.38c0.136,0.165,0.241,0.367,0.316,0.604s0.112,0.505,0.112,0.804
		s-0.037,0.566-0.112,0.804s-0.18,0.438-0.316,0.604c-0.136,0.165-0.299,0.292-0.488,0.38s-0.399,0.132-0.628,0.132
		c-0.331,0-0.635-0.077-0.912-0.232c-0.277-0.154-0.499-0.376-0.664-0.664c-0.165-0.287-0.248-0.629-0.248-1.023
		C41.541,50.82,41.624,50.477,41.789,50.192z M42.261,53.3c0,0.176,0.048,0.34,0.144,0.492c0.096,0.151,0.232,0.274,0.408,0.367
		c0.176,0.094,0.384,0.141,0.624,0.141c0.187,0,0.371-0.046,0.552-0.137c0.181-0.09,0.332-0.232,0.452-0.428
		c0.12-0.194,0.18-0.446,0.18-0.756v-3.6h0.64v3.6c0,0.421-0.088,0.774-0.264,1.061c-0.176,0.285-0.403,0.5-0.68,0.644
		c-0.277,0.144-0.571,0.216-0.88,0.216c-0.357,0-0.673-0.066-0.948-0.2c-0.275-0.133-0.489-0.321-0.644-0.563
		c-0.155-0.243-0.232-0.521-0.232-0.836H42.261z M42.362,51.94c0.115,0.197,0.268,0.347,0.46,0.448s0.4,0.152,0.624,0.152
		c0.139,0,0.277-0.029,0.416-0.089c0.139-0.059,0.265-0.144,0.38-0.256c0.115-0.111,0.207-0.249,0.276-0.412
		c0.069-0.162,0.104-0.351,0.104-0.563c0-0.214-0.035-0.401-0.104-0.564c-0.069-0.162-0.161-0.3-0.276-0.412
		c-0.115-0.111-0.241-0.197-0.38-0.256S43.584,49.9,43.446,49.9c-0.224,0-0.432,0.051-0.624,0.152s-0.345,0.251-0.46,0.448
		s-0.172,0.437-0.172,0.72C42.19,51.502,42.247,51.743,42.362,51.94z"/>
</g>
<g>
	<line fill="none" stroke="#B61F24" stroke-miterlimit="10" x1="56.833" y1="36.217" x2="85.375" y2="36.217"/>
	<line fill="none" stroke="#1EA049" stroke-miterlimit="10" x1="90.552" y1="35.932" x2="119.094" y2="35.932"/>
	<line fill="none" stroke="#3C409A" stroke-miterlimit="10" x1="52.435" y1="56.203" x2="85.743" y2="56.203"/>
	<line fill="none" stroke="#B61F24" stroke-miterlimit="10" x1="56.833" y1="46.889" x2="85.375" y2="46.889"/>
	<line fill="none" stroke="#A7BB39" stroke-miterlimit="10" x1="91.651" y1="52.587" x2="115.796" y2="52.587"/>
	<line fill="none" stroke="#A7BB39" stroke-miterlimit="10" x1="96.049" y1="56.203" x2="120.194" y2="56.203"/>
	<line fill="none" stroke="#1EA049" stroke-miterlimit="10" x1="91.651" y1="43.161" x2="120.194" y2="43.161"/>
	<line fill="none" stroke="#B61F24" stroke-miterlimit="10" x1="55.734" y1="39.774" x2="84.276" y2="39.774"/>
	<line fill="none" stroke="#A7BB39" stroke-miterlimit="10" x1="93.85" y1="48.973" x2="117.995" y2="48.973"/>
	<line fill="none" stroke="#1EA049" stroke-miterlimit="10" x1="92.75" y1="39.546" x2="121.293" y2="39.546"/>
	<line fill="none" stroke="#B61F24" stroke-miterlimit="10" x1="53.535" y1="43.332" x2="82.078" y2="43.332"/>
	<line fill="none" stroke="#3C409A" stroke-miterlimit="10" x1="54.634" y1="52.644" x2="87.942" y2="52.644"/>
</g>
<g enable-background="new    ">
	<path fill="#010101" d="M3.155,83.139h-0.68l0.68-5.88l2.24,4.056l2.24-4.056l0.68,5.88h-0.68l-0.416-3.784L5.395,82.62
		l-1.824-3.265L3.155,83.139z"/>
	<path fill="#010101" d="M9.963,82.199c0.059,0.137,0.146,0.24,0.264,0.312c0.118,0.072,0.261,0.108,0.432,0.108
		c0.187,0,0.351-0.039,0.492-0.116c0.141-0.077,0.25-0.186,0.328-0.324c0.077-0.139,0.116-0.299,0.116-0.48v-2.239h0.64v3.68h-0.64
		v-0.576c-0.123,0.219-0.275,0.383-0.456,0.492s-0.395,0.164-0.64,0.164c-0.256,0-0.479-0.059-0.668-0.176
		c-0.189-0.117-0.336-0.284-0.44-0.5s-0.156-0.471-0.156-0.765v-2.319h0.64v2.239C9.875,81.897,9.904,82.063,9.963,82.199z"/>
	<path fill="#010101" d="M14.075,76.899v6.24h-0.64v-6.24H14.075z"/>
	<path fill="#010101" d="M16.555,79.459v0.6h-1.84v-0.6H16.555z M15.955,78.179v4.96h-0.64v-4.96H15.955z"/>
	<path fill="#010101" d="M17.327,77.627c0.088-0.086,0.191-0.128,0.308-0.128c0.123,0,0.227,0.042,0.312,0.128
		c0.085,0.085,0.128,0.189,0.128,0.312c0,0.117-0.043,0.22-0.128,0.309c-0.085,0.088-0.189,0.132-0.312,0.132
		c-0.117,0-0.22-0.044-0.308-0.132c-0.088-0.089-0.132-0.191-0.132-0.309C17.195,77.817,17.239,77.712,17.327,77.627z
		 M17.955,79.459v3.68h-0.64v-3.68H17.955z"/>
	<path fill="#010101" d="M19.202,80.271c0.166-0.285,0.387-0.505,0.664-0.66c0.277-0.154,0.582-0.231,0.912-0.231
		c0.229,0,0.438,0.044,0.628,0.132s0.352,0.215,0.488,0.38c0.136,0.165,0.241,0.367,0.316,0.604s0.112,0.505,0.112,0.804
		s-0.037,0.566-0.112,0.804s-0.18,0.438-0.316,0.604c-0.136,0.165-0.299,0.292-0.488,0.38s-0.399,0.132-0.628,0.132
		c-0.331,0-0.635-0.077-0.912-0.232c-0.277-0.154-0.499-0.376-0.664-0.664c-0.165-0.287-0.248-0.629-0.248-1.023
		C18.954,80.899,19.037,80.556,19.202,80.271z M19.675,83.379c0,0.176,0.048,0.34,0.144,0.492c0.096,0.151,0.232,0.274,0.408,0.367
		c0.176,0.094,0.384,0.141,0.624,0.141c0.187,0,0.371-0.046,0.552-0.137c0.181-0.09,0.332-0.232,0.452-0.428
		c0.12-0.194,0.18-0.446,0.18-0.756v-3.6h0.64v3.6c0,0.421-0.088,0.774-0.264,1.061c-0.176,0.285-0.403,0.5-0.68,0.644
		c-0.277,0.144-0.571,0.216-0.88,0.216c-0.357,0-0.673-0.066-0.948-0.2c-0.275-0.133-0.489-0.321-0.644-0.563
		c-0.155-0.243-0.232-0.521-0.232-0.836H19.675z M19.775,82.019c0.115,0.197,0.268,0.347,0.46,0.448s0.4,0.152,0.624,0.152
		c0.139,0,0.277-0.029,0.416-0.089c0.139-0.059,0.265-0.144,0.38-0.256c0.115-0.111,0.207-0.249,0.276-0.412
		c0.069-0.162,0.104-0.351,0.104-0.563c0-0.214-0.035-0.401-0.104-0.564c-0.069-0.162-0.161-0.3-0.276-0.412
		c-0.115-0.111-0.241-0.197-0.38-0.256s-0.277-0.088-0.416-0.088c-0.224,0-0.432,0.051-0.624,0.152s-0.345,0.251-0.46,0.448
		s-0.172,0.437-0.172,0.72C19.603,81.582,19.66,81.822,19.775,82.019z"/>
	<path fill="#010101" d="M24.351,82.975c-0.264-0.162-0.47-0.388-0.616-0.676c-0.147-0.288-0.22-0.621-0.22-1
		c0-0.288,0.044-0.55,0.132-0.784s0.212-0.436,0.372-0.604c0.16-0.169,0.352-0.299,0.576-0.393c0.224-0.093,0.472-0.14,0.744-0.14
		c0.363,0,0.673,0.076,0.932,0.228c0.258,0.152,0.457,0.369,0.596,0.652c0.139,0.282,0.208,0.618,0.208,1.008
		c0,0.037-0.001,0.076-0.004,0.116s-0.004,0.065-0.004,0.076h-3.144v-0.544h2.64l-0.256,0.367c0.016-0.026,0.032-0.067,0.048-0.124
		c0.016-0.056,0.024-0.103,0.024-0.14c0-0.219-0.044-0.408-0.132-0.568c-0.088-0.159-0.209-0.285-0.364-0.376
		c-0.155-0.09-0.336-0.136-0.544-0.136c-0.181,0-0.345,0.029-0.492,0.088c-0.146,0.059-0.271,0.145-0.372,0.256
		c-0.102,0.112-0.179,0.251-0.232,0.416c-0.053,0.166-0.08,0.353-0.08,0.561c0,0.288,0.045,0.533,0.136,0.736
		c0.091,0.202,0.224,0.356,0.4,0.464c0.176,0.106,0.389,0.16,0.64,0.16c0.25,0,0.472-0.055,0.664-0.164s0.354-0.276,0.488-0.5
		l0.52,0.327c-0.192,0.31-0.433,0.543-0.724,0.7c-0.291,0.157-0.633,0.236-1.028,0.236C24.917,83.219,24.615,83.138,24.351,82.975z"
		/>
	<path fill="#010101" d="M30.227,80.391c-0.059-0.136-0.147-0.238-0.264-0.308s-0.261-0.104-0.432-0.104
		c-0.187,0-0.351,0.039-0.492,0.116c-0.142,0.077-0.251,0.186-0.328,0.324s-0.116,0.299-0.116,0.479v2.24h-0.64v-3.68h0.64v0.576
		c0.123-0.225,0.276-0.39,0.46-0.496c0.184-0.107,0.396-0.16,0.636-0.16c0.261,0,0.485,0.059,0.672,0.176
		c0.187,0.117,0.332,0.283,0.436,0.496s0.156,0.47,0.156,0.768v2.32h-0.64v-2.24C30.315,80.697,30.285,80.527,30.227,80.391z"/>
	<path fill="#010101" d="M32.087,80.307c0.168-0.288,0.396-0.515,0.684-0.68c0.288-0.166,0.611-0.248,0.968-0.248
		c0.362,0,0.687,0.082,0.972,0.248c0.286,0.165,0.512,0.392,0.68,0.68s0.252,0.619,0.252,0.992c0,0.368-0.084,0.697-0.252,0.988
		c-0.168,0.29-0.395,0.519-0.68,0.684c-0.285,0.165-0.609,0.248-0.972,0.248c-0.357,0-0.68-0.083-0.968-0.248
		c-0.288-0.165-0.516-0.394-0.684-0.684c-0.168-0.291-0.252-0.62-0.252-0.988C31.834,80.926,31.918,80.595,32.087,80.307z
		 M32.646,81.979c0.109,0.197,0.259,0.354,0.448,0.468c0.189,0.115,0.404,0.173,0.644,0.173c0.24,0,0.455-0.058,0.644-0.173
		c0.189-0.114,0.338-0.271,0.448-0.468s0.164-0.424,0.164-0.68s-0.055-0.484-0.164-0.685c-0.109-0.199-0.259-0.355-0.448-0.468
		c-0.189-0.111-0.404-0.168-0.644-0.168c-0.24,0-0.455,0.057-0.644,0.168c-0.189,0.112-0.339,0.269-0.448,0.468
		c-0.109,0.2-0.164,0.429-0.164,0.685S32.537,81.782,32.646,81.979z"/>
	<path fill="#010101" d="M41.563,83.139h-0.64v-2.24c0-0.213-0.025-0.387-0.076-0.52c-0.051-0.134-0.128-0.233-0.232-0.3
		c-0.104-0.067-0.236-0.101-0.396-0.101c-0.176,0-0.328,0.036-0.456,0.108c-0.128,0.071-0.227,0.177-0.296,0.315
		s-0.104,0.305-0.104,0.496v2.24h-0.64v-2.24c0-0.213-0.025-0.387-0.076-0.52c-0.051-0.134-0.128-0.233-0.232-0.3
		c-0.104-0.067-0.236-0.101-0.396-0.101c-0.176,0-0.328,0.036-0.456,0.108c-0.128,0.071-0.227,0.177-0.296,0.315
		c-0.07,0.139-0.104,0.305-0.104,0.496v2.24h-0.64v-3.68h0.64v0.536c0.074-0.139,0.161-0.254,0.26-0.345s0.212-0.158,0.34-0.204
		c0.128-0.045,0.267-0.067,0.416-0.067c0.171,0,0.325,0.026,0.464,0.08c0.138,0.053,0.26,0.131,0.364,0.231
		c0.104,0.102,0.183,0.227,0.236,0.376c0.128-0.229,0.288-0.401,0.48-0.516c0.192-0.114,0.411-0.172,0.656-0.172
		c0.25,0,0.464,0.056,0.64,0.168c0.176,0.111,0.311,0.275,0.404,0.492c0.093,0.216,0.14,0.476,0.14,0.779V83.139z"/>
	<path fill="#010101" d="M43.279,82.975c-0.264-0.162-0.47-0.388-0.616-0.676c-0.147-0.288-0.22-0.621-0.22-1
		c0-0.288,0.044-0.55,0.132-0.784s0.212-0.436,0.372-0.604c0.16-0.169,0.352-0.299,0.576-0.393c0.224-0.093,0.472-0.14,0.744-0.14
		c0.363,0,0.673,0.076,0.932,0.228c0.258,0.152,0.457,0.369,0.596,0.652c0.139,0.282,0.208,0.618,0.208,1.008
		c0,0.037-0.001,0.076-0.004,0.116s-0.004,0.065-0.004,0.076h-3.144v-0.544h2.64l-0.256,0.367c0.016-0.026,0.032-0.067,0.048-0.124
		c0.016-0.056,0.024-0.103,0.024-0.14c0-0.219-0.044-0.408-0.132-0.568c-0.088-0.159-0.209-0.285-0.364-0.376
		c-0.155-0.09-0.336-0.136-0.544-0.136c-0.181,0-0.345,0.029-0.492,0.088c-0.146,0.059-0.271,0.145-0.372,0.256
		c-0.102,0.112-0.179,0.251-0.232,0.416c-0.053,0.166-0.08,0.353-0.08,0.561c0,0.288,0.045,0.533,0.136,0.736
		c0.091,0.202,0.224,0.356,0.4,0.464c0.176,0.106,0.389,0.16,0.64,0.16c0.25,0,0.472-0.055,0.664-0.164s0.354-0.276,0.488-0.5
		l0.52,0.327c-0.192,0.31-0.433,0.543-0.724,0.7c-0.291,0.157-0.633,0.236-1.028,0.236C43.845,83.219,43.543,83.138,43.279,82.975z"
		/>
</g>
<g enable-background="new    ">
	<path fill="#010101" d="M13.37,91.963c0.067,0.102,0.16,0.178,0.28,0.229s0.257,0.076,0.412,0.076c0.197,0,0.375-0.04,0.532-0.12
		s0.283-0.193,0.376-0.34c0.093-0.147,0.14-0.316,0.14-0.509l0.128,0.48c0,0.234-0.071,0.43-0.212,0.584
		c-0.142,0.154-0.315,0.27-0.52,0.344c-0.206,0.075-0.409,0.112-0.612,0.112c-0.224,0-0.434-0.047-0.628-0.14
		c-0.194-0.094-0.351-0.229-0.468-0.404s-0.176-0.39-0.176-0.64c0-0.24,0.057-0.448,0.172-0.624c0.115-0.177,0.28-0.313,0.496-0.412
		c0.216-0.099,0.473-0.148,0.772-0.148c0.267,0,0.489,0.031,0.668,0.092c0.179,0.062,0.321,0.131,0.428,0.208
		c0.107,0.078,0.179,0.141,0.216,0.188v0.376c-0.187-0.128-0.379-0.22-0.576-0.276c-0.197-0.056-0.408-0.084-0.632-0.084
		c-0.208,0-0.377,0.027-0.508,0.08c-0.131,0.054-0.228,0.128-0.292,0.224c-0.064,0.097-0.096,0.211-0.096,0.345
		C13.27,91.743,13.303,91.863,13.37,91.963z M12.862,89.436c0.139-0.102,0.329-0.203,0.572-0.305
		c0.243-0.101,0.535-0.151,0.876-0.151c0.288,0,0.54,0.044,0.756,0.132c0.216,0.088,0.384,0.215,0.504,0.38s0.18,0.368,0.18,0.608
		v2.64h-0.64v-2.552c0-0.128-0.021-0.233-0.064-0.316c-0.043-0.082-0.103-0.147-0.18-0.196c-0.077-0.048-0.167-0.082-0.268-0.104
		c-0.101-0.021-0.208-0.032-0.32-0.032c-0.181,0-0.345,0.021-0.492,0.064c-0.146,0.043-0.271,0.093-0.372,0.151
		c-0.102,0.06-0.182,0.109-0.24,0.152L12.862,89.436z"/>
	<path fill="#010101" d="M17.47,86.5v6.24h-0.64V86.5H17.47z"/>
	<path fill="#010101" d="M18.802,87.228c0.088-0.086,0.191-0.128,0.308-0.128c0.123,0,0.227,0.042,0.312,0.128
		c0.085,0.085,0.128,0.189,0.128,0.312c0,0.117-0.043,0.22-0.128,0.309c-0.085,0.088-0.189,0.132-0.312,0.132
		c-0.117,0-0.22-0.044-0.308-0.132c-0.088-0.089-0.132-0.191-0.132-0.309C18.67,87.417,18.714,87.313,18.802,87.228z M19.43,89.06
		v3.68h-0.64v-3.68H19.43z"/>
	<path fill="#010101" d="M20.677,89.872c0.166-0.285,0.387-0.505,0.664-0.66c0.277-0.154,0.582-0.231,0.912-0.231
		c0.229,0,0.438,0.044,0.628,0.132s0.352,0.215,0.488,0.38c0.136,0.165,0.241,0.367,0.316,0.604s0.112,0.505,0.112,0.804
		s-0.037,0.566-0.112,0.804s-0.18,0.438-0.316,0.604c-0.136,0.165-0.299,0.292-0.488,0.38s-0.399,0.132-0.628,0.132
		c-0.331,0-0.635-0.077-0.912-0.232c-0.277-0.154-0.499-0.376-0.664-0.664c-0.165-0.287-0.248-0.629-0.248-1.023
		C20.429,90.5,20.512,90.157,20.677,89.872z M21.15,92.98c0,0.176,0.048,0.34,0.144,0.492c0.096,0.151,0.232,0.274,0.408,0.367
		c0.176,0.094,0.384,0.141,0.624,0.141c0.187,0,0.371-0.046,0.552-0.137c0.181-0.09,0.332-0.232,0.452-0.428
		c0.12-0.194,0.18-0.446,0.18-0.756v-3.6h0.64v3.6c0,0.421-0.088,0.774-0.264,1.061c-0.176,0.285-0.403,0.5-0.68,0.644
		c-0.277,0.144-0.571,0.216-0.88,0.216c-0.357,0-0.673-0.066-0.948-0.2c-0.275-0.133-0.489-0.321-0.644-0.563
		c-0.155-0.243-0.232-0.521-0.232-0.836H21.15z M21.25,91.62c0.115,0.197,0.268,0.347,0.46,0.448s0.4,0.152,0.624,0.152
		c0.139,0,0.277-0.029,0.416-0.089c0.139-0.059,0.265-0.144,0.38-0.256c0.115-0.111,0.207-0.249,0.276-0.412
		c0.069-0.162,0.104-0.351,0.104-0.563c0-0.214-0.035-0.401-0.104-0.564c-0.069-0.162-0.161-0.3-0.276-0.412
		c-0.115-0.111-0.241-0.197-0.38-0.256s-0.277-0.088-0.416-0.088c-0.224,0-0.432,0.051-0.624,0.152s-0.345,0.251-0.46,0.448
		s-0.172,0.437-0.172,0.72C21.078,91.182,21.135,91.422,21.25,91.62z"/>
	<path fill="#010101" d="M27.582,89.992c-0.059-0.136-0.147-0.238-0.264-0.308s-0.261-0.104-0.432-0.104
		c-0.187,0-0.351,0.039-0.492,0.116c-0.142,0.077-0.251,0.186-0.328,0.324S25.95,90.319,25.95,90.5v2.24h-0.64v-3.68h0.64v0.576
		c0.123-0.225,0.276-0.39,0.46-0.496c0.184-0.107,0.396-0.16,0.636-0.16c0.261,0,0.485,0.059,0.672,0.176
		c0.187,0.117,0.332,0.283,0.436,0.496s0.156,0.47,0.156,0.768v2.32h-0.64V90.5C27.67,90.297,27.64,90.127,27.582,89.992z"/>
	<path fill="#010101" d="M34.55,92.74h-0.64V90.5c0-0.213-0.025-0.387-0.076-0.52c-0.051-0.134-0.128-0.233-0.232-0.3
		c-0.104-0.067-0.236-0.101-0.396-0.101c-0.176,0-0.328,0.036-0.456,0.108c-0.128,0.071-0.227,0.177-0.296,0.315
		S32.35,90.308,32.35,90.5v2.24h-0.64V90.5c0-0.213-0.025-0.387-0.076-0.52c-0.051-0.134-0.128-0.233-0.232-0.3
		c-0.104-0.067-0.236-0.101-0.396-0.101c-0.176,0-0.328,0.036-0.456,0.108c-0.128,0.071-0.227,0.177-0.296,0.315
		c-0.07,0.139-0.104,0.305-0.104,0.496v2.24h-0.64v-3.68h0.64v0.536c0.074-0.139,0.161-0.254,0.26-0.345s0.212-0.158,0.34-0.204
		c0.128-0.045,0.267-0.067,0.416-0.067c0.171,0,0.325,0.026,0.464,0.08c0.138,0.053,0.26,0.131,0.364,0.231
		c0.104,0.102,0.183,0.227,0.236,0.376c0.128-0.229,0.288-0.401,0.48-0.516c0.192-0.114,0.411-0.172,0.656-0.172
		c0.25,0,0.464,0.056,0.64,0.168c0.176,0.111,0.311,0.275,0.404,0.492c0.093,0.216,0.14,0.476,0.14,0.779V92.74z"/>
	<path fill="#010101" d="M36.266,92.576c-0.264-0.162-0.47-0.388-0.616-0.676c-0.147-0.288-0.22-0.621-0.22-1
		c0-0.288,0.044-0.55,0.132-0.784s0.212-0.436,0.372-0.604c0.16-0.169,0.352-0.299,0.576-0.393c0.224-0.093,0.472-0.14,0.744-0.14
		c0.363,0,0.673,0.076,0.932,0.228c0.258,0.152,0.457,0.369,0.596,0.652c0.139,0.282,0.208,0.618,0.208,1.008
		c0,0.037-0.001,0.076-0.004,0.116s-0.004,0.065-0.004,0.076h-3.144v-0.544h2.64l-0.256,0.367c0.016-0.026,0.032-0.067,0.048-0.124
		c0.016-0.056,0.024-0.103,0.024-0.14c0-0.219-0.044-0.408-0.132-0.568c-0.088-0.159-0.209-0.285-0.364-0.376
		c-0.155-0.09-0.336-0.136-0.544-0.136c-0.181,0-0.345,0.029-0.492,0.088c-0.146,0.059-0.271,0.145-0.372,0.256
		c-0.102,0.112-0.179,0.251-0.232,0.416c-0.053,0.166-0.08,0.353-0.08,0.561c0,0.288,0.045,0.533,0.136,0.736
		c0.091,0.202,0.224,0.356,0.4,0.464c0.176,0.106,0.389,0.16,0.64,0.16c0.25,0,0.472-0.055,0.664-0.164s0.354-0.276,0.488-0.5
		l0.52,0.327c-0.192,0.31-0.433,0.543-0.724,0.7c-0.291,0.157-0.633,0.236-1.028,0.236C36.832,92.82,36.53,92.739,36.266,92.576z"/>
	<path fill="#010101" d="M42.142,89.992c-0.059-0.136-0.147-0.238-0.264-0.308s-0.261-0.104-0.432-0.104
		c-0.187,0-0.351,0.039-0.492,0.116c-0.142,0.077-0.251,0.186-0.328,0.324S40.51,90.319,40.51,90.5v2.24h-0.64v-3.68h0.64v0.576
		c0.123-0.225,0.276-0.39,0.46-0.496c0.184-0.107,0.396-0.16,0.636-0.16c0.261,0,0.485,0.059,0.672,0.176
		c0.187,0.117,0.332,0.283,0.436,0.496s0.156,0.47,0.156,0.768v2.32h-0.64V90.5C42.23,90.297,42.2,90.127,42.142,89.992z"/>
	<path fill="#010101" d="M45.35,89.06v0.6h-1.84v-0.6H45.35z M44.75,87.78v4.96h-0.64v-4.96H44.75z"/>
</g>
<g>
	<g>
		<line fill="none" stroke="#000000" stroke-width="0.5" stroke-miterlimit="10" x1="55.077" y1="75.898" x2="55.077" y2="79.455"/>
		<line fill="none" stroke="#000000" stroke-width="0.5" stroke-miterlimit="10" x1="56.231" y1="75.898" x2="56.231" y2="79.455"/>
		<line fill="none" stroke="#000000" stroke-width="0.5" stroke-miterlimit="10" x1="57.386" y1="75.898" x2="57.386" y2="79.455"/>
		<line fill="none" stroke="#000000" stroke-width="0.5" stroke-miterlimit="10" x1="58.541" y1="75.898" x2="58.541" y2="79.455"/>
		<line fill="none" stroke="#000000" stroke-width="0.5" stroke-miterlimit="10" x1="59.695" y1="75.898" x2="59.695" y2="79.455"/>
		<line fill="none" stroke="#000000" stroke-width="0.5" stroke-miterlimit="10" x1="62.004" y1="75.898" x2="62.004" y2="79.455"/>
		<line fill="none" stroke="#000000" stroke-width="0.5" stroke-miterlimit="10" x1="63.16" y1="75.898" x2="63.16" y2="79.455"/>
		<line fill="none" stroke="#000000" stroke-width="0.5" stroke-miterlimit="10" x1="64.315" y1="75.898" x2="64.315" y2="79.455"/>
		<line fill="none" stroke="#000000" stroke-width="0.5" stroke-miterlimit="10" x1="65.469" y1="75.898" x2="65.469" y2="79.455"/>
		<line fill="none" stroke="#000000" stroke-width="0.5" stroke-miterlimit="10" x1="66.624" y1="75.898" x2="66.624" y2="79.455"/>
		<line fill="none" stroke="#000000" stroke-width="0.5" stroke-miterlimit="10" x1="67.778" y1="75.898" x2="67.778" y2="79.455"/>
		<line fill="none" stroke="#000000" stroke-width="0.5" stroke-miterlimit="10" x1="68.933" y1="75.898" x2="68.933" y2="79.455"/>
		<line fill="none" stroke="#000000" stroke-width="0.5" stroke-miterlimit="10" x1="70.088" y1="75.898" x2="70.088" y2="79.455"/>
		<line fill="none" stroke="#000000" stroke-width="0.5" stroke-miterlimit="10" x1="71.243" y1="75.898" x2="71.243" y2="79.455"/>
		<line fill="none" stroke="#000000" stroke-width="0.5" stroke-miterlimit="10" x1="72.397" y1="75.898" x2="72.397" y2="79.455"/>
		<line fill="none" stroke="#000000" stroke-width="0.5" stroke-miterlimit="10" x1="73.551" y1="75.898" x2="73.551" y2="79.455"/>
		<line fill="none" stroke="#000000" stroke-width="0.5" stroke-miterlimit="10" x1="74.707" y1="75.898" x2="74.707" y2="79.455"/>
		<line fill="none" stroke="#000000" stroke-width="0.5" stroke-miterlimit="10" x1="75.862" y1="75.898" x2="75.862" y2="79.455"/>
		<line fill="none" stroke="#000000" stroke-width="0.5" stroke-miterlimit="10" x1="77.016" y1="75.898" x2="77.016" y2="79.455"/>
		<line fill="none" stroke="#000000" stroke-width="0.5" stroke-miterlimit="10" x1="78.171" y1="75.898" x2="78.171" y2="79.455"/>
		<line fill="none" stroke="#000000" stroke-width="0.5" stroke-miterlimit="10" x1="79.326" y1="75.898" x2="79.326" y2="79.455"/>
		<line fill="none" stroke="#000000" stroke-width="0.5" stroke-miterlimit="10" x1="80.481" y1="75.898" x2="80.481" y2="79.455"/>
		<line fill="none" stroke="#000000" stroke-width="0.5" stroke-miterlimit="10" x1="81.635" y1="75.898" x2="81.635" y2="79.455"/>
	</g>
	<g>
		<line fill="none" stroke="#000000" stroke-width="0.5" stroke-miterlimit="10" x1="55.077" y1="79.548" x2="55.077" y2="83.105"/>
		<line fill="none" stroke="#000000" stroke-width="0.5" stroke-miterlimit="10" x1="56.231" y1="79.548" x2="56.231" y2="83.105"/>
		<line fill="none" stroke="#000000" stroke-width="0.5" stroke-miterlimit="10" x1="57.386" y1="79.548" x2="57.386" y2="83.105"/>
		<line fill="none" stroke="#000000" stroke-width="0.5" stroke-miterlimit="10" x1="58.541" y1="79.548" x2="58.541" y2="83.105"/>
		<line fill="none" stroke="#000000" stroke-width="0.5" stroke-miterlimit="10" x1="59.695" y1="79.548" x2="59.695" y2="83.105"/>
		<line fill="none" stroke="#000000" stroke-width="0.5" stroke-miterlimit="10" x1="60.85" y1="79.548" x2="60.85" y2="83.105"/>
		<line fill="none" stroke="#000000" stroke-width="0.5" stroke-miterlimit="10" x1="62.004" y1="79.548" x2="62.004" y2="83.105"/>
		<line fill="none" stroke="#000000" stroke-width="0.5" stroke-miterlimit="10" x1="63.16" y1="79.548" x2="63.16" y2="83.105"/>
		<line fill="none" stroke="#000000" stroke-width="0.5" stroke-miterlimit="10" x1="64.315" y1="79.548" x2="64.315" y2="83.105"/>
		<line fill="none" stroke="#000000" stroke-width="0.5" stroke-miterlimit="10" x1="65.469" y1="79.548" x2="65.469" y2="83.105"/>
		<line fill="none" stroke="#000000" stroke-width="0.5" stroke-miterlimit="10" x1="66.624" y1="79.548" x2="66.624" y2="83.105"/>
		<line fill="none" stroke="#000000" stroke-width="0.5" stroke-miterlimit="10" x1="67.778" y1="79.548" x2="67.778" y2="83.105"/>
		<line fill="none" stroke="#000000" stroke-width="0.5" stroke-miterlimit="10" x1="68.933" y1="79.548" x2="68.933" y2="83.105"/>
		<line fill="none" stroke="#000000" stroke-width="0.5" stroke-miterlimit="10" x1="70.088" y1="79.548" x2="70.088" y2="83.105"/>
		<line fill="none" stroke="#000000" stroke-width="0.5" stroke-miterlimit="10" x1="71.243" y1="79.548" x2="71.243" y2="83.105"/>
		<line fill="none" stroke="#000000" stroke-width="0.5" stroke-miterlimit="10" x1="72.397" y1="79.548" x2="72.397" y2="83.105"/>
		<line fill="none" stroke="#000000" stroke-width="0.5" stroke-miterlimit="10" x1="74.707" y1="79.548" x2="74.707" y2="83.105"/>
		<line fill="none" stroke="#000000" stroke-width="0.5" stroke-miterlimit="10" x1="75.862" y1="79.548" x2="75.862" y2="83.105"/>
		<line fill="none" stroke="#000000" stroke-width="0.5" stroke-miterlimit="10" x1="77.016" y1="79.548" x2="77.016" y2="83.105"/>
		<line fill="none" stroke="#000000" stroke-width="0.5" stroke-miterlimit="10" x1="78.171" y1="79.548" x2="78.171" y2="83.105"/>
		<line fill="none" stroke="#000000" stroke-width="0.5" stroke-miterlimit="10" x1="79.326" y1="79.548" x2="79.326" y2="83.105"/>
		<line fill="none" stroke="#000000" stroke-width="0.5" stroke-miterlimit="10" x1="80.481" y1="79.548" x2="80.481" y2="83.105"/>
		<line fill="none" stroke="#000000" stroke-width="0.5" stroke-miterlimit="10" x1="81.635" y1="79.548" x2="81.635" y2="83.105"/>
	</g>
	<g>
		<line fill="none" stroke="#000000" stroke-width="0.5" stroke-miterlimit="10" x1="55.077" y1="83.14" x2="55.077" y2="86.697"/>
		<line fill="none" stroke="#000000" stroke-width="0.5" stroke-miterlimit="10" x1="56.231" y1="83.14" x2="56.231" y2="86.697"/>
		<line fill="none" stroke="#000000" stroke-width="0.5" stroke-miterlimit="10" x1="57.386" y1="83.14" x2="57.386" y2="86.697"/>
		<line fill="none" stroke="#000000" stroke-width="0.5" stroke-miterlimit="10" x1="58.541" y1="83.14" x2="58.541" y2="86.697"/>
		<line fill="none" stroke="#000000" stroke-width="0.5" stroke-miterlimit="10" x1="59.695" y1="83.14" x2="59.695" y2="86.697"/>
		<line fill="none" stroke="#000000" stroke-width="0.5" stroke-miterlimit="10" x1="60.85" y1="83.14" x2="60.85" y2="86.697"/>
		<line fill="none" stroke="#000000" stroke-width="0.5" stroke-miterlimit="10" x1="62.004" y1="83.14" x2="62.004" y2="86.697"/>
		<line fill="none" stroke="#000000" stroke-width="0.5" stroke-miterlimit="10" x1="63.16" y1="83.14" x2="63.16" y2="86.697"/>
		<line fill="none" stroke="#000000" stroke-width="0.5" stroke-miterlimit="10" x1="64.315" y1="83.14" x2="64.315" y2="86.697"/>
		<line fill="none" stroke="#000000" stroke-width="0.5" stroke-miterlimit="10" x1="65.469" y1="83.14" x2="65.469" y2="86.697"/>
		<line fill="none" stroke="#000000" stroke-width="0.5" stroke-miterlimit="10" x1="66.624" y1="83.14" x2="66.624" y2="86.697"/>
		<line fill="none" stroke="#000000" stroke-width="0.5" stroke-miterlimit="10" x1="67.778" y1="83.14" x2="67.778" y2="86.697"/>
		<line fill="none" stroke="#000000" stroke-width="0.5" stroke-miterlimit="10" x1="68.933" y1="83.14" x2="68.933" y2="86.697"/>
		<line fill="none" stroke="#000000" stroke-width="0.5" stroke-miterlimit="10" x1="70.088" y1="83.14" x2="70.088" y2="86.697"/>
		<line fill="none" stroke="#000000" stroke-width="0.5" stroke-miterlimit="10" x1="71.243" y1="83.14" x2="71.243" y2="86.697"/>
		<line fill="none" stroke="#000000" stroke-width="0.5" stroke-miterlimit="10" x1="72.397" y1="83.14" x2="72.397" y2="86.697"/>
		<line fill="none" stroke="#000000" stroke-width="0.5" stroke-miterlimit="10" x1="74.707" y1="83.14" x2="74.707" y2="86.697"/>
		<line fill="none" stroke="#000000" stroke-width="0.5" stroke-miterlimit="10" x1="75.862" y1="83.14" x2="75.862" y2="86.697"/>
		<line fill="none" stroke="#000000" stroke-width="0.5" stroke-miterlimit="10" x1="77.016" y1="83.14" x2="77.016" y2="86.697"/>
		<line fill="none" stroke="#000000" stroke-width="0.5" stroke-miterlimit="10" x1="78.171" y1="83.14" x2="78.171" y2="86.697"/>
		<line fill="none" stroke="#000000" stroke-width="0.5" stroke-miterlimit="10" x1="79.326" y1="83.14" x2="79.326" y2="86.697"/>
		<line fill="none" stroke="#000000" stroke-width="0.5" stroke-miterlimit="10" x1="80.481" y1="83.14" x2="80.481" y2="86.697"/>
		<line fill="none" stroke="#000000" stroke-width="0.5" stroke-miterlimit="10" x1="81.635" y1="83.14" x2="81.635" y2="86.697"/>
	</g>
	<g>
		<line fill="none" stroke="#000000" stroke-width="0.5" stroke-miterlimit="10" x1="55.077" y1="92.326" x2="55.077" y2="95.882"/>
		<line fill="none" stroke="#000000" stroke-width="0.5" stroke-miterlimit="10" x1="56.231" y1="92.326" x2="56.231" y2="95.882"/>
		<line fill="none" stroke="#000000" stroke-width="0.5" stroke-miterlimit="10" x1="57.386" y1="92.326" x2="57.386" y2="95.882"/>
		<line fill="none" stroke="#000000" stroke-width="0.5" stroke-miterlimit="10" x1="58.541" y1="92.326" x2="58.541" y2="95.882"/>
		<line fill="none" stroke="#000000" stroke-width="0.5" stroke-miterlimit="10" x1="59.695" y1="92.326" x2="59.695" y2="95.882"/>
		<line fill="none" stroke="#000000" stroke-width="0.5" stroke-miterlimit="10" x1="60.85" y1="92.326" x2="60.85" y2="95.882"/>
		<line fill="none" stroke="#000000" stroke-width="0.5" stroke-miterlimit="10" x1="63.16" y1="92.326" x2="63.16" y2="95.882"/>
		<line fill="none" stroke="#000000" stroke-width="0.5" stroke-miterlimit="10" x1="64.315" y1="92.326" x2="64.315" y2="95.882"/>
		<line fill="none" stroke="#000000" stroke-width="0.5" stroke-miterlimit="10" x1="65.469" y1="92.326" x2="65.469" y2="95.882"/>
		<line fill="none" stroke="#000000" stroke-width="0.5" stroke-miterlimit="10" x1="66.624" y1="92.326" x2="66.624" y2="95.882"/>
		<line fill="none" stroke="#000000" stroke-width="0.5" stroke-miterlimit="10" x1="67.778" y1="92.326" x2="67.778" y2="95.882"/>
		<line fill="none" stroke="#000000" stroke-width="0.5" stroke-miterlimit="10" x1="68.933" y1="92.326" x2="68.933" y2="95.882"/>
		<line fill="none" stroke="#000000" stroke-width="0.5" stroke-miterlimit="10" x1="70.088" y1="92.326" x2="70.088" y2="95.882"/>
		<line fill="none" stroke="#000000" stroke-width="0.5" stroke-miterlimit="10" x1="71.243" y1="92.326" x2="71.243" y2="95.882"/>
		<line fill="none" stroke="#000000" stroke-width="0.5" stroke-miterlimit="10" x1="72.397" y1="92.326" x2="72.397" y2="95.882"/>
		<line fill="none" stroke="#000000" stroke-width="0.5" stroke-miterlimit="10" x1="73.551" y1="92.326" x2="73.551" y2="95.882"/>
		<line fill="none" stroke="#000000" stroke-width="0.5" stroke-miterlimit="10" x1="74.707" y1="92.326" x2="74.707" y2="95.882"/>
		<line fill="none" stroke="#000000" stroke-width="0.5" stroke-miterlimit="10" x1="75.862" y1="92.326" x2="75.862" y2="95.882"/>
		<line fill="none" stroke="#000000" stroke-width="0.5" stroke-miterlimit="10" x1="77.016" y1="92.326" x2="77.016" y2="95.882"/>
		<line fill="none" stroke="#000000" stroke-width="0.5" stroke-miterlimit="10" x1="78.171" y1="92.326" x2="78.171" y2="95.882"/>
		<line fill="none" stroke="#000000" stroke-width="0.5" stroke-miterlimit="10" x1="79.326" y1="92.326" x2="79.326" y2="95.882"/>
		<line fill="none" stroke="#000000" stroke-width="0.5" stroke-miterlimit="10" x1="80.481" y1="92.326" x2="80.481" y2="95.882"/>
		<line fill="none" stroke="#000000" stroke-width="0.5" stroke-miterlimit="10" x1="81.635" y1="92.326" x2="81.635" y2="95.882"/>
		<line fill="none" stroke="#000000" stroke-width="0.5" stroke-miterlimit="10" x1="81.635" y1="92.326" x2="81.635" y2="95.882"/>
		<line fill="none" stroke="#000000" stroke-width="0.5" stroke-miterlimit="10" x1="82.79" y1="92.326" x2="82.79" y2="95.882"/>
		<line fill="none" stroke="#000000" stroke-width="0.5" stroke-miterlimit="10" x1="83.944" y1="92.326" x2="83.944" y2="95.882"/>
		<line fill="none" stroke="#000000" stroke-width="0.5" stroke-miterlimit="10" x1="85.099" y1="92.326" x2="85.099" y2="95.882"/>
		<line fill="none" stroke="#000000" stroke-width="0.5" stroke-miterlimit="10" x1="86.254" y1="92.326" x2="86.254" y2="95.882"/>
	</g>
	<g>
		<line fill="none" stroke="#000000" stroke-width="0.5" stroke-miterlimit="10" x1="91.983" y1="75.898" x2="91.983" y2="79.455"/>
		<line fill="none" stroke="#000000" stroke-width="0.5" stroke-miterlimit="10" x1="93.138" y1="75.898" x2="93.138" y2="79.455"/>
		<line fill="none" stroke="#000000" stroke-width="0.5" stroke-miterlimit="10" x1="94.293" y1="75.898" x2="94.293" y2="79.455"/>
		<line fill="none" stroke="#000000" stroke-width="0.5" stroke-miterlimit="10" x1="95.448" y1="75.898" x2="95.448" y2="79.455"/>
		<line fill="none" stroke="#000000" stroke-width="0.5" stroke-miterlimit="10" x1="96.602" y1="75.898" x2="96.602" y2="79.455"/>
		<line fill="none" stroke="#000000" stroke-width="0.5" stroke-miterlimit="10" x1="97.756" y1="75.898" x2="97.756" y2="79.455"/>
		<line fill="none" stroke="#000000" stroke-width="0.5" stroke-miterlimit="10" x1="98.912" y1="75.898" x2="98.912" y2="79.455"/>
		
			<line fill="none" stroke="#000000" stroke-width="0.5" stroke-miterlimit="10" x1="100.067" y1="75.898" x2="100.067" y2="79.455"/>
		
			<line fill="none" stroke="#000000" stroke-width="0.5" stroke-miterlimit="10" x1="101.221" y1="75.898" x2="101.221" y2="79.455"/>
		
			<line fill="none" stroke="#000000" stroke-width="0.5" stroke-miterlimit="10" x1="102.375" y1="75.898" x2="102.375" y2="79.455"/>
		<line fill="none" stroke="#000000" stroke-width="0.5" stroke-miterlimit="10" x1="103.53" y1="75.898" x2="103.53" y2="79.455"/>
		
			<line fill="none" stroke="#000000" stroke-width="0.5" stroke-miterlimit="10" x1="104.685" y1="75.898" x2="104.685" y2="79.455"/>
		<line fill="none" stroke="#000000" stroke-width="0.5" stroke-miterlimit="10" x1="105.84" y1="75.898" x2="105.84" y2="79.455"/>
		
			<line fill="none" stroke="#000000" stroke-width="0.5" stroke-miterlimit="10" x1="106.995" y1="75.898" x2="106.995" y2="79.455"/>
		
			<line fill="none" stroke="#000000" stroke-width="0.5" stroke-miterlimit="10" x1="108.149" y1="75.898" x2="108.149" y2="79.455"/>
		
			<line fill="none" stroke="#000000" stroke-width="0.5" stroke-miterlimit="10" x1="109.303" y1="75.898" x2="109.303" y2="79.455"/>
		
			<line fill="none" stroke="#000000" stroke-width="0.5" stroke-miterlimit="10" x1="110.458" y1="75.898" x2="110.458" y2="79.455"/>
		
			<line fill="none" stroke="#000000" stroke-width="0.5" stroke-miterlimit="10" x1="111.614" y1="75.898" x2="111.614" y2="79.455"/>
		
			<line fill="none" stroke="#000000" stroke-width="0.5" stroke-miterlimit="10" x1="113.922" y1="75.898" x2="113.922" y2="79.455"/>
		
			<line fill="none" stroke="#000000" stroke-width="0.5" stroke-miterlimit="10" x1="115.078" y1="75.898" x2="115.078" y2="79.455"/>
		
			<line fill="none" stroke="#000000" stroke-width="0.5" stroke-miterlimit="10" x1="116.232" y1="75.898" x2="116.232" y2="79.455"/>
		
			<line fill="none" stroke="#000000" stroke-width="0.5" stroke-miterlimit="10" x1="117.387" y1="75.898" x2="117.387" y2="79.455"/>
		
			<line fill="none" stroke="#000000" stroke-width="0.5" stroke-miterlimit="10" x1="118.542" y1="75.898" x2="118.542" y2="79.455"/>
		
			<line fill="none" stroke="#000000" stroke-width="0.5" stroke-miterlimit="10" x1="118.542" y1="75.898" x2="118.542" y2="79.455"/>
	</g>
	<g>
		<line fill="none" stroke="#000000" stroke-width="0.5" stroke-miterlimit="10" x1="91.983" y1="79.548" x2="91.983" y2="83.105"/>
		<line fill="none" stroke="#000000" stroke-width="0.5" stroke-miterlimit="10" x1="93.138" y1="79.548" x2="93.138" y2="83.105"/>
		<line fill="none" stroke="#000000" stroke-width="0.5" stroke-miterlimit="10" x1="94.293" y1="79.548" x2="94.293" y2="83.105"/>
		<line fill="none" stroke="#000000" stroke-width="0.5" stroke-miterlimit="10" x1="95.448" y1="79.548" x2="95.448" y2="83.105"/>
		<line fill="none" stroke="#000000" stroke-width="0.5" stroke-miterlimit="10" x1="96.602" y1="79.548" x2="96.602" y2="83.105"/>
		<line fill="none" stroke="#000000" stroke-width="0.5" stroke-miterlimit="10" x1="98.912" y1="79.548" x2="98.912" y2="83.105"/>
		
			<line fill="none" stroke="#000000" stroke-width="0.5" stroke-miterlimit="10" x1="100.067" y1="79.548" x2="100.067" y2="83.105"/>
		
			<line fill="none" stroke="#000000" stroke-width="0.5" stroke-miterlimit="10" x1="101.221" y1="79.548" x2="101.221" y2="83.105"/>
		
			<line fill="none" stroke="#000000" stroke-width="0.5" stroke-miterlimit="10" x1="102.375" y1="79.548" x2="102.375" y2="83.105"/>
		<line fill="none" stroke="#000000" stroke-width="0.5" stroke-miterlimit="10" x1="103.53" y1="79.548" x2="103.53" y2="83.105"/>
		
			<line fill="none" stroke="#000000" stroke-width="0.5" stroke-miterlimit="10" x1="104.685" y1="79.548" x2="104.685" y2="83.105"/>
		<line fill="none" stroke="#000000" stroke-width="0.5" stroke-miterlimit="10" x1="105.84" y1="79.548" x2="105.84" y2="83.105"/>
		
			<line fill="none" stroke="#000000" stroke-width="0.5" stroke-miterlimit="10" x1="106.995" y1="79.548" x2="106.995" y2="83.105"/>
		
			<line fill="none" stroke="#000000" stroke-width="0.5" stroke-miterlimit="10" x1="108.149" y1="79.548" x2="108.149" y2="83.105"/>
		
			<line fill="none" stroke="#000000" stroke-width="0.5" stroke-miterlimit="10" x1="109.303" y1="79.548" x2="109.303" y2="83.105"/>
		
			<line fill="none" stroke="#000000" stroke-width="0.5" stroke-miterlimit="10" x1="110.458" y1="79.548" x2="110.458" y2="83.105"/>
		
			<line fill="none" stroke="#000000" stroke-width="0.5" stroke-miterlimit="10" x1="111.614" y1="79.548" x2="111.614" y2="83.105"/>
		
			<line fill="none" stroke="#000000" stroke-width="0.5" stroke-miterlimit="10" x1="112.768" y1="79.548" x2="112.768" y2="83.105"/>
		
			<line fill="none" stroke="#000000" stroke-width="0.5" stroke-miterlimit="10" x1="113.922" y1="79.548" x2="113.922" y2="83.105"/>
		
			<line fill="none" stroke="#000000" stroke-width="0.5" stroke-miterlimit="10" x1="115.078" y1="79.548" x2="115.078" y2="83.105"/>
		
			<line fill="none" stroke="#000000" stroke-width="0.5" stroke-miterlimit="10" x1="116.232" y1="79.548" x2="116.232" y2="83.105"/>
		
			<line fill="none" stroke="#000000" stroke-width="0.5" stroke-miterlimit="10" x1="117.387" y1="79.548" x2="117.387" y2="83.105"/>
		
			<line fill="none" stroke="#000000" stroke-width="0.5" stroke-miterlimit="10" x1="118.542" y1="79.548" x2="118.542" y2="83.105"/>
		
			<line fill="none" stroke="#000000" stroke-width="0.5" stroke-miterlimit="10" x1="118.542" y1="79.548" x2="118.542" y2="83.105"/>
	</g>
	<g>
		<line fill="none" stroke="#000000" stroke-width="0.5" stroke-miterlimit="10" x1="91.984" y1="88.654" x2="91.984" y2="92.21"/>
		<line fill="none" stroke="#000000" stroke-width="0.5" stroke-miterlimit="10" x1="93.139" y1="88.654" x2="93.139" y2="92.21"/>
		<line fill="none" stroke="#000000" stroke-width="0.5" stroke-miterlimit="10" x1="94.293" y1="88.654" x2="94.293" y2="92.21"/>
		<line fill="none" stroke="#000000" stroke-width="0.5" stroke-miterlimit="10" x1="95.448" y1="88.654" x2="95.448" y2="92.21"/>
		<line fill="none" stroke="#000000" stroke-width="0.5" stroke-miterlimit="10" x1="96.602" y1="88.654" x2="96.602" y2="92.21"/>
		<line fill="none" stroke="#000000" stroke-width="0.5" stroke-miterlimit="10" x1="97.757" y1="88.654" x2="97.757" y2="92.21"/>
		<line fill="none" stroke="#000000" stroke-width="0.5" stroke-miterlimit="10" x1="98.913" y1="88.654" x2="98.913" y2="92.21"/>
		
			<line fill="none" stroke="#000000" stroke-width="0.5" stroke-miterlimit="10" x1="100.067" y1="88.654" x2="100.067" y2="92.21"/>
		
			<line fill="none" stroke="#000000" stroke-width="0.5" stroke-miterlimit="10" x1="101.221" y1="88.654" x2="101.221" y2="92.21"/>
		
			<line fill="none" stroke="#000000" stroke-width="0.5" stroke-miterlimit="10" x1="102.375" y1="88.654" x2="102.375" y2="92.21"/>
		
			<line fill="none" stroke="#000000" stroke-width="0.5" stroke-miterlimit="10" x1="103.531" y1="88.654" x2="103.531" y2="92.21"/>
		
			<line fill="none" stroke="#000000" stroke-width="0.5" stroke-miterlimit="10" x1="104.686" y1="88.654" x2="104.686" y2="92.21"/>
		<line fill="none" stroke="#000000" stroke-width="0.5" stroke-miterlimit="10" x1="105.84" y1="88.654" x2="105.84" y2="92.21"/>
		
			<line fill="none" stroke="#000000" stroke-width="0.5" stroke-miterlimit="10" x1="106.995" y1="88.654" x2="106.995" y2="92.21"/>
		<line fill="none" stroke="#000000" stroke-width="0.5" stroke-miterlimit="10" x1="108.15" y1="88.654" x2="108.15" y2="92.21"/>
		
			<line fill="none" stroke="#000000" stroke-width="0.5" stroke-miterlimit="10" x1="109.304" y1="88.654" x2="109.304" y2="92.21"/>
		
			<line fill="none" stroke="#000000" stroke-width="0.5" stroke-miterlimit="10" x1="110.459" y1="88.654" x2="110.459" y2="92.21"/>
		
			<line fill="none" stroke="#000000" stroke-width="0.5" stroke-miterlimit="10" x1="111.614" y1="88.654" x2="111.614" y2="92.21"/>
		
			<line fill="none" stroke="#000000" stroke-width="0.5" stroke-miterlimit="10" x1="112.768" y1="88.654" x2="112.768" y2="92.21"/>
		
			<line fill="none" stroke="#000000" stroke-width="0.5" stroke-miterlimit="10" x1="113.923" y1="88.654" x2="113.923" y2="92.21"/>
	</g>
	<g>
		<line fill="none" stroke="#000000" stroke-width="0.5" stroke-miterlimit="10" x1="91.983" y1="92.326" x2="91.983" y2="95.882"/>
		<line fill="none" stroke="#000000" stroke-width="0.5" stroke-miterlimit="10" x1="93.138" y1="92.326" x2="93.138" y2="95.882"/>
		<line fill="none" stroke="#000000" stroke-width="0.5" stroke-miterlimit="10" x1="94.293" y1="92.326" x2="94.293" y2="95.882"/>
		<line fill="none" stroke="#000000" stroke-width="0.5" stroke-miterlimit="10" x1="95.448" y1="92.326" x2="95.448" y2="95.882"/>
		<line fill="none" stroke="#000000" stroke-width="0.5" stroke-miterlimit="10" x1="97.756" y1="92.326" x2="97.756" y2="95.882"/>
		<line fill="none" stroke="#000000" stroke-width="0.5" stroke-miterlimit="10" x1="98.912" y1="92.326" x2="98.912" y2="95.882"/>
		
			<line fill="none" stroke="#000000" stroke-width="0.5" stroke-miterlimit="10" x1="100.067" y1="92.326" x2="100.067" y2="95.882"/>
		
			<line fill="none" stroke="#000000" stroke-width="0.5" stroke-miterlimit="10" x1="101.221" y1="92.326" x2="101.221" y2="95.882"/>
		
			<line fill="none" stroke="#000000" stroke-width="0.5" stroke-miterlimit="10" x1="102.375" y1="92.326" x2="102.375" y2="95.882"/>
		<line fill="none" stroke="#000000" stroke-width="0.5" stroke-miterlimit="10" x1="103.53" y1="92.326" x2="103.53" y2="95.882"/>
		
			<line fill="none" stroke="#000000" stroke-width="0.5" stroke-miterlimit="10" x1="104.685" y1="92.326" x2="104.685" y2="95.882"/>
		<line fill="none" stroke="#000000" stroke-width="0.5" stroke-miterlimit="10" x1="105.84" y1="92.326" x2="105.84" y2="95.882"/>
		
			<line fill="none" stroke="#000000" stroke-width="0.5" stroke-miterlimit="10" x1="106.995" y1="92.326" x2="106.995" y2="95.882"/>
		
			<line fill="none" stroke="#000000" stroke-width="0.5" stroke-miterlimit="10" x1="108.149" y1="92.326" x2="108.149" y2="95.882"/>
		
			<line fill="none" stroke="#000000" stroke-width="0.5" stroke-miterlimit="10" x1="109.303" y1="92.326" x2="109.303" y2="95.882"/>
		
			<line fill="none" stroke="#000000" stroke-width="0.5" stroke-miterlimit="10" x1="110.458" y1="92.326" x2="110.458" y2="95.882"/>
		
			<line fill="none" stroke="#000000" stroke-width="0.5" stroke-miterlimit="10" x1="111.614" y1="92.326" x2="111.614" y2="95.882"/>
		
			<line fill="none" stroke="#000000" stroke-width="0.5" stroke-miterlimit="10" x1="112.768" y1="92.326" x2="112.768" y2="95.882"/>
		
			<line fill="none" stroke="#000000" stroke-width="0.5" stroke-miterlimit="10" x1="113.922" y1="92.326" x2="113.922" y2="95.882"/>
	</g>
	<line fill="none" stroke="#B61F24" stroke-miterlimit="10" x1="54.084" y1="75.898" x2="82.627" y2="75.898"/>
	<line fill="none" stroke="#1EA049" stroke-miterlimit="10" x1="91.102" y1="75.613" x2="119.645" y2="75.613"/>
	<line fill="none" stroke="#3C409A" stroke-miterlimit="10" x1="54.084" y1="95.882" x2="87.392" y2="95.882"/>
	<line fill="none" stroke="#B61F24" stroke-miterlimit="10" x1="54.084" y1="86.569" x2="82.627" y2="86.569"/>
	<line fill="none" stroke="#A7BB39" stroke-miterlimit="10" x1="91.102" y1="92.267" x2="115.247" y2="92.267"/>
	<line fill="none" stroke="#A7BB39" stroke-miterlimit="10" x1="91.102" y1="95.882" x2="115.247" y2="95.882"/>
	<line fill="none" stroke="#1EA049" stroke-miterlimit="10" x1="91.102" y1="82.841" x2="119.645" y2="82.841"/>
	<line fill="none" stroke="#B61F24" stroke-miterlimit="10" x1="54.084" y1="79.455" x2="82.627" y2="79.455"/>
	<line fill="none" stroke="#A7BB39" stroke-miterlimit="10" x1="91.102" y1="88.654" x2="115.247" y2="88.654"/>
	<line fill="none" stroke="#1EA049" stroke-miterlimit="10" x1="91.102" y1="79.226" x2="119.645" y2="79.226"/>
	<line fill="none" stroke="#B61F24" stroke-miterlimit="10" x1="54.084" y1="83.011" x2="82.627" y2="83.011"/>
	<line fill="none" stroke="#3C409A" stroke-miterlimit="10" x1="54.084" y1="92.326" x2="87.392" y2="92.326"/>
</g>
<g>
	<g>
		<line fill="none" stroke="#000000" stroke-miterlimit="10" x1="86.864" y1="23.621" x2="86.864" y2="28.228"/>
		<g>
			<polygon points="85.012,26.823 86.864,27.61 88.715,26.823 86.864,31.212 			"/>
		</g>
	</g>
</g>
<g>
	<g>
		<line fill="none" stroke="#000000" stroke-miterlimit="10" x1="86.864" y1="63.222" x2="86.864" y2="67.83"/>
		<g>
			<polygon points="85.012,66.423 86.864,67.21 88.715,66.423 86.864,70.814 			"/>
		</g>
	</g>
</g>
</svg>
