<?xml version="1.0" encoding="utf-8"?>
<!-- Generator: Adobe Illustrator 16.0.3, SVG Export Plug-In . SVG Version: 6.00 Build 0)  -->
<!DOCTYPE svg PUBLIC "-//W3C//DTD SVG 1.1//EN" "http://www.w3.org/Graphics/SVG/1.1/DTD/svg11.dtd">
<svg version="1.1" id="Layer_1" xmlns="http://www.w3.org/2000/svg" xmlns:xlink="http://www.w3.org/1999/xlink" x="0px" y="0px"
	 width="122.027px" height="96.382px" viewBox="0 0 122.027 96.382" enable-background="new 0 0 122.027 96.382"
	 xml:space="preserve">
<text transform="matrix(1 0 0 1 28.9819 7.8984)"><tspan x="0" y="0" fill="#010101" font-family="'ArialMT'" font-size="8">Input</tspan><tspan x="-15.117" y="9.6" fill="#010101" font-family="'ArialMT'" font-size="8">genomes</tspan></text>
<g>
	<line fill="none" stroke="#B61F24" stroke-miterlimit="10" x1="54.084" y1="0.785" x2="82.627" y2="0.785"/>
	<line fill="none" stroke="#1EA049" stroke-miterlimit="10" x1="91.102" y1="0.5" x2="119.644" y2="0.5"/>
	<line fill="none" stroke="#3C409A" stroke-miterlimit="10" x1="88.719" y1="4.057" x2="122.027" y2="4.057"/>
	<line fill="none" stroke="#B61F24" stroke-miterlimit="10" x1="91.102" y1="7.614" x2="119.644" y2="7.614"/>
	<line fill="none" stroke="#A7BB39" stroke-miterlimit="10" x1="93.3" y1="11.171" x2="117.446" y2="11.171"/>
	<line fill="none" stroke="#A7BB39" stroke-miterlimit="10" x1="93.3" y1="18.57" x2="117.446" y2="18.57"/>
	<line fill="none" stroke="#1EA049" stroke-miterlimit="10" x1="91.102" y1="14.728" x2="119.644" y2="14.728"/>
	<line fill="none" stroke="#B61F24" stroke-miterlimit="10" x1="54.084" y1="4.342" x2="82.627" y2="4.342"/>
	<line fill="none" stroke="#A7BB39" stroke-miterlimit="10" x1="56.283" y1="7.899" x2="80.428" y2="7.899"/>
	<line fill="none" stroke="#1EA049" stroke-miterlimit="10" x1="54.084" y1="11.456" x2="82.627" y2="11.456"/>
	<line fill="none" stroke="#B61F24" stroke-miterlimit="10" x1="54.084" y1="15.013" x2="82.627" y2="15.013"/>
	<line fill="none" stroke="#3C409A" stroke-miterlimit="10" x1="51.702" y1="18.57" x2="85.009" y2="18.57"/>
</g>
<text transform="matrix(1 0 0 1 26.2383 43.4595)"><tspan x="0" y="0" fill="#010101" font-family="'ArialMT'" font-size="8">Mash</tspan><tspan x="-14.676" y="9.601" fill="#010101" font-family="'ArialMT'" font-size="8">clustering</tspan></text>
<g>
	<line fill="none" stroke="#B61F24" stroke-miterlimit="10" x1="56.833" y1="36.217" x2="85.375" y2="36.217"/>
	<line fill="none" stroke="#1EA049" stroke-miterlimit="10" x1="90.552" y1="35.932" x2="119.094" y2="35.932"/>
	<line fill="none" stroke="#3C409A" stroke-miterlimit="10" x1="52.435" y1="56.202" x2="85.743" y2="56.202"/>
	<line fill="none" stroke="#B61F24" stroke-miterlimit="10" x1="56.833" y1="46.889" x2="85.375" y2="46.889"/>
	<line fill="none" stroke="#A7BB39" stroke-miterlimit="10" x1="91.651" y1="52.587" x2="115.796" y2="52.587"/>
	<line fill="none" stroke="#A7BB39" stroke-miterlimit="10" x1="96.049" y1="56.202" x2="120.194" y2="56.202"/>
	<line fill="none" stroke="#1EA049" stroke-miterlimit="10" x1="91.651" y1="43.161" x2="120.194" y2="43.161"/>
	<line fill="none" stroke="#B61F24" stroke-miterlimit="10" x1="55.734" y1="39.774" x2="84.276" y2="39.774"/>
	<line fill="none" stroke="#A7BB39" stroke-miterlimit="10" x1="93.85" y1="48.973" x2="117.995" y2="48.973"/>
	<line fill="none" stroke="#1EA049" stroke-miterlimit="10" x1="92.75" y1="39.546" x2="121.293" y2="39.546"/>
	<line fill="none" stroke="#B61F24" stroke-miterlimit="10" x1="53.535" y1="43.332" x2="82.078" y2="43.332"/>
	<line fill="none" stroke="#3C409A" stroke-miterlimit="10" x1="54.634" y1="52.644" x2="87.942" y2="52.644"/>
</g>
<text transform="matrix(1 0 0 1 0 83.1392)"><tspan x="0" y="0" fill="#010101" font-family="'ArialMT'" font-size="8">Multigenome</tspan><tspan x="10.227" y="9.601" fill="#010101" font-family="'ArialMT'" font-size="8">Alignment</tspan></text>
<g>
	<g>
		<line fill="none" stroke="#000000" stroke-width="0.5" stroke-miterlimit="10" x1="55.077" y1="75.898" x2="55.077" y2="79.455"/>
		<line fill="none" stroke="#000000" stroke-width="0.5" stroke-miterlimit="10" x1="56.231" y1="75.898" x2="56.231" y2="79.455"/>
		<line fill="none" stroke="#000000" stroke-width="0.5" stroke-miterlimit="10" x1="57.386" y1="75.898" x2="57.386" y2="79.455"/>
		<line fill="none" stroke="#000000" stroke-width="0.5" stroke-miterlimit="10" x1="58.541" y1="75.898" x2="58.541" y2="79.455"/>
		<line fill="none" stroke="#000000" stroke-width="0.5" stroke-miterlimit="10" x1="59.695" y1="75.898" x2="59.695" y2="79.455"/>
		<line fill="none" stroke="#000000" stroke-width="0.5" stroke-miterlimit="10" x1="62.004" y1="75.898" x2="62.004" y2="79.455"/>
		<line fill="none" stroke="#000000" stroke-width="0.5" stroke-miterlimit="10" x1="63.16" y1="75.898" x2="63.16" y2="79.455"/>
		<line fill="none" stroke="#000000" stroke-width="0.5" stroke-miterlimit="10" x1="64.315" y1="75.898" x2="64.315" y2="79.455"/>
		<line fill="none" stroke="#000000" stroke-width="0.5" stroke-miterlimit="10" x1="65.469" y1="75.898" x2="65.469" y2="79.455"/>
		<line fill="none" stroke="#000000" stroke-width="0.5" stroke-miterlimit="10" x1="66.624" y1="75.898" x2="66.624" y2="79.455"/>
		<line fill="none" stroke="#000000" stroke-width="0.5" stroke-miterlimit="10" x1="67.778" y1="75.898" x2="67.778" y2="79.455"/>
		<line fill="none" stroke="#000000" stroke-width="0.5" stroke-miterlimit="10" x1="68.933" y1="75.898" x2="68.933" y2="79.455"/>
		<line fill="none" stroke="#000000" stroke-width="0.5" stroke-miterlimit="10" x1="70.088" y1="75.898" x2="70.088" y2="79.455"/>
		<line fill="none" stroke="#000000" stroke-width="0.5" stroke-miterlimit="10" x1="71.243" y1="75.898" x2="71.243" y2="79.455"/>
		<line fill="none" stroke="#000000" stroke-width="0.5" stroke-miterlimit="10" x1="72.397" y1="75.898" x2="72.397" y2="79.455"/>
		<line fill="none" stroke="#000000" stroke-width="0.5" stroke-miterlimit="10" x1="73.551" y1="75.898" x2="73.551" y2="79.455"/>
		<line fill="none" stroke="#000000" stroke-width="0.5" stroke-miterlimit="10" x1="74.707" y1="75.898" x2="74.707" y2="79.455"/>
		<line fill="none" stroke="#000000" stroke-width="0.5" stroke-miterlimit="10" x1="75.862" y1="75.898" x2="75.862" y2="79.455"/>
		<line fill="none" stroke="#000000" stroke-width="0.5" stroke-miterlimit="10" x1="77.016" y1="75.898" x2="77.016" y2="79.455"/>
		<line fill="none" stroke="#000000" stroke-width="0.5" stroke-miterlimit="10" x1="78.171" y1="75.898" x2="78.171" y2="79.455"/>
		<line fill="none" stroke="#000000" stroke-width="0.5" stroke-miterlimit="10" x1="79.326" y1="75.898" x2="79.326" y2="79.455"/>
		<line fill="none" stroke="#000000" stroke-width="0.5" stroke-miterlimit="10" x1="80.481" y1="75.898" x2="80.481" y2="79.455"/>
		<line fill="none" stroke="#000000" stroke-width="0.5" stroke-miterlimit="10" x1="81.635" y1="75.898" x2="81.635" y2="79.455"/>
	</g>
	<g>
		<line fill="none" stroke="#000000" stroke-width="0.5" stroke-miterlimit="10" x1="55.077" y1="79.548" x2="55.077" y2="83.105"/>
		<line fill="none" stroke="#000000" stroke-width="0.5" stroke-miterlimit="10" x1="56.231" y1="79.548" x2="56.231" y2="83.105"/>
		<line fill="none" stroke="#000000" stroke-width="0.5" stroke-miterlimit="10" x1="57.386" y1="79.548" x2="57.386" y2="83.105"/>
		<line fill="none" stroke="#000000" stroke-width="0.5" stroke-miterlimit="10" x1="58.541" y1="79.548" x2="58.541" y2="83.105"/>
		<line fill="none" stroke="#000000" stroke-width="0.5" stroke-miterlimit="10" x1="59.695" y1="79.548" x2="59.695" y2="83.105"/>
		<line fill="none" stroke="#000000" stroke-width="0.5" stroke-miterlimit="10" x1="60.85" y1="79.548" x2="60.85" y2="83.105"/>
		<line fill="none" stroke="#000000" stroke-width="0.5" stroke-miterlimit="10" x1="62.004" y1="79.548" x2="62.004" y2="83.105"/>
		<line fill="none" stroke="#000000" stroke-width="0.5" stroke-miterlimit="10" x1="63.16" y1="79.548" x2="63.16" y2="83.105"/>
		<line fill="none" stroke="#000000" stroke-width="0.5" stroke-miterlimit="10" x1="64.315" y1="79.548" x2="64.315" y2="83.105"/>
		<line fill="none" stroke="#000000" stroke-width="0.5" stroke-miterlimit="10" x1="65.469" y1="79.548" x2="65.469" y2="83.105"/>
		<line fill="none" stroke="#000000" stroke-width="0.5" stroke-miterlimit="10" x1="66.624" y1="79.548" x2="66.624" y2="83.105"/>
		<line fill="none" stroke="#000000" stroke-width="0.5" stroke-miterlimit="10" x1="67.778" y1="79.548" x2="67.778" y2="83.105"/>
		<line fill="none" stroke="#000000" stroke-width="0.5" stroke-miterlimit="10" x1="68.933" y1="79.548" x2="68.933" y2="83.105"/>
		<line fill="none" stroke="#000000" stroke-width="0.5" stroke-miterlimit="10" x1="70.088" y1="79.548" x2="70.088" y2="83.105"/>
		<line fill="none" stroke="#000000" stroke-width="0.5" stroke-miterlimit="10" x1="71.243" y1="79.548" x2="71.243" y2="83.105"/>
		<line fill="none" stroke="#000000" stroke-width="0.5" stroke-miterlimit="10" x1="72.397" y1="79.548" x2="72.397" y2="83.105"/>
		<line fill="none" stroke="#000000" stroke-width="0.5" stroke-miterlimit="10" x1="74.707" y1="79.548" x2="74.707" y2="83.105"/>
		<line fill="none" stroke="#000000" stroke-width="0.5" stroke-miterlimit="10" x1="75.862" y1="79.548" x2="75.862" y2="83.105"/>
		<line fill="none" stroke="#000000" stroke-width="0.5" stroke-miterlimit="10" x1="77.016" y1="79.548" x2="77.016" y2="83.105"/>
		<line fill="none" stroke="#000000" stroke-width="0.5" stroke-miterlimit="10" x1="78.171" y1="79.548" x2="78.171" y2="83.105"/>
		<line fill="none" stroke="#000000" stroke-width="0.5" stroke-miterlimit="10" x1="79.326" y1="79.548" x2="79.326" y2="83.105"/>
		<line fill="none" stroke="#000000" stroke-width="0.5" stroke-miterlimit="10" x1="80.481" y1="79.548" x2="80.481" y2="83.105"/>
		<line fill="none" stroke="#000000" stroke-width="0.5" stroke-miterlimit="10" x1="81.635" y1="79.548" x2="81.635" y2="83.105"/>
	</g>
	<g>
		<line fill="none" stroke="#000000" stroke-width="0.5" stroke-miterlimit="10" x1="55.077" y1="83.14" x2="55.077" y2="86.697"/>
		<line fill="none" stroke="#000000" stroke-width="0.5" stroke-miterlimit="10" x1="56.231" y1="83.14" x2="56.231" y2="86.697"/>
		<line fill="none" stroke="#000000" stroke-width="0.5" stroke-miterlimit="10" x1="57.386" y1="83.14" x2="57.386" y2="86.697"/>
		<line fill="none" stroke="#000000" stroke-width="0.5" stroke-miterlimit="10" x1="58.541" y1="83.14" x2="58.541" y2="86.697"/>
		<line fill="none" stroke="#000000" stroke-width="0.5" stroke-miterlimit="10" x1="59.695" y1="83.14" x2="59.695" y2="86.697"/>
		<line fill="none" stroke="#000000" stroke-width="0.5" stroke-miterlimit="10" x1="60.85" y1="83.14" x2="60.85" y2="86.697"/>
		<line fill="none" stroke="#000000" stroke-width="0.5" stroke-miterlimit="10" x1="62.004" y1="83.14" x2="62.004" y2="86.697"/>
		<line fill="none" stroke="#000000" stroke-width="0.5" stroke-miterlimit="10" x1="63.16" y1="83.14" x2="63.16" y2="86.697"/>
		<line fill="none" stroke="#000000" stroke-width="0.5" stroke-miterlimit="10" x1="64.315" y1="83.14" x2="64.315" y2="86.697"/>
		<line fill="none" stroke="#000000" stroke-width="0.5" stroke-miterlimit="10" x1="65.469" y1="83.14" x2="65.469" y2="86.697"/>
		<line fill="none" stroke="#000000" stroke-width="0.5" stroke-miterlimit="10" x1="66.624" y1="83.14" x2="66.624" y2="86.697"/>
		<line fill="none" stroke="#000000" stroke-width="0.5" stroke-miterlimit="10" x1="67.778" y1="83.14" x2="67.778" y2="86.697"/>
		<line fill="none" stroke="#000000" stroke-width="0.5" stroke-miterlimit="10" x1="68.933" y1="83.14" x2="68.933" y2="86.697"/>
		<line fill="none" stroke="#000000" stroke-width="0.5" stroke-miterlimit="10" x1="70.088" y1="83.14" x2="70.088" y2="86.697"/>
		<line fill="none" stroke="#000000" stroke-width="0.5" stroke-miterlimit="10" x1="71.243" y1="83.14" x2="71.243" y2="86.697"/>
		<line fill="none" stroke="#000000" stroke-width="0.5" stroke-miterlimit="10" x1="72.397" y1="83.14" x2="72.397" y2="86.697"/>
		<line fill="none" stroke="#000000" stroke-width="0.5" stroke-miterlimit="10" x1="74.707" y1="83.14" x2="74.707" y2="86.697"/>
		<line fill="none" stroke="#000000" stroke-width="0.5" stroke-miterlimit="10" x1="75.862" y1="83.14" x2="75.862" y2="86.697"/>
		<line fill="none" stroke="#000000" stroke-width="0.5" stroke-miterlimit="10" x1="77.016" y1="83.14" x2="77.016" y2="86.697"/>
		<line fill="none" stroke="#000000" stroke-width="0.5" stroke-miterlimit="10" x1="78.171" y1="83.14" x2="78.171" y2="86.697"/>
		<line fill="none" stroke="#000000" stroke-width="0.5" stroke-miterlimit="10" x1="79.326" y1="83.14" x2="79.326" y2="86.697"/>
		<line fill="none" stroke="#000000" stroke-width="0.5" stroke-miterlimit="10" x1="80.481" y1="83.14" x2="80.481" y2="86.697"/>
		<line fill="none" stroke="#000000" stroke-width="0.5" stroke-miterlimit="10" x1="81.635" y1="83.14" x2="81.635" y2="86.697"/>
	</g>
	<g>
		<line fill="none" stroke="#000000" stroke-width="0.5" stroke-miterlimit="10" x1="55.077" y1="92.325" x2="55.077" y2="95.882"/>
		<line fill="none" stroke="#000000" stroke-width="0.5" stroke-miterlimit="10" x1="56.231" y1="92.325" x2="56.231" y2="95.882"/>
		<line fill="none" stroke="#000000" stroke-width="0.5" stroke-miterlimit="10" x1="57.386" y1="92.325" x2="57.386" y2="95.882"/>
		<line fill="none" stroke="#000000" stroke-width="0.5" stroke-miterlimit="10" x1="58.541" y1="92.325" x2="58.541" y2="95.882"/>
		<line fill="none" stroke="#000000" stroke-width="0.5" stroke-miterlimit="10" x1="59.695" y1="92.325" x2="59.695" y2="95.882"/>
		<line fill="none" stroke="#000000" stroke-width="0.5" stroke-miterlimit="10" x1="60.85" y1="92.325" x2="60.85" y2="95.882"/>
		<line fill="none" stroke="#000000" stroke-width="0.5" stroke-miterlimit="10" x1="63.16" y1="92.325" x2="63.16" y2="95.882"/>
		<line fill="none" stroke="#000000" stroke-width="0.5" stroke-miterlimit="10" x1="64.315" y1="92.325" x2="64.315" y2="95.882"/>
		<line fill="none" stroke="#000000" stroke-width="0.5" stroke-miterlimit="10" x1="65.469" y1="92.325" x2="65.469" y2="95.882"/>
		<line fill="none" stroke="#000000" stroke-width="0.5" stroke-miterlimit="10" x1="66.624" y1="92.325" x2="66.624" y2="95.882"/>
		<line fill="none" stroke="#000000" stroke-width="0.5" stroke-miterlimit="10" x1="67.778" y1="92.325" x2="67.778" y2="95.882"/>
		<line fill="none" stroke="#000000" stroke-width="0.5" stroke-miterlimit="10" x1="68.933" y1="92.325" x2="68.933" y2="95.882"/>
		<line fill="none" stroke="#000000" stroke-width="0.5" stroke-miterlimit="10" x1="70.088" y1="92.325" x2="70.088" y2="95.882"/>
		<line fill="none" stroke="#000000" stroke-width="0.5" stroke-miterlimit="10" x1="71.243" y1="92.325" x2="71.243" y2="95.882"/>
		<line fill="none" stroke="#000000" stroke-width="0.5" stroke-miterlimit="10" x1="72.397" y1="92.325" x2="72.397" y2="95.882"/>
		<line fill="none" stroke="#000000" stroke-width="0.5" stroke-miterlimit="10" x1="73.551" y1="92.325" x2="73.551" y2="95.882"/>
		<line fill="none" stroke="#000000" stroke-width="0.5" stroke-miterlimit="10" x1="74.707" y1="92.325" x2="74.707" y2="95.882"/>
		<line fill="none" stroke="#000000" stroke-width="0.5" stroke-miterlimit="10" x1="75.862" y1="92.325" x2="75.862" y2="95.882"/>
		<line fill="none" stroke="#000000" stroke-width="0.5" stroke-miterlimit="10" x1="77.016" y1="92.325" x2="77.016" y2="95.882"/>
		<line fill="none" stroke="#000000" stroke-width="0.5" stroke-miterlimit="10" x1="78.171" y1="92.325" x2="78.171" y2="95.882"/>
		<line fill="none" stroke="#000000" stroke-width="0.5" stroke-miterlimit="10" x1="79.326" y1="92.325" x2="79.326" y2="95.882"/>
		<line fill="none" stroke="#000000" stroke-width="0.5" stroke-miterlimit="10" x1="80.481" y1="92.325" x2="80.481" y2="95.882"/>
		<line fill="none" stroke="#000000" stroke-width="0.5" stroke-miterlimit="10" x1="81.635" y1="92.325" x2="81.635" y2="95.882"/>
		<line fill="none" stroke="#000000" stroke-width="0.5" stroke-miterlimit="10" x1="81.635" y1="92.325" x2="81.635" y2="95.882"/>
		<line fill="none" stroke="#000000" stroke-width="0.5" stroke-miterlimit="10" x1="82.79" y1="92.325" x2="82.79" y2="95.882"/>
		<line fill="none" stroke="#000000" stroke-width="0.5" stroke-miterlimit="10" x1="83.944" y1="92.325" x2="83.944" y2="95.882"/>
		<line fill="none" stroke="#000000" stroke-width="0.5" stroke-miterlimit="10" x1="85.099" y1="92.325" x2="85.099" y2="95.882"/>
		<line fill="none" stroke="#000000" stroke-width="0.5" stroke-miterlimit="10" x1="86.254" y1="92.325" x2="86.254" y2="95.882"/>
	</g>
	<g>
		<line fill="none" stroke="#000000" stroke-width="0.5" stroke-miterlimit="10" x1="91.983" y1="75.898" x2="91.983" y2="79.455"/>
		<line fill="none" stroke="#000000" stroke-width="0.5" stroke-miterlimit="10" x1="93.138" y1="75.898" x2="93.138" y2="79.455"/>
		<line fill="none" stroke="#000000" stroke-width="0.5" stroke-miterlimit="10" x1="94.293" y1="75.898" x2="94.293" y2="79.455"/>
		<line fill="none" stroke="#000000" stroke-width="0.5" stroke-miterlimit="10" x1="95.448" y1="75.898" x2="95.448" y2="79.455"/>
		<line fill="none" stroke="#000000" stroke-width="0.5" stroke-miterlimit="10" x1="96.602" y1="75.898" x2="96.602" y2="79.455"/>
		<line fill="none" stroke="#000000" stroke-width="0.5" stroke-miterlimit="10" x1="97.756" y1="75.898" x2="97.756" y2="79.455"/>
		<line fill="none" stroke="#000000" stroke-width="0.5" stroke-miterlimit="10" x1="98.912" y1="75.898" x2="98.912" y2="79.455"/>
		
			<line fill="none" stroke="#000000" stroke-width="0.5" stroke-miterlimit="10" x1="100.067" y1="75.898" x2="100.067" y2="79.455"/>
		
			<line fill="none" stroke="#000000" stroke-width="0.5" stroke-miterlimit="10" x1="101.221" y1="75.898" x2="101.221" y2="79.455"/>
		
			<line fill="none" stroke="#000000" stroke-width="0.5" stroke-miterlimit="10" x1="102.375" y1="75.898" x2="102.375" y2="79.455"/>
		<line fill="none" stroke="#000000" stroke-width="0.5" stroke-miterlimit="10" x1="103.53" y1="75.898" x2="103.53" y2="79.455"/>
		
			<line fill="none" stroke="#000000" stroke-width="0.5" stroke-miterlimit="10" x1="104.685" y1="75.898" x2="104.685" y2="79.455"/>
		<line fill="none" stroke="#000000" stroke-width="0.5" stroke-miterlimit="10" x1="105.84" y1="75.898" x2="105.84" y2="79.455"/>
		
			<line fill="none" stroke="#000000" stroke-width="0.5" stroke-miterlimit="10" x1="106.995" y1="75.898" x2="106.995" y2="79.455"/>
		
			<line fill="none" stroke="#000000" stroke-width="0.5" stroke-miterlimit="10" x1="108.149" y1="75.898" x2="108.149" y2="79.455"/>
		
			<line fill="none" stroke="#000000" stroke-width="0.5" stroke-miterlimit="10" x1="109.303" y1="75.898" x2="109.303" y2="79.455"/>
		
			<line fill="none" stroke="#000000" stroke-width="0.5" stroke-miterlimit="10" x1="110.458" y1="75.898" x2="110.458" y2="79.455"/>
		
			<line fill="none" stroke="#000000" stroke-width="0.5" stroke-miterlimit="10" x1="111.614" y1="75.898" x2="111.614" y2="79.455"/>
		
			<line fill="none" stroke="#000000" stroke-width="0.5" stroke-miterlimit="10" x1="113.922" y1="75.898" x2="113.922" y2="79.455"/>
		
			<line fill="none" stroke="#000000" stroke-width="0.5" stroke-miterlimit="10" x1="115.078" y1="75.898" x2="115.078" y2="79.455"/>
		
			<line fill="none" stroke="#000000" stroke-width="0.5" stroke-miterlimit="10" x1="116.232" y1="75.898" x2="116.232" y2="79.455"/>
		
			<line fill="none" stroke="#000000" stroke-width="0.5" stroke-miterlimit="10" x1="117.387" y1="75.898" x2="117.387" y2="79.455"/>
		
			<line fill="none" stroke="#000000" stroke-width="0.5" stroke-miterlimit="10" x1="118.542" y1="75.898" x2="118.542" y2="79.455"/>
		
			<line fill="none" stroke="#000000" stroke-width="0.5" stroke-miterlimit="10" x1="118.542" y1="75.898" x2="118.542" y2="79.455"/>
	</g>
	<g>
		<line fill="none" stroke="#000000" stroke-width="0.5" stroke-miterlimit="10" x1="91.983" y1="79.548" x2="91.983" y2="83.105"/>
		<line fill="none" stroke="#000000" stroke-width="0.5" stroke-miterlimit="10" x1="93.138" y1="79.548" x2="93.138" y2="83.105"/>
		<line fill="none" stroke="#000000" stroke-width="0.5" stroke-miterlimit="10" x1="94.293" y1="79.548" x2="94.293" y2="83.105"/>
		<line fill="none" stroke="#000000" stroke-width="0.5" stroke-miterlimit="10" x1="95.448" y1="79.548" x2="95.448" y2="83.105"/>
		<line fill="none" stroke="#000000" stroke-width="0.5" stroke-miterlimit="10" x1="96.602" y1="79.548" x2="96.602" y2="83.105"/>
		<line fill="none" stroke="#000000" stroke-width="0.5" stroke-miterlimit="10" x1="98.912" y1="79.548" x2="98.912" y2="83.105"/>
		
			<line fill="none" stroke="#000000" stroke-width="0.5" stroke-miterlimit="10" x1="100.067" y1="79.548" x2="100.067" y2="83.105"/>
		
			<line fill="none" stroke="#000000" stroke-width="0.5" stroke-miterlimit="10" x1="101.221" y1="79.548" x2="101.221" y2="83.105"/>
		
			<line fill="none" stroke="#000000" stroke-width="0.5" stroke-miterlimit="10" x1="102.375" y1="79.548" x2="102.375" y2="83.105"/>
		<line fill="none" stroke="#000000" stroke-width="0.5" stroke-miterlimit="10" x1="103.53" y1="79.548" x2="103.53" y2="83.105"/>
		
			<line fill="none" stroke="#000000" stroke-width="0.5" stroke-miterlimit="10" x1="104.685" y1="79.548" x2="104.685" y2="83.105"/>
		<line fill="none" stroke="#000000" stroke-width="0.5" stroke-miterlimit="10" x1="105.84" y1="79.548" x2="105.84" y2="83.105"/>
		
			<line fill="none" stroke="#000000" stroke-width="0.5" stroke-miterlimit="10" x1="106.995" y1="79.548" x2="106.995" y2="83.105"/>
		
			<line fill="none" stroke="#000000" stroke-width="0.5" stroke-miterlimit="10" x1="108.149" y1="79.548" x2="108.149" y2="83.105"/>
		
			<line fill="none" stroke="#000000" stroke-width="0.5" stroke-miterlimit="10" x1="109.303" y1="79.548" x2="109.303" y2="83.105"/>
		
			<line fill="none" stroke="#000000" stroke-width="0.5" stroke-miterlimit="10" x1="110.458" y1="79.548" x2="110.458" y2="83.105"/>
		
			<line fill="none" stroke="#000000" stroke-width="0.5" stroke-miterlimit="10" x1="111.614" y1="79.548" x2="111.614" y2="83.105"/>
		
			<line fill="none" stroke="#000000" stroke-width="0.5" stroke-miterlimit="10" x1="112.768" y1="79.548" x2="112.768" y2="83.105"/>
		
			<line fill="none" stroke="#000000" stroke-width="0.5" stroke-miterlimit="10" x1="113.922" y1="79.548" x2="113.922" y2="83.105"/>
		
			<line fill="none" stroke="#000000" stroke-width="0.5" stroke-miterlimit="10" x1="115.078" y1="79.548" x2="115.078" y2="83.105"/>
		
			<line fill="none" stroke="#000000" stroke-width="0.5" stroke-miterlimit="10" x1="116.232" y1="79.548" x2="116.232" y2="83.105"/>
		
			<line fill="none" stroke="#000000" stroke-width="0.5" stroke-miterlimit="10" x1="117.387" y1="79.548" x2="117.387" y2="83.105"/>
		
			<line fill="none" stroke="#000000" stroke-width="0.5" stroke-miterlimit="10" x1="118.542" y1="79.548" x2="118.542" y2="83.105"/>
		
			<line fill="none" stroke="#000000" stroke-width="0.5" stroke-miterlimit="10" x1="118.542" y1="79.548" x2="118.542" y2="83.105"/>
	</g>
	<g>
		<line fill="none" stroke="#000000" stroke-width="0.5" stroke-miterlimit="10" x1="91.984" y1="88.654" x2="91.984" y2="92.21"/>
		<line fill="none" stroke="#000000" stroke-width="0.5" stroke-miterlimit="10" x1="93.139" y1="88.654" x2="93.139" y2="92.21"/>
		<line fill="none" stroke="#000000" stroke-width="0.5" stroke-miterlimit="10" x1="94.293" y1="88.654" x2="94.293" y2="92.21"/>
		<line fill="none" stroke="#000000" stroke-width="0.5" stroke-miterlimit="10" x1="95.448" y1="88.654" x2="95.448" y2="92.21"/>
		<line fill="none" stroke="#000000" stroke-width="0.5" stroke-miterlimit="10" x1="96.602" y1="88.654" x2="96.602" y2="92.21"/>
		<line fill="none" stroke="#000000" stroke-width="0.5" stroke-miterlimit="10" x1="97.757" y1="88.654" x2="97.757" y2="92.21"/>
		<line fill="none" stroke="#000000" stroke-width="0.5" stroke-miterlimit="10" x1="98.913" y1="88.654" x2="98.913" y2="92.21"/>
		
			<line fill="none" stroke="#000000" stroke-width="0.5" stroke-miterlimit="10" x1="100.067" y1="88.654" x2="100.067" y2="92.21"/>
		
			<line fill="none" stroke="#000000" stroke-width="0.5" stroke-miterlimit="10" x1="101.221" y1="88.654" x2="101.221" y2="92.21"/>
		
			<line fill="none" stroke="#000000" stroke-width="0.5" stroke-miterlimit="10" x1="102.375" y1="88.654" x2="102.375" y2="92.21"/>
		
			<line fill="none" stroke="#000000" stroke-width="0.5" stroke-miterlimit="10" x1="103.531" y1="88.654" x2="103.531" y2="92.21"/>
		
			<line fill="none" stroke="#000000" stroke-width="0.5" stroke-miterlimit="10" x1="104.686" y1="88.654" x2="104.686" y2="92.21"/>
		<line fill="none" stroke="#000000" stroke-width="0.5" stroke-miterlimit="10" x1="105.84" y1="88.654" x2="105.84" y2="92.21"/>
		
			<line fill="none" stroke="#000000" stroke-width="0.5" stroke-miterlimit="10" x1="106.995" y1="88.654" x2="106.995" y2="92.21"/>
		<line fill="none" stroke="#000000" stroke-width="0.5" stroke-miterlimit="10" x1="108.15" y1="88.654" x2="108.15" y2="92.21"/>
		
			<line fill="none" stroke="#000000" stroke-width="0.5" stroke-miterlimit="10" x1="109.304" y1="88.654" x2="109.304" y2="92.21"/>
		
			<line fill="none" stroke="#000000" stroke-width="0.5" stroke-miterlimit="10" x1="110.459" y1="88.654" x2="110.459" y2="92.21"/>
		
			<line fill="none" stroke="#000000" stroke-width="0.5" stroke-miterlimit="10" x1="111.614" y1="88.654" x2="111.614" y2="92.21"/>
		
			<line fill="none" stroke="#000000" stroke-width="0.5" stroke-miterlimit="10" x1="112.768" y1="88.654" x2="112.768" y2="92.21"/>
		
			<line fill="none" stroke="#000000" stroke-width="0.5" stroke-miterlimit="10" x1="113.923" y1="88.654" x2="113.923" y2="92.21"/>
	</g>
	<g>
		<line fill="none" stroke="#000000" stroke-width="0.5" stroke-miterlimit="10" x1="91.983" y1="92.325" x2="91.983" y2="95.882"/>
		<line fill="none" stroke="#000000" stroke-width="0.5" stroke-miterlimit="10" x1="93.138" y1="92.325" x2="93.138" y2="95.882"/>
		<line fill="none" stroke="#000000" stroke-width="0.5" stroke-miterlimit="10" x1="94.293" y1="92.325" x2="94.293" y2="95.882"/>
		<line fill="none" stroke="#000000" stroke-width="0.5" stroke-miterlimit="10" x1="95.448" y1="92.325" x2="95.448" y2="95.882"/>
		<line fill="none" stroke="#000000" stroke-width="0.5" stroke-miterlimit="10" x1="97.756" y1="92.325" x2="97.756" y2="95.882"/>
		<line fill="none" stroke="#000000" stroke-width="0.5" stroke-miterlimit="10" x1="98.912" y1="92.325" x2="98.912" y2="95.882"/>
		
			<line fill="none" stroke="#000000" stroke-width="0.5" stroke-miterlimit="10" x1="100.067" y1="92.325" x2="100.067" y2="95.882"/>
		
			<line fill="none" stroke="#000000" stroke-width="0.5" stroke-miterlimit="10" x1="101.221" y1="92.325" x2="101.221" y2="95.882"/>
		
			<line fill="none" stroke="#000000" stroke-width="0.5" stroke-miterlimit="10" x1="102.375" y1="92.325" x2="102.375" y2="95.882"/>
		<line fill="none" stroke="#000000" stroke-width="0.5" stroke-miterlimit="10" x1="103.53" y1="92.325" x2="103.53" y2="95.882"/>
		
			<line fill="none" stroke="#000000" stroke-width="0.5" stroke-miterlimit="10" x1="104.685" y1="92.325" x2="104.685" y2="95.882"/>
		<line fill="none" stroke="#000000" stroke-width="0.5" stroke-miterlimit="10" x1="105.84" y1="92.325" x2="105.84" y2="95.882"/>
		
			<line fill="none" stroke="#000000" stroke-width="0.5" stroke-miterlimit="10" x1="106.995" y1="92.325" x2="106.995" y2="95.882"/>
		
			<line fill="none" stroke="#000000" stroke-width="0.5" stroke-miterlimit="10" x1="108.149" y1="92.325" x2="108.149" y2="95.882"/>
		
			<line fill="none" stroke="#000000" stroke-width="0.5" stroke-miterlimit="10" x1="109.303" y1="92.325" x2="109.303" y2="95.882"/>
		
			<line fill="none" stroke="#000000" stroke-width="0.5" stroke-miterlimit="10" x1="110.458" y1="92.325" x2="110.458" y2="95.882"/>
		
			<line fill="none" stroke="#000000" stroke-width="0.5" stroke-miterlimit="10" x1="111.614" y1="92.325" x2="111.614" y2="95.882"/>
		
			<line fill="none" stroke="#000000" stroke-width="0.5" stroke-miterlimit="10" x1="112.768" y1="92.325" x2="112.768" y2="95.882"/>
		
			<line fill="none" stroke="#000000" stroke-width="0.5" stroke-miterlimit="10" x1="113.922" y1="92.325" x2="113.922" y2="95.882"/>
	</g>
	<line fill="none" stroke="#B61F24" stroke-miterlimit="10" x1="54.084" y1="75.898" x2="82.627" y2="75.898"/>
	<line fill="none" stroke="#1EA049" stroke-miterlimit="10" x1="91.102" y1="75.613" x2="119.645" y2="75.613"/>
	<line fill="none" stroke="#3C409A" stroke-miterlimit="10" x1="54.084" y1="95.882" x2="87.392" y2="95.882"/>
	<line fill="none" stroke="#B61F24" stroke-miterlimit="10" x1="54.084" y1="86.569" x2="82.627" y2="86.569"/>
	<line fill="none" stroke="#A7BB39" stroke-miterlimit="10" x1="91.102" y1="92.267" x2="115.247" y2="92.267"/>
	<line fill="none" stroke="#A7BB39" stroke-miterlimit="10" x1="91.102" y1="95.882" x2="115.247" y2="95.882"/>
	<line fill="none" stroke="#1EA049" stroke-miterlimit="10" x1="91.102" y1="82.841" x2="119.645" y2="82.841"/>
	<line fill="none" stroke="#B61F24" stroke-miterlimit="10" x1="54.084" y1="79.455" x2="82.627" y2="79.455"/>
	<line fill="none" stroke="#A7BB39" stroke-miterlimit="10" x1="91.102" y1="88.654" x2="115.247" y2="88.654"/>
	<line fill="none" stroke="#1EA049" stroke-miterlimit="10" x1="91.102" y1="79.226" x2="119.645" y2="79.226"/>
	<line fill="none" stroke="#B61F24" stroke-miterlimit="10" x1="54.084" y1="83.011" x2="82.627" y2="83.011"/>
	<line fill="none" stroke="#3C409A" stroke-miterlimit="10" x1="54.084" y1="92.325" x2="87.392" y2="92.325"/>
</g>
<g>
	<g>
		<line fill="none" stroke="#000000" stroke-miterlimit="10" x1="86.864" y1="23.621" x2="86.864" y2="28.228"/>
		<g>
			<polygon points="85.012,26.823 86.864,27.61 88.715,26.823 86.864,31.212 			"/>
		</g>
	</g>
</g>
<g>
	<g>
		<line fill="none" stroke="#000000" stroke-miterlimit="10" x1="86.864" y1="63.222" x2="86.864" y2="67.829"/>
		<g>
			<polygon points="85.012,66.424 86.864,67.21 88.715,66.424 86.864,70.814 			"/>
		</g>
	</g>
</g>
</svg>
