<?xml version="1.0" encoding="utf-8"?>
<!-- Generator: Adobe Illustrator 16.0.3, SVG Export Plug-In . SVG Version: 6.00 Build 0)  -->
<!DOCTYPE svg PUBLIC "-//W3C//DTD SVG 1.1//EN" "http://www.w3.org/Graphics/SVG/1.1/DTD/svg11.dtd">
<svg version="1.1" id="Layer_1" xmlns="http://www.w3.org/2000/svg" xmlns:xlink="http://www.w3.org/1999/xlink" x="0px" y="0px"
	 width="87.151px" height="16.661px" viewBox="0 0 87.151 16.661" enable-background="new 0 0 87.151 16.661" xml:space="preserve">
<circle fill="#F1F1F1" cx="71.102" cy="7.683" r="5.884"/>
<circle fill="#F1F2F2" stroke="#FFFFFF" stroke-width="0.5" stroke-miterlimit="10" cx="71.132" cy="7.649" r="4.023"/>
<circle fill="#F1F2F2" stroke="#FFFFFF" stroke-width="0.5" stroke-miterlimit="10" cx="71.132" cy="7.649" r="1.965"/>
<g>
	<path fill="#D72B28" d="M72.321,7.04"/>
</g>
<g>
	<path fill="#D72B28" d="M71.415,7.945"/>
</g>
<path fill="#D72B28" stroke="#F37E20" stroke-miterlimit="10" stroke-dasharray="1,1.5" d="M72.893,7.234"/>
<path fill="#D72B28" stroke="#F37E20" stroke-miterlimit="10" stroke-dasharray="1,1.5" d="M70.572,8.754"/>
<g>
	
		<linearGradient id="SVGID_1_" gradientUnits="userSpaceOnUse" x1="-112.3413" y1="-145.519" x2="-110.8719" y2="-144.9085" gradientTransform="matrix(0.7071 -0.7071 0.7071 0.7071 251.3608 28.7618)">
		<stop  offset="0" style="stop-color:#FFFFFF;stop-opacity:0"/>
		<stop  offset="0.8094" style="stop-color:#FFFFFF;stop-opacity:0.7746"/>
		<stop  offset="1" style="stop-color:#FFFFFF"/>
	</linearGradient>
	<path fill="url(#SVGID_1_)" d="M71.079,7.764l-0.363-6.073c0,0-1.316,0.019-2.381,0.618c-1.065,0.601-2.038,1.484-2.038,1.484
		L71.079,7.764z"/>
</g>
<g>
	<path fill="#555655" d="M54.512,13.808V1.457h4.342c2.61,0,3.799,2.031,3.799,3.917s-1.188,3.917-3.799,3.917h-3.605v4.517H54.512z
		 M58.854,8.572c2.115,0,3.079-1.653,3.079-3.188c0-1.537-0.964-3.189-3.079-3.189h-3.605v6.378H58.854z"/>
	<path fill="#555655" d="M54.681,13.639V1.626h4.173c2.493,0,3.63,1.943,3.63,3.749c0,1.805-1.137,3.748-3.63,3.748h-3.774v4.517
		H54.681z M58.854,8.741c2.231,0,3.248-1.74,3.248-3.357c0-1.618-1.017-3.359-3.248-3.359h-3.774v6.716H58.854z"/>
	<path fill="#555655" d="M54.575,13.746V1.52h4.278c2.566,0,3.735,1.998,3.735,3.854c0,1.006-0.331,1.944-0.933,2.644
		c-0.681,0.792-1.649,1.21-2.803,1.21h-3.669v4.518H54.575z M58.854,8.635c0.972,0,1.787-0.35,2.355-1.011
		c0.507-0.59,0.786-1.386,0.786-2.241c0-1.566-0.982-3.253-3.142-3.253h-3.669v6.505H58.854z"/>
	<path fill="#555655" d="M54.744,1.689h0.136h3.974c4.755,0,4.755,7.37,0,7.37h-3.838v4.518h-0.271c0-3.923,0-7.829,0-11.751V1.689z
		 M58.854,8.804c4.415,0,4.415-6.843,0-6.843h-3.838v6.843H58.854z"/>
	<path fill="#555655" d="M71.061,13.979c-1.673,0-3.294-0.682-4.446-1.871c-1.191-1.211-1.849-2.801-1.849-4.475
		c0-1.675,0.657-3.265,1.85-4.477c1.151-1.188,2.772-1.87,4.445-1.87c1.69,0,3.274,0.664,4.462,1.87
		c1.193,1.212,1.85,2.802,1.85,4.477s-0.656,3.264-1.85,4.476C74.336,13.315,72.751,13.979,71.061,13.979z M71.061,2.023
		c-1.478,0-2.872,0.59-3.927,1.663c-1.053,1.07-1.632,2.472-1.632,3.947c0,1.475,0.579,2.876,1.632,3.946
		c1.055,1.072,2.449,1.662,3.927,1.662c1.487,0,2.888-0.59,3.943-1.662c1.041-1.059,1.614-2.46,1.614-3.946
		s-0.573-2.889-1.614-3.947C73.948,2.614,72.548,2.023,71.061,2.023z"/>
	<path fill="#555655" d="M71.061,13.81c-1.628,0-3.204-0.663-4.325-1.819c-1.16-1.18-1.801-2.728-1.801-4.357
		c0-1.631,0.641-3.178,1.801-4.357c1.121-1.156,2.697-1.82,4.325-1.82c1.644,0,3.187,0.646,4.341,1.82
		c1.162,1.18,1.802,2.727,1.802,4.357c0,1.63-0.64,3.178-1.802,4.357C74.247,13.165,72.704,13.81,71.061,13.81z M71.061,1.854
		c-1.522,0-2.96,0.609-4.048,1.713c-1.083,1.102-1.68,2.545-1.68,4.065c0,1.52,0.597,2.963,1.68,4.064
		c1.088,1.105,2.525,1.714,4.048,1.714c1.533,0,2.977-0.608,4.063-1.714c1.072-1.09,1.664-2.533,1.664-4.064
		c0-1.532-0.592-2.976-1.664-4.065C74.037,2.463,72.594,1.854,71.061,1.854z"/>
	<path fill="#555655" d="M71.061,13.915c-1.656,0-3.261-0.675-4.401-1.851c-1.18-1.199-1.83-2.772-1.83-4.431
		s0.65-3.232,1.832-4.432c1.14-1.177,2.744-1.852,4.399-1.852c1.673,0,3.241,0.657,4.417,1.852c1.181,1.199,1.831,2.773,1.831,4.432
		s-0.65,3.231-1.831,4.432C74.303,13.257,72.733,13.915,71.061,13.915z M71.061,1.96c-1.495,0-2.905,0.598-3.972,1.682
		c-1.064,1.081-1.65,2.498-1.65,3.991c0,1.492,0.586,2.909,1.65,3.99c1.066,1.085,2.477,1.682,3.972,1.682
		c1.505,0,2.922-0.597,3.989-1.682c1.052-1.069,1.632-2.487,1.632-3.99c0-1.504-0.58-2.922-1.632-3.991
		C73.982,2.557,72.565,1.96,71.061,1.96z"/>
	<path fill="#555655" d="M66.781,3.32c1.087-1.121,2.614-1.8,4.279-1.8c1.681,0,3.192,0.679,4.296,1.8
		c1.087,1.104,1.783,2.632,1.783,4.313c0,1.681-0.696,3.209-1.783,4.312c-1.104,1.121-2.615,1.8-4.296,1.8
		c-1.665,0-3.192-0.679-4.279-1.8c-1.087-1.104-1.783-2.632-1.783-4.312C64.998,5.952,65.694,4.424,66.781,3.32z M75.169,3.524
		c-1.052-1.07-2.513-1.732-4.108-1.732c-1.597,0-3.04,0.662-4.093,1.732C65.933,4.576,65.27,6.02,65.27,7.633
		c0,1.612,0.663,3.057,1.698,4.109c1.053,1.069,2.496,1.731,4.093,1.731c1.596,0,3.057-0.662,4.108-1.731
		c1.037-1.053,1.682-2.497,1.682-4.109C76.851,6.02,76.206,4.576,75.169,3.524z"/>
	<polygon fill="#555655" points="82.321,13.86 82.321,2.194 78.212,2.194 78.212,1.457 87.151,1.457 87.151,2.194 83.041,2.194 
		83.041,13.86 	"/>
	<polygon fill="#555655" points="82.491,13.691 82.491,2.024 78.382,2.024 78.382,1.626 86.981,1.626 86.981,2.024 82.872,2.024 
		82.872,13.691 	"/>
	<polygon fill="#555655" points="82.385,13.796 82.385,2.13 78.275,2.13 78.275,1.52 87.087,1.52 87.087,2.13 82.978,2.13 
		82.978,13.796 	"/>
	<path fill="#555655" d="M82.554,13.627V1.961h-4.109V1.689h8.474v0.272h-4.109v11.666H82.554z"/>
</g>
<g>
	<path fill="#555655" d="M0,16.661L1.124,9.08l0.35-2.271l0.625-0.042l0.008,0.198L2.047,7.589C2.267,7.37,2.511,7.185,2.78,7.035
		c0.456-0.255,0.974-0.383,1.54-0.383c0.844,0,1.481,0.358,1.895,1.065C6.613,8.4,6.731,9.31,6.565,10.424l-0.019,0.132
		c-0.17,1.128-0.542,2.017-1.107,2.641c-0.576,0.638-1.308,0.961-2.172,0.961c-0.549,0-1.027-0.119-1.423-0.354
		c-0.237-0.142-0.441-0.312-0.608-0.51l-0.502,3.366H0z M4.275,7.381c-0.579,0-1.069,0.153-1.456,0.455
		c-0.4,0.309-0.717,0.693-0.944,1.145l-0.469,3.205c0.092,0.331,0.299,0.649,0.612,0.884c0.317,0.237,0.757,0.358,1.307,0.358
		c0.63,0,1.171-0.262,1.607-0.778c0.452-0.533,0.749-1.257,0.882-2.15l0.019-0.132c0.138-0.94,0.07-1.69-0.2-2.228
		C5.377,7.629,4.933,7.381,4.275,7.381z"/>
	<path fill="#555655" d="M0.196,16.492l0.676-4.547v-0.048l0.418-2.792l0.014-0.042l0.316-2.095l0.29-0.02h0.027L1.83,8.101
		c0.283-0.385,0.63-0.693,1.033-0.919c0.429-0.239,0.919-0.361,1.457-0.361c0.779,0,1.367,0.33,1.748,0.982
		c0.38,0.648,0.49,1.521,0.33,2.596l-0.019,0.133c-0.165,1.095-0.523,1.952-1.065,2.552c-0.543,0.601-1.231,0.904-2.046,0.904
		c-0.518,0-0.968-0.11-1.337-0.329c-0.348-0.206-0.616-0.48-0.799-0.815l-0.543,3.648H0.196z M4.275,7.212
		c-0.617,0-1.142,0.164-1.56,0.489c-0.42,0.325-0.753,0.73-0.991,1.202l-0.486,3.257c0.104,0.432,0.332,0.786,0.679,1.045
		c0.347,0.26,0.821,0.392,1.408,0.392c0.682,0,1.267-0.281,1.737-0.838c0.473-0.558,0.782-1.31,0.92-2.234L6,10.391
		C6.143,9.417,6.07,8.634,5.784,8.064C5.5,7.499,4.993,7.212,4.275,7.212z"/>
	<path fill="#555655" d="M0.028,16.637l1.119-7.554l0.352-2.28h0.598l-0.08,0.852c0.229-0.238,0.489-0.438,0.775-0.599
		c0.451-0.252,0.965-0.38,1.528-0.38c0.834,0,1.464,0.354,1.874,1.054c0.396,0.678,0.513,1.583,0.348,2.69l-0.02,0.132
		c-0.169,1.124-0.539,2.008-1.101,2.628c-0.572,0.632-1.296,0.952-2.154,0.952c-0.544,0-1.019-0.117-1.411-0.35
		c-0.252-0.148-0.465-0.332-0.637-0.547l-0.506,3.401H0.028z M4.275,7.357c-0.584,0-1.079,0.154-1.471,0.459
		C2.4,8.129,2.081,8.517,1.853,8.969l-0.472,3.213c0.094,0.349,0.298,0.666,0.622,0.908c0.322,0.24,0.767,0.362,1.322,0.362
		c0.646,0,1.178-0.257,1.626-0.786c0.455-0.537,0.753-1.265,0.887-2.163l0.019-0.132c0.138-0.945,0.07-1.7-0.203-2.243
		C5.394,7.61,4.942,7.357,4.275,7.357z"/>
	<path fill="#555655" d="M6.354,10.529c-0.165,1.094-0.518,1.939-1.059,2.538c-0.541,0.599-1.217,0.896-2.028,0.896
		c-0.516,0-0.957-0.108-1.325-0.326c-0.367-0.218-0.643-0.508-0.824-0.872l-0.551,3.703H0.225l0.672-4.52v-0.052l0.418-2.789
		L1.328,9.07l0.317-2.098h0.266L1.797,8.189c0.292-0.418,0.651-0.746,1.077-0.985c0.427-0.238,0.909-0.358,1.445-0.358
		c0.773,0,1.349,0.323,1.727,0.97c0.378,0.646,0.487,1.507,0.327,2.58L6.354,10.529z M6.024,10.395
		c0.144-0.984,0.071-1.766-0.219-2.343c-0.289-0.576-0.8-0.864-1.531-0.864c-0.625,0-1.15,0.164-1.575,0.494
		c-0.425,0.33-0.758,0.733-0.999,1.21l-0.488,3.266c0.105,0.448,0.335,0.804,0.688,1.067c0.353,0.265,0.827,0.396,1.423,0.396
		c0.693,0,1.278-0.282,1.756-0.846c0.478-0.564,0.786-1.313,0.925-2.247L6.024,10.395z"/>
	<path fill="#555655" d="M10.894,14.158c-0.667,0-1.187-0.199-1.547-0.593c-0.363-0.396-0.498-0.922-0.4-1.563
		c0.092-0.649,0.466-1.188,1.112-1.596c0.626-0.396,1.378-0.598,2.236-0.598h1.804l0.108-0.833c0.079-0.527-0.016-0.926-0.283-1.187
		c-0.275-0.271-0.728-0.407-1.344-0.407c-0.553,0-1.037,0.141-1.436,0.419c-0.388,0.27-0.617,0.614-0.68,1.026l-0.021,0.141
		L9.849,8.982l-0.047-0.14L9.788,8.741c0.064-0.607,0.367-1.115,0.898-1.509c0.521-0.385,1.174-0.58,1.944-0.58
		c0.758,0,1.363,0.207,1.797,0.617c0.446,0.42,0.616,1.016,0.505,1.771l-0.513,3.438c-0.037,0.241-0.06,0.473-0.068,0.688
		c-0.008,0.212,0.004,0.426,0.036,0.636l0.03,0.194l-0.192,0.028h-0.599l-0.003-0.166c-0.008-0.35-0.011-0.581-0.01-0.713
		c-0.248,0.234-0.539,0.437-0.869,0.604C12.211,14.02,11.589,14.158,10.894,14.158z M12.256,10.544
		c-0.646,0-1.236,0.157-1.754,0.468c-0.497,0.296-0.778,0.656-0.836,1.071c-0.062,0.415,0.019,0.745,0.242,0.984
		c0.227,0.243,0.575,0.366,1.037,0.366c0.618,0,1.181-0.144,1.675-0.428c0.493-0.283,0.887-0.688,1.172-1.202l0.181-1.26H12.256z"/>
	<path fill="#555655" d="M10.894,13.988c-0.617,0-1.095-0.181-1.422-0.537c-0.327-0.356-0.447-0.836-0.358-1.424
		c0.085-0.601,0.434-1.098,1.035-1.478c0.599-0.38,1.321-0.572,2.146-0.572h1.952l0.128-0.979c0.087-0.581-0.025-1.028-0.332-1.33
		c-0.309-0.302-0.801-0.455-1.463-0.455c-0.588,0-1.104,0.15-1.533,0.448c-0.428,0.297-0.68,0.681-0.75,1.141l-0.31,0.008
		l-0.02-0.001l-0.01-0.05c0.06-0.562,0.339-1.026,0.831-1.391c0.49-0.362,1.11-0.547,1.843-0.547c0.713,0,1.278,0.192,1.681,0.571
		c0.403,0.38,0.556,0.927,0.454,1.624l-0.513,3.437c-0.038,0.248-0.061,0.485-0.07,0.707c-0.008,0.221,0.004,0.446,0.038,0.667
		l0.004,0.028h-0.433v-0.023c-0.009-0.356-0.012-0.595-0.01-0.717c0.002-0.123,0.016-0.272,0.042-0.448l0.001-0.008
		c-0.292,0.382-0.68,0.697-1.158,0.94C12.158,13.857,11.562,13.988,10.894,13.988z M12.256,10.375c-0.677,0-1.297,0.165-1.841,0.491
		c-0.542,0.323-0.851,0.726-0.917,1.192c-0.07,0.468,0.025,0.846,0.285,1.124s0.65,0.42,1.161,0.42c0.647,0,1.24-0.151,1.759-0.449
		c0.52-0.299,0.936-0.725,1.236-1.269l0.228-1.51H12.256z"/>
	<path fill="#555655" d="M10.894,14.132c-0.66,0-1.174-0.195-1.529-0.583c-0.358-0.392-0.49-0.911-0.394-1.544
		c0.091-0.643,0.461-1.175,1.1-1.579c0.624-0.394,1.372-0.594,2.224-0.594h1.807l0.13-0.857c0.081-0.539-0.014-0.933-0.291-1.203
		c-0.28-0.275-0.738-0.415-1.361-0.415c-0.558,0-1.046,0.143-1.45,0.423c-0.399,0.277-0.625,0.618-0.69,1.044l-0.023,0.149
		L9.846,8.949l-0.03-0.156L9.812,8.735c0.064-0.595,0.363-1.095,0.889-1.483c0.517-0.382,1.165-0.575,1.929-0.575
		c0.751,0,1.35,0.205,1.78,0.61c0.44,0.415,0.607,1.005,0.499,1.751l-0.513,3.437c-0.038,0.243-0.061,0.473-0.068,0.69
		c-0.008,0.214,0.004,0.43,0.036,0.641L14.393,14H13.65l-0.004-0.165c-0.009-0.358-0.012-0.6-0.009-0.723c0-0.008,0-0.017,0-0.024
		c-0.255,0.25-0.558,0.464-0.906,0.641C12.203,13.997,11.584,14.132,10.894,14.132z M12.256,10.52c-0.65,0-1.245,0.158-1.767,0.471
		c-0.51,0.305-0.788,0.661-0.848,1.089c-0.065,0.429,0.016,0.757,0.248,1.005s0.586,0.374,1.055,0.374
		c0.623,0,1.19-0.145,1.688-0.431c0.496-0.284,0.894-0.693,1.182-1.213L14,10.52H12.256z"/>
	<path fill="#555655" d="M13.86,12.57c-0.296,0.414-0.697,0.75-1.204,1.008c-0.507,0.257-1.095,0.386-1.762,0.386
		c-0.613,0-1.081-0.176-1.404-0.528c-0.323-0.354-0.44-0.821-0.352-1.404c0.084-0.597,0.425-1.083,1.023-1.461
		c0.598-0.378,1.309-0.567,2.133-0.567h1.952L14.399,9c0.089-0.592-0.024-1.041-0.339-1.35c-0.314-0.309-0.808-0.463-1.48-0.463
		c-0.596,0-1.111,0.15-1.546,0.453c-0.436,0.302-0.689,0.688-0.761,1.156L9.987,8.786L9.981,8.753
		c0.059-0.55,0.333-1.005,0.821-1.366c0.488-0.36,1.098-0.542,1.829-0.542c0.71,0,1.265,0.188,1.664,0.564
		c0.399,0.377,0.548,0.91,0.447,1.604l-0.513,3.436c-0.039,0.249-0.062,0.486-0.07,0.71c-0.008,0.225,0.004,0.448,0.039,0.672
		h-0.381c-0.008-0.355-0.012-0.593-0.009-0.716c0.002-0.123,0.016-0.271,0.042-0.444L13.86,12.57z M10.944,13.627
		c0.655,0,1.246-0.15,1.771-0.452c0.526-0.303,0.941-0.729,1.246-1.278l0.235-1.546h-1.94c-0.685,0-1.302,0.164-1.854,0.494
		s-0.861,0.732-0.929,1.21c-0.072,0.478,0.025,0.859,0.292,1.145C10.031,13.486,10.424,13.627,10.944,13.627z"/>
	<path fill="#555655" d="M19.623,14.158c-0.511,0-0.892-0.184-1.131-0.544c-0.229-0.343-0.291-0.875-0.183-1.581l0.676-4.518h-1.267
		l0.104-0.714l1.291-0.02l0.254-1.825l0.72-0.04l-0.003,0.206L19.835,6.78h1.685l-0.104,0.712l-1.71,0.021l-0.665,4.577
		c-0.101,0.662-0.02,0.953,0.066,1.08c0.118,0.174,0.296,0.258,0.547,0.258c0.104,0,0.202-0.005,0.293-0.013
		c0.095-0.008,0.214-0.022,0.358-0.043l0.181-0.024l0.037,0.178l0.028,0.455l-0.107,0.047c-0.134,0.06-0.262,0.094-0.415,0.109
		C19.911,14.151,19.775,14.158,19.623,14.158z"/>
	<path fill="#555655" d="M19.623,13.988c-0.45,0-0.784-0.156-0.99-0.467c-0.206-0.308-0.258-0.801-0.156-1.463l0.706-4.713h-1.268
		l0.055-0.377l1.292-0.02l0.255-1.831l0.373-0.021h0.028l-0.279,1.852h1.686L21.27,7.324l-1.71,0.021l-0.686,4.721
		c-0.088,0.574-0.056,0.979,0.094,1.199c0.149,0.221,0.38,0.332,0.687,0.332c0.109,0,0.212-0.005,0.308-0.013
		c0.097-0.009,0.219-0.023,0.367-0.044l0.026-0.004l0.021,0.337c-0.133,0.059-0.249,0.083-0.364,0.096S19.768,13.988,19.623,13.988z
		"/>
	<path fill="#555655" d="M19.623,14.132c-0.501,0-0.875-0.178-1.111-0.53c-0.229-0.345-0.288-0.856-0.178-1.565l0.68-4.547h-1.267
		l0.1-0.687h1.269l0.279-1.851h0.691l-0.279,1.851h1.685L21.392,7.49h-1.687l-0.688,4.598c-0.102,0.67-0.018,0.966,0.071,1.097
		c0.122,0.181,0.307,0.269,0.567,0.269c0.104,0,0.203-0.005,0.296-0.013c0.095-0.008,0.214-0.022,0.358-0.043l0.182-0.026
		l0.039,0.628L20.4,14.037c-0.125,0.037-0.249,0.063-0.373,0.076C19.909,14.126,19.773,14.132,19.623,14.132z"/>
	<path fill="#555655" d="M19.889,5.122L19.61,6.972h1.686l-0.051,0.349H19.56l-0.71,4.741c-0.088,0.583-0.056,0.989,0.098,1.217
		c0.154,0.229,0.39,0.343,0.707,0.343c0.11,0,0.213-0.005,0.311-0.013c0.097-0.009,0.22-0.023,0.368-0.045l0.019,0.311
		c-0.114,0.034-0.229,0.058-0.343,0.07c-0.114,0.013-0.243,0.019-0.386,0.019c-0.444,0-0.767-0.152-0.97-0.456
		c-0.203-0.304-0.254-0.786-0.152-1.445l0.71-4.741h-1.268l0.05-0.349h1.268l0.279-1.851H19.889z"/>
	<path fill="#555655" d="M23.339,13.83l0.526-3.513c0-0.092,0.011-0.165,0.024-0.238c0.014-0.074,0.029-0.146,0.047-0.219
		l0.911-6.082l0.711-0.04l-0.003,0.206l-0.554,3.681c0.208-0.222,0.44-0.407,0.696-0.556c0.473-0.277,1.031-0.417,1.66-0.417
		c0.753,0,1.313,0.26,1.665,0.772c0.342,0.498,0.439,1.26,0.289,2.265l-0.652,4.335h-0.74l0.661-4.405
		c0.128-0.867,0.073-1.485-0.161-1.786c-0.233-0.299-0.604-0.451-1.105-0.451c-0.647,0-1.195,0.204-1.626,0.607
		c-0.445,0.415-0.773,0.947-0.978,1.585l-0.66,4.422l-0.711,0.04L23.339,13.83z"/>
	<path fill="#555655" d="M28.115,13.855l0.632-4.211c0.138-0.928,0.072-1.571-0.195-1.915c-0.267-0.343-0.684-0.517-1.239-0.517
		c-0.691,0-1.278,0.22-1.742,0.652c-0.466,0.435-0.81,0.992-1.023,1.657l-0.646,4.312l-0.366,0.021h-0.028l0.526-3.514l-0.008-0.025
		c0.008-0.067,0.019-0.137,0.032-0.208c0.013-0.069,0.027-0.138,0.044-0.207l0.894-5.963l0.366-0.02h0.028l-0.652,4.326
		c0.279-0.442,0.63-0.788,1.045-1.03c0.447-0.262,0.977-0.394,1.575-0.394c0.694,0,1.208,0.235,1.526,0.699
		c0.316,0.461,0.404,1.183,0.261,2.144l-0.631,4.191H28.115z"/>
	<path fill="#555655" d="M27.946,14l0.657-4.378c0.131-0.885,0.076-1.492-0.166-1.804c-0.241-0.311-0.609-0.461-1.125-0.461
		c-0.663,0-1.201,0.2-1.644,0.613c-0.447,0.418-0.779,0.954-0.984,1.596L24.022,14h-0.684l0.534-3.565l0.008-0.135
		c0.009-0.071,0.02-0.144,0.033-0.216c0.014-0.074,0.029-0.147,0.047-0.219l0.912-6.091h0.685L24.966,7.7
		c0.219-0.245,0.468-0.45,0.744-0.61c0.47-0.274,1.024-0.413,1.647-0.413c0.745,0,1.298,0.256,1.645,0.761
		c0.343,0.501,0.436,1.236,0.284,2.248L28.637,14H27.946z"/>
	<path fill="#555655" d="M24.695,8.361c0.287-0.49,0.654-0.865,1.1-1.125c0.446-0.261,0.967-0.391,1.562-0.391
		c0.688,0,1.19,0.229,1.506,0.688c0.314,0.459,0.4,1.168,0.256,2.127l-0.627,4.171h-0.349l0.627-4.184
		c0.14-0.938,0.073-1.582-0.2-1.934c-0.273-0.351-0.692-0.525-1.258-0.525c-0.702,0-1.288,0.22-1.759,0.659s-0.814,0.995-1.03,1.667
		l-0.647,4.316h-0.342l0.526-3.511h-0.013c0.008-0.068,0.019-0.138,0.032-0.207s0.027-0.139,0.044-0.206l0.894-5.964h0.342
		L24.695,8.361z"/>
	<path fill="#555655" d="M34.742,14.158c-0.918,0-1.646-0.352-2.161-1.045c-0.51-0.685-0.687-1.562-0.527-2.606l0.038-0.265
		c0.163-1.084,0.585-1.96,1.255-2.607c0.677-0.652,1.5-0.982,2.448-0.982c0.918,0,1.644,0.352,2.156,1.046
		c0.505,0.684,0.682,1.559,0.527,2.6l-0.038,0.265c-0.167,1.088-0.59,1.966-1.258,2.612C36.507,13.827,35.687,14.158,34.742,14.158z
		 M35.744,7.381c-0.715,0-1.357,0.289-1.908,0.86c-0.561,0.58-0.903,1.271-1.019,2.055l-0.038,0.266
		c-0.127,0.84-0.009,1.538,0.352,2.077c0.351,0.523,0.91,0.789,1.662,0.789c0.711,0,1.349-0.285,1.896-0.848
		c0.556-0.571,0.901-1.271,1.025-2.076l0.037-0.263c0.124-0.819,0.001-1.512-0.362-2.06C37.036,7.651,36.483,7.381,35.744,7.381z"/>
	<path fill="#555655" d="M34.742,13.988c-0.862,0-1.543-0.328-2.025-0.976c-0.481-0.646-0.648-1.482-0.496-2.48l0.038-0.267
		c0.157-1.044,0.562-1.889,1.205-2.509c0.645-0.62,1.429-0.936,2.331-0.936c0.862,0,1.542,0.329,2.02,0.977
		c0.477,0.646,0.644,1.48,0.496,2.475l-0.038,0.267c-0.161,1.048-0.567,1.895-1.208,2.514
		C36.422,13.673,35.641,13.988,34.742,13.988z M35.744,7.212c-0.763,0-1.446,0.307-2.03,0.911c-0.585,0.606-0.944,1.329-1.065,2.148
		l-0.038,0.267c-0.134,0.881-0.006,1.619,0.379,2.195c0.384,0.572,0.99,0.863,1.802,0.863c0.758,0,1.437-0.302,2.017-0.899
		c0.581-0.597,0.941-1.326,1.072-2.167l0.037-0.266c0.13-0.86-0.001-1.593-0.389-2.177C37.144,7.507,36.543,7.212,35.744,7.212z"/>
	<path fill="#555655" d="M34.742,14.132c-0.91,0-1.631-0.348-2.142-1.034c-0.505-0.679-0.681-1.55-0.522-2.589l0.038-0.265
		c0.162-1.078,0.581-1.95,1.248-2.592c0.672-0.648,1.49-0.977,2.431-0.977c0.911,0,1.629,0.348,2.137,1.036
		c0.5,0.679,0.676,1.548,0.522,2.581l-0.038,0.265c-0.166,1.083-0.587,1.956-1.251,2.6C36.495,13.804,35.68,14.132,34.742,14.132z
		 M35.744,7.357c-0.732,0-1.362,0.284-1.926,0.868c-0.563,0.583-0.909,1.278-1.025,2.067l-0.038,0.266
		c-0.128,0.846-0.008,1.55,0.356,2.095c0.361,0.538,0.911,0.8,1.682,0.8c0.728,0,1.354-0.28,1.913-0.855
		c0.559-0.575,0.907-1.278,1.032-2.089l0.038-0.264c0.124-0.825,0-1.523-0.366-2.076C37.047,7.623,36.502,7.357,35.744,7.357z"/>
	<path fill="#555655" d="M32.283,10.268c0.156-1.043,0.556-1.875,1.198-2.494c0.642-0.619,1.413-0.929,2.313-0.929
		c0.858,0,1.525,0.323,2,0.967c0.475,0.645,0.639,1.463,0.491,2.456l-0.038,0.267c-0.161,1.048-0.561,1.881-1.201,2.501
		c-0.64,0.619-1.408,0.928-2.304,0.928c-0.858,0-1.526-0.322-2.006-0.966c-0.479-0.645-0.643-1.466-0.491-2.463L32.283,10.268z
		 M32.587,10.535c-0.135,0.892-0.007,1.629,0.383,2.213c0.391,0.583,0.999,0.874,1.823,0.874c0.769,0,1.447-0.302,2.034-0.906
		c0.588-0.604,0.947-1.331,1.078-2.181l0.039-0.267c0.13-0.87,0-1.602-0.394-2.192c-0.393-0.593-0.995-0.888-1.806-0.888
		c-0.773,0-1.456,0.306-2.047,0.919c-0.592,0.612-0.949,1.333-1.071,2.161L32.587,10.535z"/>
</g>
<g>
	<g>
		<g>
			<path fill="#D62B27" d="M70.878,3.447c0,0.357,0.281,0.65,0.639,0.67c0.072,0.154,0.16,0.339,0.217,0.46
				c-0.336,0.142-0.631,0.359-0.861,0.633c-0.104-0.069-0.262-0.171-0.363-0.238c-0.004-0.293-0.246-0.53-0.543-0.53
				c-0.301,0-0.543,0.242-0.543,0.538c0,0.298,0.242,0.539,0.543,0.539c0.146,0,0.279-0.057,0.377-0.151
				c0.102,0.021,0.242,0.053,0.355,0.076c-0.242,0.377-0.365,0.821-0.354,1.27c-0.088-0.01-0.191-0.015-0.25-0.02
				c-0.068-0.1-0.186-0.166-0.316-0.166c-0.215,0-0.387,0.171-0.387,0.382c0,0.212,0.172,0.382,0.387,0.382
				c0.146,0,0.275-0.083,0.34-0.205c0.066-0.021,0.168-0.055,0.254-0.083c0.061,0.38,0.217,0.725,0.443,1.017
				c-0.129,0.083-0.314,0.207-0.389,0.253c-0.051-0.017-0.104-0.025-0.16-0.025c-0.287,0-0.521,0.231-0.521,0.516
				c0,0.285,0.234,0.519,0.521,0.519c0.289,0,0.521-0.233,0.521-0.519c0-0.058-0.01-0.113-0.027-0.164
				c0.062-0.095,0.17-0.253,0.244-0.365c0.295,0.293,0.672,0.506,1.092,0.605c-0.051,0.118-0.117,0.276-0.141,0.327
				c-0.193,0.054-0.336,0.229-0.336,0.44c0,0.252,0.207,0.457,0.463,0.457c0.254,0,0.461-0.205,0.461-0.457
				c0-0.143-0.066-0.27-0.17-0.354c0-0.075,0-0.244,0-0.365c0.545,0.059,1.1-0.079,1.551-0.39l0.152,0.516
				c-0.082,0.107-0.131,0.239-0.131,0.383c0,0.355,0.291,0.643,0.648,0.643c0.355,0,0.646-0.287,0.646-0.643
				c0-0.353-0.291-0.641-0.646-0.641c-0.004,0-0.01,0.003-0.014,0.003l-0.404-0.46c0.338-0.311,0.58-0.721,0.68-1.182
				c0.105,0.026,0.244,0.06,0.312,0.075c0.061,0.117,0.184,0.195,0.324,0.195c0.203,0,0.365-0.163,0.365-0.364
				c0-0.199-0.162-0.36-0.365-0.36c-0.117,0-0.221,0.053-0.287,0.138c-0.068,0.009-0.201,0.025-0.309,0.039
				c0.037-0.444-0.059-0.891-0.275-1.278c0.16-0.082,0.428-0.214,0.516-0.258c0.064,0.027,0.135,0.044,0.209,0.044
				c0.283,0,0.512-0.226,0.512-0.506c0-0.281-0.229-0.509-0.512-0.509s-0.512,0.228-0.512,0.509c0,0.012,0,0.025,0.002,0.037
				c-0.117,0.138-0.27,0.318-0.371,0.442c-0.234-0.316-0.549-0.566-0.914-0.729c0.027-0.074,0.059-0.167,0.08-0.232
				c0.184-0.043,0.322-0.206,0.322-0.402c0-0.228-0.188-0.411-0.418-0.411c-0.229,0-0.416,0.184-0.416,0.411
				c0,0.133,0.062,0.25,0.16,0.326c0,0.059,0.002,0.14,0.002,0.211c-0.414-0.123-0.861-0.128-1.277-0.01
				c-0.008-0.149-0.02-0.354-0.027-0.507c0.158-0.125,0.26-0.316,0.26-0.53c0-0.372-0.305-0.675-0.68-0.675
				C71.181,2.772,70.878,3.075,70.878,3.447z"/>
		</g>
	</g>
	
		<line fill="#D72B28" stroke="#D62B27" stroke-width="0.5" stroke-miterlimit="10" stroke-dasharray="1,1.5" x1="63.519" y1="1.082" x2="68.798" y2="4.465"/>
</g>
<g>
	<path fill="#F1F1F1" d="M42.264,13.865c0-0.822,3.081-1.917,4.783-2.493c0.794-0.269,1.731-0.646,2.505-1.053v-0.001
		c0.903,0.461,1.552,0.994,1.552,1.63c0,1.118-0.671,1.341-0.962,1.642c0,0-2.922,1.39-2.973,1.407L42.264,13.865z"/>
	<path fill="#F1F1F1" d="M49.552,10.314c0.883-0.467,1.552-0.974,1.552-1.412c0-0.822-0.916-0.987-4.057-2.138
		c-1.659-0.607-3.024-1.054-3.945-1.57l0,0c-0.78,0.469-1.289,0.935-1.289,1.324c0,0.904,1.963,1.645,4.056,2.384
		C47.012,9.305,48.466,9.758,49.552,10.314L49.552,10.314z"/>
	<path fill="#F1F1F1" d="M43.102,5.194c-0.823-0.462-1.289-0.979-1.289-1.717c0-1.562,5.234-3.154,5.234-3.154l4.057,1.51
		c0,0-1.571,0.822-4.057,1.644C45.63,3.946,44.131,4.573,43.102,5.194z"/>
</g>
<linearGradient id="SVGID_2_" gradientUnits="userSpaceOnUse" x1="44.1313" y1="5.6011" x2="51.5497" y2="8.6834">
	<stop  offset="0" style="stop-color:#555655"/>
	<stop  offset="0.0375" style="stop-color:#686766"/>
	<stop  offset="0.1149" style="stop-color:#8F8C8C"/>
	<stop  offset="0.1896" style="stop-color:#B4B1B1"/>
	<stop  offset="0.2597" style="stop-color:#D0CFCF"/>
	<stop  offset="0.3234" style="stop-color:#E5E5E5"/>
	<stop  offset="0.3749" style="stop-color:#EEEEEE"/>
	<stop  offset="0.4635" style="stop-color:#E6E5E5"/>
	<stop  offset="0.5685" style="stop-color:#D2D1D1"/>
	<stop  offset="0.6818" style="stop-color:#B6B4B4"/>
	<stop  offset="0.8011" style="stop-color:#939090"/>
	<stop  offset="0.9236" style="stop-color:#6D6B6B"/>
	<stop  offset="1" style="stop-color:#555655"/>
</linearGradient>
<path fill="none" stroke="url(#SVGID_2_)" stroke-width="0.7" stroke-miterlimit="10" d="M44.118,5.684
	c0.898,0.434,1.496,0.568,2.929,1.092c3.14,1.151,4.057,1.316,4.057,2.138"/>
<linearGradient id="SVGID_3_" gradientUnits="userSpaceOnUse" x1="44.1182" y1="5.6831" x2="44.1182" y2="5.6831">
	<stop  offset="0" style="stop-color:#333333"/>
	<stop  offset="0.0655" style="stop-color:#565353"/>
	<stop  offset="0.1433" style="stop-color:#827E7E"/>
	<stop  offset="0.2188" style="stop-color:#ABA8A8"/>
	<stop  offset="0.2901" style="stop-color:#CCCBCB"/>
	<stop  offset="0.3557" style="stop-color:#E4E3E3"/>
	<stop  offset="0.41" style="stop-color:#EEEEEE"/>
	<stop  offset="0.4881" style="stop-color:#E3E3E3"/>
	<stop  offset="0.5825" style="stop-color:#CCCBCB"/>
	<stop  offset="0.6853" style="stop-color:#ABA8A8"/>
	<stop  offset="0.794" style="stop-color:#827E7E"/>
	<stop  offset="0.9062" style="stop-color:#565353"/>
	<stop  offset="1" style="stop-color:#333333"/>
</linearGradient>
<path fill="none" stroke="url(#SVGID_3_)" stroke-width="0.5" stroke-miterlimit="10" d="M44.118,5.684"/>
<linearGradient id="SVGID_4_" gradientUnits="userSpaceOnUse" x1="42.6816" y1="4.73" x2="42.6816" y2="4.73">
	<stop  offset="0" style="stop-color:#333333"/>
	<stop  offset="0.0655" style="stop-color:#565353"/>
	<stop  offset="0.1433" style="stop-color:#827E7E"/>
	<stop  offset="0.2188" style="stop-color:#ABA8A8"/>
	<stop  offset="0.2901" style="stop-color:#CCCBCB"/>
	<stop  offset="0.3557" style="stop-color:#E4E3E3"/>
	<stop  offset="0.41" style="stop-color:#EEEEEE"/>
	<stop  offset="0.4881" style="stop-color:#E3E3E3"/>
	<stop  offset="0.5825" style="stop-color:#CCCBCB"/>
	<stop  offset="0.6853" style="stop-color:#ABA8A8"/>
	<stop  offset="0.794" style="stop-color:#827E7E"/>
	<stop  offset="0.9062" style="stop-color:#565353"/>
	<stop  offset="1" style="stop-color:#333333"/>
</linearGradient>
<path fill="none" stroke="url(#SVGID_4_)" stroke-width="0.5" stroke-miterlimit="10" d="M42.682,4.73"/>
<path fill="none" stroke="#555655" stroke-width="0.7" stroke-miterlimit="10" d="M41.812,3.277c0,0.601,0.08,0.871,0.639,1.269"/>
<path fill="none" stroke="#555655" stroke-width="0.7" stroke-miterlimit="10" d="M50.326,10.791
	c0.665,0.403,0.777,0.639,0.777,1.163"/>
<linearGradient id="SVGID_5_" gradientUnits="userSpaceOnUse" x1="49.9941" y1="10.5698" x2="49.9941" y2="10.5698">
	<stop  offset="0" style="stop-color:#333333"/>
	<stop  offset="0.0554" style="stop-color:#535050"/>
	<stop  offset="0.1288" style="stop-color:#7F7B7B"/>
	<stop  offset="0.1995" style="stop-color:#A9A6A6"/>
	<stop  offset="0.2658" style="stop-color:#CBCACA"/>
	<stop  offset="0.3261" style="stop-color:#E3E2E3"/>
	<stop  offset="0.3749" style="stop-color:#EEEEEE"/>
	<stop  offset="0.4589" style="stop-color:#E4E3E3"/>
	<stop  offset="0.5585" style="stop-color:#CDCBCB"/>
	<stop  offset="0.666" style="stop-color:#ACA9A9"/>
	<stop  offset="0.7791" style="stop-color:#848080"/>
	<stop  offset="0.8953" style="stop-color:#585655"/>
	<stop  offset="1" style="stop-color:#333333"/>
</linearGradient>
<path fill="none" stroke="url(#SVGID_5_)" stroke-width="0.5" stroke-miterlimit="10" d="M49.993,10.57"/>
<linearGradient id="SVGID_6_" gradientUnits="userSpaceOnUse" x1="48.9561" y1="10.0435" x2="48.9561" y2="10.0435">
	<stop  offset="0" style="stop-color:#333333"/>
	<stop  offset="0.0554" style="stop-color:#535050"/>
	<stop  offset="0.1288" style="stop-color:#7F7B7B"/>
	<stop  offset="0.1995" style="stop-color:#A9A6A6"/>
	<stop  offset="0.2658" style="stop-color:#CBCACA"/>
	<stop  offset="0.3261" style="stop-color:#E3E2E3"/>
	<stop  offset="0.3749" style="stop-color:#EEEEEE"/>
	<stop  offset="0.4589" style="stop-color:#E4E3E3"/>
	<stop  offset="0.5585" style="stop-color:#CDCBCB"/>
	<stop  offset="0.666" style="stop-color:#ACA9A9"/>
	<stop  offset="0.7791" style="stop-color:#848080"/>
	<stop  offset="0.8953" style="stop-color:#585655"/>
	<stop  offset="1" style="stop-color:#333333"/>
</linearGradient>
<path fill="none" stroke="url(#SVGID_6_)" stroke-width="0.5" stroke-miterlimit="10" d="M48.956,10.043"/>
<linearGradient id="SVGID_7_" gradientUnits="userSpaceOnUse" x1="41.335" y1="6.8364" x2="48.6027" y2="9.8562">
	<stop  offset="0" style="stop-color:#555655"/>
	<stop  offset="0.0375" style="stop-color:#686766"/>
	<stop  offset="0.1149" style="stop-color:#8F8C8C"/>
	<stop  offset="0.1896" style="stop-color:#B4B1B1"/>
	<stop  offset="0.2597" style="stop-color:#D0CFCF"/>
	<stop  offset="0.3234" style="stop-color:#E5E5E5"/>
	<stop  offset="0.3749" style="stop-color:#EEEEEE"/>
	<stop  offset="0.4635" style="stop-color:#E6E5E5"/>
	<stop  offset="0.5685" style="stop-color:#D2D1D1"/>
	<stop  offset="0.6818" style="stop-color:#B6B4B4"/>
	<stop  offset="0.8011" style="stop-color:#939090"/>
	<stop  offset="0.9236" style="stop-color:#6D6B6B"/>
	<stop  offset="1" style="stop-color:#555655"/>
</linearGradient>
<path fill="none" stroke="url(#SVGID_7_)" stroke-width="0.7" stroke-miterlimit="10" d="M41.812,6.531
	c0,0.904,1.963,1.644,4.056,2.383c0.945,0.333,1.729,0.543,2.715,0.974"/>
<g opacity="0.3">
	<line fill="none" stroke="#F47E20" stroke-width="0.5" stroke-miterlimit="10" x1="49.075" y1="1.09" x2="51.104" y2="1.846"/>
	<line fill="none" stroke="#D62C28" stroke-width="0.5" stroke-miterlimit="10" x1="47.047" y1="0.335" x2="49.075" y2="1.09"/>
	<line fill="none" stroke="#F9ED32" stroke-width="0.5" stroke-miterlimit="10" x1="47.169" y1="1.895" x2="49.997" y2="2.323"/>
	<line fill="none" stroke="#2DA048" stroke-width="0.5" stroke-miterlimit="10" x1="44.341" y1="1.469" x2="47.169" y2="1.895"/>
	<line fill="none" stroke="#2DA048" stroke-width="0.5" stroke-miterlimit="10" x1="45.513" y1="2.921" x2="49.075" y2="2.75"/>
	<line fill="none" stroke="#F9ED32" stroke-width="0.5" stroke-miterlimit="10" x1="41.951" y1="3.092" x2="45.513" y2="2.921"/>
	<line fill="none" stroke="#F47E20" stroke-width="0.5" stroke-miterlimit="10" x1="43.961" y1="4.257" x2="45.972" y2="3.87"/>
	<line fill="none" stroke="#D62C28" stroke-width="0.5" stroke-miterlimit="10" x1="42.264" y1="4.583" x2="43.961" y2="4.257"/>
	<path fill="none" stroke="#F47E20" stroke-width="0.5" stroke-miterlimit="10" d="M44.341,5.779"/>
	<path fill="none" stroke="#F47E20" stroke-width="0.5" stroke-miterlimit="10" d="M44.229,5.22"/>
	<path fill="none" stroke="#D62C28" stroke-width="0.5" stroke-miterlimit="10" d="M44.229,5.22"/>
	<path fill="none" stroke="#D62C28" stroke-width="0.5" stroke-miterlimit="10" d="M44.118,4.662"/>
	<line fill="none" stroke="#F9ED32" stroke-width="0.5" stroke-miterlimit="10" x1="44.341" y1="6.295" x2="46.458" y2="6.531"/>
	<line fill="none" stroke="#2DA048" stroke-width="0.5" stroke-miterlimit="10" x1="42.037" y1="6.039" x2="44.341" y2="6.295"/>
	<line fill="none" stroke="#D62C28" stroke-width="0.5" stroke-miterlimit="10" x1="45.513" y1="7.342" x2="48.794" y2="7.404"/>
	<line fill="none" stroke="#F47E20" stroke-width="0.5" stroke-miterlimit="10" x1="42.264" y1="7.279" x2="45.513" y2="7.342"/>
	<line fill="none" stroke="#F47E20" stroke-width="0.5" stroke-miterlimit="10" x1="47.501" y1="8.285" x2="50.756" y2="8.255"/>
	<line fill="none" stroke="#D62C28" stroke-width="0.5" stroke-miterlimit="10" x1="44.247" y1="8.315" x2="47.501" y2="8.285"/>
	<line fill="none" stroke="#F9ED32" stroke-width="0.5" stroke-miterlimit="10" x1="49.075" y1="9.168" x2="51.036" y2="9.164"/>
	<line fill="none" stroke="#2DA048" stroke-width="0.5" stroke-miterlimit="10" x1="46.623" y1="9.175" x2="49.075" y2="9.168"/>
	<line fill="none" stroke="#F47E20" stroke-width="0.5" stroke-miterlimit="10" x1="48.829" y1="11.192" x2="50.595" y2="11.007"/>
	<line fill="none" stroke="#D62C28" stroke-width="0.5" stroke-miterlimit="10" x1="47.047" y1="11.378" x2="48.829" y2="11.192"/>
	<line fill="none" stroke="#F47E20" stroke-width="0.5" stroke-miterlimit="10" x1="47.501" y1="12.41" x2="51.036" y2="12.255"/>
	<line fill="none" stroke="#D62C28" stroke-width="0.5" stroke-miterlimit="10" x1="43.952" y1="12.563" x2="47.501" y2="12.41"/>
	<line fill="none" stroke="#2DA048" stroke-width="0.5" stroke-miterlimit="10" x1="46.318" y1="13.523" x2="50.142" y2="13.598"/>
	<line fill="none" stroke="#F9ED32" stroke-width="0.5" stroke-miterlimit="10" x1="42.497" y1="13.448" x2="46.318" y2="13.523"/>
	<line fill="none" stroke="#F9ED32" stroke-width="0.5" stroke-miterlimit="10" x1="44.743" y1="14.39" x2="47.22" y2="14.91"/>
	<line fill="none" stroke="#2DA048" stroke-width="0.5" stroke-miterlimit="10" x1="42.264" y1="13.873" x2="44.743" y2="14.39"/>
	<path fill="none" stroke="#F9ED32" stroke-width="0.5" stroke-miterlimit="10" d="M49.727,10.231"/>
	<path fill="none" stroke="#F9ED32" stroke-width="0.5" stroke-miterlimit="10" d="M49.278,10.11"/>
	<path fill="none" stroke="#2DA048" stroke-width="0.5" stroke-miterlimit="10" d="M49.278,10.11"/>
	<linearGradient id="SVGID_8_" gradientUnits="userSpaceOnUse" x1="48.8291" y1="9.9907" x2="48.8291" y2="9.9907">
		<stop  offset="0" style="stop-color:#555655"/>
		<stop  offset="0.0375" style="stop-color:#686766"/>
		<stop  offset="0.1149" style="stop-color:#8F8C8C"/>
		<stop  offset="0.1896" style="stop-color:#B4B1B1"/>
		<stop  offset="0.2597" style="stop-color:#D0CFCF"/>
		<stop  offset="0.3234" style="stop-color:#E5E5E5"/>
		<stop  offset="0.3749" style="stop-color:#EEEEEE"/>
		<stop  offset="0.4635" style="stop-color:#E6E5E5"/>
		<stop  offset="0.5685" style="stop-color:#D2D1D1"/>
		<stop  offset="0.6818" style="stop-color:#B6B4B4"/>
		<stop  offset="0.8011" style="stop-color:#939090"/>
		<stop  offset="0.9236" style="stop-color:#6D6B6B"/>
		<stop  offset="1" style="stop-color:#555655"/>
	</linearGradient>
	<path fill="none" stroke="url(#SVGID_8_)" stroke-width="0.5" stroke-miterlimit="10" d="M48.829,9.991"/>
	<path fill="none" stroke="#B7B7B7" stroke-width="0.5" stroke-miterlimit="10" d="M44.286,6.289"/>
</g>
<path fill="none" stroke="#555655" stroke-width="0.7" stroke-miterlimit="10" d="M51.104,8.914c0,0.821-2.356,1.891-4.057,2.465
	c-1.701,0.575-4.783,1.671-4.783,2.494"/>
<path fill="none" stroke="#555655" stroke-width="0.7" stroke-miterlimit="10" d="M47.047,0.335c0,0-5.234,1.592-5.234,3.154"/>
<path fill="none" stroke="#555655" stroke-width="0.7" stroke-miterlimit="10" d="M51.104,1.846c0,0-1.57,0.822-4.057,1.643
	c-2.485,0.822-5.234,2.137-5.234,3.042"/>
<path fill="none" stroke="#555655" stroke-width="0.7" stroke-miterlimit="10" d="M51.104,11.954c0,1.12-0.671,1.343-0.962,1.645
	c0,0-2.922,1.388-2.973,1.405"/>
</svg>
