<?xml version="1.0" encoding="utf-8"?>
<!-- Generator: Adobe Illustrator 16.0.3, SVG Export Plug-In . SVG Version: 6.00 Build 0)  -->
<!DOCTYPE svg PUBLIC "-//W3C//DTD SVG 1.1//EN" "http://www.w3.org/Graphics/SVG/1.1/DTD/svg11.dtd">
<svg version="1.1" id="Layer_1" xmlns="http://www.w3.org/2000/svg" xmlns:xlink="http://www.w3.org/1999/xlink" x="0px" y="0px"
	 width="107.805px" height="105.75px" viewBox="0 0 107.805 105.75" enable-background="new 0 0 107.805 105.75"
	 xml:space="preserve">
<g enable-background="new    ">
	<path fill="#010101" d="M5.871,20.139v5.6h-0.68v-5.6H5.871z M5.567,22.378h3.84v0.641h-3.84V22.378z M9.631,20.139v5.6h-0.68v-5.6
		H9.631z"/>
	<path fill="#010101" d="M11.387,25.574c-0.264-0.162-0.47-0.388-0.616-0.676c-0.147-0.288-0.22-0.621-0.22-1
		c0-0.288,0.044-0.55,0.132-0.784s0.212-0.436,0.372-0.604c0.16-0.169,0.352-0.299,0.576-0.393c0.224-0.093,0.472-0.14,0.744-0.14
		c0.363,0,0.673,0.076,0.932,0.228c0.258,0.152,0.457,0.369,0.596,0.652c0.139,0.282,0.208,0.618,0.208,1.008
		c0,0.037-0.001,0.076-0.004,0.116s-0.004,0.065-0.004,0.076h-3.144v-0.544h2.64l-0.256,0.367c0.016-0.026,0.032-0.067,0.048-0.124
		c0.016-0.056,0.024-0.103,0.024-0.14c0-0.219-0.044-0.408-0.132-0.568c-0.088-0.159-0.209-0.285-0.364-0.376
		c-0.155-0.09-0.336-0.136-0.544-0.136c-0.181,0-0.345,0.029-0.492,0.088c-0.146,0.059-0.271,0.145-0.372,0.256
		c-0.102,0.112-0.179,0.251-0.232,0.416c-0.053,0.166-0.08,0.353-0.08,0.561c0,0.288,0.045,0.533,0.136,0.736
		c0.091,0.202,0.224,0.356,0.4,0.464c0.176,0.106,0.389,0.16,0.64,0.16c0.25,0,0.472-0.055,0.664-0.164s0.354-0.276,0.488-0.5
		l0.52,0.327c-0.192,0.31-0.433,0.543-0.724,0.7c-0.291,0.157-0.633,0.236-1.028,0.236C11.953,25.818,11.651,25.737,11.387,25.574z"
		/>
	<path fill="#010101" d="M15.379,24.962c0.067,0.102,0.16,0.178,0.28,0.229s0.257,0.076,0.412,0.076c0.197,0,0.375-0.04,0.532-0.12
		s0.283-0.193,0.376-0.34c0.093-0.147,0.14-0.316,0.14-0.509l0.128,0.48c0,0.234-0.071,0.43-0.212,0.584
		c-0.142,0.154-0.315,0.27-0.52,0.344c-0.206,0.075-0.409,0.112-0.612,0.112c-0.224,0-0.434-0.047-0.628-0.14
		c-0.194-0.094-0.351-0.229-0.468-0.404s-0.176-0.39-0.176-0.64c0-0.24,0.057-0.448,0.172-0.624c0.115-0.177,0.28-0.313,0.496-0.412
		c0.216-0.099,0.473-0.148,0.772-0.148c0.267,0,0.489,0.031,0.668,0.092c0.179,0.062,0.321,0.131,0.428,0.208
		c0.107,0.078,0.179,0.141,0.216,0.188v0.376c-0.187-0.128-0.379-0.22-0.576-0.276c-0.197-0.056-0.408-0.084-0.632-0.084
		c-0.208,0-0.377,0.027-0.508,0.08c-0.131,0.054-0.228,0.128-0.292,0.224c-0.064,0.097-0.096,0.211-0.096,0.345
		C15.279,24.741,15.312,24.861,15.379,24.962z M14.871,22.435c0.139-0.102,0.329-0.203,0.572-0.305
		c0.243-0.101,0.535-0.151,0.876-0.151c0.288,0,0.54,0.044,0.756,0.132c0.216,0.088,0.384,0.215,0.504,0.38s0.18,0.368,0.18,0.608
		v2.64h-0.64v-2.552c0-0.128-0.021-0.233-0.064-0.316c-0.043-0.082-0.103-0.147-0.18-0.196c-0.077-0.048-0.167-0.082-0.268-0.104
		c-0.101-0.021-0.208-0.032-0.32-0.032c-0.181,0-0.345,0.021-0.492,0.064c-0.146,0.043-0.271,0.093-0.372,0.151
		c-0.102,0.06-0.182,0.109-0.24,0.152L14.871,22.435z"/>
	<path fill="#010101" d="M20.119,22.059v0.6h-1.84v-0.6H20.119z M19.519,20.778v4.96h-0.64v-4.96H19.519z"/>
	<path fill="#010101" d="M25.799,25.738h-0.64v-2.24c0-0.213-0.025-0.387-0.076-0.52c-0.051-0.134-0.128-0.233-0.232-0.3
		c-0.104-0.067-0.236-0.101-0.396-0.101c-0.176,0-0.328,0.036-0.456,0.108c-0.128,0.071-0.227,0.177-0.296,0.315
		s-0.104,0.305-0.104,0.496v2.24h-0.64v-2.24c0-0.213-0.025-0.387-0.076-0.52c-0.051-0.134-0.128-0.233-0.232-0.3
		c-0.104-0.067-0.236-0.101-0.396-0.101c-0.176,0-0.328,0.036-0.456,0.108c-0.128,0.071-0.227,0.177-0.296,0.315
		c-0.07,0.139-0.104,0.305-0.104,0.496v2.24h-0.64v-3.68h0.64v0.536c0.074-0.139,0.161-0.254,0.26-0.345s0.212-0.158,0.34-0.204
		c0.128-0.045,0.267-0.067,0.416-0.067c0.171,0,0.325,0.026,0.464,0.08c0.138,0.053,0.26,0.131,0.364,0.231
		c0.104,0.102,0.183,0.227,0.236,0.376c0.128-0.229,0.288-0.401,0.48-0.516c0.192-0.114,0.411-0.172,0.656-0.172
		c0.25,0,0.464,0.056,0.64,0.168c0.176,0.111,0.311,0.275,0.404,0.492c0.093,0.216,0.14,0.476,0.14,0.779V25.738z"/>
	<path fill="#010101" d="M27.386,24.962c0.067,0.102,0.16,0.178,0.28,0.229s0.257,0.076,0.412,0.076c0.197,0,0.375-0.04,0.532-0.12
		s0.283-0.193,0.376-0.34c0.093-0.147,0.14-0.316,0.14-0.509l0.128,0.48c0,0.234-0.071,0.43-0.212,0.584
		c-0.142,0.154-0.315,0.27-0.52,0.344c-0.206,0.075-0.409,0.112-0.612,0.112c-0.224,0-0.434-0.047-0.628-0.14
		c-0.194-0.094-0.351-0.229-0.468-0.404s-0.176-0.39-0.176-0.64c0-0.24,0.057-0.448,0.172-0.624c0.115-0.177,0.28-0.313,0.496-0.412
		c0.216-0.099,0.473-0.148,0.772-0.148c0.267,0,0.489,0.031,0.668,0.092c0.179,0.062,0.321,0.131,0.428,0.208
		c0.107,0.078,0.179,0.141,0.216,0.188v0.376c-0.187-0.128-0.379-0.22-0.576-0.276c-0.197-0.056-0.408-0.084-0.632-0.084
		c-0.208,0-0.377,0.027-0.508,0.08c-0.131,0.054-0.228,0.128-0.292,0.224c-0.064,0.097-0.096,0.211-0.096,0.345
		C27.287,24.741,27.32,24.861,27.386,24.962z M26.879,22.435c0.139-0.102,0.329-0.203,0.572-0.305
		c0.243-0.101,0.535-0.151,0.876-0.151c0.288,0,0.54,0.044,0.756,0.132c0.216,0.088,0.384,0.215,0.504,0.38s0.18,0.368,0.18,0.608
		v2.64h-0.64v-2.552c0-0.128-0.021-0.233-0.064-0.316c-0.043-0.082-0.103-0.147-0.18-0.196c-0.077-0.048-0.167-0.082-0.268-0.104
		c-0.101-0.021-0.208-0.032-0.32-0.032c-0.181,0-0.345,0.021-0.492,0.064c-0.146,0.043-0.271,0.093-0.372,0.151
		c-0.102,0.06-0.182,0.109-0.24,0.152L26.879,22.435z"/>
	<path fill="#010101" d="M30.807,27.498v-5.439h0.64v5.439H30.807z M34.279,24.922c-0.166,0.288-0.386,0.51-0.66,0.664
		c-0.275,0.155-0.58,0.232-0.916,0.232c-0.229,0-0.439-0.044-0.628-0.132c-0.189-0.088-0.352-0.215-0.488-0.38
		c-0.136-0.166-0.241-0.367-0.316-0.604s-0.112-0.505-0.112-0.804s0.037-0.566,0.112-0.804s0.18-0.439,0.316-0.604
		c0.136-0.165,0.299-0.292,0.488-0.38c0.189-0.088,0.398-0.132,0.628-0.132c0.336,0,0.641,0.077,0.916,0.231
		c0.274,0.155,0.495,0.375,0.66,0.66c0.165,0.285,0.248,0.628,0.248,1.028C34.527,24.293,34.444,24.635,34.279,24.922z
		 M33.707,23.179c-0.115-0.197-0.267-0.347-0.456-0.448s-0.398-0.152-0.628-0.152c-0.139,0-0.277,0.029-0.416,0.088
		s-0.265,0.145-0.38,0.256c-0.115,0.112-0.207,0.25-0.276,0.412c-0.069,0.163-0.104,0.351-0.104,0.564
		c0,0.213,0.035,0.401,0.104,0.563c0.069,0.163,0.161,0.301,0.276,0.412c0.115,0.112,0.241,0.197,0.38,0.256
		c0.139,0.06,0.277,0.089,0.416,0.089c0.229,0,0.438-0.051,0.628-0.152s0.341-0.251,0.456-0.448s0.172-0.438,0.172-0.72
		C33.879,23.615,33.822,23.376,33.707,23.179z"/>
</g>
<g enable-background="new    ">
	<path fill="#010101" d="M1.208,33.43c0.112,0.27,0.265,0.502,0.46,0.696s0.416,0.346,0.664,0.452s0.511,0.16,0.788,0.16
		c0.267,0,0.511-0.035,0.732-0.104s0.422-0.167,0.604-0.292c0.181-0.125,0.336-0.271,0.464-0.436v0.896
		c-0.235,0.208-0.491,0.363-0.768,0.464c-0.277,0.102-0.621,0.152-1.032,0.152c-0.39,0-0.753-0.071-1.092-0.212
		c-0.338-0.142-0.636-0.342-0.892-0.601c-0.256-0.258-0.456-0.563-0.6-0.916c-0.144-0.352-0.216-0.735-0.216-1.151
		s0.072-0.8,0.216-1.152c0.144-0.352,0.344-0.657,0.6-0.916c0.256-0.259,0.553-0.458,0.892-0.6c0.339-0.142,0.703-0.212,1.092-0.212
		c0.411,0,0.754,0.051,1.032,0.151c0.277,0.102,0.533,0.256,0.768,0.464v0.896c-0.128-0.165-0.283-0.311-0.464-0.436
		c-0.182-0.126-0.383-0.223-0.604-0.293c-0.221-0.068-0.465-0.104-0.732-0.104c-0.277,0-0.54,0.054-0.788,0.16
		s-0.469,0.257-0.664,0.452c-0.195,0.194-0.348,0.427-0.46,0.695c-0.112,0.27-0.168,0.567-0.168,0.893S1.096,33.16,1.208,33.43z"/>
	<path fill="#010101" d="M6.012,32.506c0.168-0.288,0.396-0.515,0.684-0.68c0.288-0.166,0.611-0.248,0.968-0.248
		c0.362,0,0.687,0.082,0.972,0.248c0.286,0.165,0.512,0.392,0.68,0.68s0.252,0.619,0.252,0.992c0,0.368-0.084,0.697-0.252,0.988
		c-0.168,0.29-0.395,0.519-0.68,0.684c-0.285,0.165-0.609,0.248-0.972,0.248c-0.357,0-0.68-0.083-0.968-0.248
		c-0.288-0.165-0.516-0.394-0.684-0.684c-0.168-0.291-0.252-0.62-0.252-0.988C5.76,33.125,5.844,32.794,6.012,32.506z M6.572,34.178
		c0.109,0.197,0.259,0.354,0.448,0.468c0.189,0.115,0.404,0.173,0.644,0.173c0.24,0,0.455-0.058,0.644-0.173
		c0.189-0.114,0.338-0.271,0.448-0.468s0.164-0.424,0.164-0.68s-0.055-0.484-0.164-0.685c-0.109-0.199-0.259-0.355-0.448-0.468
		c-0.189-0.111-0.404-0.168-0.644-0.168c-0.24,0-0.455,0.057-0.644,0.168c-0.189,0.112-0.339,0.269-0.448,0.468
		c-0.109,0.2-0.164,0.429-0.164,0.685S6.463,33.98,6.572,34.178z"/>
	<path fill="#010101" d="M11.088,35.338h-0.64v-3.68h0.64V35.338z M11.968,32.222c-0.069-0.029-0.158-0.044-0.264-0.044
		c-0.16,0-0.285,0.04-0.376,0.12s-0.153,0.189-0.188,0.328s-0.052,0.296-0.052,0.472H10.8c0-0.293,0.052-0.553,0.156-0.779
		c0.104-0.228,0.239-0.407,0.404-0.54c0.165-0.134,0.333-0.2,0.504-0.2c0.133,0,0.257,0.018,0.372,0.052
		c0.114,0.035,0.22,0.103,0.316,0.204L12.2,32.362C12.115,32.298,12.037,32.251,11.968,32.222z"/>
	<path fill="#010101" d="M13.588,35.174c-0.264-0.162-0.47-0.388-0.616-0.676c-0.147-0.288-0.22-0.621-0.22-1
		c0-0.288,0.044-0.55,0.132-0.784s0.212-0.436,0.372-0.604c0.16-0.169,0.352-0.299,0.576-0.393c0.224-0.093,0.472-0.14,0.744-0.14
		c0.363,0,0.673,0.076,0.932,0.228c0.258,0.152,0.457,0.369,0.596,0.652c0.139,0.282,0.208,0.618,0.208,1.008
		c0,0.037-0.001,0.076-0.004,0.116s-0.004,0.065-0.004,0.076H13.16v-0.544h2.64l-0.256,0.367c0.016-0.026,0.032-0.067,0.048-0.124
		c0.016-0.056,0.024-0.103,0.024-0.14c0-0.219-0.044-0.408-0.132-0.568c-0.088-0.159-0.209-0.285-0.364-0.376
		c-0.155-0.09-0.336-0.136-0.544-0.136c-0.181,0-0.345,0.029-0.492,0.088c-0.146,0.059-0.271,0.145-0.372,0.256
		c-0.102,0.112-0.179,0.251-0.232,0.416c-0.053,0.166-0.08,0.353-0.08,0.561c0,0.288,0.045,0.533,0.136,0.736
		c0.091,0.202,0.224,0.356,0.4,0.464c0.176,0.106,0.389,0.16,0.64,0.16c0.25,0,0.472-0.055,0.664-0.164s0.354-0.276,0.488-0.5
		l0.52,0.327c-0.192,0.31-0.433,0.543-0.724,0.7c-0.291,0.157-0.633,0.236-1.028,0.236C14.155,35.418,13.852,35.337,13.588,35.174z"
		/>
	<path fill="#010101" d="M20.244,34.234c0.141,0.17,0.3,0.304,0.476,0.399c0.176,0.096,0.376,0.145,0.6,0.145
		c0.203,0,0.377-0.038,0.524-0.112c0.146-0.075,0.261-0.179,0.344-0.312c0.083-0.133,0.124-0.285,0.124-0.456
		c0-0.25-0.059-0.45-0.176-0.6s-0.271-0.271-0.46-0.364c-0.189-0.093-0.391-0.177-0.604-0.252c-0.139-0.048-0.293-0.11-0.464-0.188
		c-0.171-0.077-0.333-0.176-0.488-0.296s-0.281-0.269-0.38-0.444s-0.148-0.392-0.148-0.648c0-0.276,0.069-0.524,0.208-0.743
		s0.331-0.391,0.576-0.517c0.246-0.125,0.525-0.188,0.84-0.188c0.304,0,0.569,0.057,0.796,0.172c0.227,0.114,0.42,0.261,0.58,0.439
		c0.16,0.179,0.285,0.367,0.376,0.564l-0.584,0.336c-0.069-0.139-0.157-0.274-0.264-0.408c-0.106-0.133-0.236-0.242-0.388-0.328
		c-0.152-0.085-0.337-0.128-0.556-0.128c-0.203,0-0.368,0.035-0.496,0.104s-0.223,0.157-0.284,0.264
		c-0.061,0.106-0.092,0.222-0.092,0.344c0,0.118,0.021,0.228,0.064,0.328c0.042,0.102,0.113,0.197,0.212,0.288
		s0.232,0.179,0.4,0.264c0.168,0.086,0.375,0.171,0.62,0.257c0.149,0.053,0.307,0.122,0.472,0.208
		c0.165,0.085,0.318,0.193,0.46,0.323c0.141,0.131,0.257,0.288,0.348,0.473c0.09,0.184,0.136,0.403,0.136,0.66
		c0,0.245-0.047,0.466-0.14,0.663c-0.093,0.198-0.221,0.366-0.384,0.505s-0.347,0.245-0.552,0.319
		c-0.206,0.075-0.42,0.112-0.644,0.112c-0.304,0-0.585-0.065-0.844-0.196s-0.485-0.304-0.68-0.52
		c-0.194-0.216-0.353-0.447-0.476-0.692l0.544-0.368C19.968,33.866,20.103,34.063,20.244,34.234z"/>
	<path fill="#010101" d="M28.936,29.738v5.88l-4.24-4.448v4.168h-0.68v-5.88l4.24,4.448v-4.168H28.936z"/>
	<path fill="#010101" d="M34.056,29.738h0.76l-2.6,5.88l-2.6-5.88h0.76l1.84,4.336L34.056,29.738z"/>
</g>
<g enable-background="new    ">
	<path fill="#010101" d="M2.826,43.778c0.109,0.197,0.259,0.354,0.448,0.468c0.189,0.115,0.404,0.173,0.644,0.173
		c0.197,0,0.383-0.031,0.556-0.093c0.173-0.061,0.324-0.144,0.452-0.248c0.128-0.104,0.219-0.214,0.272-0.332v0.801
		c-0.128,0.149-0.311,0.265-0.548,0.348s-0.481,0.124-0.732,0.124c-0.357,0-0.68-0.083-0.968-0.248
		c-0.288-0.165-0.516-0.394-0.684-0.684c-0.168-0.291-0.252-0.62-0.252-0.988c0-0.373,0.084-0.704,0.252-0.992
		s0.396-0.515,0.684-0.68c0.288-0.166,0.611-0.248,0.968-0.248c0.25,0,0.495,0.041,0.732,0.124c0.237,0.082,0.42,0.198,0.548,0.348
		v0.8c-0.053-0.122-0.144-0.234-0.272-0.336c-0.128-0.101-0.279-0.183-0.452-0.244c-0.173-0.061-0.359-0.092-0.556-0.092
		c-0.24,0-0.455,0.057-0.644,0.168c-0.189,0.112-0.339,0.269-0.448,0.468c-0.109,0.2-0.164,0.429-0.164,0.685
		S2.717,43.581,2.826,43.778z"/>
	<path fill="#010101" d="M6.839,38.698v6.24h-0.64v-6.24H6.839z"/>
	<path fill="#010101" d="M8.766,43.998c0.059,0.137,0.146,0.24,0.264,0.312c0.118,0.072,0.261,0.108,0.432,0.108
		c0.187,0,0.351-0.039,0.492-0.116c0.141-0.077,0.25-0.186,0.328-0.324c0.077-0.139,0.116-0.299,0.116-0.48v-2.239h0.64v3.68h-0.64
		v-0.576c-0.123,0.219-0.275,0.383-0.456,0.492s-0.395,0.164-0.64,0.164c-0.256,0-0.479-0.059-0.668-0.176
		c-0.189-0.117-0.336-0.284-0.44-0.5s-0.156-0.471-0.156-0.765v-2.319h0.64v2.239C8.678,43.696,8.707,43.862,8.766,43.998z"/>
	<path fill="#010101" d="M12.646,44.122c0.096,0.097,0.207,0.173,0.332,0.229c0.125,0.056,0.263,0.084,0.412,0.084
		c0.181,0,0.324-0.041,0.428-0.124s0.156-0.196,0.156-0.34c0-0.128-0.042-0.236-0.124-0.324s-0.188-0.163-0.316-0.224
		c-0.128-0.062-0.264-0.119-0.408-0.173c-0.16-0.063-0.321-0.14-0.484-0.228s-0.299-0.202-0.408-0.344
		c-0.109-0.142-0.164-0.319-0.164-0.532c0-0.219,0.057-0.4,0.172-0.544c0.115-0.145,0.264-0.251,0.448-0.32
		c0.184-0.069,0.375-0.104,0.572-0.104s0.383,0.032,0.556,0.096c0.173,0.064,0.327,0.149,0.46,0.256
		c0.133,0.107,0.237,0.229,0.312,0.368l-0.512,0.328c-0.101-0.139-0.228-0.253-0.38-0.344s-0.324-0.137-0.516-0.137
		c-0.133,0-0.248,0.029-0.344,0.089c-0.096,0.059-0.144,0.148-0.144,0.271c0,0.096,0.037,0.182,0.112,0.256
		c0.075,0.075,0.171,0.142,0.288,0.2s0.24,0.114,0.368,0.168c0.213,0.085,0.408,0.178,0.584,0.276
		c0.176,0.099,0.316,0.217,0.42,0.355s0.156,0.317,0.156,0.536c0,0.214-0.053,0.404-0.16,0.572
		c-0.107,0.168-0.255,0.301-0.444,0.399s-0.409,0.148-0.66,0.148c-0.246,0-0.467-0.044-0.664-0.132
		c-0.198-0.088-0.364-0.201-0.5-0.34c-0.136-0.139-0.239-0.28-0.308-0.425l0.504-0.312C12.465,43.923,12.55,44.026,12.646,44.122z"
		/>
	<path fill="#010101" d="M16.742,41.259v0.6h-1.84v-0.6H16.742z M16.142,39.979v4.96h-0.64v-4.96H16.142z"/>
	<path fill="#010101" d="M17.898,44.774c-0.264-0.162-0.47-0.388-0.616-0.676c-0.147-0.288-0.22-0.621-0.22-1
		c0-0.288,0.044-0.55,0.132-0.784s0.212-0.436,0.372-0.604c0.16-0.169,0.352-0.299,0.576-0.393c0.224-0.093,0.472-0.14,0.744-0.14
		c0.363,0,0.673,0.076,0.932,0.228c0.258,0.152,0.457,0.369,0.596,0.652c0.139,0.282,0.208,0.618,0.208,1.008
		c0,0.037-0.001,0.076-0.004,0.116s-0.004,0.065-0.004,0.076H17.47v-0.544h2.64l-0.256,0.367c0.016-0.026,0.032-0.067,0.048-0.124
		c0.016-0.056,0.024-0.103,0.024-0.14c0-0.219-0.044-0.408-0.132-0.568c-0.088-0.159-0.209-0.285-0.364-0.376
		c-0.155-0.09-0.336-0.136-0.544-0.136c-0.181,0-0.345,0.029-0.492,0.088c-0.146,0.059-0.271,0.145-0.372,0.256
		c-0.102,0.112-0.179,0.251-0.232,0.416c-0.053,0.166-0.08,0.353-0.08,0.561c0,0.288,0.045,0.533,0.136,0.736
		c0.091,0.202,0.224,0.356,0.4,0.464c0.176,0.106,0.389,0.16,0.64,0.16c0.25,0,0.472-0.055,0.664-0.164s0.354-0.276,0.488-0.5
		l0.52,0.327c-0.192,0.31-0.433,0.543-0.724,0.7c-0.291,0.157-0.633,0.236-1.028,0.236C18.465,45.019,18.162,44.938,17.898,44.774z"
		/>
	<path fill="#010101" d="M22.142,44.938h-0.64v-3.68h0.64V44.938z M23.022,41.822c-0.069-0.029-0.158-0.044-0.264-0.044
		c-0.16,0-0.285,0.04-0.376,0.12s-0.153,0.189-0.188,0.328s-0.052,0.296-0.052,0.472h-0.288c0-0.293,0.052-0.553,0.156-0.779
		c0.104-0.228,0.239-0.407,0.404-0.54c0.165-0.134,0.333-0.2,0.504-0.2c0.133,0,0.257,0.018,0.372,0.052
		c0.114,0.035,0.22,0.103,0.316,0.204l-0.352,0.528C23.169,41.898,23.092,41.852,23.022,41.822z"/>
	<path fill="#010101" d="M24.378,39.427c0.088-0.086,0.191-0.128,0.308-0.128c0.123,0,0.227,0.042,0.312,0.128
		c0.085,0.085,0.128,0.189,0.128,0.312c0,0.117-0.043,0.22-0.128,0.309c-0.085,0.088-0.189,0.132-0.312,0.132
		c-0.117,0-0.22-0.044-0.308-0.132c-0.088-0.089-0.132-0.191-0.132-0.309C24.246,39.616,24.29,39.512,24.378,39.427z M25.006,41.259
		v3.68h-0.64v-3.68H25.006z"/>
	<path fill="#010101" d="M28.598,42.19c-0.059-0.136-0.147-0.238-0.264-0.308s-0.261-0.104-0.432-0.104
		c-0.187,0-0.351,0.039-0.492,0.116c-0.142,0.077-0.251,0.186-0.328,0.324s-0.116,0.299-0.116,0.479v2.24h-0.64v-3.68h0.64v0.576
		c0.123-0.225,0.276-0.39,0.46-0.496c0.184-0.107,0.396-0.16,0.636-0.16c0.261,0,0.485,0.059,0.672,0.176
		c0.187,0.117,0.332,0.283,0.436,0.496s0.156,0.47,0.156,0.768v2.32h-0.64v-2.24C28.686,42.496,28.656,42.326,28.598,42.19z"/>
	<path fill="#010101" d="M30.453,42.07c0.166-0.285,0.387-0.505,0.664-0.66c0.277-0.154,0.582-0.231,0.912-0.231
		c0.229,0,0.438,0.044,0.628,0.132s0.352,0.215,0.488,0.38c0.136,0.165,0.241,0.367,0.316,0.604s0.112,0.505,0.112,0.804
		s-0.037,0.566-0.112,0.804s-0.18,0.438-0.316,0.604c-0.136,0.165-0.299,0.292-0.488,0.38s-0.399,0.132-0.628,0.132
		c-0.331,0-0.635-0.077-0.912-0.232c-0.277-0.154-0.499-0.376-0.664-0.664c-0.165-0.287-0.248-0.629-0.248-1.023
		C30.205,42.698,30.288,42.355,30.453,42.07z M30.926,45.179c0,0.176,0.048,0.34,0.144,0.492c0.096,0.151,0.232,0.274,0.408,0.367
		c0.176,0.094,0.384,0.141,0.624,0.141c0.187,0,0.371-0.046,0.552-0.137c0.181-0.09,0.332-0.232,0.452-0.428
		c0.12-0.194,0.18-0.446,0.18-0.756v-3.6h0.64v3.6c0,0.421-0.088,0.774-0.264,1.061c-0.176,0.285-0.403,0.5-0.68,0.644
		c-0.277,0.144-0.571,0.216-0.88,0.216c-0.357,0-0.673-0.066-0.948-0.2c-0.275-0.133-0.489-0.321-0.644-0.563
		c-0.155-0.243-0.232-0.521-0.232-0.836H30.926z M31.026,43.818c0.115,0.197,0.268,0.347,0.46,0.448s0.4,0.152,0.624,0.152
		c0.139,0,0.277-0.029,0.416-0.089c0.139-0.059,0.265-0.144,0.38-0.256c0.115-0.111,0.207-0.249,0.276-0.412
		c0.069-0.162,0.104-0.351,0.104-0.563c0-0.214-0.035-0.401-0.104-0.564c-0.069-0.162-0.161-0.3-0.276-0.412
		c-0.115-0.111-0.241-0.197-0.38-0.256s-0.277-0.088-0.416-0.088c-0.224,0-0.432,0.051-0.624,0.152s-0.345,0.251-0.46,0.448
		s-0.172,0.437-0.172,0.72C30.854,43.381,30.911,43.621,31.026,43.818z"/>
</g>
<g enable-background="new    ">
	<path fill="#010101" d="M6.536,84.607h3.56v0.64h-1.44v4.96h-0.68v-4.96h-1.44V84.607z"/>
	<path fill="#010101" d="M10.907,84.695c0.088-0.086,0.191-0.128,0.308-0.128c0.123,0,0.227,0.042,0.312,0.128
		c0.085,0.085,0.128,0.189,0.128,0.312c0,0.117-0.043,0.22-0.128,0.309c-0.085,0.088-0.189,0.132-0.312,0.132
		c-0.117,0-0.22-0.044-0.308-0.132c-0.088-0.089-0.132-0.191-0.132-0.309C10.776,84.885,10.82,84.78,10.907,84.695z M11.535,86.527
		v3.68h-0.64v-3.68H11.535z"/>
	<path fill="#010101" d="M17.896,90.207h-0.64v-2.24c0-0.213-0.025-0.387-0.076-0.52c-0.051-0.134-0.128-0.233-0.232-0.3
		c-0.104-0.067-0.236-0.101-0.396-0.101c-0.176,0-0.328,0.036-0.456,0.108c-0.128,0.071-0.227,0.177-0.296,0.315
		s-0.104,0.305-0.104,0.496v2.24h-0.64v-2.24c0-0.213-0.025-0.387-0.076-0.52c-0.051-0.134-0.128-0.233-0.232-0.3
		c-0.104-0.067-0.236-0.101-0.396-0.101c-0.176,0-0.328,0.036-0.456,0.108c-0.128,0.071-0.227,0.177-0.296,0.315
		c-0.07,0.139-0.104,0.305-0.104,0.496v2.24h-0.64v-3.68h0.64v0.536c0.074-0.139,0.161-0.254,0.26-0.345s0.212-0.158,0.34-0.204
		c0.128-0.045,0.267-0.067,0.416-0.067c0.171,0,0.325,0.026,0.464,0.08c0.138,0.053,0.26,0.131,0.364,0.231
		c0.104,0.102,0.183,0.227,0.236,0.376c0.128-0.229,0.288-0.401,0.48-0.516c0.192-0.114,0.411-0.172,0.656-0.172
		c0.25,0,0.464,0.056,0.64,0.168c0.176,0.111,0.311,0.275,0.404,0.492c0.093,0.216,0.14,0.476,0.14,0.779V90.207z"/>
	<path fill="#010101" d="M19.612,90.043c-0.264-0.162-0.47-0.388-0.616-0.676c-0.147-0.288-0.22-0.621-0.22-1
		c0-0.288,0.044-0.55,0.132-0.784s0.212-0.436,0.372-0.604c0.16-0.169,0.352-0.299,0.576-0.393c0.224-0.093,0.472-0.14,0.744-0.14
		c0.363,0,0.673,0.076,0.932,0.228c0.258,0.152,0.457,0.369,0.596,0.652c0.139,0.282,0.208,0.618,0.208,1.008
		c0,0.037-0.001,0.076-0.004,0.116s-0.004,0.065-0.004,0.076h-3.144v-0.544h2.64l-0.256,0.367c0.016-0.026,0.032-0.067,0.048-0.124
		c0.016-0.056,0.024-0.103,0.024-0.14c0-0.219-0.044-0.408-0.132-0.568c-0.088-0.159-0.209-0.285-0.364-0.376
		c-0.155-0.09-0.336-0.136-0.544-0.136c-0.181,0-0.345,0.029-0.492,0.088c-0.146,0.059-0.271,0.145-0.372,0.256
		c-0.102,0.112-0.179,0.251-0.232,0.416c-0.053,0.166-0.08,0.353-0.08,0.561c0,0.288,0.045,0.533,0.136,0.736
		c0.091,0.202,0.224,0.356,0.4,0.464c0.176,0.106,0.389,0.16,0.64,0.16c0.25,0,0.472-0.055,0.664-0.164s0.354-0.276,0.488-0.5
		l0.52,0.327c-0.192,0.31-0.433,0.543-0.724,0.7c-0.291,0.157-0.633,0.236-1.028,0.236C20.178,90.287,19.876,90.206,19.612,90.043z"
		/>
	<path fill="#010101" d="M23.856,83.967v6.24h-0.64v-6.24H23.856z"/>
	<path fill="#010101" d="M25.188,84.695c0.088-0.086,0.191-0.128,0.308-0.128c0.123,0,0.227,0.042,0.312,0.128
		c0.085,0.085,0.128,0.189,0.128,0.312c0,0.117-0.043,0.22-0.128,0.309c-0.085,0.088-0.189,0.132-0.312,0.132
		c-0.117,0-0.22-0.044-0.308-0.132c-0.088-0.089-0.132-0.191-0.132-0.309C25.056,84.885,25.1,84.78,25.188,84.695z M25.816,86.527
		v3.68h-0.64v-3.68H25.816z"/>
	<path fill="#010101" d="M29.408,87.459c-0.059-0.136-0.147-0.238-0.264-0.308s-0.261-0.104-0.432-0.104
		c-0.187,0-0.351,0.039-0.492,0.116c-0.142,0.077-0.251,0.186-0.328,0.324s-0.116,0.299-0.116,0.479v2.24h-0.64v-3.68h0.64v0.576
		c0.123-0.225,0.276-0.39,0.46-0.496c0.184-0.107,0.396-0.16,0.636-0.16c0.261,0,0.485,0.059,0.672,0.176
		c0.187,0.117,0.332,0.283,0.436,0.496s0.156,0.47,0.156,0.768v2.32h-0.64v-2.24C29.496,87.765,29.467,87.595,29.408,87.459z"/>
	<path fill="#010101" d="M31.852,90.043c-0.264-0.162-0.47-0.388-0.616-0.676c-0.147-0.288-0.22-0.621-0.22-1
		c0-0.288,0.044-0.55,0.132-0.784s0.212-0.436,0.372-0.604c0.16-0.169,0.352-0.299,0.576-0.393c0.224-0.093,0.472-0.14,0.744-0.14
		c0.363,0,0.673,0.076,0.932,0.228c0.258,0.152,0.457,0.369,0.596,0.652c0.139,0.282,0.208,0.618,0.208,1.008
		c0,0.037-0.001,0.076-0.004,0.116s-0.004,0.065-0.004,0.076h-3.144v-0.544h2.64l-0.256,0.367c0.016-0.026,0.032-0.067,0.048-0.124
		c0.016-0.056,0.024-0.103,0.024-0.14c0-0.219-0.044-0.408-0.132-0.568c-0.088-0.159-0.209-0.285-0.364-0.376
		c-0.155-0.09-0.336-0.136-0.544-0.136c-0.181,0-0.345,0.029-0.492,0.088c-0.146,0.059-0.271,0.145-0.372,0.256
		c-0.102,0.112-0.179,0.251-0.232,0.416c-0.053,0.166-0.08,0.353-0.08,0.561c0,0.288,0.045,0.533,0.136,0.736
		c0.091,0.202,0.224,0.356,0.4,0.464c0.176,0.106,0.389,0.16,0.64,0.16c0.25,0,0.472-0.055,0.664-0.164s0.354-0.276,0.488-0.5
		l0.52,0.327c-0.192,0.31-0.433,0.543-0.724,0.7c-0.291,0.157-0.633,0.236-1.028,0.236C32.418,90.287,32.115,90.206,31.852,90.043z"
		/>
</g>
<g enable-background="new    ">
	<path fill="#010101" d="M8.593,97.695L8.529,97.84l-0.832,1.968h-0.76l2.6-5.88l2.6,5.88h-0.76l-0.816-1.92l-0.064-0.16
		l-0.96-2.256L8.593,97.695z M8.313,97.487h2.48l0.24,0.641h-2.96L8.313,97.487z"/>
	<path fill="#010101" d="M15.049,97.06c-0.059-0.136-0.147-0.238-0.264-0.308s-0.261-0.104-0.432-0.104
		c-0.187,0-0.351,0.039-0.492,0.116c-0.142,0.077-0.251,0.186-0.328,0.324s-0.116,0.299-0.116,0.479v2.24h-0.64v-3.68h0.64v0.576
		c0.123-0.225,0.276-0.39,0.46-0.496c0.184-0.107,0.396-0.16,0.636-0.16c0.261,0,0.485,0.059,0.672,0.176
		c0.187,0.117,0.332,0.283,0.436,0.496s0.156,0.47,0.156,0.768v2.32h-0.64v-2.24C15.136,97.365,15.107,97.195,15.049,97.06z"/>
	<path fill="#010101" d="M17.365,99.031c0.067,0.102,0.16,0.178,0.28,0.229s0.257,0.076,0.412,0.076c0.197,0,0.375-0.04,0.532-0.12
		s0.283-0.193,0.376-0.34c0.093-0.147,0.14-0.316,0.14-0.509l0.128,0.48c0,0.234-0.071,0.43-0.212,0.584
		c-0.142,0.154-0.315,0.27-0.52,0.344c-0.206,0.075-0.409,0.112-0.612,0.112c-0.224,0-0.434-0.047-0.628-0.14
		c-0.194-0.094-0.351-0.229-0.468-0.404s-0.176-0.39-0.176-0.64c0-0.24,0.057-0.448,0.172-0.624c0.115-0.177,0.28-0.313,0.496-0.412
		c0.216-0.099,0.473-0.148,0.772-0.148c0.267,0,0.489,0.031,0.668,0.092c0.179,0.062,0.321,0.131,0.428,0.208
		c0.107,0.078,0.179,0.141,0.216,0.188v0.376c-0.187-0.128-0.379-0.22-0.576-0.276c-0.197-0.056-0.408-0.084-0.632-0.084
		c-0.208,0-0.377,0.027-0.508,0.08c-0.131,0.054-0.228,0.128-0.292,0.224c-0.064,0.097-0.096,0.211-0.096,0.345
		C17.265,98.811,17.298,98.931,17.365,99.031z M16.857,96.504c0.139-0.102,0.329-0.203,0.572-0.305
		c0.243-0.101,0.535-0.151,0.876-0.151c0.288,0,0.54,0.044,0.756,0.132c0.216,0.088,0.384,0.215,0.504,0.38s0.18,0.368,0.18,0.608
		v2.64h-0.64v-2.552c0-0.128-0.021-0.233-0.064-0.316c-0.043-0.082-0.103-0.147-0.18-0.196c-0.077-0.048-0.167-0.082-0.268-0.104
		c-0.101-0.021-0.208-0.032-0.32-0.032c-0.181,0-0.345,0.021-0.492,0.064c-0.146,0.043-0.271,0.093-0.372,0.151
		c-0.102,0.06-0.182,0.109-0.24,0.152L16.857,96.504z"/>
	<path fill="#010101" d="M21.465,93.567v6.24h-0.64v-6.24H21.465z"/>
	<path fill="#010101" d="M23.185,101.567h-0.72l1.008-2.279l-1.408-3.16h0.76l1.168,2.88l-0.264-0.032l1.136-2.848h0.72
		L23.185,101.567z"/>
	<path fill="#010101" d="M26.592,98.991c0.096,0.097,0.207,0.173,0.332,0.229c0.125,0.056,0.263,0.084,0.412,0.084
		c0.181,0,0.324-0.041,0.428-0.124s0.156-0.196,0.156-0.34c0-0.128-0.042-0.236-0.124-0.324s-0.188-0.163-0.316-0.224
		c-0.128-0.062-0.264-0.119-0.408-0.173c-0.16-0.063-0.321-0.14-0.484-0.228s-0.299-0.202-0.408-0.344
		c-0.109-0.142-0.164-0.319-0.164-0.532c0-0.219,0.057-0.4,0.172-0.544c0.115-0.145,0.264-0.251,0.448-0.32
		c0.184-0.069,0.375-0.104,0.572-0.104s0.383,0.032,0.556,0.096c0.173,0.064,0.327,0.149,0.46,0.256
		c0.133,0.107,0.237,0.229,0.312,0.368l-0.512,0.328c-0.101-0.139-0.228-0.253-0.38-0.344s-0.324-0.137-0.516-0.137
		c-0.133,0-0.248,0.029-0.344,0.089c-0.096,0.059-0.144,0.148-0.144,0.271c0,0.096,0.037,0.182,0.112,0.256
		c0.075,0.075,0.171,0.142,0.288,0.2s0.24,0.114,0.368,0.168c0.213,0.085,0.408,0.178,0.584,0.276
		c0.176,0.099,0.316,0.217,0.42,0.355s0.156,0.317,0.156,0.536c0,0.214-0.053,0.404-0.16,0.572
		c-0.107,0.168-0.255,0.301-0.444,0.399s-0.409,0.148-0.66,0.148c-0.246,0-0.467-0.044-0.664-0.132
		c-0.198-0.088-0.364-0.201-0.5-0.34c-0.136-0.139-0.239-0.28-0.308-0.425l0.504-0.312C26.411,98.792,26.496,98.896,26.592,98.991z"
		/>
	<path fill="#010101" d="M29.54,94.296c0.088-0.086,0.191-0.128,0.308-0.128c0.123,0,0.227,0.042,0.312,0.128
		c0.085,0.085,0.128,0.189,0.128,0.312c0,0.117-0.043,0.22-0.128,0.309c-0.085,0.088-0.189,0.132-0.312,0.132
		c-0.117,0-0.22-0.044-0.308-0.132c-0.088-0.089-0.132-0.191-0.132-0.309C29.408,94.485,29.452,94.381,29.54,94.296z M30.168,96.128
		v3.68h-0.64v-3.68H30.168z"/>
	<path fill="#010101" d="M31.896,98.991c0.096,0.097,0.207,0.173,0.332,0.229c0.125,0.056,0.263,0.084,0.412,0.084
		c0.181,0,0.324-0.041,0.428-0.124s0.156-0.196,0.156-0.34c0-0.128-0.042-0.236-0.124-0.324s-0.188-0.163-0.316-0.224
		c-0.128-0.062-0.264-0.119-0.408-0.173c-0.16-0.063-0.321-0.14-0.484-0.228s-0.299-0.202-0.408-0.344
		c-0.109-0.142-0.164-0.319-0.164-0.532c0-0.219,0.057-0.4,0.172-0.544c0.115-0.145,0.264-0.251,0.448-0.32
		c0.184-0.069,0.375-0.104,0.572-0.104s0.383,0.032,0.556,0.096c0.173,0.064,0.327,0.149,0.46,0.256
		c0.133,0.107,0.237,0.229,0.312,0.368l-0.512,0.328c-0.101-0.139-0.228-0.253-0.38-0.344s-0.324-0.137-0.516-0.137
		c-0.133,0-0.248,0.029-0.344,0.089c-0.096,0.059-0.144,0.148-0.144,0.271c0,0.096,0.037,0.182,0.112,0.256
		c0.075,0.075,0.171,0.142,0.288,0.2s0.24,0.114,0.368,0.168c0.213,0.085,0.408,0.178,0.584,0.276
		c0.176,0.099,0.316,0.217,0.42,0.355s0.156,0.317,0.156,0.536c0,0.214-0.053,0.404-0.16,0.572
		c-0.107,0.168-0.255,0.301-0.444,0.399s-0.409,0.148-0.66,0.148c-0.246,0-0.467-0.044-0.664-0.132
		c-0.198-0.088-0.364-0.201-0.5-0.34c-0.136-0.139-0.239-0.28-0.308-0.425l0.504-0.312C31.715,98.792,31.801,98.896,31.896,98.991z"
		/>
</g>
<g>
	<g>
		<line fill="none" stroke="#000000" stroke-miterlimit="10" x1="77.075" y1="66.473" x2="77.075" y2="71.079"/>
		<g>
			<polygon points="75.223,69.674 77.075,70.461 78.926,69.674 77.075,74.064 			"/>
		</g>
	</g>
</g>
<g>
	<g enable-background="new    ">
		<path fill="#010101" d="M61.692,4.025h2.6c0,0.39-0.059,0.759-0.176,1.107c-0.117,0.35-0.291,0.66-0.52,0.933
			c-0.229,0.271-0.511,0.486-0.844,0.644c-0.334,0.157-0.714,0.236-1.141,0.236c-0.405,0-0.781-0.071-1.127-0.212
			c-0.348-0.142-0.648-0.342-0.904-0.601c-0.256-0.258-0.455-0.563-0.596-0.916c-0.143-0.352-0.213-0.735-0.213-1.151
			s0.07-0.8,0.213-1.152c0.141-0.352,0.34-0.657,0.596-0.916s0.557-0.458,0.904-0.6c0.346-0.142,0.722-0.212,1.127-0.212
			c0.348,0,0.666,0.045,0.957,0.136c0.29,0.091,0.551,0.224,0.783,0.4c0.232,0.176,0.428,0.395,0.588,0.655l-0.48,0.44
			c-0.176-0.299-0.421-0.532-0.735-0.7c-0.315-0.168-0.686-0.252-1.112-0.252c-0.293,0-0.568,0.054-0.828,0.16
			c-0.258,0.106-0.483,0.257-0.676,0.452c-0.191,0.194-0.342,0.427-0.451,0.695c-0.109,0.27-0.164,0.567-0.164,0.893
			s0.055,0.622,0.164,0.892s0.26,0.502,0.451,0.696c0.192,0.194,0.418,0.346,0.676,0.452c0.26,0.106,0.535,0.16,0.828,0.16
			c0.277,0,0.527-0.042,0.748-0.124c0.222-0.083,0.412-0.199,0.572-0.349s0.292-0.319,0.396-0.512
			c0.104-0.192,0.18-0.397,0.228-0.616h-1.864V4.025z"/>
		<path fill="#010101" d="M65.768,6.701c-0.264-0.162-0.469-0.388-0.615-0.676c-0.147-0.288-0.221-0.621-0.221-1
			c0-0.288,0.045-0.55,0.133-0.784s0.211-0.436,0.371-0.604c0.16-0.169,0.353-0.299,0.576-0.393c0.225-0.093,0.473-0.14,0.744-0.14
			c0.363,0,0.674,0.076,0.932,0.228c0.259,0.152,0.457,0.369,0.596,0.652c0.139,0.282,0.209,0.618,0.209,1.008
			c0,0.037-0.002,0.076-0.004,0.116c-0.004,0.04-0.004,0.065-0.004,0.076H65.34V4.642h2.641l-0.257,0.367
			c0.017-0.026,0.032-0.067,0.048-0.124c0.017-0.056,0.024-0.103,0.024-0.14c0-0.219-0.044-0.408-0.132-0.568
			c-0.088-0.159-0.209-0.285-0.364-0.376c-0.155-0.09-0.336-0.136-0.544-0.136c-0.182,0-0.346,0.029-0.492,0.088
			s-0.271,0.145-0.371,0.256c-0.102,0.112-0.18,0.251-0.232,0.416c-0.054,0.166-0.08,0.353-0.08,0.561
			c0,0.288,0.045,0.533,0.136,0.736c0.091,0.202,0.224,0.356,0.399,0.464c0.177,0.106,0.39,0.16,0.641,0.16
			c0.25,0,0.473-0.055,0.664-0.164s0.354-0.276,0.488-0.5l0.52,0.327c-0.191,0.31-0.434,0.543-0.725,0.7
			c-0.29,0.157-0.633,0.236-1.027,0.236C66.334,6.945,66.031,6.864,65.768,6.701z"/>
		<path fill="#010101" d="M71.644,4.117c-0.059-0.136-0.147-0.238-0.265-0.308s-0.261-0.104-0.432-0.104
			c-0.187,0-0.351,0.039-0.492,0.116c-0.141,0.077-0.25,0.186-0.328,0.324c-0.076,0.139-0.115,0.299-0.115,0.479v2.24h-0.641v-3.68
			h0.641v0.576c0.123-0.225,0.275-0.39,0.46-0.496c0.184-0.107,0.396-0.16,0.636-0.16c0.262,0,0.485,0.059,0.672,0.176
			c0.188,0.117,0.332,0.283,0.436,0.496c0.104,0.213,0.156,0.47,0.156,0.768v2.32h-0.64v-2.24
			C71.732,4.423,71.702,4.253,71.644,4.117z"/>
		<path fill="#010101" d="M73.504,4.033c0.168-0.288,0.396-0.515,0.684-0.68c0.288-0.166,0.611-0.248,0.969-0.248
			c0.361,0,0.686,0.082,0.971,0.248c0.286,0.165,0.513,0.392,0.681,0.68s0.252,0.619,0.252,0.992c0,0.368-0.084,0.697-0.252,0.988
			c-0.168,0.29-0.395,0.519-0.681,0.684c-0.285,0.165-0.609,0.248-0.971,0.248c-0.357,0-0.681-0.083-0.969-0.248
			c-0.287-0.165-0.516-0.394-0.684-0.684c-0.168-0.291-0.252-0.62-0.252-0.988C73.252,4.652,73.336,4.321,73.504,4.033z
			 M74.064,5.705c0.109,0.197,0.259,0.354,0.448,0.468c0.189,0.115,0.404,0.173,0.645,0.173c0.239,0,0.454-0.058,0.644-0.173
			c0.188-0.114,0.339-0.271,0.448-0.468s0.164-0.424,0.164-0.68s-0.055-0.484-0.164-0.685c-0.109-0.199-0.26-0.355-0.448-0.468
			c-0.189-0.111-0.404-0.168-0.644-0.168c-0.24,0-0.455,0.057-0.645,0.168c-0.189,0.112-0.339,0.269-0.448,0.468
			c-0.109,0.2-0.163,0.429-0.163,0.685S73.954,5.508,74.064,5.705z"/>
		<path fill="#010101" d="M82.98,6.865h-0.64v-2.24c0-0.213-0.025-0.387-0.076-0.52c-0.051-0.134-0.129-0.233-0.232-0.3
			c-0.104-0.067-0.236-0.101-0.396-0.101c-0.176,0-0.328,0.036-0.455,0.108c-0.129,0.071-0.227,0.177-0.297,0.315
			c-0.068,0.139-0.104,0.305-0.104,0.496v2.24h-0.641v-2.24c0-0.213-0.025-0.387-0.075-0.52c-0.051-0.134-0.128-0.233-0.231-0.3
			c-0.104-0.067-0.236-0.101-0.396-0.101c-0.176,0-0.328,0.036-0.456,0.108c-0.128,0.071-0.228,0.177-0.296,0.315
			c-0.07,0.139-0.104,0.305-0.104,0.496v2.24H77.94v-3.68h0.641v0.536c0.074-0.139,0.16-0.254,0.26-0.345
			c0.098-0.091,0.211-0.158,0.34-0.204c0.127-0.045,0.266-0.067,0.416-0.067c0.17,0,0.324,0.026,0.464,0.08
			c0.138,0.053,0.26,0.131,0.364,0.231c0.104,0.102,0.182,0.227,0.235,0.376c0.128-0.229,0.288-0.401,0.479-0.516
			c0.193-0.114,0.411-0.172,0.656-0.172c0.251,0,0.465,0.056,0.641,0.168c0.176,0.111,0.311,0.275,0.404,0.492
			c0.093,0.216,0.14,0.476,0.14,0.779V6.865z"/>
		<path fill="#010101" d="M84.696,6.701c-0.264-0.162-0.469-0.388-0.615-0.676c-0.147-0.288-0.221-0.621-0.221-1
			c0-0.288,0.045-0.55,0.133-0.784s0.211-0.436,0.371-0.604c0.16-0.169,0.353-0.299,0.576-0.393c0.225-0.093,0.473-0.14,0.744-0.14
			c0.363,0,0.674,0.076,0.932,0.228c0.259,0.152,0.457,0.369,0.596,0.652c0.139,0.282,0.209,0.618,0.209,1.008
			c0,0.037-0.002,0.076-0.004,0.116c-0.004,0.04-0.004,0.065-0.004,0.076h-3.145V4.642h2.641l-0.257,0.367
			c0.017-0.026,0.032-0.067,0.048-0.124c0.017-0.056,0.024-0.103,0.024-0.14c0-0.219-0.044-0.408-0.132-0.568
			c-0.088-0.159-0.209-0.285-0.364-0.376c-0.155-0.09-0.336-0.136-0.544-0.136c-0.182,0-0.346,0.029-0.492,0.088
			s-0.271,0.145-0.371,0.256c-0.102,0.112-0.18,0.251-0.232,0.416c-0.054,0.166-0.08,0.353-0.08,0.561
			c0,0.288,0.045,0.533,0.136,0.736c0.091,0.202,0.224,0.356,0.399,0.464c0.177,0.106,0.39,0.16,0.641,0.16
			c0.25,0,0.473-0.055,0.664-0.164s0.354-0.276,0.488-0.5l0.52,0.327c-0.191,0.31-0.434,0.543-0.725,0.7
			c-0.29,0.157-0.633,0.236-1.027,0.236C85.262,6.945,84.959,6.864,84.696,6.701z"/>
		<path fill="#010101" d="M96.174,3.443c0.346,0.378,0.646,0.665,0.898,0.861c0.252,0.196,0.49,0.343,0.715,0.439V4.92
			c-0.258,0.125-0.508,0.284-0.75,0.479s-0.531,0.479-0.867,0.854h-0.301c0.244-0.523,0.501-0.926,0.77-1.207h-6.23V4.65h6.23
			c-0.198-0.253-0.336-0.44-0.414-0.562s-0.194-0.337-0.348-0.645H96.174z"/>
	</g>
	<g enable-background="new    ">
		<path fill="#010101" d="M50.406,51.638v-0.297c0.308,0.154,0.522,0.269,0.646,0.346s0.311,0.215,0.561,0.416v-6.23h0.395v6.23
			c0.281-0.271,0.684-0.529,1.207-0.773v0.305c-0.375,0.336-0.659,0.625-0.854,0.867s-0.354,0.492-0.479,0.75h-0.176
			c-0.097-0.227-0.243-0.466-0.441-0.719S50.781,51.981,50.406,51.638z"/>
		<path fill="#010101" d="M50.989,39.919v-2.6c0.39,0,0.759,0.059,1.107,0.176c0.35,0.118,0.66,0.291,0.933,0.52
			c0.271,0.229,0.486,0.511,0.644,0.844c0.157,0.333,0.236,0.713,0.236,1.14c0,0.406-0.071,0.782-0.212,1.128
			c-0.142,0.347-0.342,0.648-0.601,0.904c-0.258,0.256-0.563,0.455-0.916,0.596c-0.352,0.142-0.735,0.212-1.151,0.212
			s-0.8-0.071-1.152-0.212c-0.352-0.141-0.657-0.34-0.916-0.596s-0.458-0.557-0.6-0.904c-0.142-0.346-0.212-0.722-0.212-1.128
			c0-0.347,0.045-0.665,0.136-0.956c0.091-0.291,0.224-0.552,0.4-0.784c0.176-0.232,0.395-0.428,0.655-0.588l0.44,0.48
			c-0.299,0.176-0.532,0.421-0.7,0.736c-0.168,0.315-0.252,0.686-0.252,1.112c0,0.293,0.054,0.569,0.16,0.828
			s0.257,0.484,0.452,0.676c0.194,0.192,0.427,0.342,0.695,0.452c0.27,0.109,0.567,0.164,0.893,0.164s0.622-0.055,0.892-0.164
			s0.502-0.26,0.696-0.452c0.194-0.192,0.346-0.417,0.452-0.676s0.16-0.535,0.16-0.828c0-0.277-0.042-0.526-0.124-0.748
			c-0.083-0.221-0.199-0.412-0.349-0.572s-0.319-0.292-0.512-0.396s-0.397-0.18-0.616-0.228v1.864H50.989z"/>
		<path fill="#010101" d="M53.664,35.844c-0.162,0.264-0.388,0.47-0.676,0.616c-0.288,0.147-0.621,0.22-1,0.22
			c-0.288,0-0.55-0.044-0.784-0.132s-0.436-0.212-0.604-0.372c-0.169-0.16-0.299-0.352-0.393-0.576
			c-0.093-0.224-0.14-0.472-0.14-0.744c0-0.363,0.076-0.673,0.228-0.932c0.152-0.258,0.369-0.457,0.652-0.596
			c0.282-0.139,0.618-0.208,1.008-0.208c0.037,0,0.076,0.001,0.116,0.004s0.065,0.004,0.076,0.004v3.144h-0.544v-2.64l0.367,0.256
			c-0.026-0.016-0.067-0.032-0.124-0.048c-0.056-0.016-0.103-0.024-0.14-0.024c-0.219,0-0.408,0.044-0.568,0.132
			c-0.159,0.088-0.285,0.209-0.376,0.364c-0.09,0.155-0.136,0.336-0.136,0.544c0,0.181,0.029,0.345,0.088,0.492
			c0.059,0.146,0.145,0.271,0.256,0.372c0.112,0.102,0.251,0.179,0.416,0.232c0.166,0.053,0.353,0.08,0.561,0.08
			c0.288,0,0.533-0.045,0.736-0.136c0.202-0.091,0.356-0.224,0.464-0.4c0.106-0.176,0.16-0.389,0.16-0.64
			c0-0.25-0.055-0.472-0.164-0.664s-0.276-0.354-0.5-0.488l0.327-0.52c0.31,0.192,0.543,0.433,0.7,0.724
			c0.157,0.291,0.236,0.633,0.236,1.028C53.908,35.277,53.827,35.58,53.664,35.844z"/>
		<path fill="#010101" d="M51.08,29.968c-0.136,0.059-0.238,0.147-0.308,0.264s-0.104,0.261-0.104,0.432
			c0,0.187,0.039,0.351,0.116,0.492c0.077,0.142,0.186,0.251,0.324,0.328s0.299,0.116,0.479,0.116h2.24v0.64h-3.68V31.6h0.576
			c-0.225-0.123-0.39-0.276-0.496-0.46c-0.107-0.184-0.16-0.396-0.16-0.636c0-0.261,0.059-0.485,0.176-0.672
			c0.117-0.187,0.283-0.332,0.496-0.436s0.47-0.156,0.768-0.156h2.32v0.64h-2.24C51.386,29.88,51.216,29.909,51.08,29.968z"/>
		<path fill="#010101" d="M50.996,28.107c-0.288-0.168-0.515-0.396-0.68-0.684c-0.166-0.288-0.248-0.611-0.248-0.968
			c0-0.362,0.082-0.687,0.248-0.972c0.165-0.286,0.392-0.512,0.68-0.68s0.619-0.252,0.992-0.252c0.368,0,0.697,0.084,0.988,0.252
			c0.29,0.168,0.519,0.395,0.684,0.68c0.165,0.285,0.248,0.609,0.248,0.972c0,0.357-0.083,0.68-0.248,0.968
			c-0.165,0.288-0.394,0.516-0.684,0.684c-0.291,0.168-0.62,0.252-0.988,0.252C51.615,28.36,51.284,28.276,50.996,28.107z
			 M52.668,27.548c0.197-0.109,0.354-0.259,0.468-0.448c0.115-0.189,0.173-0.404,0.173-0.644c0-0.24-0.058-0.455-0.173-0.644
			c-0.114-0.189-0.271-0.338-0.468-0.448s-0.424-0.164-0.68-0.164s-0.484,0.055-0.685,0.164c-0.199,0.109-0.355,0.259-0.468,0.448
			c-0.111,0.189-0.168,0.404-0.168,0.644c0,0.24,0.057,0.455,0.168,0.644c0.112,0.189,0.269,0.339,0.468,0.448
			c0.2,0.109,0.429,0.164,0.685,0.164S52.471,27.657,52.668,27.548z"/>
		<path fill="#010101" d="M53.828,18.632v0.64h-2.24c-0.213,0-0.387,0.025-0.52,0.076c-0.134,0.051-0.233,0.128-0.3,0.232
			c-0.067,0.104-0.101,0.236-0.101,0.396c0,0.176,0.036,0.328,0.108,0.456c0.071,0.128,0.177,0.227,0.315,0.296
			s0.305,0.104,0.496,0.104h2.24v0.64h-2.24c-0.213,0-0.387,0.025-0.52,0.076c-0.134,0.051-0.233,0.128-0.3,0.232
			c-0.067,0.104-0.101,0.236-0.101,0.396c0,0.176,0.036,0.328,0.108,0.456c0.071,0.128,0.177,0.227,0.315,0.296
			c0.139,0.07,0.305,0.104,0.496,0.104h2.24v0.64h-3.68v-0.64h0.536c-0.139-0.074-0.254-0.161-0.345-0.26s-0.158-0.212-0.204-0.34
			c-0.045-0.128-0.067-0.267-0.067-0.416c0-0.171,0.026-0.325,0.08-0.464c0.053-0.138,0.131-0.26,0.231-0.364
			c0.102-0.104,0.227-0.183,0.376-0.236c-0.229-0.128-0.401-0.288-0.516-0.48c-0.114-0.192-0.172-0.411-0.172-0.656
			c0-0.25,0.056-0.464,0.168-0.64c0.111-0.176,0.275-0.311,0.492-0.404c0.216-0.093,0.476-0.14,0.779-0.14H53.828z"/>
		<path fill="#010101" d="M53.664,16.916c-0.162,0.264-0.388,0.47-0.676,0.616c-0.288,0.147-0.621,0.22-1,0.22
			c-0.288,0-0.55-0.044-0.784-0.132s-0.436-0.212-0.604-0.372c-0.169-0.16-0.299-0.352-0.393-0.576
			c-0.093-0.224-0.14-0.472-0.14-0.744c0-0.363,0.076-0.673,0.228-0.932c0.152-0.258,0.369-0.457,0.652-0.596
			c0.282-0.139,0.618-0.208,1.008-0.208c0.037,0,0.076,0.001,0.116,0.004s0.065,0.004,0.076,0.004v3.144h-0.544v-2.64l0.367,0.256
			c-0.026-0.016-0.067-0.032-0.124-0.048c-0.056-0.016-0.103-0.024-0.14-0.024c-0.219,0-0.408,0.044-0.568,0.132
			c-0.159,0.088-0.285,0.209-0.376,0.364c-0.09,0.155-0.136,0.336-0.136,0.544c0,0.181,0.029,0.345,0.088,0.492
			c0.059,0.146,0.145,0.271,0.256,0.372c0.112,0.102,0.251,0.179,0.416,0.232c0.166,0.053,0.353,0.08,0.561,0.08
			c0.288,0,0.533-0.045,0.736-0.136c0.202-0.091,0.356-0.224,0.464-0.4c0.106-0.176,0.16-0.389,0.16-0.64
			c0-0.25-0.055-0.472-0.164-0.664s-0.276-0.354-0.5-0.488l0.327-0.52c0.31,0.192,0.543,0.433,0.7,0.724
			c0.157,0.291,0.236,0.633,0.236,1.028C53.908,16.349,53.827,16.652,53.664,16.916z"/>
	</g>
	
		<rect x="57.233" y="9.428" fill="#D6D6D6" stroke="#FFFFFF" stroke-width="0.5" stroke-miterlimit="10" width="3.829" height="3.83"/>
	
		<rect x="57.233" y="13.258" fill="#D6D6D6" stroke="#FFFFFF" stroke-width="0.5" stroke-miterlimit="10" width="3.829" height="3.83"/>
	
		<rect x="57.233" y="17.087" fill="#D6D6D6" stroke="#FFFFFF" stroke-width="0.5" stroke-miterlimit="10" width="3.829" height="3.83"/>
	
		<rect x="57.233" y="20.917" fill="#D6D6D6" stroke="#FFFFFF" stroke-width="0.5" stroke-miterlimit="10" width="3.829" height="3.83"/>
	
		<rect x="57.233" y="24.747" fill="#D6D6D6" stroke="#FFFFFF" stroke-width="0.5" stroke-miterlimit="10" width="3.829" height="3.83"/>
	
		<rect x="57.233" y="28.576" fill="#D6D6D6" stroke="#FFFFFF" stroke-width="0.5" stroke-miterlimit="10" width="3.829" height="3.83"/>
	
		<rect x="57.233" y="32.406" fill="#D6D6D6" stroke="#FFFFFF" stroke-width="0.5" stroke-miterlimit="10" width="3.829" height="3.83"/>
	
		<rect x="57.233" y="36.235" fill="#D6D6D6" stroke="#FFFFFF" stroke-width="0.5" stroke-miterlimit="10" width="3.829" height="3.83"/>
	
		<rect x="57.233" y="40.065" fill="#D6D6D6" stroke="#FFFFFF" stroke-width="0.5" stroke-miterlimit="10" width="3.829" height="3.83"/>
	
		<rect x="57.233" y="43.895" fill="#D6D6D6" stroke="#FFFFFF" stroke-width="0.5" stroke-miterlimit="10" width="3.829" height="3.83"/>
	
		<rect x="57.233" y="47.724" fill="#D6D6D6" stroke="#FFFFFF" stroke-width="0.5" stroke-miterlimit="10" width="3.829" height="3.83"/>
	
		<rect x="57.233" y="51.554" fill="#D6D6D6" stroke="#FFFFFF" stroke-width="0.5" stroke-miterlimit="10" width="3.829" height="3.83"/>
	
		<rect x="61.062" y="9.428" fill="#D6D6D6" stroke="#FFFFFF" stroke-width="0.5" stroke-miterlimit="10" width="3.829" height="3.83"/>
	
		<rect x="61.062" y="13.258" fill="#F59192" stroke="#FFFFFF" stroke-width="0.5" stroke-miterlimit="10" width="3.829" height="3.83"/>
	
		<rect x="61.062" y="17.087" fill="#F59192" stroke="#FFFFFF" stroke-width="0.5" stroke-miterlimit="10" width="3.829" height="3.83"/>
	
		<rect x="61.062" y="20.917" fill="#D6D6D6" stroke="#FFFFFF" stroke-width="0.5" stroke-miterlimit="10" width="3.829" height="3.83"/>
	
		<rect x="61.062" y="24.747" fill="#D6D6D6" stroke="#FFFFFF" stroke-width="0.5" stroke-miterlimit="10" width="3.829" height="3.83"/>
	
		<rect x="61.062" y="28.576" fill="#D6D6D6" stroke="#FFFFFF" stroke-width="0.5" stroke-miterlimit="10" width="3.829" height="3.83"/>
	
		<rect x="61.062" y="32.406" fill="#D6D6D6" stroke="#FFFFFF" stroke-width="0.5" stroke-miterlimit="10" width="3.829" height="3.83"/>
	
		<rect x="61.062" y="36.235" fill="#D6D6D6" stroke="#FFFFFF" stroke-width="0.5" stroke-miterlimit="10" width="3.829" height="3.83"/>
	
		<rect x="61.062" y="40.065" fill="#D6D6D6" stroke="#FFFFFF" stroke-width="0.5" stroke-miterlimit="10" width="3.829" height="3.83"/>
	
		<rect x="61.062" y="43.895" fill="#D6D6D6" stroke="#FFFFFF" stroke-width="0.5" stroke-miterlimit="10" width="3.829" height="3.83"/>
	
		<rect x="61.062" y="47.724" fill="#D6D6D6" stroke="#FFFFFF" stroke-width="0.5" stroke-miterlimit="10" width="3.829" height="3.83"/>
	
		<rect x="61.062" y="51.554" fill="#D6D6D6" stroke="#FFFFFF" stroke-width="0.5" stroke-miterlimit="10" width="3.829" height="3.83"/>
	
		<rect x="64.891" y="9.428" fill="#D6D6D6" stroke="#FFFFFF" stroke-width="0.5" stroke-miterlimit="10" width="3.83" height="3.83"/>
	
		<rect x="64.891" y="13.258" fill="#F59192" stroke="#FFFFFF" stroke-width="0.5" stroke-miterlimit="10" width="3.83" height="3.83"/>
	
		<rect x="64.891" y="17.087" fill="#F59192" stroke="#FFFFFF" stroke-width="0.5" stroke-miterlimit="10" width="3.83" height="3.83"/>
	
		<rect x="64.891" y="20.917" fill="#D6D6D6" stroke="#FFFFFF" stroke-width="0.5" stroke-miterlimit="10" width="3.83" height="3.83"/>
	
		<rect x="64.891" y="24.747" fill="#D6D6D6" stroke="#FFFFFF" stroke-width="0.5" stroke-miterlimit="10" width="3.83" height="3.83"/>
	
		<rect x="64.891" y="28.576" fill="#D6D6D6" stroke="#FFFFFF" stroke-width="0.5" stroke-miterlimit="10" width="3.83" height="3.83"/>
	
		<rect x="64.891" y="32.406" fill="#D6D6D6" stroke="#FFFFFF" stroke-width="0.5" stroke-miterlimit="10" width="3.83" height="3.83"/>
	
		<rect x="64.891" y="36.235" fill="#D6D6D6" stroke="#FFFFFF" stroke-width="0.5" stroke-miterlimit="10" width="3.83" height="3.83"/>
	
		<rect x="64.891" y="40.065" fill="#D6D6D6" stroke="#FFFFFF" stroke-width="0.5" stroke-miterlimit="10" width="3.83" height="3.83"/>
	
		<rect x="64.891" y="43.895" fill="#D6D6D6" stroke="#FFFFFF" stroke-width="0.5" stroke-miterlimit="10" width="3.83" height="3.83"/>
	
		<rect x="64.891" y="47.724" fill="#D6D6D6" stroke="#FFFFFF" stroke-width="0.5" stroke-miterlimit="10" width="3.83" height="3.83"/>
	
		<rect x="64.891" y="51.554" fill="#D6D6D6" stroke="#FFFFFF" stroke-width="0.5" stroke-miterlimit="10" width="3.83" height="3.83"/>
	
		<rect x="68.721" y="9.428" fill="#D6D6D6" stroke="#FFFFFF" stroke-width="0.5" stroke-miterlimit="10" width="3.83" height="3.83"/>
	
		<rect x="68.721" y="13.258" fill="#D6D6D6" stroke="#FFFFFF" stroke-width="0.5" stroke-miterlimit="10" width="3.83" height="3.83"/>
	
		<rect x="68.721" y="17.087" fill="#D6D6D6" stroke="#FFFFFF" stroke-width="0.5" stroke-miterlimit="10" width="3.83" height="3.83"/>
	
		<rect x="68.721" y="20.917" fill="#D6D6D6" stroke="#FFFFFF" stroke-width="0.5" stroke-miterlimit="10" width="3.83" height="3.83"/>
	
		<rect x="68.721" y="24.747" fill="#D6D6D6" stroke="#FFFFFF" stroke-width="0.5" stroke-miterlimit="10" width="3.83" height="3.83"/>
	
		<rect x="68.721" y="28.576" fill="#D6D6D6" stroke="#FFFFFF" stroke-width="0.5" stroke-miterlimit="10" width="3.83" height="3.83"/>
	
		<rect x="68.721" y="32.406" fill="#D6D6D6" stroke="#FFFFFF" stroke-width="0.5" stroke-miterlimit="10" width="3.83" height="3.83"/>
	
		<rect x="68.721" y="36.235" fill="#D6D6D6" stroke="#FFFFFF" stroke-width="0.5" stroke-miterlimit="10" width="3.83" height="3.83"/>
	
		<rect x="68.721" y="40.065" fill="#D6D6D6" stroke="#FFFFFF" stroke-width="0.5" stroke-miterlimit="10" width="3.83" height="3.83"/>
	
		<rect x="68.721" y="43.895" fill="#D6D6D6" stroke="#FFFFFF" stroke-width="0.5" stroke-miterlimit="10" width="3.83" height="3.83"/>
	
		<rect x="68.721" y="47.724" fill="#D6D6D6" stroke="#FFFFFF" stroke-width="0.5" stroke-miterlimit="10" width="3.83" height="3.83"/>
	
		<rect x="68.721" y="51.554" fill="#D6D6D6" stroke="#FFFFFF" stroke-width="0.5" stroke-miterlimit="10" width="3.83" height="3.83"/>
	
		<rect x="72.551" y="9.428" fill="#D6D6D6" stroke="#FFFFFF" stroke-width="0.5" stroke-miterlimit="10" width="3.829" height="3.83"/>
	
		<rect x="72.551" y="13.258" fill="#D6D6D6" stroke="#FFFFFF" stroke-width="0.5" stroke-miterlimit="10" width="3.829" height="3.83"/>
	
		<rect x="72.551" y="17.087" fill="#D6D6D6" stroke="#FFFFFF" stroke-width="0.5" stroke-miterlimit="10" width="3.829" height="3.83"/>
	
		<rect x="72.551" y="20.917" fill="#D6D6D6" stroke="#FFFFFF" stroke-width="0.5" stroke-miterlimit="10" width="3.829" height="3.83"/>
	
		<rect x="72.551" y="24.747" fill="#D6D6D6" stroke="#FFFFFF" stroke-width="0.5" stroke-miterlimit="10" width="3.829" height="3.83"/>
	
		<rect x="72.551" y="28.576" fill="#D6D6D6" stroke="#FFFFFF" stroke-width="0.5" stroke-miterlimit="10" width="3.829" height="3.83"/>
	
		<rect x="72.551" y="32.406" fill="#D6D6D6" stroke="#FFFFFF" stroke-width="0.5" stroke-miterlimit="10" width="3.829" height="3.83"/>
	
		<rect x="72.551" y="36.235" fill="#D6D6D6" stroke="#FFFFFF" stroke-width="0.5" stroke-miterlimit="10" width="3.829" height="3.83"/>
	
		<rect x="72.551" y="40.065" fill="#D6D6D6" stroke="#FFFFFF" stroke-width="0.5" stroke-miterlimit="10" width="3.829" height="3.83"/>
	
		<rect x="72.551" y="43.895" fill="#D6D6D6" stroke="#FFFFFF" stroke-width="0.5" stroke-miterlimit="10" width="3.829" height="3.83"/>
	
		<rect x="72.551" y="47.724" fill="#D6D6D6" stroke="#FFFFFF" stroke-width="0.5" stroke-miterlimit="10" width="3.829" height="3.83"/>
	
		<rect x="72.551" y="51.554" fill="#D6D6D6" stroke="#FFFFFF" stroke-width="0.5" stroke-miterlimit="10" width="3.829" height="3.83"/>
	
		<rect x="76.38" y="9.428" fill="#D6D6D6" stroke="#FFFFFF" stroke-width="0.5" stroke-miterlimit="10" width="3.829" height="3.83"/>
	
		<rect x="76.38" y="13.258" fill="#D6D6D6" stroke="#FFFFFF" stroke-width="0.5" stroke-miterlimit="10" width="3.829" height="3.83"/>
	
		<rect x="76.38" y="17.087" fill="#D6D6D6" stroke="#FFFFFF" stroke-width="0.5" stroke-miterlimit="10" width="3.829" height="3.83"/>
	
		<rect x="76.38" y="20.917" fill="#D6D6D6" stroke="#FFFFFF" stroke-width="0.5" stroke-miterlimit="10" width="3.829" height="3.83"/>
	
		<rect x="76.38" y="24.747" fill="#D6D6D6" stroke="#FFFFFF" stroke-width="0.5" stroke-miterlimit="10" width="3.829" height="3.83"/>
	
		<rect x="76.38" y="28.576" fill="#6C95CE" stroke="#FFFFFF" stroke-width="0.5" stroke-miterlimit="10" width="3.829" height="3.83"/>
	
		<rect x="76.38" y="32.406" fill="#6C95CE" stroke="#FFFFFF" stroke-width="0.5" stroke-miterlimit="10" width="3.829" height="3.83"/>
	
		<rect x="76.38" y="36.235" fill="#6C95CE" stroke="#FFFFFF" stroke-width="0.5" stroke-miterlimit="10" width="3.829" height="3.83"/>
	
		<rect x="76.38" y="40.065" fill="#6C95CE" stroke="#FFFFFF" stroke-width="0.5" stroke-miterlimit="10" width="3.829" height="3.83"/>
	
		<rect x="76.38" y="43.895" fill="#D6D6D6" stroke="#FFFFFF" stroke-width="0.5" stroke-miterlimit="10" width="3.829" height="3.83"/>
	
		<rect x="76.38" y="47.724" fill="#D6D6D6" stroke="#FFFFFF" stroke-width="0.5" stroke-miterlimit="10" width="3.829" height="3.83"/>
	
		<rect x="76.38" y="51.554" fill="#D6D6D6" stroke="#FFFFFF" stroke-width="0.5" stroke-miterlimit="10" width="3.829" height="3.83"/>
	
		<rect x="80.209" y="9.428" fill="#D6D6D6" stroke="#FFFFFF" stroke-width="0.5" stroke-miterlimit="10" width="3.83" height="3.83"/>
	
		<rect x="80.209" y="13.258" fill="#D6D6D6" stroke="#FFFFFF" stroke-width="0.5" stroke-miterlimit="10" width="3.83" height="3.83"/>
	
		<rect x="80.209" y="17.087" fill="#D6D6D6" stroke="#FFFFFF" stroke-width="0.5" stroke-miterlimit="10" width="3.83" height="3.83"/>
	
		<rect x="80.209" y="20.917" fill="#D6D6D6" stroke="#FFFFFF" stroke-width="0.5" stroke-miterlimit="10" width="3.83" height="3.83"/>
	
		<rect x="80.209" y="24.747" fill="#D6D6D6" stroke="#FFFFFF" stroke-width="0.5" stroke-miterlimit="10" width="3.83" height="3.83"/>
	
		<rect x="80.209" y="28.576" fill="#6C95CE" stroke="#FFFFFF" stroke-width="0.5" stroke-miterlimit="10" width="3.83" height="3.83"/>
	
		<rect x="80.209" y="32.406" fill="#6C95CE" stroke="#FFFFFF" stroke-width="0.5" stroke-miterlimit="10" width="3.83" height="3.83"/>
	
		<rect x="80.209" y="36.235" fill="#6C95CE" stroke="#FFFFFF" stroke-width="0.5" stroke-miterlimit="10" width="3.83" height="3.83"/>
	
		<rect x="80.209" y="40.065" fill="#6C95CE" stroke="#FFFFFF" stroke-width="0.5" stroke-miterlimit="10" width="3.83" height="3.83"/>
	
		<rect x="80.209" y="43.895" fill="#D6D6D6" stroke="#FFFFFF" stroke-width="0.5" stroke-miterlimit="10" width="3.83" height="3.83"/>
	
		<rect x="80.209" y="47.724" fill="#D6D6D6" stroke="#FFFFFF" stroke-width="0.5" stroke-miterlimit="10" width="3.83" height="3.83"/>
	
		<rect x="80.209" y="51.554" fill="#D6D6D6" stroke="#FFFFFF" stroke-width="0.5" stroke-miterlimit="10" width="3.83" height="3.83"/>
	
		<rect x="84.04" y="9.428" fill="#D6D6D6" stroke="#FFFFFF" stroke-width="0.5" stroke-miterlimit="10" width="3.83" height="3.83"/>
	
		<rect x="84.04" y="13.258" fill="#D6D6D6" stroke="#FFFFFF" stroke-width="0.5" stroke-miterlimit="10" width="3.83" height="3.83"/>
	
		<rect x="84.04" y="17.087" fill="#D6D6D6" stroke="#FFFFFF" stroke-width="0.5" stroke-miterlimit="10" width="3.83" height="3.83"/>
	
		<rect x="84.04" y="20.917" fill="#D6D6D6" stroke="#FFFFFF" stroke-width="0.5" stroke-miterlimit="10" width="3.83" height="3.83"/>
	
		<rect x="84.04" y="24.747" fill="#D6D6D6" stroke="#FFFFFF" stroke-width="0.5" stroke-miterlimit="10" width="3.83" height="3.83"/>
	
		<rect x="84.04" y="28.576" fill="#6C95CE" stroke="#FFFFFF" stroke-width="0.5" stroke-miterlimit="10" width="3.83" height="3.83"/>
	
		<rect x="84.04" y="32.406" fill="#6C95CE" stroke="#FFFFFF" stroke-width="0.5" stroke-miterlimit="10" width="3.83" height="3.83"/>
	
		<rect x="84.04" y="36.235" fill="#6C95CE" stroke="#FFFFFF" stroke-width="0.5" stroke-miterlimit="10" width="3.83" height="3.83"/>
	
		<rect x="84.04" y="40.065" fill="#6C95CE" stroke="#FFFFFF" stroke-width="0.5" stroke-miterlimit="10" width="3.83" height="3.83"/>
	
		<rect x="84.04" y="43.895" fill="#D6D6D6" stroke="#FFFFFF" stroke-width="0.5" stroke-miterlimit="10" width="3.83" height="3.83"/>
	
		<rect x="84.04" y="47.724" fill="#D6D6D6" stroke="#FFFFFF" stroke-width="0.5" stroke-miterlimit="10" width="3.83" height="3.83"/>
	
		<rect x="84.04" y="51.554" fill="#D6D6D6" stroke="#FFFFFF" stroke-width="0.5" stroke-miterlimit="10" width="3.83" height="3.83"/>
	
		<rect x="87.87" y="9.428" fill="#D6D6D6" stroke="#FFFFFF" stroke-width="0.5" stroke-miterlimit="10" width="3.829" height="3.83"/>
	
		<rect x="87.87" y="13.258" fill="#D6D6D6" stroke="#FFFFFF" stroke-width="0.5" stroke-miterlimit="10" width="3.829" height="3.83"/>
	
		<rect x="87.87" y="17.087" fill="#D6D6D6" stroke="#FFFFFF" stroke-width="0.5" stroke-miterlimit="10" width="3.829" height="3.83"/>
	
		<rect x="87.87" y="20.917" fill="#D6D6D6" stroke="#FFFFFF" stroke-width="0.5" stroke-miterlimit="10" width="3.829" height="3.83"/>
	
		<rect x="87.87" y="24.747" fill="#D6D6D6" stroke="#FFFFFF" stroke-width="0.5" stroke-miterlimit="10" width="3.829" height="3.83"/>
	
		<rect x="87.87" y="28.576" fill="#6C95CE" stroke="#FFFFFF" stroke-width="0.5" stroke-miterlimit="10" width="3.829" height="3.83"/>
	
		<rect x="87.87" y="32.406" fill="#6C95CE" stroke="#FFFFFF" stroke-width="0.5" stroke-miterlimit="10" width="3.829" height="3.83"/>
	
		<rect x="87.87" y="36.235" fill="#6C95CE" stroke="#FFFFFF" stroke-width="0.5" stroke-miterlimit="10" width="3.829" height="3.83"/>
	
		<rect x="87.87" y="40.065" fill="#6C95CE" stroke="#FFFFFF" stroke-width="0.5" stroke-miterlimit="10" width="3.829" height="3.83"/>
	
		<rect x="87.87" y="43.895" fill="#D6D6D6" stroke="#FFFFFF" stroke-width="0.5" stroke-miterlimit="10" width="3.829" height="3.83"/>
	
		<rect x="87.87" y="47.724" fill="#D6D6D6" stroke="#FFFFFF" stroke-width="0.5" stroke-miterlimit="10" width="3.829" height="3.83"/>
	
		<rect x="87.87" y="51.554" fill="#D6D6D6" stroke="#FFFFFF" stroke-width="0.5" stroke-miterlimit="10" width="3.829" height="3.83"/>
	
		<rect x="91.699" y="9.428" fill="#D6D6D6" stroke="#FFFFFF" stroke-width="0.5" stroke-miterlimit="10" width="3.828" height="3.83"/>
	
		<rect x="91.699" y="13.258" fill="#D6D6D6" stroke="#FFFFFF" stroke-width="0.5" stroke-miterlimit="10" width="3.828" height="3.83"/>
	
		<rect x="91.699" y="17.087" fill="#D6D6D6" stroke="#FFFFFF" stroke-width="0.5" stroke-miterlimit="10" width="3.828" height="3.83"/>
	
		<rect x="91.699" y="20.917" fill="#D6D6D6" stroke="#FFFFFF" stroke-width="0.5" stroke-miterlimit="10" width="3.828" height="3.83"/>
	
		<rect x="91.699" y="24.747" fill="#D6D6D6" stroke="#FFFFFF" stroke-width="0.5" stroke-miterlimit="10" width="3.828" height="3.83"/>
	
		<rect x="91.699" y="28.576" fill="#D6D6D6" stroke="#FFFFFF" stroke-width="0.5" stroke-miterlimit="10" width="3.828" height="3.83"/>
	
		<rect x="91.699" y="32.406" fill="#D6D6D6" stroke="#FFFFFF" stroke-width="0.5" stroke-miterlimit="10" width="3.828" height="3.83"/>
	
		<rect x="91.699" y="36.235" fill="#D6D6D6" stroke="#FFFFFF" stroke-width="0.5" stroke-miterlimit="10" width="3.828" height="3.83"/>
	
		<rect x="91.699" y="40.065" fill="#D6D6D6" stroke="#FFFFFF" stroke-width="0.5" stroke-miterlimit="10" width="3.828" height="3.83"/>
	
		<rect x="91.699" y="43.895" fill="#D6D6D6" stroke="#FFFFFF" stroke-width="0.5" stroke-miterlimit="10" width="3.828" height="3.83"/>
	
		<rect x="91.699" y="47.724" fill="#D6D6D6" stroke="#FFFFFF" stroke-width="0.5" stroke-miterlimit="10" width="3.828" height="3.83"/>
	
		<rect x="91.699" y="51.554" fill="#D6D6D6" stroke="#FFFFFF" stroke-width="0.5" stroke-miterlimit="10" width="3.828" height="3.83"/>
	
		<rect x="95.528" y="9.428" fill="#D6D6D6" stroke="#FFFFFF" stroke-width="0.5" stroke-miterlimit="10" width="3.83" height="3.83"/>
	
		<rect x="95.528" y="13.258" fill="#D6D6D6" stroke="#FFFFFF" stroke-width="0.5" stroke-miterlimit="10" width="3.83" height="3.83"/>
	
		<rect x="95.528" y="17.087" fill="#D6D6D6" stroke="#FFFFFF" stroke-width="0.5" stroke-miterlimit="10" width="3.83" height="3.83"/>
	
		<rect x="95.528" y="20.917" fill="#D6D6D6" stroke="#FFFFFF" stroke-width="0.5" stroke-miterlimit="10" width="3.83" height="3.83"/>
	
		<rect x="95.528" y="24.747" fill="#D6D6D6" stroke="#FFFFFF" stroke-width="0.5" stroke-miterlimit="10" width="3.83" height="3.83"/>
	
		<rect x="95.528" y="28.576" fill="#D6D6D6" stroke="#FFFFFF" stroke-width="0.5" stroke-miterlimit="10" width="3.83" height="3.83"/>
	
		<rect x="95.528" y="32.406" fill="#D6D6D6" stroke="#FFFFFF" stroke-width="0.5" stroke-miterlimit="10" width="3.83" height="3.83"/>
	
		<rect x="95.528" y="36.235" fill="#D6D6D6" stroke="#FFFFFF" stroke-width="0.5" stroke-miterlimit="10" width="3.83" height="3.83"/>
	
		<rect x="95.528" y="40.065" fill="#D6D6D6" stroke="#FFFFFF" stroke-width="0.5" stroke-miterlimit="10" width="3.83" height="3.83"/>
	
		<rect x="95.528" y="43.895" fill="#D6D6D6" stroke="#FFFFFF" stroke-width="0.5" stroke-miterlimit="10" width="3.83" height="3.83"/>
	
		<rect x="95.528" y="47.724" fill="#D6D6D6" stroke="#FFFFFF" stroke-width="0.5" stroke-miterlimit="10" width="3.83" height="3.83"/>
	
		<rect x="95.528" y="51.554" fill="#D6D6D6" stroke="#FFFFFF" stroke-width="0.5" stroke-miterlimit="10" width="3.83" height="3.83"/>
	
		<rect x="99.358" y="9.428" fill="#D6D6D6" stroke="#FFFFFF" stroke-width="0.5" stroke-miterlimit="10" width="3.83" height="3.83"/>
	
		<rect x="99.358" y="13.258" fill="#D6D6D6" stroke="#FFFFFF" stroke-width="0.5" stroke-miterlimit="10" width="3.83" height="3.83"/>
	
		<rect x="99.358" y="17.087" fill="#D6D6D6" stroke="#FFFFFF" stroke-width="0.5" stroke-miterlimit="10" width="3.83" height="3.83"/>
	
		<rect x="99.358" y="20.917" fill="#D6D6D6" stroke="#FFFFFF" stroke-width="0.5" stroke-miterlimit="10" width="3.83" height="3.83"/>
	
		<rect x="99.358" y="24.747" fill="#D6D6D6" stroke="#FFFFFF" stroke-width="0.5" stroke-miterlimit="10" width="3.83" height="3.83"/>
	
		<rect x="99.358" y="28.576" fill="#D6D6D6" stroke="#FFFFFF" stroke-width="0.5" stroke-miterlimit="10" width="3.83" height="3.83"/>
	
		<rect x="99.358" y="32.406" fill="#D6D6D6" stroke="#FFFFFF" stroke-width="0.5" stroke-miterlimit="10" width="3.83" height="3.83"/>
	
		<rect x="99.358" y="36.235" fill="#D6D6D6" stroke="#FFFFFF" stroke-width="0.5" stroke-miterlimit="10" width="3.83" height="3.83"/>
	
		<rect x="99.358" y="40.065" fill="#D6D6D6" stroke="#FFFFFF" stroke-width="0.5" stroke-miterlimit="10" width="3.83" height="3.83"/>
	
		<rect x="99.358" y="43.895" fill="#D6D6D6" stroke="#FFFFFF" stroke-width="0.5" stroke-miterlimit="10" width="3.83" height="3.83"/>
	
		<rect x="99.358" y="47.724" fill="#D6D6D6" stroke="#FFFFFF" stroke-width="0.5" stroke-miterlimit="10" width="3.83" height="3.83"/>
	
		<rect x="99.358" y="51.554" fill="#D6D6D6" stroke="#FFFFFF" stroke-width="0.5" stroke-miterlimit="10" width="3.83" height="3.83"/>
	<line fill="none" stroke="#666766" stroke-width="0.5" stroke-miterlimit="10" x1="57.493" y1="9.688" x2="102.924" y2="55.121"/>
</g>
<g>
	<g>
		<line fill="none" stroke="#D8D8D8" stroke-miterlimit="10" x1="50.341" y1="83.256" x2="104.981" y2="83.256"/>
		<g>
			<polygon fill="#D8D8D8" points="107.805,83.256 103.825,84.882 104.77,83.256 103.825,81.63 			"/>
		</g>
	</g>
</g>
<g>
	<g>
		<line fill="none" stroke="#D8D8D8" stroke-miterlimit="10" x1="50.341" y1="89.836" x2="104.981" y2="89.836"/>
		<g>
			<polygon fill="#D8D8D8" points="107.805,89.836 103.825,91.462 104.77,89.836 103.825,88.21 			"/>
		</g>
	</g>
</g>
<g>
	<g>
		<line fill="none" stroke="#D8D8D8" stroke-miterlimit="10" x1="50.341" y1="96.734" x2="104.981" y2="96.734"/>
		<g>
			<polygon fill="#D8D8D8" points="107.805,96.734 103.825,98.361 104.77,96.734 103.825,95.109 			"/>
		</g>
	</g>
</g>
<g>
	<g>
		<line fill="none" stroke="#D8D8D8" stroke-miterlimit="10" x1="50.341" y1="103.096" x2="104.981" y2="103.096"/>
		<g>
			<polygon fill="#D8D8D8" points="107.805,103.096 103.825,104.723 104.77,103.096 103.825,101.471 			"/>
		</g>
	</g>
</g>
<rect x="57.567" y="81.085" fill="#DDDA83" width="23.628" height="4.342"/>
<rect x="65.641" y="87.666" fill="#DDDA83" width="23.628" height="4.342"/>
<rect x="62.032" y="94.564" fill="#DDDA83" width="6.041" height="4.342"/>
<rect x="68.268" y="94.564" fill="#97D09B" width="16.992" height="4.342"/>
<rect x="73.854" y="100.926" fill="#97D09B" width="5.909" height="4.342"/>
<rect x="95.561" y="100.926" fill="#C694C3" width="5.909" height="4.342"/>
<circle fill="#6C95CE" stroke="#FFFFFF" stroke-width="0.5" stroke-miterlimit="10" cx="62.032" cy="83.256" r="2.5"/>
<circle fill="#6C95CE" stroke="#FFFFFF" stroke-width="0.5" stroke-miterlimit="10" cx="81.961" cy="89.473" r="2.5"/>
<circle fill="#6C95CE" stroke="#FFFFFF" stroke-width="0.5" stroke-miterlimit="10" cx="74.586" cy="96.361" r="2.5"/>
<circle fill="#6C95CE" stroke="#FFFFFF" stroke-width="0.5" stroke-miterlimit="10" cx="100.825" cy="103" r="2.5"/>
</svg>
