<?xml version="1.0" encoding="utf-8"?>
<!-- Generator: Adobe Illustrator 16.0.3, SVG Export Plug-In . SVG Version: 6.00 Build 0)  -->
<!DOCTYPE svg PUBLIC "-//W3C//DTD SVG 1.1//EN" "http://www.w3.org/Graphics/SVG/1.1/DTD/svg11.dtd">
<svg version="1.1" id="Layer_1" xmlns="http://www.w3.org/2000/svg" xmlns:xlink="http://www.w3.org/1999/xlink" x="0px" y="0px"
	 width="384.742px" height="80.479px" viewBox="0 0 384.742 80.479" enable-background="new 0 0 384.742 80.479"
	 xml:space="preserve">
<g>
	<path fill="#F1F1F1" d="M162.822,64.65c0-3.894,14.594-9.082,22.65-11.806c3.763-1.272,8.201-3.055,11.865-4.987v-0.006
		c4.279,2.188,7.349,4.711,7.349,7.717c0,5.303-3.177,6.356-4.556,7.785c0,0-13.839,6.576-14.08,6.657L162.822,64.65z"/>
	<path fill="#F1F1F1" d="M197.337,47.835c4.181-2.207,7.349-4.612,7.349-6.686c0-3.892-4.336-4.674-19.212-10.125
		c-7.854-2.876-14.325-4.994-18.685-7.441l0,0c-3.689,2.226-6.104,4.431-6.104,6.275c0,4.281,9.297,7.791,19.211,11.291
		c5.412,1.908,12.3,4.051,17.443,6.68L197.337,47.835L197.337,47.835z"/>
	<path fill="#F1F1F1" d="M166.788,23.584c-3.896-2.187-6.104-4.637-6.104-8.127c0-7.396,24.789-14.938,24.789-14.938l19.212,7.151
		c0,0-7.438,3.894-19.212,7.785C178.769,17.674,171.664,20.645,166.788,23.584z"/>
</g>
<linearGradient id="SVGID_1_" gradientUnits="userSpaceOnUse" x1="168.6543" y1="56.8601" x2="205.7702" y2="41.4382" gradientTransform="matrix(1 0 0 -1 0 81.478)">
	<stop  offset="0" style="stop-color:#333333"/>
	<stop  offset="0.0655" style="stop-color:#565353"/>
	<stop  offset="0.1433" style="stop-color:#827E7E"/>
	<stop  offset="0.2188" style="stop-color:#ABA8A8"/>
	<stop  offset="0.2901" style="stop-color:#CCCBCB"/>
	<stop  offset="0.3557" style="stop-color:#E4E3E3"/>
	<stop  offset="0.41" style="stop-color:#EEEEEE"/>
	<stop  offset="0.4881" style="stop-color:#E3E3E3"/>
	<stop  offset="0.5825" style="stop-color:#CCCBCB"/>
	<stop  offset="0.6853" style="stop-color:#ABA8A8"/>
	<stop  offset="0.794" style="stop-color:#827E7E"/>
	<stop  offset="0.9062" style="stop-color:#565353"/>
	<stop  offset="1" style="stop-color:#333333"/>
</linearGradient>
<path fill="none" stroke="url(#SVGID_1_)" stroke-width="1.2" stroke-miterlimit="10" d="M168.688,24.625
	c4.251,2.053,10.003,3.972,16.786,6.455c14.874,5.449,19.211,6.236,19.211,10.125"/>
<linearGradient id="SVGID_2_" gradientUnits="userSpaceOnUse" x1="168.688" y1="56.8533" x2="168.688" y2="56.8533" gradientTransform="matrix(1 0 0 -1 0 81.478)">
	<stop  offset="0" style="stop-color:#333333"/>
	<stop  offset="0.0655" style="stop-color:#565353"/>
	<stop  offset="0.1433" style="stop-color:#827E7E"/>
	<stop  offset="0.2188" style="stop-color:#ABA8A8"/>
	<stop  offset="0.2901" style="stop-color:#CCCBCB"/>
	<stop  offset="0.3557" style="stop-color:#E4E3E3"/>
	<stop  offset="0.41" style="stop-color:#EEEEEE"/>
	<stop  offset="0.4881" style="stop-color:#E3E3E3"/>
	<stop  offset="0.5825" style="stop-color:#CCCBCB"/>
	<stop  offset="0.6853" style="stop-color:#ABA8A8"/>
	<stop  offset="0.794" style="stop-color:#827E7E"/>
	<stop  offset="0.9062" style="stop-color:#565353"/>
	<stop  offset="1" style="stop-color:#333333"/>
</linearGradient>
<path fill="none" stroke="url(#SVGID_2_)" stroke-width="1.2" stroke-miterlimit="10" d="M168.688,24.625"/>
<linearGradient id="SVGID_3_" gradientUnits="userSpaceOnUse" x1="164.7988" y1="60.0857" x2="164.7988" y2="60.0857" gradientTransform="matrix(1 0 0 -1 0 81.478)">
	<stop  offset="0" style="stop-color:#333333"/>
	<stop  offset="0.0655" style="stop-color:#565353"/>
	<stop  offset="0.1433" style="stop-color:#827E7E"/>
	<stop  offset="0.2188" style="stop-color:#ABA8A8"/>
	<stop  offset="0.2901" style="stop-color:#CCCBCB"/>
	<stop  offset="0.3557" style="stop-color:#E4E3E3"/>
	<stop  offset="0.41" style="stop-color:#EEEEEE"/>
	<stop  offset="0.4881" style="stop-color:#E3E3E3"/>
	<stop  offset="0.5825" style="stop-color:#CCCBCB"/>
	<stop  offset="0.6853" style="stop-color:#ABA8A8"/>
	<stop  offset="0.794" style="stop-color:#827E7E"/>
	<stop  offset="0.9062" style="stop-color:#565353"/>
	<stop  offset="1" style="stop-color:#333333"/>
</linearGradient>
<path fill="none" stroke="url(#SVGID_3_)" stroke-width="1.2" stroke-miterlimit="10" d="M164.799,21.392"/>
<path fill="none" stroke="#333333" stroke-width="1.2" stroke-miterlimit="10" d="M160.685,14.512c0,2.844,1.465,4.995,4.114,6.88"
	/>
<circle fill="#ECECEC" cx="303.932" cy="35.935" r="32.119"/>
<circle fill="none" stroke="#FFFFFF" stroke-miterlimit="10" cx="303.932" cy="35.935" r="21.959"/>
<circle fill="none" stroke="#FFFFFF" stroke-miterlimit="10" cx="303.932" cy="35.935" r="10.723"/>
<g enable-background="new    ">
	<path fill="#808285" d="M296.732,49.972l0.354,1.229l0.391-1.229h0.582v2.844h-0.441V51.84l0.027-1.246l-0.438,1.363h-0.246
		l-0.396-1.316l0.027,1.199v0.977h-0.441v-2.844H296.732z"/>
	<path fill="#808285" d="M299.531,51.707h-0.477v1.109h-0.469v-2.844h0.898c0.146,0.001,0.279,0.02,0.402,0.056
		s0.23,0.089,0.32,0.16s0.159,0.16,0.209,0.267c0.049,0.106,0.074,0.231,0.074,0.375c0,0.097-0.014,0.184-0.039,0.263
		s-0.061,0.15-0.105,0.214c-0.046,0.063-0.101,0.12-0.164,0.168c-0.064,0.048-0.135,0.089-0.211,0.123l0.602,1.195v0.023h-0.5
		L299.531,51.707z M299.055,51.328h0.432c0.078,0,0.149-0.011,0.215-0.033c0.064-0.022,0.121-0.054,0.168-0.095
		c0.048-0.041,0.085-0.091,0.111-0.15c0.025-0.06,0.039-0.127,0.039-0.204c0-0.079-0.013-0.149-0.037-0.211
		c-0.025-0.062-0.061-0.112-0.107-0.154c-0.046-0.042-0.102-0.073-0.168-0.095s-0.141-0.033-0.223-0.034h-0.43V51.328z"/>
	<path fill="#808285" d="M302.455,52.084c0-0.067-0.015-0.127-0.043-0.179c-0.027-0.052-0.067-0.097-0.119-0.136
		c-0.051-0.039-0.112-0.073-0.184-0.103c-0.07-0.029-0.147-0.057-0.23-0.081c-0.112-0.032-0.223-0.073-0.332-0.121
		c-0.108-0.048-0.205-0.107-0.291-0.177c-0.085-0.069-0.154-0.151-0.207-0.244s-0.078-0.201-0.078-0.323s0.025-0.232,0.078-0.329
		s0.124-0.18,0.213-0.247c0.088-0.067,0.191-0.12,0.309-0.156s0.239-0.055,0.367-0.055c0.137,0,0.264,0.021,0.383,0.063
		s0.224,0.102,0.312,0.178c0.09,0.076,0.16,0.167,0.213,0.273c0.052,0.106,0.078,0.224,0.08,0.353h-0.469
		c-0.007-0.071-0.022-0.137-0.047-0.196c-0.023-0.06-0.058-0.11-0.102-0.153c-0.043-0.043-0.096-0.076-0.158-0.1
		s-0.135-0.035-0.217-0.035c-0.07,0-0.136,0.009-0.195,0.027c-0.061,0.019-0.112,0.045-0.156,0.08
		c-0.043,0.035-0.077,0.077-0.102,0.127c-0.025,0.05-0.037,0.105-0.037,0.168c0,0.066,0.017,0.124,0.051,0.173
		c0.033,0.049,0.078,0.092,0.133,0.128s0.117,0.068,0.188,0.095c0.071,0.026,0.146,0.051,0.223,0.073
		c0.118,0.035,0.231,0.078,0.34,0.13c0.107,0.052,0.203,0.113,0.285,0.186s0.146,0.156,0.195,0.251
		c0.048,0.095,0.072,0.204,0.072,0.326c0,0.126-0.027,0.237-0.08,0.334c-0.054,0.097-0.125,0.177-0.215,0.242
		s-0.194,0.114-0.312,0.147c-0.119,0.033-0.242,0.05-0.371,0.05c-0.088,0-0.174-0.009-0.26-0.025s-0.169-0.042-0.248-0.076
		c-0.078-0.034-0.151-0.076-0.219-0.126c-0.068-0.05-0.127-0.108-0.178-0.174c-0.05-0.065-0.089-0.14-0.117-0.221
		c-0.029-0.081-0.044-0.171-0.045-0.269h0.471c0.006,0.086,0.025,0.161,0.057,0.225s0.072,0.117,0.125,0.159
		c0.052,0.042,0.112,0.074,0.182,0.096c0.07,0.021,0.147,0.032,0.232,0.032c0.07,0,0.136-0.009,0.197-0.025
		c0.061-0.017,0.114-0.042,0.16-0.075c0.045-0.033,0.081-0.074,0.107-0.123C302.441,52.202,302.455,52.146,302.455,52.084z"/>
	<path fill="#808285" d="M304.758,52.156h-0.889l-0.195,0.66h-0.484l0.924-2.844h0.412l0.906,2.844h-0.482L304.758,52.156z
		 M303.988,51.756h0.652l-0.322-1.115L303.988,51.756z"/>
</g>
<g enable-background="new    ">
	<path fill="#808285" d="M298.016,55.734c0,0.184-0.021,0.346-0.064,0.485c-0.042,0.14-0.103,0.257-0.182,0.352
		c-0.08,0.095-0.177,0.166-0.291,0.214c-0.115,0.048-0.244,0.072-0.387,0.072s-0.271-0.024-0.385-0.072
		c-0.115-0.048-0.213-0.119-0.293-0.214s-0.142-0.212-0.186-0.352c-0.043-0.14-0.064-0.302-0.064-0.485v-0.68
		c0-0.184,0.021-0.346,0.064-0.485s0.104-0.257,0.184-0.352s0.178-0.166,0.291-0.214c0.114-0.048,0.242-0.072,0.385-0.072
		s0.271,0.024,0.387,0.072c0.114,0.048,0.211,0.119,0.291,0.214s0.143,0.212,0.186,0.352s0.064,0.302,0.064,0.485V55.734z
		 M296.633,55.556l0.91-0.678c-0.011-0.194-0.054-0.338-0.129-0.431c-0.074-0.093-0.184-0.14-0.326-0.14
		c-0.152,0-0.267,0.054-0.342,0.162c-0.076,0.108-0.113,0.274-0.113,0.498V55.556z M297.547,55.246l-0.91,0.678
		c0.023,0.372,0.175,0.559,0.455,0.559c0.303,0,0.455-0.222,0.455-0.666V55.246z"/>
	<path fill="#808285" d="M298.668,55.406l0.154-1.434h1.521v0.418h-1.135l-0.072,0.674c0.045-0.026,0.105-0.052,0.182-0.076
		c0.075-0.024,0.162-0.037,0.262-0.037c0.134,0,0.254,0.022,0.359,0.066c0.106,0.044,0.196,0.107,0.27,0.19
		c0.072,0.083,0.129,0.183,0.168,0.301s0.059,0.251,0.059,0.399c0,0.132-0.02,0.255-0.057,0.37s-0.094,0.216-0.17,0.301
		s-0.172,0.152-0.287,0.202c-0.116,0.05-0.253,0.074-0.41,0.074c-0.119,0-0.232-0.018-0.342-0.052
		c-0.108-0.034-0.205-0.085-0.289-0.152c-0.085-0.067-0.154-0.15-0.209-0.251c-0.054-0.101-0.084-0.217-0.092-0.35h0.451
		c0.018,0.141,0.069,0.248,0.154,0.321c0.084,0.073,0.193,0.11,0.326,0.11c0.076,0,0.144-0.015,0.201-0.043
		c0.057-0.028,0.104-0.068,0.143-0.12c0.037-0.052,0.065-0.113,0.084-0.186c0.02-0.072,0.029-0.151,0.029-0.237
		c0-0.082-0.012-0.157-0.033-0.227s-0.053-0.129-0.096-0.179s-0.097-0.09-0.16-0.118c-0.064-0.028-0.138-0.043-0.221-0.043
		c-0.057,0-0.104,0.004-0.145,0.013c-0.041,0.009-0.077,0.021-0.109,0.035c-0.031,0.015-0.061,0.033-0.086,0.054
		c-0.026,0.021-0.053,0.043-0.078,0.066L298.668,55.406z"/>
	<path fill="#808285" d="M302.803,56.816h-1.91v-0.322l0.926-1.01c0.078-0.087,0.143-0.164,0.195-0.231s0.096-0.129,0.127-0.185
		s0.053-0.108,0.066-0.156c0.013-0.048,0.02-0.097,0.02-0.146c0-0.065-0.011-0.125-0.031-0.181c-0.02-0.056-0.049-0.103-0.086-0.143
		s-0.082-0.07-0.135-0.093s-0.111-0.033-0.176-0.033c-0.17,0-0.295,0.046-0.375,0.139s-0.119,0.22-0.119,0.383h-0.469
		c0-0.124,0.021-0.24,0.066-0.351s0.109-0.206,0.193-0.288s0.187-0.146,0.307-0.194c0.119-0.048,0.254-0.071,0.404-0.071
		c0.141,0,0.266,0.021,0.375,0.061s0.201,0.097,0.277,0.169c0.075,0.072,0.133,0.158,0.172,0.257s0.059,0.208,0.059,0.326
		c0,0.089-0.015,0.174-0.043,0.257c-0.029,0.083-0.068,0.165-0.119,0.247s-0.111,0.164-0.182,0.247s-0.146,0.168-0.229,0.255
		l-0.645,0.691h1.33V56.816z"/>
	<path fill="#808285" d="M304.057,55.418c0-0.036,0.006-0.07,0.018-0.103c0.013-0.032,0.03-0.06,0.053-0.083
		c0.023-0.023,0.052-0.042,0.086-0.055c0.033-0.013,0.072-0.02,0.115-0.02s0.081,0.007,0.115,0.02
		c0.033,0.013,0.062,0.031,0.086,0.055s0.041,0.051,0.053,0.083c0.013,0.032,0.02,0.066,0.02,0.103s-0.007,0.07-0.02,0.102
		c-0.012,0.031-0.029,0.059-0.053,0.082s-0.053,0.042-0.086,0.055c-0.034,0.013-0.072,0.02-0.115,0.02s-0.082-0.007-0.115-0.02
		c-0.034-0.013-0.062-0.031-0.086-0.055c-0.022-0.023-0.04-0.051-0.053-0.082C304.062,55.488,304.057,55.454,304.057,55.418z"/>
	<path fill="#808285" d="M307.055,56.816h-0.471v-2.268l-0.727,0.266v-0.41l1.168-0.432h0.029V56.816z"/>
	<path fill="#808285" d="M310.018,55.734c0,0.184-0.021,0.346-0.064,0.485c-0.042,0.14-0.103,0.257-0.182,0.352
		c-0.08,0.095-0.177,0.166-0.291,0.214c-0.115,0.048-0.244,0.072-0.387,0.072s-0.271-0.024-0.385-0.072
		c-0.115-0.048-0.213-0.119-0.293-0.214s-0.142-0.212-0.186-0.352c-0.043-0.14-0.064-0.302-0.064-0.485v-0.68
		c0-0.184,0.021-0.346,0.064-0.485s0.104-0.257,0.184-0.352s0.178-0.166,0.291-0.214c0.114-0.048,0.242-0.072,0.385-0.072
		s0.271,0.024,0.387,0.072c0.114,0.048,0.211,0.119,0.291,0.214s0.143,0.212,0.186,0.352s0.064,0.302,0.064,0.485V55.734z
		 M308.635,55.556l0.91-0.678c-0.011-0.194-0.054-0.338-0.129-0.431c-0.074-0.093-0.184-0.14-0.326-0.14
		c-0.152,0-0.267,0.054-0.342,0.162c-0.076,0.108-0.113,0.274-0.113,0.498V55.556z M309.549,55.246l-0.91,0.678
		c0.023,0.372,0.175,0.559,0.455,0.559c0.303,0,0.455-0.222,0.455-0.666V55.246z"/>
	<path fill="#808285" d="M310.67,55.406l0.154-1.434h1.521v0.418h-1.135l-0.072,0.674c0.045-0.026,0.105-0.052,0.182-0.076
		c0.075-0.024,0.162-0.037,0.262-0.037c0.134,0,0.254,0.022,0.359,0.066c0.106,0.044,0.196,0.107,0.27,0.19
		c0.072,0.083,0.129,0.183,0.168,0.301s0.059,0.251,0.059,0.399c0,0.132-0.02,0.255-0.057,0.37s-0.094,0.216-0.17,0.301
		s-0.172,0.152-0.287,0.202c-0.116,0.05-0.253,0.074-0.41,0.074c-0.119,0-0.232-0.018-0.342-0.052
		c-0.108-0.034-0.205-0.085-0.289-0.152c-0.085-0.067-0.154-0.15-0.209-0.251c-0.054-0.101-0.084-0.217-0.092-0.35h0.451
		c0.018,0.141,0.069,0.248,0.154,0.321c0.084,0.073,0.193,0.11,0.326,0.11c0.076,0,0.144-0.015,0.201-0.043
		c0.057-0.028,0.104-0.068,0.143-0.12c0.037-0.052,0.065-0.113,0.084-0.186c0.02-0.072,0.029-0.151,0.029-0.237
		c0-0.082-0.012-0.157-0.033-0.227s-0.053-0.129-0.096-0.179s-0.097-0.09-0.16-0.118c-0.064-0.028-0.138-0.043-0.221-0.043
		c-0.057,0-0.104,0.004-0.145,0.013c-0.041,0.009-0.077,0.021-0.109,0.035c-0.031,0.015-0.061,0.033-0.086,0.054
		c-0.026,0.021-0.053,0.043-0.078,0.066L310.67,55.406z"/>
</g>
<g>
	<path fill="#F47E20" d="M320.335,29.312c-0.222-0.869-1.114-1.399-1.984-1.177l-3.384,0.863c-0.729,0.187-1.215,0.842-1.226,1.561
		c-0.025-0.036-0.049-0.074-0.075-0.116c-0.11-0.186-0.25-0.415-0.623-0.554c-0.374-0.14-0.63-0.056-0.835,0.012
		c-0.172,0.057-0.296,0.098-0.506,0.02c-0.212-0.079-0.279-0.19-0.373-0.346c-0.111-0.184-0.25-0.415-0.623-0.553
		c-0.129-0.047-0.272,0.018-0.319,0.146c-0.019,0.049-0.02,0.101-0.008,0.147c0.021,0.076,0.075,0.142,0.153,0.172
		c0.212,0.078,0.278,0.188,0.373,0.344c0.11,0.187,0.251,0.416,0.623,0.553c0.374,0.141,0.629,0.057,0.834-0.012
		c0.172-0.056,0.297-0.097,0.508-0.018c0.178,0.065,0.254,0.156,0.33,0.276c-0.16-0.039-0.353-0.053-0.599,0.012
		c-0.406,0.104-0.584,0.316-0.726,0.488c-0.126,0.152-0.215,0.263-0.466,0.326c-0.249,0.063-0.381,0.01-0.563-0.062
		c-0.208-0.084-0.466-0.188-0.872-0.083c-0.132,0.034-0.213,0.169-0.179,0.301c0.033,0.134,0.169,0.214,0.302,0.18
		c0.249-0.062,0.383-0.011,0.563,0.062c0.208,0.084,0.465,0.188,0.872,0.084c0.407-0.104,0.584-0.318,0.725-0.49
		c0.125-0.152,0.216-0.262,0.466-0.326c0.188-0.048,0.311-0.029,0.437,0.015c-0.079,0.05-0.158,0.114-0.237,0.209
		c-0.243,0.289-0.238,0.552-0.233,0.762c0.002,0.171,0.005,0.285-0.12,0.434c-0.125,0.149-0.237,0.166-0.406,0.193
		c-0.207,0.034-0.465,0.076-0.708,0.365c-0.053,0.063-0.068,0.146-0.05,0.221c0.012,0.049,0.039,0.094,0.081,0.129
		c0.104,0.088,0.261,0.074,0.349-0.031c0.124-0.147,0.237-0.166,0.407-0.192c0.207-0.033,0.464-0.076,0.707-0.365
		s0.239-0.551,0.233-0.761c-0.002-0.174-0.003-0.286,0.121-0.436c0.123-0.147,0.236-0.166,0.405-0.192
		c0.08-0.013,0.168-0.027,0.259-0.058c0.361,0.605,1.092,0.933,1.806,0.748l3.385-0.863
		C320.028,31.076,320.557,30.182,320.335,29.312z"/>
</g>
<g enable-background="new    ">
	<path fill="#808285" d="M320.764,34.982c-0.014,0.137-0.046,0.262-0.098,0.374c-0.053,0.112-0.121,0.209-0.207,0.289
		s-0.188,0.142-0.305,0.186c-0.116,0.044-0.246,0.065-0.389,0.065c-0.174,0-0.324-0.033-0.453-0.101s-0.236-0.158-0.322-0.272
		s-0.15-0.249-0.193-0.402s-0.065-0.317-0.066-0.492V34.24c0.001-0.173,0.023-0.337,0.068-0.491
		c0.044-0.154,0.109-0.289,0.195-0.404c0.087-0.115,0.195-0.206,0.324-0.273s0.278-0.101,0.449-0.101c0.149,0,0.283,0.022,0.4,0.066
		s0.217,0.106,0.301,0.188c0.083,0.081,0.149,0.179,0.199,0.295c0.049,0.116,0.081,0.245,0.096,0.387h-0.469
		c-0.008-0.083-0.024-0.159-0.049-0.228c-0.023-0.068-0.057-0.127-0.098-0.176c-0.042-0.049-0.095-0.086-0.158-0.112
		c-0.062-0.026-0.137-0.039-0.223-0.039c-0.105,0-0.194,0.024-0.266,0.072c-0.072,0.048-0.13,0.113-0.174,0.194
		c-0.045,0.081-0.076,0.176-0.096,0.282c-0.019,0.106-0.027,0.219-0.027,0.336v0.393c0,0.122,0.009,0.237,0.027,0.345
		c0.02,0.107,0.051,0.201,0.094,0.282s0.1,0.145,0.172,0.191c0.071,0.047,0.16,0.07,0.268,0.07c0.164,0,0.289-0.047,0.375-0.14
		s0.137-0.225,0.152-0.396H320.764z"/>
	<path fill="#808285" d="M321.221,35.855v-2.844h0.695c0.195,0.001,0.37,0.034,0.525,0.098c0.156,0.063,0.288,0.153,0.396,0.27
		c0.109,0.116,0.193,0.254,0.252,0.415s0.088,0.339,0.09,0.534v0.215c-0.002,0.195-0.031,0.373-0.09,0.534s-0.143,0.299-0.25,0.414
		c-0.108,0.115-0.239,0.205-0.393,0.269c-0.154,0.063-0.326,0.096-0.518,0.096H321.221z M321.697,33.39v2.088h0.232
		c0.129-0.001,0.241-0.024,0.338-0.069c0.096-0.045,0.176-0.108,0.24-0.189s0.113-0.18,0.145-0.294
		c0.032-0.114,0.049-0.242,0.051-0.383v-0.219c-0.002-0.137-0.019-0.262-0.051-0.375c-0.031-0.113-0.08-0.211-0.145-0.294
		c-0.065-0.083-0.147-0.147-0.246-0.193c-0.098-0.046-0.213-0.07-0.346-0.071H321.697z"/>
	<path fill="#808285" d="M323.707,33.011h1.691V33.4h-0.615v2.068h0.615v0.387h-1.691v-0.387h0.602V33.4h-0.602V33.011z"/>
	<path fill="#808285" d="M327.748,34.644h-1.193v1.211h-0.473v-2.844h1.842v0.387h-1.369v0.861h1.193V34.644z"/>
	<path fill="#808285" d="M330.148,34.644h-1.193v1.211h-0.473v-2.844h1.842v0.387h-1.369v0.861h1.193V34.644z"/>
</g>
<g enable-background="new    ">
	<path fill="#808285" d="M318.934,38.445l0.154-1.434h1.521v0.418h-1.135l-0.072,0.674c0.045-0.026,0.105-0.052,0.182-0.076
		c0.075-0.024,0.162-0.037,0.262-0.037c0.134,0,0.254,0.022,0.359,0.066c0.106,0.044,0.196,0.107,0.27,0.19
		c0.072,0.083,0.129,0.183,0.168,0.301s0.059,0.251,0.059,0.399c0,0.132-0.02,0.255-0.057,0.37s-0.094,0.216-0.17,0.301
		s-0.172,0.152-0.287,0.202c-0.116,0.05-0.253,0.074-0.41,0.074c-0.119,0-0.232-0.018-0.342-0.052
		c-0.108-0.034-0.205-0.085-0.289-0.152c-0.085-0.067-0.154-0.15-0.209-0.251c-0.054-0.101-0.084-0.217-0.092-0.35h0.451
		c0.018,0.141,0.069,0.248,0.154,0.321c0.084,0.073,0.193,0.11,0.326,0.11c0.076,0,0.144-0.015,0.201-0.043
		c0.057-0.028,0.104-0.068,0.143-0.12c0.037-0.052,0.065-0.113,0.084-0.186c0.02-0.072,0.029-0.151,0.029-0.237
		c0-0.082-0.012-0.157-0.033-0.227s-0.053-0.129-0.096-0.179s-0.097-0.09-0.16-0.118c-0.064-0.028-0.138-0.043-0.221-0.043
		c-0.057,0-0.104,0.004-0.145,0.013c-0.041,0.009-0.077,0.021-0.109,0.035c-0.031,0.015-0.061,0.033-0.086,0.054
		c-0.026,0.021-0.053,0.043-0.078,0.066L318.934,38.445z"/>
	<path fill="#808285" d="M323.082,38.773c0,0.184-0.021,0.346-0.064,0.485c-0.042,0.14-0.103,0.257-0.182,0.352
		c-0.08,0.095-0.177,0.166-0.291,0.214c-0.115,0.048-0.244,0.072-0.387,0.072s-0.271-0.024-0.385-0.072
		c-0.115-0.048-0.213-0.119-0.293-0.214s-0.142-0.212-0.186-0.352c-0.043-0.14-0.064-0.302-0.064-0.485v-0.68
		c0-0.184,0.021-0.346,0.064-0.485s0.104-0.257,0.184-0.352s0.178-0.166,0.291-0.214c0.114-0.048,0.242-0.072,0.385-0.072
		s0.271,0.024,0.387,0.072c0.114,0.048,0.211,0.119,0.291,0.214s0.143,0.212,0.186,0.352s0.064,0.302,0.064,0.485V38.773z
		 M321.699,38.595l0.91-0.678c-0.011-0.194-0.054-0.338-0.129-0.431c-0.074-0.093-0.184-0.14-0.326-0.14
		c-0.152,0-0.267,0.054-0.342,0.162c-0.076,0.108-0.113,0.274-0.113,0.498V38.595z M322.613,38.285l-0.91,0.678
		c0.023,0.372,0.175,0.559,0.455,0.559c0.303,0,0.455-0.222,0.455-0.666V38.285z"/>
	<path fill="#808285" d="M324.322,38.457c0-0.036,0.006-0.07,0.018-0.103c0.013-0.032,0.03-0.06,0.053-0.083
		c0.023-0.023,0.052-0.042,0.086-0.055c0.033-0.013,0.072-0.02,0.115-0.02s0.081,0.007,0.115,0.02
		c0.033,0.013,0.062,0.031,0.086,0.055s0.041,0.051,0.053,0.083c0.013,0.032,0.02,0.066,0.02,0.103s-0.007,0.07-0.02,0.102
		c-0.012,0.031-0.029,0.059-0.053,0.082s-0.053,0.042-0.086,0.055c-0.034,0.013-0.072,0.02-0.115,0.02s-0.082-0.007-0.115-0.02
		c-0.034-0.013-0.062-0.031-0.086-0.055c-0.022-0.023-0.04-0.051-0.053-0.082C324.328,38.527,324.322,38.493,324.322,38.457z"/>
	<path fill="#808285" d="M326.543,38.222h0.279c0.082,0,0.153-0.011,0.215-0.032c0.061-0.021,0.111-0.052,0.152-0.091
		c0.04-0.039,0.07-0.086,0.09-0.14c0.021-0.054,0.031-0.113,0.031-0.179c0-0.138-0.037-0.244-0.109-0.319s-0.181-0.112-0.326-0.112
		c-0.064,0-0.123,0.01-0.178,0.028c-0.054,0.019-0.101,0.046-0.141,0.081c-0.039,0.035-0.07,0.077-0.092,0.127
		c-0.022,0.05-0.033,0.105-0.033,0.168h-0.467c0-0.112,0.021-0.216,0.066-0.311s0.107-0.178,0.188-0.247s0.176-0.124,0.287-0.164
		c0.11-0.04,0.231-0.06,0.363-0.06c0.134,0,0.257,0.018,0.369,0.052c0.111,0.034,0.207,0.086,0.287,0.153
		c0.079,0.067,0.141,0.152,0.186,0.253c0.044,0.101,0.066,0.218,0.066,0.351c0,0.056-0.009,0.113-0.025,0.172
		c-0.018,0.059-0.043,0.115-0.078,0.17c-0.034,0.055-0.078,0.105-0.131,0.153s-0.114,0.088-0.186,0.12
		c0.086,0.03,0.158,0.068,0.217,0.115s0.105,0.1,0.143,0.157c0.036,0.058,0.062,0.12,0.078,0.187s0.023,0.134,0.023,0.203
		c0,0.133-0.024,0.251-0.072,0.355c-0.049,0.104-0.115,0.191-0.201,0.263c-0.085,0.071-0.186,0.125-0.301,0.162
		c-0.116,0.037-0.241,0.056-0.375,0.056c-0.124,0-0.242-0.017-0.354-0.051c-0.112-0.034-0.211-0.084-0.297-0.151
		c-0.085-0.067-0.152-0.15-0.203-0.25s-0.076-0.215-0.076-0.347h0.467c0,0.062,0.011,0.12,0.033,0.173
		c0.021,0.053,0.053,0.098,0.094,0.135s0.091,0.066,0.148,0.087c0.057,0.021,0.121,0.031,0.193,0.031
		c0.148,0,0.265-0.039,0.35-0.118c0.086-0.079,0.129-0.193,0.129-0.343c0-0.082-0.013-0.152-0.037-0.212
		c-0.025-0.06-0.061-0.108-0.107-0.146c-0.046-0.038-0.102-0.066-0.166-0.085c-0.065-0.019-0.139-0.027-0.221-0.027h-0.279V38.222z"
		/>
	<path fill="#808285" d="M328.535,38.445l0.154-1.434h1.521v0.418h-1.135l-0.072,0.674c0.045-0.026,0.105-0.052,0.182-0.076
		c0.075-0.024,0.162-0.037,0.262-0.037c0.134,0,0.254,0.022,0.359,0.066c0.106,0.044,0.196,0.107,0.27,0.19
		c0.072,0.083,0.129,0.183,0.168,0.301s0.059,0.251,0.059,0.399c0,0.132-0.02,0.255-0.057,0.37s-0.094,0.216-0.17,0.301
		s-0.172,0.152-0.287,0.202c-0.116,0.05-0.253,0.074-0.41,0.074c-0.119,0-0.232-0.018-0.342-0.052
		c-0.108-0.034-0.205-0.085-0.289-0.152c-0.085-0.067-0.154-0.15-0.209-0.251c-0.054-0.101-0.084-0.217-0.092-0.35h0.451
		c0.018,0.141,0.069,0.248,0.154,0.321c0.084,0.073,0.193,0.11,0.326,0.11c0.076,0,0.144-0.015,0.201-0.043
		c0.057-0.028,0.104-0.068,0.143-0.12c0.037-0.052,0.065-0.113,0.084-0.186c0.02-0.072,0.029-0.151,0.029-0.237
		c0-0.082-0.012-0.157-0.033-0.227s-0.053-0.129-0.096-0.179s-0.097-0.09-0.16-0.118c-0.064-0.028-0.138-0.043-0.221-0.043
		c-0.057,0-0.104,0.004-0.145,0.013c-0.041,0.009-0.077,0.021-0.109,0.035c-0.031,0.015-0.061,0.033-0.086,0.054
		c-0.026,0.021-0.053,0.043-0.078,0.066L328.535,38.445z"/>
	<path fill="#808285" d="M332.121,39.855h-0.471v-2.268l-0.727,0.266v-0.41l1.168-0.432h0.029V39.855z"/>
</g>
<g>
	<path fill="#D72B28" d="M310.627,33.341"/>
</g>
<g>
	<path fill="#D72B28" d="M305.682,38.283"/>
</g>
<path fill="#D72B28" stroke="#F37E20" stroke-miterlimit="10" stroke-dasharray="1,1.5" d="M303.932,35.935"/>
<path fill="#D72B28" stroke="#F37E20" stroke-miterlimit="10" stroke-dasharray="1,1.5" d="M301.076,42.701"/>
<g>
	
		<line fill="none" stroke="#D72B28" stroke-miterlimit="10" stroke-dasharray="1,1.5" x1="281.041" y1="41.701" x2="286.629" y2="45.282"/>
	<g>
		<circle fill="#D62C28" cx="287.909" cy="44.379" r="1.331"/>
		<circle fill="#D62C28" cx="289.24" cy="46.279" r="1.33"/>
		<circle fill="#D62C28" cx="291.52" cy="44.925" r="1.33"/>
		<circle fill="#D62C28" cx="291.52" cy="47.253" r="1.33"/>
		<circle fill="#D62C28" cx="286.959" cy="47.253" r="1.33"/>
		<circle fill="#D62C28" cx="290.189" cy="49.13" r="1.33"/>
		<circle fill="#D62C28" cx="292.85" cy="49.13" r="1.33"/>
		<circle fill="#D62C28" cx="293.609" cy="46.683" r="1.33"/>
	</g>
</g>
<line fill="none" stroke="#F37E20" stroke-miterlimit="10" stroke-dasharray="1,1.5" x1="316.268" y1="39.367" x2="317.037" y2="31.154"/>
<g>
	
		<linearGradient id="SVGID_4_" gradientUnits="userSpaceOnUse" x1="-193.0063" y1="178.7478" x2="-185.1859" y2="175.4983" gradientTransform="matrix(0.7071 -0.7071 -0.7071 -0.7071 555.9527 12.8665)">
		<stop  offset="0" style="stop-color:#FFFFFF;stop-opacity:0"/>
		<stop  offset="0.8094" style="stop-color:#FFFFFF;stop-opacity:0.7746"/>
		<stop  offset="1" style="stop-color:#FFFFFF"/>
	</linearGradient>
	<path fill="url(#SVGID_4_)" d="M304.002,36.048L302.07,3.736c0,0-7.01,0.099-12.674,3.289c-5.666,3.189-10.844,7.896-10.844,7.896
		L304.002,36.048z"/>
	<line fill="none" stroke="#FFFFFF" stroke-miterlimit="10" x1="304.002" y1="36.047" x2="301.889" y2="4.844"/>
</g>
<g>
	
		<line fill="none" stroke="#2CA048" stroke-miterlimit="10" stroke-dasharray="1,1.5" x1="292.277" y1="14.917" x2="288.697" y2="20.505"/>
	<g>
		<g>
			<path fill="#2DA048" d="M289.775,22.706c-0.381,0-0.689,0.299-0.711,0.677c-0.162,0.076-0.357,0.169-0.485,0.229
				c-0.149-0.355-0.381-0.667-0.671-0.911c0.072-0.11,0.182-0.278,0.252-0.385c0.312-0.004,0.562-0.26,0.562-0.574
				c0-0.318-0.256-0.576-0.57-0.576c-0.313,0-0.569,0.257-0.569,0.576c0,0.155,0.062,0.295,0.16,0.399
				c-0.022,0.106-0.056,0.256-0.081,0.377c-0.398-0.258-0.869-0.389-1.344-0.375c0.011-0.095,0.016-0.203,0.021-0.266
				c0.105-0.073,0.176-0.196,0.176-0.336c0-0.226-0.182-0.408-0.404-0.408s-0.403,0.183-0.403,0.408
				c0,0.156,0.088,0.292,0.217,0.361c0.022,0.069,0.06,0.178,0.089,0.269c-0.401,0.064-0.769,0.23-1.076,0.471
				c-0.088-0.139-0.219-0.333-0.269-0.413c0.019-0.054,0.027-0.109,0.027-0.168c0-0.306-0.245-0.553-0.546-0.553
				c-0.303,0-0.549,0.247-0.549,0.553c0,0.305,0.246,0.552,0.549,0.552c0.061,0,0.119-0.011,0.174-0.03
				c0.1,0.067,0.268,0.18,0.386,0.26c-0.312,0.312-0.535,0.709-0.64,1.154c-0.127-0.053-0.295-0.124-0.348-0.147
				c-0.059-0.205-0.244-0.356-0.467-0.356c-0.267,0-0.482,0.219-0.482,0.489c0,0.27,0.217,0.487,0.482,0.487
				c0.151,0,0.286-0.069,0.375-0.18c0.081,0,0.26,0.001,0.387,0.001c-0.062,0.576,0.084,1.164,0.412,1.643l-0.545,0.16
				c-0.113-0.086-0.254-0.138-0.406-0.138c-0.375,0-0.679,0.308-0.679,0.686s0.304,0.685,0.679,0.685s0.68-0.307,0.68-0.685
				c0-0.004-0.002-0.009-0.002-0.013l0.486-0.429c0.327,0.358,0.762,0.615,1.25,0.719c-0.029,0.112-0.062,0.259-0.08,0.331
				c-0.123,0.065-0.207,0.194-0.207,0.343c0,0.215,0.174,0.389,0.386,0.389s0.383-0.173,0.383-0.389
				c0-0.123-0.058-0.232-0.146-0.304c-0.011-0.072-0.026-0.212-0.041-0.326c0.469,0.04,0.941-0.062,1.353-0.292
				c0.087,0.17,0.226,0.453,0.272,0.545c-0.028,0.067-0.047,0.143-0.047,0.223c0,0.299,0.24,0.542,0.536,0.542
				c0.298,0,0.538-0.243,0.538-0.542c0-0.3-0.24-0.542-0.538-0.542c-0.013,0-0.026,0.001-0.04,0.002
				c-0.146-0.123-0.338-0.285-0.468-0.394c0.334-0.248,0.601-0.581,0.771-0.966c0.08,0.028,0.179,0.062,0.248,0.085
				c0.045,0.194,0.217,0.339,0.424,0.339c0.242,0,0.438-0.196,0.438-0.44s-0.195-0.441-0.438-0.441c-0.14,0-0.264,0.066-0.344,0.169
				c-0.062,0.001-0.148,0.002-0.224,0.003c0.13-0.438,0.135-0.912,0.011-1.353c0.156-0.007,0.373-0.021,0.536-0.03
				c0.132,0.168,0.334,0.276,0.562,0.276c0.395,0,0.714-0.322,0.714-0.721C290.488,23.028,290.168,22.706,289.775,22.706z"/>
		</g>
	</g>
</g>
<g enable-background="new    ">
	<path fill="#808285" d="M292.322,29.98h-0.457v-1.27h-0.967v1.27h-0.455v-2.844h0.455v1.189h0.967v-1.189h0.457V29.98z"/>
	<path fill="#808285" d="M294.156,29.98h-0.471v-2.268l-0.727,0.266v-0.41l1.168-0.432h0.029V29.98z"/>
	<path fill="#808285" d="M297.121,29.98h-0.473l-0.926-1.957l-0.002,1.957h-0.475v-2.844h0.475l0.922,1.951l0.004-1.951h0.475V29.98
		z"/>
	<path fill="#808285" d="M298.957,29.98h-0.471v-2.268l-0.727,0.266v-0.41l1.168-0.432h0.029V29.98z"/>
</g>
<g enable-background="new    ">
	<path fill="#808285" d="M292.318,32.898c0,0.184-0.021,0.346-0.064,0.485c-0.042,0.14-0.103,0.257-0.182,0.352
		c-0.08,0.095-0.177,0.166-0.291,0.214c-0.115,0.048-0.244,0.072-0.387,0.072s-0.271-0.024-0.385-0.072
		c-0.115-0.048-0.213-0.119-0.293-0.214s-0.142-0.212-0.186-0.352c-0.043-0.14-0.064-0.302-0.064-0.485v-0.68
		c0-0.184,0.021-0.346,0.064-0.485s0.104-0.257,0.184-0.352s0.178-0.166,0.291-0.214c0.114-0.048,0.242-0.072,0.385-0.072
		s0.271,0.024,0.387,0.072c0.114,0.048,0.211,0.119,0.291,0.214s0.143,0.212,0.186,0.352s0.064,0.302,0.064,0.485V32.898z
		 M290.936,32.72l0.91-0.678c-0.011-0.194-0.054-0.338-0.129-0.431c-0.074-0.093-0.184-0.14-0.326-0.14
		c-0.152,0-0.267,0.054-0.342,0.162c-0.076,0.108-0.113,0.274-0.113,0.498V32.72z M291.85,32.41l-0.91,0.678
		c0.023,0.372,0.175,0.559,0.455,0.559c0.303,0,0.455-0.222,0.455-0.666V32.41z"/>
	<path fill="#808285" d="M293.379,32.347h0.279c0.082,0,0.153-0.011,0.215-0.032c0.061-0.021,0.111-0.052,0.152-0.091
		c0.04-0.039,0.07-0.086,0.09-0.14c0.021-0.054,0.031-0.113,0.031-0.179c0-0.138-0.037-0.244-0.109-0.319s-0.181-0.112-0.326-0.112
		c-0.064,0-0.123,0.01-0.178,0.028c-0.054,0.019-0.101,0.046-0.141,0.081c-0.039,0.035-0.07,0.077-0.092,0.127
		c-0.022,0.05-0.033,0.105-0.033,0.168h-0.467c0-0.112,0.021-0.216,0.066-0.311s0.107-0.178,0.188-0.247s0.176-0.124,0.287-0.164
		c0.11-0.04,0.231-0.06,0.363-0.06c0.134,0,0.257,0.018,0.369,0.052c0.111,0.034,0.207,0.086,0.287,0.153
		c0.079,0.067,0.141,0.152,0.186,0.253c0.044,0.101,0.066,0.218,0.066,0.351c0,0.056-0.009,0.113-0.025,0.172
		c-0.018,0.059-0.043,0.115-0.078,0.17c-0.034,0.055-0.078,0.105-0.131,0.153s-0.114,0.088-0.186,0.12
		c0.086,0.03,0.158,0.068,0.217,0.115s0.105,0.1,0.143,0.157c0.036,0.058,0.062,0.12,0.078,0.187s0.023,0.134,0.023,0.203
		c0,0.133-0.024,0.251-0.072,0.355c-0.049,0.104-0.115,0.191-0.201,0.263c-0.085,0.071-0.186,0.125-0.301,0.162
		c-0.116,0.037-0.241,0.056-0.375,0.056c-0.124,0-0.242-0.017-0.354-0.051c-0.112-0.034-0.211-0.084-0.297-0.151
		c-0.085-0.067-0.152-0.15-0.203-0.25s-0.076-0.215-0.076-0.347h0.467c0,0.062,0.011,0.12,0.033,0.173
		c0.021,0.053,0.053,0.098,0.094,0.135s0.091,0.066,0.148,0.087c0.057,0.021,0.121,0.031,0.193,0.031
		c0.148,0,0.265-0.039,0.35-0.118c0.086-0.079,0.129-0.193,0.129-0.343c0-0.082-0.013-0.152-0.037-0.212
		c-0.025-0.06-0.061-0.108-0.107-0.146c-0.046-0.038-0.102-0.066-0.166-0.085c-0.065-0.019-0.139-0.027-0.221-0.027h-0.279V32.347z"
		/>
	<path fill="#808285" d="M296.832,32.97h0.357v0.377h-0.357v0.633h-0.467v-0.633h-1.234l-0.012-0.283l1.23-1.928h0.482V32.97z
		 M295.6,32.97h0.766V31.76l-0.051,0.092L295.6,32.97z"/>
	<path fill="#808285" d="M298.359,32.582c0-0.036,0.006-0.07,0.018-0.103c0.013-0.032,0.03-0.06,0.053-0.083
		c0.023-0.023,0.052-0.042,0.086-0.055c0.033-0.013,0.072-0.02,0.115-0.02s0.081,0.007,0.115,0.02
		c0.033,0.013,0.062,0.031,0.086,0.055s0.041,0.051,0.053,0.083c0.013,0.032,0.02,0.066,0.02,0.103s-0.007,0.07-0.02,0.102
		c-0.012,0.031-0.029,0.059-0.053,0.082s-0.053,0.042-0.086,0.055c-0.034,0.013-0.072,0.02-0.115,0.02s-0.082-0.007-0.115-0.02
		c-0.034-0.013-0.062-0.031-0.086-0.055c-0.022-0.023-0.04-0.051-0.053-0.082C298.365,32.652,298.359,32.618,298.359,32.582z"/>
	<path fill="#808285" d="M301.906,33.98h-1.91v-0.322l0.926-1.01c0.078-0.087,0.143-0.164,0.195-0.231s0.096-0.129,0.127-0.185
		s0.053-0.108,0.066-0.156c0.013-0.048,0.02-0.097,0.02-0.146c0-0.065-0.011-0.125-0.031-0.181c-0.02-0.056-0.049-0.103-0.086-0.143
		s-0.082-0.07-0.135-0.093s-0.111-0.033-0.176-0.033c-0.17,0-0.295,0.046-0.375,0.139s-0.119,0.22-0.119,0.383h-0.469
		c0-0.124,0.021-0.24,0.066-0.351s0.109-0.206,0.193-0.288s0.187-0.146,0.307-0.194c0.119-0.048,0.254-0.071,0.404-0.071
		c0.141,0,0.266,0.021,0.375,0.061s0.201,0.097,0.277,0.169c0.075,0.072,0.133,0.158,0.172,0.257s0.059,0.208,0.059,0.326
		c0,0.089-0.015,0.174-0.043,0.257c-0.029,0.083-0.068,0.165-0.119,0.247s-0.111,0.164-0.182,0.247s-0.146,0.168-0.229,0.255
		l-0.645,0.691h1.33V33.98z"/>
	<path fill="#808285" d="M304.32,32.898c0,0.184-0.021,0.346-0.064,0.485c-0.042,0.14-0.103,0.257-0.182,0.352
		c-0.08,0.095-0.177,0.166-0.291,0.214c-0.115,0.048-0.244,0.072-0.387,0.072s-0.271-0.024-0.385-0.072
		c-0.115-0.048-0.213-0.119-0.293-0.214s-0.142-0.212-0.186-0.352c-0.043-0.14-0.064-0.302-0.064-0.485v-0.68
		c0-0.184,0.021-0.346,0.064-0.485s0.104-0.257,0.184-0.352s0.178-0.166,0.291-0.214c0.114-0.048,0.242-0.072,0.385-0.072
		s0.271,0.024,0.387,0.072c0.114,0.048,0.211,0.119,0.291,0.214s0.143,0.212,0.186,0.352s0.064,0.302,0.064,0.485V32.898z
		 M302.938,32.72l0.91-0.678c-0.011-0.194-0.054-0.338-0.129-0.431c-0.074-0.093-0.184-0.14-0.326-0.14
		c-0.152,0-0.267,0.054-0.342,0.162c-0.076,0.108-0.113,0.274-0.113,0.498V32.72z M303.852,32.41l-0.91,0.678
		c0.023,0.372,0.175,0.559,0.455,0.559c0.303,0,0.455-0.222,0.455-0.666V32.41z"/>
</g>
<g>
	<path fill="#333333" d="M26.746,54.562c-0.719,4.775-2.259,8.469-4.619,11.078c-2.36,2.608-5.311,3.914-8.851,3.914
		c-2.25,0-4.177-0.477-5.781-1.427c-1.604-0.948-2.803-2.217-3.596-3.803L1.494,80.478H0l2.932-19.721v-0.222l1.825-12.17
		L4.812,48.2l1.383-9.154h1.162l-0.498,5.312c1.272-1.826,2.839-3.26,4.702-4.301c1.862-1.042,3.964-1.562,6.306-1.562
		c3.374,0,5.886,1.41,7.537,4.23c1.65,2.821,2.125,6.573,1.424,11.258L26.746,54.562z M25.308,53.982
		c0.626-4.297,0.309-7.703-0.954-10.22c-1.263-2.518-3.49-3.775-6.68-3.775c-2.729,0-5.02,0.719-6.873,2.157
		c-1.853,1.438-3.305,3.198-4.356,5.282l-2.13,14.244c0.46,1.954,1.461,3.509,3.001,4.66c1.539,1.152,3.609,1.729,6.209,1.729
		c3.024,0,5.578-1.23,7.662-3.692c2.083-2.462,3.43-5.729,4.038-9.806L25.308,53.982z"/>
	<path fill="#333333" d="M55.135,63.468c-1.291,1.809-3.042,3.273-5.255,4.398c-2.212,1.124-4.776,1.688-7.689,1.688
		c-2.674,0-4.716-0.771-6.126-2.312c-1.411-1.539-1.922-3.582-1.535-6.126c0.369-2.601,1.857-4.725,4.467-6.376
		c2.609-1.649,5.711-2.475,9.307-2.475h8.519l0.664-4.37c0.387-2.581-0.106-4.545-1.479-5.893c-1.374-1.346-3.526-2.019-6.458-2.019
		c-2.6,0-4.85,0.659-6.749,1.978c-1.899,1.318-3.006,3.001-3.319,5.047l-1.245-0.055l-0.028-0.139
		c0.258-2.396,1.452-4.383,3.582-5.96c2.129-1.577,4.789-2.364,7.979-2.364c3.098,0,5.518,0.82,7.26,2.461
		c1.742,1.643,2.392,3.974,1.95,6.998l-2.24,14.99c-0.166,1.088-0.268,2.121-0.304,3.098c-0.037,0.979,0.018,1.955,0.166,2.933
		h-1.66c-0.037-1.55-0.051-2.591-0.042-3.125c0.009-0.535,0.069-1.181,0.18-1.937L55.135,63.468z M42.412,68.087
		c2.858,0,5.435-0.657,7.73-1.978c2.296-1.317,4.107-3.176,5.435-5.573l1.023-6.748h-8.464c-2.987,0-5.684,0.719-8.09,2.156
		c-2.406,1.438-3.757,3.2-4.052,5.283c-0.314,2.084,0.11,3.748,1.272,4.991C38.429,67.465,40.144,68.087,42.412,68.087z"/>
	<path fill="#333333" d="M77.079,30.969l-1.217,8.076h7.357l-0.221,1.521h-7.357l-3.098,20.688
		c-0.387,2.545-0.245,4.315,0.429,5.312c0.673,0.996,1.701,1.494,3.083,1.494c0.479,0,0.931-0.019,1.355-0.057
		c0.424-0.036,0.958-0.101,1.604-0.192l0.083,1.354c-0.498,0.147-0.996,0.249-1.494,0.304c-0.498,0.057-1.061,0.085-1.687,0.085
		c-1.936,0-3.347-0.664-4.231-1.992c-0.885-1.328-1.106-3.431-0.664-6.308l3.098-20.688h-5.532l0.222-1.521h5.531l1.217-8.075
		L77.079,30.969L77.079,30.969z"/>
	<path fill="#333333" d="M93.685,45.103c1.254-2.14,2.853-3.775,4.799-4.908c1.945-1.135,4.218-1.701,6.818-1.701
		c3.005,0,5.195,1,6.569,3c1.374,2.002,1.747,5.094,1.12,9.279l-2.738,18.199h-1.521l2.738-18.255
		c0.608-4.094,0.318-6.904-0.872-8.436c-1.189-1.531-3.02-2.296-5.49-2.296c-3.061,0-5.619,0.959-7.675,2.876
		c-2.057,1.918-3.554,4.343-4.495,7.273l-2.821,18.836h-1.494l2.296-15.322h-0.056c0.037-0.295,0.083-0.595,0.139-0.898
		c0.055-0.305,0.12-0.604,0.193-0.898l3.9-26.026h1.494L93.685,45.103z"/>
	<path fill="#333333" d="M122.433,53.429c0.682-4.556,2.424-8.184,5.227-10.886c2.803-2.7,6.168-4.051,10.096-4.051
		c3.743,0,6.652,1.406,8.726,4.217c2.074,2.812,2.789,6.385,2.144,10.72l-0.166,1.16c-0.701,4.573-2.448,8.21-5.241,10.911
		c-2.793,2.701-6.145,4.054-10.054,4.054c-3.744,0-6.662-1.406-8.754-4.22c-2.093-2.812-2.808-6.393-2.144-10.745L122.433,53.429z
		 M123.761,54.59c-0.59,3.892-0.033,7.108,1.673,9.653c1.705,2.544,4.356,3.816,7.952,3.816c3.355,0,6.315-1.318,8.878-3.955
		c2.562-2.638,4.13-5.81,4.702-9.516l0.166-1.161c0.571-3.799,0-6.987-1.715-9.569s-4.342-3.872-7.883-3.872
		c-3.374,0-6.352,1.337-8.934,4.011s-4.14,5.817-4.674,9.433L123.761,54.59z"/>
</g>
<g>
	<path fill="#333333" d="M220.027,3.635h0.742h21.69c25.955,0,25.955,40.23,0,40.23h-20.95v24.658h-1.482
		c0-21.414,0-42.734,0-64.147V3.635z M242.46,42.476c24.101,0,24.101-37.356,0-37.356h-20.95v37.356H242.46z"/>
	<path fill="#333333" d="M280.525,12.391c5.932-6.118,14.274-9.826,23.358-9.826c9.177,0,17.429,3.708,23.452,9.826
		c5.933,6.024,9.733,14.367,9.733,23.545c0,9.177-3.802,17.52-9.733,23.545c-6.023,6.118-14.275,9.825-23.452,9.825
		c-9.084,0-17.428-3.707-23.358-9.825c-5.935-6.025-9.733-14.368-9.733-23.545C270.792,26.759,274.591,18.416,280.525,12.391z
		 M326.317,13.503c-5.747-5.84-13.721-9.455-22.434-9.455s-16.593,3.615-22.34,9.455c-5.653,5.748-9.271,13.627-9.271,22.434
		c0,8.806,3.615,16.686,9.271,22.433c5.747,5.84,13.627,9.455,22.34,9.455s16.687-3.615,22.434-9.455
		c5.654-5.747,9.177-13.627,9.177-22.433C335.494,27.13,331.972,19.25,326.317,13.503z"/>
	<path fill="#333333" d="M360.919,68.802V5.12h-22.434V3.635h46.256V5.12h-22.434v63.683L360.919,68.802L360.919,68.802z"/>
</g>
<path fill="none" stroke="#333333" stroke-width="1.2" stroke-miterlimit="10" d="M199.434,49.046
	c3.149,1.91,5.252,4.068,5.252,6.556"/>
<linearGradient id="SVGID_5_" gradientUnits="userSpaceOnUse" x1="199.4336" y1="32.4324" x2="199.4336" y2="32.4324" gradientTransform="matrix(1 0 0 -1 0 81.478)">
	<stop  offset="0" style="stop-color:#333333"/>
	<stop  offset="0.0554" style="stop-color:#535050"/>
	<stop  offset="0.1288" style="stop-color:#7F7B7B"/>
	<stop  offset="0.1995" style="stop-color:#A9A6A6"/>
	<stop  offset="0.2658" style="stop-color:#CBCACA"/>
	<stop  offset="0.3261" style="stop-color:#E3E2E3"/>
	<stop  offset="0.3749" style="stop-color:#EEEEEE"/>
	<stop  offset="0.4589" style="stop-color:#E4E3E3"/>
	<stop  offset="0.5585" style="stop-color:#CDCBCB"/>
	<stop  offset="0.666" style="stop-color:#ACA9A9"/>
	<stop  offset="0.7791" style="stop-color:#848080"/>
	<stop  offset="0.8953" style="stop-color:#585655"/>
	<stop  offset="1" style="stop-color:#333333"/>
</linearGradient>
<path fill="none" stroke="url(#SVGID_5_)" stroke-width="1.2" stroke-miterlimit="10" d="M199.434,49.046"/>
<linearGradient id="SVGID_6_" gradientUnits="userSpaceOnUse" x1="194.5156" y1="34.9216" x2="194.5156" y2="34.9216" gradientTransform="matrix(1 0 0 -1 0 81.478)">
	<stop  offset="0" style="stop-color:#333333"/>
	<stop  offset="0.0554" style="stop-color:#535050"/>
	<stop  offset="0.1288" style="stop-color:#7F7B7B"/>
	<stop  offset="0.1995" style="stop-color:#A9A6A6"/>
	<stop  offset="0.2658" style="stop-color:#CBCACA"/>
	<stop  offset="0.3261" style="stop-color:#E3E2E3"/>
	<stop  offset="0.3749" style="stop-color:#EEEEEE"/>
	<stop  offset="0.4589" style="stop-color:#E4E3E3"/>
	<stop  offset="0.5585" style="stop-color:#CDCBCB"/>
	<stop  offset="0.666" style="stop-color:#ACA9A9"/>
	<stop  offset="0.7791" style="stop-color:#848080"/>
	<stop  offset="0.8953" style="stop-color:#585655"/>
	<stop  offset="1" style="stop-color:#333333"/>
</linearGradient>
<path fill="none" stroke="url(#SVGID_6_)" stroke-width="1.2" stroke-miterlimit="10" d="M194.516,46.556"/>
<linearGradient id="SVGID_7_" gradientUnits="userSpaceOnUse" x1="159.4507" y1="50.0388" x2="194.7192" y2="35.3844" gradientTransform="matrix(1 0 0 -1 0 81.478)">
	<stop  offset="0" style="stop-color:#333333"/>
	<stop  offset="0.0554" style="stop-color:#535050"/>
	<stop  offset="0.1288" style="stop-color:#7F7B7B"/>
	<stop  offset="0.1995" style="stop-color:#A9A6A6"/>
	<stop  offset="0.2658" style="stop-color:#CBCACA"/>
	<stop  offset="0.3261" style="stop-color:#E3E2E3"/>
	<stop  offset="0.3749" style="stop-color:#EEEEEE"/>
	<stop  offset="0.4589" style="stop-color:#E4E3E3"/>
	<stop  offset="0.5585" style="stop-color:#CDCBCB"/>
	<stop  offset="0.666" style="stop-color:#ACA9A9"/>
	<stop  offset="0.7791" style="stop-color:#848080"/>
	<stop  offset="0.8953" style="stop-color:#585655"/>
	<stop  offset="1" style="stop-color:#333333"/>
</linearGradient>
<path fill="none" stroke="url(#SVGID_7_)" stroke-width="1.2" stroke-miterlimit="10" d="M160.685,29.914
	c0,4.281,9.297,7.791,19.211,11.291c4.472,1.578,9.951,3.314,14.62,5.353"/>
<g opacity="0.7">
	<line fill="none" stroke="#F47E20" stroke-width="1.2" stroke-miterlimit="10" x1="195.08" y1="4.15" x2="204.686" y2="7.727"/>
	<line fill="none" stroke="#D62C28" stroke-width="1.2" stroke-miterlimit="10" x1="185.474" y1="0.574" x2="195.08" y2="4.15"/>
	<line fill="none" stroke="#F9ED32" stroke-width="1.2" stroke-miterlimit="10" x1="186.052" y1="7.965" x2="199.445" y2="9.987"/>
	<line fill="none" stroke="#2DA048" stroke-width="1.2" stroke-miterlimit="10" x1="172.661" y1="5.943" x2="186.052" y2="7.965"/>
	<line fill="none" stroke="#2DA048" stroke-width="1.2" stroke-miterlimit="10" x1="178.21" y1="12.819" x2="195.08" y2="12.008"/>
	<line fill="none" stroke="#F9ED32" stroke-width="1.2" stroke-miterlimit="10" x1="161.343" y1="13.631" x2="178.21" y2="12.819"/>
	<line fill="none" stroke="#F47E20" stroke-width="1.2" stroke-miterlimit="10" x1="170.856" y1="19.15" x2="180.382" y2="17.318"/>
	<line fill="none" stroke="#D62C28" stroke-width="1.2" stroke-miterlimit="10" x1="162.823" y1="20.693" x2="170.856" y2="19.15"/>
	<path fill="none" stroke="#F47E20" stroke-width="1.2" stroke-miterlimit="10" d="M172.661,26.355"/>
	<path fill="none" stroke="#F47E20" stroke-width="1.2" stroke-miterlimit="10" d="M172.132,23.71"/>
	<path fill="none" stroke="#D62C28" stroke-width="1.2" stroke-miterlimit="10" d="M172.132,23.71"/>
	<path fill="none" stroke="#D62C28" stroke-width="1.2" stroke-miterlimit="10" d="M171.603,21.066"/>
	<line fill="none" stroke="#F9ED32" stroke-width="1.2" stroke-miterlimit="10" x1="172.661" y1="28.8" x2="182.685" y2="29.914"/>
	<line fill="none" stroke="#2DA048" stroke-width="1.2" stroke-miterlimit="10" x1="161.747" y1="27.586" x2="172.661" y2="28.8"/>
	<line fill="none" stroke="#D62C28" stroke-width="1.2" stroke-miterlimit="10" x1="178.21" y1="33.755" x2="193.748" y2="34.054"/>
	<line fill="none" stroke="#F47E20" stroke-width="1.2" stroke-miterlimit="10" x1="162.823" y1="33.462" x2="178.21" y2="33.755"/>
	
		<line fill="none" stroke="#F47E20" stroke-width="1.2" stroke-miterlimit="10" x1="187.626" y1="38.226" x2="203.037" y2="38.085"/>
	
		<line fill="none" stroke="#D62C28" stroke-width="1.2" stroke-miterlimit="10" x1="172.216" y1="38.367" x2="187.626" y2="38.226"/>
	<line fill="none" stroke="#F9ED32" stroke-width="1.2" stroke-miterlimit="10" x1="195.08" y1="42.412" x2="204.369" y2="42.388"/>
	<line fill="none" stroke="#2DA048" stroke-width="1.2" stroke-miterlimit="10" x1="183.462" y1="42.437" x2="195.08" y2="42.412"/>
	
		<line fill="none" stroke="#F47E20" stroke-width="1.2" stroke-miterlimit="10" x1="193.914" y1="51.994" x2="202.275" y2="51.119"/>
	
		<line fill="none" stroke="#D62C28" stroke-width="1.2" stroke-miterlimit="10" x1="185.474" y1="52.878" x2="193.914" y2="51.994"/>
	
		<line fill="none" stroke="#F47E20" stroke-width="1.2" stroke-miterlimit="10" x1="187.626" y1="57.757" x2="204.369" y2="57.029"/>
	
		<line fill="none" stroke="#D62C28" stroke-width="1.2" stroke-miterlimit="10" x1="170.817" y1="58.488" x2="187.626" y2="57.757"/>
	<line fill="none" stroke="#2DA048" stroke-width="1.2" stroke-miterlimit="10" x1="182.026" y1="63.031" x2="200.13" y2="63.388"/>
	
		<line fill="none" stroke="#F9ED32" stroke-width="1.2" stroke-miterlimit="10" x1="163.921" y1="62.673" x2="182.026" y2="63.031"/>
	<line fill="none" stroke="#F9ED32" stroke-width="1.2" stroke-miterlimit="10" x1="174.558" y1="67.14" x2="186.292" y2="69.597"/>
	<line fill="none" stroke="#2DA048" stroke-width="1.2" stroke-miterlimit="10" x1="162.823" y1="64.683" x2="174.558" y2="67.14"/>
	<path fill="none" stroke="#F9ED32" stroke-width="1.2" stroke-miterlimit="10" d="M198.166,47.441"/>
	<path fill="none" stroke="#F9ED32" stroke-width="1.2" stroke-miterlimit="10" d="M196.041,46.871"/>
	<path fill="none" stroke="#2DA048" stroke-width="1.2" stroke-miterlimit="10" d="M196.041,46.871"/>
	<path fill="none" stroke="#2DA048" stroke-width="1.2" stroke-miterlimit="10" d="M193.916,46.3"/>
	<path fill="none" stroke="#B7B7B7" stroke-width="1.2" stroke-miterlimit="10" d="M172.396,28.77"/>
</g>
<path fill="none" stroke="#131313" stroke-width="1.2" stroke-miterlimit="10" d="M204.686,41.205
	c0,3.889-11.154,8.949-19.211,11.674c-8.057,2.724-22.65,7.912-22.65,11.806"/>
<path fill="none" stroke="#131313" stroke-width="1.2" stroke-miterlimit="10" d="M185.474,0.574c0,0-24.789,7.541-24.789,14.938"/>
<path fill="none" stroke="#333333" stroke-width="1.2" stroke-miterlimit="10" d="M204.686,7.727c0,0-7.437,3.893-19.211,7.785
	s-24.789,10.119-24.789,14.401"/>
<path fill="none" stroke="#333333" stroke-width="1.2" stroke-miterlimit="10" d="M204.686,55.601c0,5.303-3.177,6.358-4.556,7.787
	c0,0-13.838,6.573-14.079,6.655"/>
</svg>
