<?xml version="1.0" encoding="utf-8"?>
<!-- Generator: Adobe Illustrator 16.0.3, SVG Export Plug-In . SVG Version: 6.00 Build 0)  -->
<!DOCTYPE svg PUBLIC "-//W3C//DTD SVG 1.1//EN" "http://www.w3.org/Graphics/SVG/1.1/DTD/svg11.dtd">
<svg version="1.1" id="Layer_1" xmlns="http://www.w3.org/2000/svg" xmlns:xlink="http://www.w3.org/1999/xlink" x="0px" y="0px"
	 width="229.391px" height="46.585px" viewBox="0 0 229.391 46.585" enable-background="new 0 0 229.391 46.585"
	 xml:space="preserve">
<circle fill="#F1F1F1" cx="185.51" cy="20.607" r="17.352"/>
<circle fill="#F1F2F2" stroke="#FFFFFF" stroke-miterlimit="10" cx="185.6" cy="20.508" r="11.863"/>
<circle fill="#F1F2F2" stroke="#FFFFFF" stroke-miterlimit="10" cx="185.599" cy="20.508" r="5.794"/>
<g>
	<path fill="#D72B28" d="M189.108,18.709"/>
</g>
<g>
	<path fill="#D72B28" d="M186.436,21.379"/>
</g>
<path fill="#D72B28" stroke="#F37E20" stroke-miterlimit="10" stroke-dasharray="1,1.5" d="M190.792,19.282"/>
<path fill="#D72B28" stroke="#F37E20" stroke-miterlimit="10" stroke-dasharray="1,1.5" d="M183.948,23.766"/>
<text transform="matrix(1 0 0 1 184.3149 25.8911)"><tspan x="0" y="0" fill="#808285" font-family="'RobotoMono-Medium'" font-size="3.7788">H1N1</tspan><tspan x="0" y="3.778" fill="#808285" font-family="'RobotoMono-Medium'" font-size="3.7788">34·209</tspan></text>
<g>
	
		<linearGradient id="SVGID_1_" gradientUnits="userSpaceOnUse" x1="-8.604" y1="-108.0347" x2="-4.2705" y2="-106.2341" gradientTransform="matrix(0.7071 -0.7071 0.7071 0.7071 261.8693 83.8934)">
		<stop  offset="0" style="stop-color:#FFFFFF;stop-opacity:0"/>
		<stop  offset="0.8094" style="stop-color:#FFFFFF;stop-opacity:0.7746"/>
		<stop  offset="1" style="stop-color:#FFFFFF"/>
	</linearGradient>
	<path fill="url(#SVGID_1_)" d="M185.444,20.846l-1.072-17.907c0,0-3.883,0.055-7.021,1.822c-3.141,1.769-6.01,4.376-6.01,4.376
		L185.444,20.846z"/>
	<line fill="none" stroke="#FFFFFF" stroke-miterlimit="10" x1="185.444" y1="20.846" x2="184.272" y2="3.553"/>
</g>
<g>
	<path fill="#555655" d="M140.034,38.174V2.746h12.305c7.355,0,10.705,5.729,10.705,11.054c0,5.324-3.35,11.054-10.705,11.054
		h-11.131v13.321H140.034z M152.338,23.729c6.582,0,9.58-5.134,9.58-9.904c0-4.771-2.998-9.904-9.58-9.904h-11.131v19.808H152.338z"
		/>
	<path fill="#555655" d="M140.219,2.932h0.4h11.719c14.023,0,14.023,21.734,0,21.734H141.02v13.32h-0.801
		c0-11.568,0-23.086,0-34.654V2.932z M152.338,23.915c13.021,0,13.021-20.182,0-20.182H141.02v20.182H152.338z"/>
	<path fill="#555655" d="M185.387,38.674c-4.799,0-9.447-1.955-12.754-5.365c-3.424-3.479-5.311-8.042-5.311-12.85
		c0-4.807,1.887-9.371,5.312-12.851c3.305-3.409,7.953-5.364,12.752-5.364c4.85,0,9.396,1.905,12.803,5.364
		c3.426,3.479,5.312,8.043,5.312,12.851c0,4.809-1.887,9.372-5.312,12.852C194.784,36.77,190.237,38.674,185.387,38.674z
		 M185.387,3.419c-4.49,0-8.729,1.794-11.936,5.052c-3.195,3.248-4.955,7.505-4.955,11.988c0,4.483,1.76,8.74,4.955,11.988
		c3.207,3.258,7.445,5.053,11.936,5.053c4.523,0,8.779-1.795,11.986-5.053c3.162-3.215,4.904-7.473,4.904-11.988
		c0-4.517-1.742-8.774-4.904-11.988C194.167,5.214,189.911,3.419,185.387,3.419z"/>
	<path fill="#555655" d="M172.768,7.74c3.205-3.305,7.711-5.309,12.619-5.309c4.959,0,9.416,2.003,12.67,5.309
		c3.205,3.255,5.258,7.762,5.258,12.72c0,4.958-2.053,9.465-5.258,12.721c-3.254,3.305-7.711,5.308-12.67,5.308
		c-4.908,0-9.414-2.003-12.619-5.308c-3.205-3.256-5.258-7.763-5.258-12.721C167.51,15.502,169.563,10.995,172.768,7.74z
		 M197.506,8.341c-3.104-3.155-7.412-5.108-12.119-5.108s-8.963,1.953-12.068,5.108c-3.055,3.104-5.008,7.361-5.008,12.119
		c0,4.758,1.953,9.014,5.008,12.119c3.105,3.154,7.361,5.107,12.068,5.107s9.016-1.953,12.119-5.107
		c3.055-3.105,4.957-7.361,4.957-12.119C202.463,15.702,200.561,11.445,197.506,8.341z"/>
	<polygon fill="#555655" points="216.147,38.325 216.147,3.92 204.028,3.92 204.028,2.746 229.391,2.746 229.391,3.92 217.272,3.92 
		217.272,38.325 	"/>
	<path fill="#555655" d="M216.334,38.137V3.733h-12.119V2.932h24.988v0.801h-12.119v34.404H216.334z"/>
</g>
<g>
	<g>
		<g>
			<path fill="#D62B27" d="M182.979,20.909c-0.357,0-0.65,0.283-0.67,0.639c-0.154,0.072-0.34,0.16-0.461,0.216
				c-0.141-0.335-0.359-0.629-0.633-0.86c0.07-0.104,0.172-0.262,0.238-0.364c0.293-0.004,0.531-0.246,0.531-0.542
				c0-0.301-0.242-0.544-0.539-0.544s-0.539,0.243-0.539,0.544c0,0.146,0.057,0.279,0.152,0.377
				c-0.021,0.101-0.053,0.242-0.076,0.356c-0.377-0.243-0.822-0.366-1.27-0.354c0.01-0.089,0.014-0.192,0.02-0.25
				c0.1-0.07,0.166-0.186,0.166-0.318c0-0.214-0.172-0.386-0.383-0.386s-0.381,0.172-0.381,0.386c0,0.147,0.082,0.276,0.205,0.34
				c0.021,0.066,0.055,0.168,0.082,0.254c-0.379,0.062-0.725,0.218-1.016,0.444c-0.084-0.13-0.207-0.314-0.254-0.39
				c0.018-0.05,0.025-0.104,0.025-0.159c0-0.288-0.23-0.521-0.516-0.521s-0.518,0.233-0.518,0.521s0.232,0.521,0.518,0.521
				c0.059,0,0.113-0.011,0.164-0.028c0.096,0.063,0.254,0.169,0.365,0.245c-0.293,0.295-0.506,0.67-0.605,1.09
				c-0.117-0.05-0.275-0.116-0.326-0.139c-0.055-0.194-0.23-0.336-0.441-0.336c-0.252,0-0.457,0.207-0.457,0.462
				c0,0.254,0.205,0.461,0.457,0.461c0.143,0,0.27-0.066,0.355-0.17c0.074,0,0.244,0.001,0.365,0.001
				c-0.059,0.544,0.078,1.099,0.389,1.551l-0.516,0.152c-0.107-0.082-0.238-0.13-0.383-0.13c-0.355,0-0.643,0.289-0.643,0.646
				s0.287,0.646,0.643,0.646c0.354,0,0.641-0.289,0.641-0.646c0-0.004-0.002-0.008-0.002-0.012l0.459-0.405
				c0.311,0.338,0.721,0.581,1.182,0.68c-0.025,0.105-0.059,0.244-0.074,0.312c-0.117,0.062-0.195,0.184-0.195,0.324
				c0,0.202,0.162,0.366,0.363,0.366c0.199,0,0.361-0.164,0.361-0.366c0-0.116-0.053-0.22-0.139-0.287
				c-0.008-0.068-0.025-0.2-0.039-0.308c0.445,0.037,0.891-0.059,1.279-0.275c0.082,0.16,0.213,0.428,0.258,0.515
				c-0.027,0.063-0.045,0.134-0.045,0.21c0,0.281,0.227,0.512,0.506,0.512c0.281,0,0.51-0.23,0.51-0.512
				c0-0.284-0.229-0.514-0.51-0.514c-0.012,0-0.025,0.002-0.037,0.003c-0.137-0.116-0.318-0.271-0.441-0.372
				c0.316-0.233,0.566-0.548,0.729-0.913c0.074,0.027,0.166,0.059,0.232,0.081c0.043,0.184,0.205,0.321,0.402,0.321
				c0.227,0,0.41-0.187,0.41-0.417s-0.184-0.417-0.41-0.417c-0.133,0-0.25,0.062-0.326,0.16c-0.059,0-0.141,0.002-0.211,0.003
				c0.123-0.415,0.127-0.861,0.01-1.278c0.148-0.007,0.354-0.02,0.506-0.028c0.125,0.158,0.316,0.261,0.531,0.261
				c0.371,0,0.674-0.305,0.674-0.68C183.653,21.213,183.35,20.909,182.979,20.909z"/>
		</g>
	</g>
	
		<line fill="#D72B28" stroke="#D62B27" stroke-miterlimit="10" stroke-dasharray="1,1.5" x1="185.344" y1="13.55" x2="181.959" y2="18.83"/>
</g>
<g>
	<path fill="#555655" d="M0,46.585l1.994-13.411l0-0.139L3.228,24.8l0.041-0.124L4.2,18.501l0.856-0.061h0.079l-0.319,3.402
		c0.834-1.135,1.858-2.046,3.046-2.711c1.264-0.707,2.71-1.065,4.297-1.065c2.297,0,4.032,0.974,5.156,2.896
		c1.119,1.912,1.445,4.488,0.972,7.655l-0.056,0.392c-0.486,3.227-1.542,5.759-3.14,7.525c-1.602,1.771-3.633,2.668-6.035,2.668
		c-1.526,0-2.853-0.327-3.943-0.973c-1.024-0.606-1.816-1.414-2.355-2.402L1.155,46.585H0z M12.028,19.219
		c-1.819,0-3.367,0.486-4.601,1.443c-1.238,0.96-2.222,2.153-2.924,3.545l-1.432,9.605c0.304,1.271,0.978,2.316,2,3.082
		c1.023,0.766,2.421,1.154,4.154,1.154c2.012,0,3.735-0.832,5.123-2.471c1.393-1.646,2.306-3.863,2.713-6.591l0.056-0.392
		c0.419-2.875,0.205-5.185-0.638-6.865C15.642,20.064,14.145,19.219,12.028,19.219z"/>
	<path fill="#555655" d="M18.16,28.999c-0.486,3.228-1.527,5.723-3.122,7.486c-1.596,1.764-3.589,2.645-5.982,2.645
		c-1.521,0-2.822-0.32-3.907-0.963c-1.084-0.641-1.895-1.498-2.43-2.57L1.093,46.514h-1.01l1.981-13.328v-0.15l1.234-8.225
		L3.336,24.7l0.935-6.188h0.785L4.72,22.101c0.86-1.233,1.919-2.202,3.178-2.907c1.258-0.704,2.679-1.056,4.262-1.056
		c2.281,0,3.979,0.954,5.094,2.86s1.436,4.442,0.963,7.608L18.16,28.999z M17.188,28.606c0.424-2.904,0.208-5.206-0.645-6.907
		c-0.854-1.701-2.358-2.551-4.514-2.551c-1.844,0-3.393,0.486-4.645,1.458c-1.252,0.972-2.234,2.162-2.944,3.57L3,33.802
		c0.311,1.321,0.987,2.371,2.028,3.149c1.041,0.779,2.439,1.169,4.197,1.169c2.043,0,3.77-0.832,5.178-2.495
		c1.408-1.664,2.318-3.873,2.729-6.627L17.188,28.606z"/>
	<path fill="#555655" d="M28.598,39.202c-1.82,0-3.23-0.533-4.194-1.584c-0.964-1.053-1.319-2.465-1.055-4.199
		c0.251-1.771,1.278-3.238,3.051-4.359c1.767-1.117,3.896-1.684,6.329-1.684h5.757l0.377-2.893c0.257-1.712-0.073-3.031-0.979-3.92
		c-0.91-0.892-2.362-1.344-4.314-1.344c-1.734,0-3.255,0.445-4.52,1.324c-1.261,0.875-2.005,2.006-2.213,3.363l-0.916,0.024
		l-0.057-0.002l-0.03-0.148c0.175-1.655,0.999-3.027,2.449-4.101c1.445-1.07,3.274-1.612,5.436-1.612
		c2.103,0,3.771,0.566,4.957,1.684c1.19,1.121,1.641,2.733,1.34,4.792l-1.514,10.131c-0.112,0.732-0.181,1.434-0.206,2.086
		c-0.024,0.652,0.013,1.314,0.112,1.969l0.012,0.082h-1.275l-0.001-0.07c-0.025-1.049-0.034-1.753-0.028-2.115
		c0.005-0.358,0.047-0.802,0.122-1.317l0.003-0.024c-0.859,1.125-2.006,2.057-3.414,2.771
		C32.328,38.815,30.568,39.202,28.598,39.202z M32.617,28.547c-1.997,0-3.824,0.486-5.431,1.447c-1.6,0.957-2.51,2.141-2.704,3.52
		c-0.208,1.379,0.075,2.493,0.841,3.314c0.767,0.822,1.918,1.238,3.424,1.238c1.91,0,3.656-0.446,5.189-1.326
		c1.532-0.881,2.759-2.139,3.646-3.739l0.671-4.454H32.617z"/>
	<path fill="#555655" d="M37.346,35.018c-0.873,1.221-2.056,2.211-3.552,2.972c-1.495,0.76-3.228,1.14-5.196,1.14
		c-1.807,0-3.187-0.52-4.141-1.561c-0.953-1.04-1.299-2.42-1.037-4.141c0.249-1.757,1.255-3.193,3.019-4.309
		c1.763-1.115,3.86-1.673,6.29-1.673h5.757l0.449-2.953c0.262-1.745-0.072-3.072-1-3.982c-0.928-0.909-2.383-1.364-4.365-1.364
		c-1.757,0-3.278,0.445-4.561,1.336c-1.284,0.891-2.031,2.028-2.243,3.411l-0.841-0.037l-0.019-0.093
		c0.174-1.62,0.981-2.963,2.421-4.028c1.439-1.066,3.237-1.599,5.393-1.599c2.094,0,3.729,0.555,4.907,1.664
		c1.177,1.109,1.617,2.686,1.318,4.729L38.43,34.663c-0.112,0.735-0.181,1.434-0.206,2.094s0.013,1.32,0.112,1.98h-1.122
		c-0.025-1.047-0.034-1.75-0.028-2.111c0.006-0.361,0.047-0.798,0.122-1.309L37.346,35.018z M28.747,38.139
		c1.932,0,3.673-0.445,5.225-1.336c1.552-0.892,2.776-2.146,3.673-3.768l0.691-4.561h-5.72c-2.019,0-3.841,0.486-5.468,1.458
		s-2.54,2.162-2.738,3.57c-0.212,1.408,0.075,2.532,0.86,3.374C26.055,37.719,27.214,38.139,28.747,38.139z"/>
	<path fill="#555655" d="M51.392,39.202c-1.328,0-2.31-0.463-2.92-1.377c-0.606-0.91-0.76-2.361-0.46-4.313l2.082-13.899h-3.738
		l0.161-1.11l3.81-0.062l0.751-5.397l1.1-0.061h0.083l-0.823,5.458h4.973l-0.162,1.11l-5.043,0.062l-2.022,13.921
		c-0.258,1.694-0.165,2.884,0.278,3.538c0.438,0.648,1.119,0.979,2.024,0.979c0.322,0,0.625-0.013,0.91-0.038
		c0.286-0.024,0.646-0.067,1.081-0.13l0.077-0.012l0.061,0.994c-0.393,0.174-0.736,0.244-1.074,0.281
		C52.201,39.183,51.818,39.202,51.392,39.202z"/>
	<path fill="#555655" d="M52.177,13.054l-0.823,5.458h4.973l-0.15,1.028h-4.972l-2.093,13.982c-0.262,1.72-0.166,2.916,0.29,3.589
		c0.455,0.673,1.149,1.01,2.084,1.01c0.324,0,0.629-0.013,0.916-0.038c0.287-0.024,0.648-0.068,1.084-0.131l0.056,0.916
		c-0.337,0.1-0.673,0.169-1.01,0.206c-0.336,0.038-0.717,0.056-1.14,0.056c-1.309,0-2.262-0.448-2.86-1.346
		c-0.598-0.896-0.748-2.317-0.449-4.262l2.094-13.982h-3.739l0.149-1.028h3.739l0.822-5.458H52.177z"/>
	<path fill="#555655" d="M73.485,38.809l1.863-12.42c0.406-2.733,0.213-4.632-0.574-5.646c-0.786-1.011-2.016-1.523-3.654-1.523
		c-2.04,0-3.769,0.648-5.138,1.925c-1.374,1.282-2.39,2.925-3.019,4.886L61.06,38.749l-1.081,0.061h-0.083l1.552-10.359
		l-0.025-0.077c0.025-0.2,0.056-0.405,0.094-0.611c0.038-0.208,0.082-0.411,0.132-0.612l2.634-17.583l1.081-0.061h0.083
		l-1.921,12.757c0.822-1.303,1.858-2.323,3.083-3.037c1.319-0.77,2.882-1.16,4.644-1.16c2.046,0,3.56,0.693,4.499,2.06
		c0.934,1.361,1.193,3.488,0.769,6.322l-1.86,12.361H73.485z"/>
	<path fill="#555655" d="M63.4,22.605c0.847-1.445,1.928-2.552,3.243-3.318c1.314-0.767,2.851-1.15,4.608-1.15
		c2.031,0,3.511,0.676,4.439,2.028c0.928,1.353,1.18,3.443,0.757,6.272l-1.851,12.299h-1.028L75.419,26.4
		c0.411-2.766,0.215-4.667-0.589-5.701c-0.804-1.034-2.041-1.551-3.71-1.551c-2.069,0-3.798,0.648-5.188,1.944
		c-1.39,1.296-2.402,2.935-3.038,4.916l-1.907,12.729h-1.009l1.551-10.355h-0.037c0.025-0.199,0.056-0.402,0.093-0.607
		c0.038-0.205,0.081-0.408,0.131-0.607l2.636-17.59h1.009L63.4,22.605z"/>
	<path fill="#555655" d="M90.082,39.202c-2.542,0-4.552-0.969-5.974-2.879c-1.42-1.908-1.912-4.369-1.462-7.316l0.112-0.785
		c0.461-3.08,1.657-5.568,3.554-7.396c1.899-1.831,4.211-2.759,6.873-2.759c2.542,0,4.545,0.969,5.956,2.88
		c1.407,1.908,1.899,4.363,1.461,7.297l-0.112,0.785c-0.474,3.092-1.673,5.588-3.563,7.416
		C95.034,38.274,92.731,39.202,90.082,39.202z M93.035,19.219c-2.25,0-4.264,0.905-5.986,2.688c-1.726,1.788-2.782,3.919-3.14,6.335
		l-0.112,0.785c-0.395,2.6-0.018,4.777,1.119,6.473c1.133,1.691,2.921,2.549,5.315,2.549c2.237,0,4.239-0.893,5.948-2.652
		c1.713-1.762,2.776-3.912,3.159-6.391l0.112-0.785c0.382-2.537-0.004-4.696-1.147-6.417C97.164,20.089,95.391,19.219,93.035,19.219
		z"/>
	<path fill="#555655" d="M82.829,28.232c0.461-3.077,1.638-5.53,3.533-7.355c1.894-1.826,4.168-2.739,6.823-2.739
		c2.53,0,4.496,0.951,5.898,2.851c1.402,1.9,1.885,4.314,1.448,7.243l-0.112,0.785c-0.474,3.091-1.654,5.549-3.542,7.374
		c-1.888,1.826-4.153,2.738-6.795,2.738c-2.53,0-4.502-0.949-5.916-2.85c-1.415-1.9-1.897-4.321-1.449-7.263L82.829,28.232z
		 M83.726,29.017c-0.399,2.63-0.022,4.804,1.131,6.524c1.153,1.719,2.944,2.579,5.375,2.579c2.268,0,4.268-0.892,6-2.673
		c1.732-1.782,2.792-3.926,3.178-6.431l0.112-0.785c0.386-2.567,0-4.723-1.159-6.468c-1.159-1.745-2.935-2.617-5.328-2.617
		c-2.28,0-4.293,0.903-6.038,2.71c-1.745,1.807-2.798,3.932-3.159,6.374L83.726,29.017z"/>
</g>
<g>
	<path fill="#F1F1F1" d="M108.078,38.165c0-2.283,8.562-5.328,13.288-6.926c2.208-0.746,4.812-1.791,6.961-2.926V28.31
		c2.511,1.283,4.311,2.764,4.311,4.526c0,3.111-1.863,3.73-2.672,4.568c0,0-8.119,3.856-8.26,3.905L108.078,38.165z"/>
	<path fill="#F1F1F1" d="M128.327,28.301c2.452-1.296,4.311-2.707,4.311-3.923c0-2.282-2.543-2.741-11.271-5.939
		c-4.607-1.688-8.403-2.93-10.961-4.365l0,0c-2.164,1.305-3.581,2.598-3.581,3.68c0,2.512,5.454,4.572,11.271,6.625
		c3.174,1.12,7.216,2.376,10.232,3.919V28.301z"/>
	<path fill="#F1F1F1" d="M110.405,14.074c-2.285-1.283-3.581-2.72-3.581-4.768c0-4.339,14.542-8.763,14.542-8.763l11.271,4.196
		c0,0-4.363,2.284-11.271,4.567C117.434,10.606,113.266,12.349,110.405,14.074z"/>
</g>
<linearGradient id="SVGID_2_" gradientUnits="userSpaceOnUse" x1="111.5166" y1="14.604" x2="133.5136" y2="23.7439">
	<stop  offset="0" style="stop-color:#555655"/>
	<stop  offset="0.0375" style="stop-color:#686766"/>
	<stop  offset="0.1149" style="stop-color:#8F8C8C"/>
	<stop  offset="0.1896" style="stop-color:#B4B1B1"/>
	<stop  offset="0.2597" style="stop-color:#D0CFCF"/>
	<stop  offset="0.3234" style="stop-color:#E5E5E5"/>
	<stop  offset="0.3749" style="stop-color:#EEEEEE"/>
	<stop  offset="0.4635" style="stop-color:#E6E5E5"/>
	<stop  offset="0.5685" style="stop-color:#D2D1D1"/>
	<stop  offset="0.6818" style="stop-color:#B6B4B4"/>
	<stop  offset="0.8011" style="stop-color:#939090"/>
	<stop  offset="0.9236" style="stop-color:#6D6B6B"/>
	<stop  offset="1" style="stop-color:#555655"/>
</linearGradient>
<path fill="none" stroke="url(#SVGID_2_)" stroke-width="1.2" stroke-miterlimit="10" d="M111.52,14.684
	c2.493,1.205,5.868,2.33,9.848,3.787c8.725,3.197,11.27,3.658,11.27,5.94"/>
<linearGradient id="SVGID_3_" gradientUnits="userSpaceOnUse" x1="111.52" y1="14.6841" x2="111.52" y2="14.6841">
	<stop  offset="0" style="stop-color:#333333"/>
	<stop  offset="0.0655" style="stop-color:#565353"/>
	<stop  offset="0.1433" style="stop-color:#827E7E"/>
	<stop  offset="0.2188" style="stop-color:#ABA8A8"/>
	<stop  offset="0.2901" style="stop-color:#CCCBCB"/>
	<stop  offset="0.3557" style="stop-color:#E4E3E3"/>
	<stop  offset="0.41" style="stop-color:#EEEEEE"/>
	<stop  offset="0.4881" style="stop-color:#E3E3E3"/>
	<stop  offset="0.5825" style="stop-color:#CCCBCB"/>
	<stop  offset="0.6853" style="stop-color:#ABA8A8"/>
	<stop  offset="0.794" style="stop-color:#827E7E"/>
	<stop  offset="0.9062" style="stop-color:#565353"/>
	<stop  offset="1" style="stop-color:#333333"/>
</linearGradient>
<path fill="none" stroke="url(#SVGID_3_)" stroke-width="1.2" stroke-miterlimit="10" d="M111.52,14.684"/>
<linearGradient id="SVGID_4_" gradientUnits="userSpaceOnUse" x1="109.2383" y1="12.7866" x2="109.2383" y2="12.7866">
	<stop  offset="0" style="stop-color:#333333"/>
	<stop  offset="0.0655" style="stop-color:#565353"/>
	<stop  offset="0.1433" style="stop-color:#827E7E"/>
	<stop  offset="0.2188" style="stop-color:#ABA8A8"/>
	<stop  offset="0.2901" style="stop-color:#CCCBCB"/>
	<stop  offset="0.3557" style="stop-color:#E4E3E3"/>
	<stop  offset="0.41" style="stop-color:#EEEEEE"/>
	<stop  offset="0.4881" style="stop-color:#E3E3E3"/>
	<stop  offset="0.5825" style="stop-color:#CCCBCB"/>
	<stop  offset="0.6853" style="stop-color:#ABA8A8"/>
	<stop  offset="0.794" style="stop-color:#827E7E"/>
	<stop  offset="0.9062" style="stop-color:#565353"/>
	<stop  offset="1" style="stop-color:#333333"/>
</linearGradient>
<path fill="none" stroke="url(#SVGID_4_)" stroke-width="1.2" stroke-miterlimit="10" d="M109.238,12.787"/>
<path fill="none" stroke="#555655" stroke-width="1.2" stroke-miterlimit="10" d="M106.824,8.751c0,1.668,0.859,2.931,2.414,4.036"
	/>
<path fill="none" stroke="#555655" stroke-width="1.2" stroke-miterlimit="10" d="M129.556,29.011
	c1.849,1.12,3.081,2.387,3.081,3.845"/>
<linearGradient id="SVGID_5_" gradientUnits="userSpaceOnUse" x1="129.5562" y1="29.0112" x2="129.5562" y2="29.0112">
	<stop  offset="0" style="stop-color:#333333"/>
	<stop  offset="0.0554" style="stop-color:#535050"/>
	<stop  offset="0.1288" style="stop-color:#7F7B7B"/>
	<stop  offset="0.1995" style="stop-color:#A9A6A6"/>
	<stop  offset="0.2658" style="stop-color:#CBCACA"/>
	<stop  offset="0.3261" style="stop-color:#E3E2E3"/>
	<stop  offset="0.3749" style="stop-color:#EEEEEE"/>
	<stop  offset="0.4589" style="stop-color:#E4E3E3"/>
	<stop  offset="0.5585" style="stop-color:#CDCBCB"/>
	<stop  offset="0.666" style="stop-color:#ACA9A9"/>
	<stop  offset="0.7791" style="stop-color:#848080"/>
	<stop  offset="0.8953" style="stop-color:#585655"/>
	<stop  offset="1" style="stop-color:#333333"/>
</linearGradient>
<path fill="none" stroke="url(#SVGID_5_)" stroke-width="1.2" stroke-miterlimit="10" d="M129.556,29.011"/>
<linearGradient id="SVGID_6_" gradientUnits="userSpaceOnUse" x1="126.6704" y1="27.5503" x2="126.6704" y2="27.5503">
	<stop  offset="0" style="stop-color:#333333"/>
	<stop  offset="0.0554" style="stop-color:#535050"/>
	<stop  offset="0.1288" style="stop-color:#7F7B7B"/>
	<stop  offset="0.1995" style="stop-color:#A9A6A6"/>
	<stop  offset="0.2658" style="stop-color:#CBCACA"/>
	<stop  offset="0.3261" style="stop-color:#E3E2E3"/>
	<stop  offset="0.3749" style="stop-color:#EEEEEE"/>
	<stop  offset="0.4589" style="stop-color:#E4E3E3"/>
	<stop  offset="0.5585" style="stop-color:#CDCBCB"/>
	<stop  offset="0.666" style="stop-color:#ACA9A9"/>
	<stop  offset="0.7791" style="stop-color:#848080"/>
	<stop  offset="0.8953" style="stop-color:#585655"/>
	<stop  offset="1" style="stop-color:#333333"/>
</linearGradient>
<path fill="none" stroke="url(#SVGID_6_)" stroke-width="1.2" stroke-miterlimit="10" d="M126.67,27.55"/>
<linearGradient id="SVGID_7_" gradientUnits="userSpaceOnUse" x1="105.8599" y1="18.6655" x2="126.7648" y2="27.3517">
	<stop  offset="0" style="stop-color:#555655"/>
	<stop  offset="0.0375" style="stop-color:#686766"/>
	<stop  offset="0.1149" style="stop-color:#8F8C8C"/>
	<stop  offset="0.1896" style="stop-color:#B4B1B1"/>
	<stop  offset="0.2597" style="stop-color:#D0CFCF"/>
	<stop  offset="0.3234" style="stop-color:#E5E5E5"/>
	<stop  offset="0.3749" style="stop-color:#EEEEEE"/>
	<stop  offset="0.4635" style="stop-color:#E6E5E5"/>
	<stop  offset="0.5685" style="stop-color:#D2D1D1"/>
	<stop  offset="0.6818" style="stop-color:#B6B4B4"/>
	<stop  offset="0.8011" style="stop-color:#939090"/>
	<stop  offset="0.9236" style="stop-color:#6D6B6B"/>
	<stop  offset="1" style="stop-color:#555655"/>
</linearGradient>
<path fill="none" stroke="url(#SVGID_7_)" stroke-width="1.2" stroke-miterlimit="10" d="M106.824,17.787
	c0,2.512,5.454,4.571,11.27,6.624c2.623,0.926,5.838,1.943,8.576,3.14"/>
<g opacity="0.7">
	<line fill="none" stroke="#F47E20" stroke-width="1.2" stroke-miterlimit="10" x1="127.002" y1="2.672" x2="132.637" y2="4.771"/>
	<line fill="none" stroke="#D62C28" stroke-width="1.2" stroke-miterlimit="10" x1="121.368" y1="0.574" x2="127.002" y2="2.672"/>
	<line fill="none" stroke="#F9ED32" stroke-width="1.2" stroke-miterlimit="10" x1="121.707" y1="4.91" x2="129.563" y2="6.097"/>
	<line fill="none" stroke="#2DA048" stroke-width="1.2" stroke-miterlimit="10" x1="113.851" y1="3.725" x2="121.707" y2="4.91"/>
	<line fill="none" stroke="#2DA048" stroke-width="1.2" stroke-miterlimit="10" x1="117.106" y1="7.758" x2="127.002" y2="7.282"/>
	<line fill="none" stroke="#F9ED32" stroke-width="1.2" stroke-miterlimit="10" x1="107.21" y1="8.234" x2="117.106" y2="7.758"/>
	<line fill="none" stroke="#F47E20" stroke-width="1.2" stroke-miterlimit="10" x1="112.792" y1="11.472" x2="118.38" y2="10.397"/>
	
		<line fill="none" stroke="#D62C28" stroke-width="1.2" stroke-miterlimit="10" x1="108.079" y1="12.377" x2="112.792" y2="11.472"/>
	<path fill="none" stroke="#F47E20" stroke-width="1.2" stroke-miterlimit="10" d="M113.851,15.699"/>
	<path fill="none" stroke="#F47E20" stroke-width="1.2" stroke-miterlimit="10" d="M113.54,14.147"/>
	<path fill="none" stroke="#D62C28" stroke-width="1.2" stroke-miterlimit="10" d="M113.54,14.147"/>
	<path fill="none" stroke="#D62C28" stroke-width="1.2" stroke-miterlimit="10" d="M113.229,12.597"/>
	
		<line fill="none" stroke="#F9ED32" stroke-width="1.2" stroke-miterlimit="10" x1="113.851" y1="17.133" x2="119.731" y2="17.787"/>
	
		<line fill="none" stroke="#2DA048" stroke-width="1.2" stroke-miterlimit="10" x1="107.448" y1="16.421" x2="113.851" y2="17.133"/>
	
		<line fill="none" stroke="#D62C28" stroke-width="1.2" stroke-miterlimit="10" x1="117.106" y1="20.041" x2="126.221" y2="20.216"/>
	
		<line fill="none" stroke="#F47E20" stroke-width="1.2" stroke-miterlimit="10" x1="108.079" y1="19.868" x2="117.106" y2="20.041"/>
	<line fill="none" stroke="#F47E20" stroke-width="1.2" stroke-miterlimit="10" x1="122.629" y1="22.664" x2="131.67" y2="22.581"/>
	
		<line fill="none" stroke="#D62C28" stroke-width="1.2" stroke-miterlimit="10" x1="113.589" y1="22.746" x2="122.629" y2="22.664"/>
	
		<line fill="none" stroke="#F9ED32" stroke-width="1.2" stroke-miterlimit="10" x1="127.002" y1="25.118" x2="132.452" y2="25.105"/>
	
		<line fill="none" stroke="#2DA048" stroke-width="1.2" stroke-miterlimit="10" x1="120.187" y1="25.133" x2="127.002" y2="25.118"/>
	
		<line fill="none" stroke="#F47E20" stroke-width="1.2" stroke-miterlimit="10" x1="126.319" y1="30.741" x2="131.223" y2="30.226"/>
	
		<line fill="none" stroke="#D62C28" stroke-width="1.2" stroke-miterlimit="10" x1="121.368" y1="31.259" x2="126.319" y2="30.741"/>
	
		<line fill="none" stroke="#F47E20" stroke-width="1.2" stroke-miterlimit="10" x1="122.629" y1="34.122" x2="132.452" y2="33.694"/>
	<line fill="none" stroke="#D62C28" stroke-width="1.2" stroke-miterlimit="10" x1="112.769" y1="34.55" x2="122.629" y2="34.122"/>
	
		<line fill="none" stroke="#2DA048" stroke-width="1.2" stroke-miterlimit="10" x1="119.344" y1="37.215" x2="129.965" y2="37.424"/>
	
		<line fill="none" stroke="#F9ED32" stroke-width="1.2" stroke-miterlimit="10" x1="108.723" y1="37.005" x2="119.344" y2="37.215"/>
	
		<line fill="none" stroke="#F9ED32" stroke-width="1.2" stroke-miterlimit="10" x1="114.963" y1="39.625" x2="121.847" y2="41.068"/>
	
		<line fill="none" stroke="#2DA048" stroke-width="1.2" stroke-miterlimit="10" x1="108.079" y1="38.184" x2="114.963" y2="39.625"/>
	<path fill="none" stroke="#F9ED32" stroke-width="1.2" stroke-miterlimit="10" d="M128.813,28.069"/>
	<path fill="none" stroke="#F9ED32" stroke-width="1.2" stroke-miterlimit="10" d="M127.566,27.734"/>
	<path fill="none" stroke="#2DA048" stroke-width="1.2" stroke-miterlimit="10" d="M127.566,27.734"/>
	<linearGradient id="SVGID_8_" gradientUnits="userSpaceOnUse" x1="126.3188" y1="27.3999" x2="126.3188" y2="27.3999">
		<stop  offset="0" style="stop-color:#555655"/>
		<stop  offset="0.0375" style="stop-color:#686766"/>
		<stop  offset="0.1149" style="stop-color:#8F8C8C"/>
		<stop  offset="0.1896" style="stop-color:#B4B1B1"/>
		<stop  offset="0.2597" style="stop-color:#D0CFCF"/>
		<stop  offset="0.3234" style="stop-color:#E5E5E5"/>
		<stop  offset="0.3749" style="stop-color:#EEEEEE"/>
		<stop  offset="0.4635" style="stop-color:#E6E5E5"/>
		<stop  offset="0.5685" style="stop-color:#D2D1D1"/>
		<stop  offset="0.6818" style="stop-color:#B6B4B4"/>
		<stop  offset="0.8011" style="stop-color:#939090"/>
		<stop  offset="0.9236" style="stop-color:#6D6B6B"/>
		<stop  offset="1" style="stop-color:#555655"/>
	</linearGradient>
	<path fill="none" stroke="url(#SVGID_8_)" stroke-width="1.2" stroke-miterlimit="10" d="M126.319,27.4"/>
	<path fill="none" stroke="#B7B7B7" stroke-width="1.2" stroke-miterlimit="10" d="M113.695,17.116"/>
</g>
<path fill="none" stroke="#555655" stroke-width="1.2" stroke-miterlimit="10" d="M132.637,24.411c0,2.281-6.543,5.25-11.27,6.849
	c-4.727,1.597-13.289,4.642-13.289,6.925"/>
<path fill="none" stroke="#555655" stroke-width="1.2" stroke-miterlimit="10" d="M121.368,0.574c0,0-14.543,4.424-14.543,8.764"/>
<path fill="none" stroke="#555655" stroke-width="1.2" stroke-miterlimit="10" d="M132.637,4.771c0,0-4.361,2.284-11.27,4.567
	c-6.909,2.284-14.543,5.937-14.543,8.449"/>
<path fill="none" stroke="#555655" stroke-width="1.2" stroke-miterlimit="10" d="M132.637,32.856c0,3.111-1.863,3.73-2.672,4.568
	c0,0-8.118,3.857-8.259,3.905"/>
</svg>
